<?xml version="1.0" encoding="utf-8"?>
<!-- Generator: Adobe Illustrator 16.0.0, SVG Export Plug-In . SVG Version: 6.00 Build 0)  -->
<!DOCTYPE svg PUBLIC "-//W3C//DTD SVG 1.1//EN" "http://www.w3.org/Graphics/SVG/1.1/DTD/svg11.dtd">
<svg version="1.1" id="Capa_1" xmlns="http://www.w3.org/2000/svg" xmlns:xlink="http://www.w3.org/1999/xlink" x="0px" y="0px"
	 width="612px" height="792px" viewBox="0 0 612 792" enable-background="new 0 0 612 792" xml:space="preserve">
<g>
	<path fill-rule="evenodd" clip-rule="evenodd" d="M16.593,658.043c6.344,39.37,24.767,71.656,56.211,96.391
		c1.632,1.284,2.838,3.113,4.242,4.689l18.23,11.272c7.969,2.863,15.849,6.009,23.923,8.536c28.626,8.955,57.427,9.453,86.323,1.198
		c4.008-1.146,8.041-2.205,12.774-3.502c3.641-1.15,2.51-0.662,5.459-2.214c7.145-2.85,4.036-1.071,8.806-3.94
		c7.25-4.357,12.243-7.27,19.295-13.042c13.621-11.147,25.522-25.112,35.023-39.921c8.251-12.861,16.774-26.195,22.267-40.583
		c1.133-2.683,1.133-2.683,1.584-4.215c0.494-1.688,0.857-2.661,1.567-5.065c0.166-0.686,0.166-0.686,0.322-1.589
		c1.201-4.613,1.201-4.613,1.201-4.613c1.429-5.291,1.037-3.662,1.429-5.291c0.768-3.771-0.102,0.298,1.097-4.496
		c0.288-3.176,0.096-1.162,0.368-3.712c0.146-1.663,0.318-2.838,0.438-4.506c0.332-4.069,0.257-3.288,0.696-6.274
		c-1.163-36.549-21.434-82.278-53.097-112.534c67.572-118.471,134.604-235.997,201.682-353.601
		c9.886-5.107,19.768-10.389,25.022-20.999c9.033,3.91,13.776-0.799,13.722-13.035c-3.607-2.977-5.74,2.16-9.396,2.659
		c-0.17-12.631,8.095-18.51,15.299-24.997c8.746,4.131,13.5-0.327,14.188-11.034c-0.739-4.771-5.323-0.958-5.685-5.433
		c1.063-7.767,2.505-15.814,8.853-19.065c5.709-2.313,7.306,3.176,10.764,1.532c4.453-3.131,7.089-7.196,7.732-12.493
		c-7.954-21.299-23.252-30.213-45.451-27.5c-3.452,4.221-6.955,7.858-6.992,13.134c1.473,2.745,5.563,2.476,6.118,6.973
		c0.472,9.418-7.739,13.415-14.208,18.479c-3.544,0.902-3.802-4.647-7.411-3.248c-6.367,5.4-6.367,5.4-8.302,13.427
		c0.193,3.592,5.766,1.569,5.456,5.547c-4.468,16.73-5.651,18.433-15.244,21.882c-1.186-2.63,2.915-6.412-2.824-8.682
		c-5.815,3.098-9.475,7.938-9.364,13.936c0.951,3.973,4.999,1.681,4.932,5.661c-8.198,8.546-6.475,20.275-7.833,31.117
		c-75.289,112.602-150.491,225.071-225.924,337.885c-56.909-19.444-108.262-10.342-156.237,28.532c-1.513,1.714,0,0-1.513,1.714
		c-24.98,26.12-37.314,48.984-43.456,81.293c-2.647,13.926-1.97,25.768-2.795,39.394C15.822,648.755,16.618,657.002,16.593,658.043
		 M109.147,524.634c-4.293-0.358-4.302-3.189-5.705-7.827C108.434,519.028,109.524,521.008,109.147,524.634z M95.575,532.698
		c-4.243-0.217-4.726-2.874-4.855-7.085C95.207,527.236,96.275,529.338,95.575,532.698z M84.137,540.888
		c-4.856,0.806-5.83-1.738-7.138-4.728C81.105,534.857,82.342,537.5,84.137,540.888z M73.432,552.783
		c-3.923,0.901-5.54-0.997-7.148-5.363C70.428,547.722,72.673,548.773,73.432,552.783z M63.172,564.734
		c-3.835,0.042-5.748-0.953-7.185-4.994C60.199,558.796,61.534,560.643,63.172,564.734z M57.097,576.868
		c-4.94,1.568-7.212,0.877-9.264-2.279C51.231,572.118,53.241,574.315,57.097,576.868z M49.473,591.988
		c-4.204,1.066-6.503,0.505-7.77-3.051C45.237,586.764,47.189,588.743,49.473,591.988z M35.72,603.288
		c4.204-1.021,6.301-0.222,7.394,3.337C39.517,608.111,37.558,606.751,35.72,603.288z M33.71,621.011
		c3.203-3.924,5.595-2.365,9.319-0.606C39.304,623.567,36.911,623.115,33.71,621.011z M30.918,636.811
		c4.879-2.76,7.277-3.156,9.653-0.542C38.411,640.62,35.837,638.131,30.918,636.811z M34.073,653.61
		c0.994-4.843,4.225-3.182,7.021-2.511C39.326,653.95,37.125,655.255,34.073,653.61z M120.123,509.56
		c2.92,2.941,3.264,5.377,2.498,9.921C118.656,516.259,118.391,513.895,120.123,509.56z M37.818,669.798
		c0.514-5.853,4.202-3.712,8.323-5.019C43.571,670.582,40.692,669.382,37.818,669.798z M134.843,506.949
		c4.671,1.004,3.224,4.228,4.104,8.946C134.08,512.651,133.66,510.329,134.843,506.949z M150.155,503.168
		c4.719,0.871,3.496,4.295,3.969,8.278C149.256,509.089,149.111,506.584,150.155,503.168z M41.148,684.242
		c1.428-3.95,4.258-3.612,7.961-2.939C47.088,685.632,44.575,685.394,41.148,684.242z M167.441,503.598
		c4.122,2.319,1.805,4.661-0.225,8.393C165.024,508.285,164.806,505.869,167.441,503.598z M49.328,699.231
		c0.905-4.38,3.094-5.296,6.405-4.7C55.554,698.274,53.382,699.376,49.328,699.231z M182.735,504.587
		c3.999,2.35,2.417,4.81,1.104,8.854C180.362,509.492,181.288,507.353,182.735,504.587z M57.205,712.132
		c1.583-3.509,3.411-5.085,7.259-3.794C63.63,712.277,61.334,713.043,57.205,712.132z M199.737,507.137
		c2.353,3.445,0.706,5.208-2.004,7.279C196.106,511.086,196.549,508.973,199.737,507.137z M69.382,726.447
		c-0.831-1.058-1.609-1.604-1.553-2.044c0.432-3.325,2.175-5.072,5.674-4.993C73.964,723.584,70.969,724.332,69.382,726.447z
		 M214.385,513.022c1.664,4.324,1.132,6.228-1.856,7.259C209.6,517.258,212.278,515.77,214.385,513.022z M80.077,735.926
		c-0.099-3.899,1.769-5.366,4.948-6.963C85.937,733.792,84.102,735.285,80.077,735.926z M229.236,519.549
		c2.101,3.509,0.691,5.452-2.256,7.265C224.295,523.159,226.044,521.325,229.236,519.549z M91.932,745.86
		c-0.372-3.522,1.208-5.132,5.65-5.474C96.685,744.109,96,746.757,91.932,745.86z M243.294,528.993
		c0.328,3.27-1.049,4.934-4.478,6.268C237.63,530.855,239.638,529.719,243.294,528.993z M110.014,746.535
		c2.107,3.176-0.222,4.848-2.313,8.807C106.241,750.138,105.994,747.678,110.014,746.535z M255.977,539.211
		c-0.107,4.09-2.169,5.453-5.872,6.367C250.344,541.45,251.865,539.584,255.977,539.211z M121.759,759.94
		c-1.85-3.077,0.436-4.725,2.232-9.124C125.716,756.419,125.682,758.74,121.759,759.94z M251.512,724.803
		c3.73,0.381,5.802,1.173,5.762,5.04C253.806,730.48,252.483,728.811,251.512,724.803z M262.194,712.699
		c3.654-0.525,4.605,2.238,6.512,4.919C264.131,718.579,262.283,717.037,262.194,712.699z M280.3,702.546
		c-3.831,2.436-5.742,0.291-8.009-2.745C276.703,698.021,278.527,699.662,280.3,702.546z M286.172,687.646
		c-4.182,2.112-6.161,1.109-7.439-2.164C281.958,682.466,283.553,685.182,286.172,687.646z M291.878,673.112
		c-3.549,1.312-5.59,1.173-6.705-1.886C287.781,668.592,289.394,670.456,291.878,673.112z M296.632,656.321
		c-3.336,3.478-5.825,2.939-9.25,0.464C290.531,653.783,293.04,654.683,296.632,656.321z M296.78,641.28
		c-2.875,2.895-5.199,1.961-7.914-0.392C292.001,638.079,294.394,638.164,296.78,641.28z M268.117,550.26
		c-0.021,4.442-2.951,4.77-7.099,5.3C262.423,550.891,264.56,549.729,268.117,550.26z M137.459,765.629
		c-2.408-2.933-2.042-5.424,1.491-8.556C140.645,761.004,141.039,763.668,137.459,765.629z M277.258,564.616
		c-2.66,3.093-4.319,5.151-7.795,3.422C270.373,564.393,272.518,563.398,277.258,564.616z M153.833,767.097
		c-2.457-3.378-3.114-5.807,0.34-8.29C157.046,761.733,156.32,764.065,153.833,767.097z M284.031,576.615
		c0.293,4.738-2.29,5.508-6.057,6.026C278.057,578.157,280.712,577.681,284.031,576.615z M169.958,767.491
		c-0.637-0.238-1.515-0.298-1.681-0.674c-1.244-2.807-1.132-5.233,2.298-6.484C172.248,762.94,172.419,765.329,169.958,767.491z
		 M281.665,594.377c3.884-1.868,5.957-2.982,8.394-1.835c0.063,0.732,0.417,1.652,0.124,1.961
		C287.925,596.876,285.538,597.486,281.665,594.377z M183.977,757.69c3.662,2.29,3.741,4.716,2.441,8.827
		C182.898,763.543,182.513,761.257,183.977,757.69z M294.261,608.155c-0.94,4.533-3.996,3.605-7.858,3.58
		C288.375,606.952,290.99,607.455,294.261,608.155z M198.792,753.953c4.533,2.548,4.643,5,2.843,8.275
		C197.849,760.614,198.372,757.846,198.792,753.953z M298.803,624.338c-2.867,3.693-5.334,2.995-8.944,1.907
		C292.862,622.431,295.275,622.714,298.803,624.338z M213.325,751.053c4.307,0.108,5.117,2.484,4.67,6.164
		C213.996,756.981,213.17,754.616,213.325,751.053z M226.532,741.91c4.798,1.425,5.243,4.053,6.052,7.775
		C227.087,748.946,227.206,745.957,226.532,741.91z M240.882,734.13c3.671,1.777,5.374,3.427,3.696,6.814
		C241.003,740.5,240.329,738.3,240.882,734.13z"/>
</g>
</svg>
