<?xml version="1.0" encoding="utf-8"?>
<!-- Generator: Adobe Illustrator 16.0.0, SVG Export Plug-In . SVG Version: 6.00 Build 0)  -->
<!DOCTYPE svg PUBLIC "-//W3C//DTD SVG 1.1//EN" "http://www.w3.org/Graphics/SVG/1.1/DTD/svg11.dtd">
<svg version="1.1" id="Capa_1" xmlns="http://www.w3.org/2000/svg" xmlns:xlink="http://www.w3.org/1999/xlink" x="0px" y="0px"
	 width="612px" height="792px" viewBox="0 0 612 792" enable-background="new 0 0 612 792" xml:space="preserve">
<path fill-rule="evenodd" clip-rule="evenodd" d="M107.521,778.74c-1.54,1.604-2.895,3.022-3.987,4.162
	c-2.209,0.827-3.66-0.073-5.155-0.914c-6.158-3.458-12.333-6.889-18.502-10.331c-6.917-3.862-6.917-3.862-5.343-11.548
	c-34.335-26.347-54.946-60.998-60.274-104.24c-3.972-32.238,2.411-62.626,17.975-91.095c29.908-54.711,97.112-90.707,169.972-73.162
	c4.234-7.584,8.5-15.516,13.035-23.289c12.508-21.448,25.168-42.808,37.693-64.247c10.529-18.021,20.909-36.13,31.43-54.157
	c20.854-35.731,41.769-71.428,62.645-107.147c15.461-26.455,30.887-52.929,46.355-79.378c4.419-7.556,8.889-15.085,13.431-22.568
	c1.371-2.259,2.193-4.463,1.645-7.169c-1.322-6.54,1.632-12.119,4.551-18.029c-5.495-0.903-9.556-3.256-9.794-9.242
	c-0.147-3.727,1.532-6.578,4.98-8.136c4.46-2.014,8.253-0.9,11.418,3.339c1.886-3.381,3.543-6.348,5.389-9.656
	c-5.493-0.152-9.557-2.217-10.357-7.913c-0.567-4.045,1.369-7.146,4.885-9.096c3.788-2.101,6.919-1.092,11.996,3.717
	c2.483-2.751,4.073-5.863,4.753-9.71c-4.698-1.167-8.59-3.189-8.939-8.626c-0.25-3.897,1.375-6.94,4.895-8.656
	c4.232-2.064,7.937-0.8,11.095,2.426c2.978-5.333,5.977-10.507,8.785-15.783c3.849-7.228,7.459-14.582,11.347-21.787
	c2.602-4.822,4.614-5.431,9.678-3.349c1.823,0.749,3.583,1.672,5.308,2.634c17.158,9.554,34.305,19.126,51.442,28.716
	c1.599,0.894,3.184,1.841,4.656,2.926c4.275,3.153,4.924,5.54,2.23,10.079c-6.339,10.68-12.861,21.25-19.295,31.875
	c-0.868,1.434-1.643,2.923-2.604,4.646c4.904,1.277,8.355,3.911,8.403,9.215c0.033,3.684-1.863,6.556-5.187,8.1
	c-4.672,2.169-8.416,0.142-11.858-3.585c-1.821,3.263-3.502,6.275-5.306,9.503c4.339,1.769,9.414,2.993,9.121,9.263
	c-0.168,3.59-2.069,5.97-5.299,7.481c-5.127,2.397-8.96,0.52-12.188-4.133c-1.844,3.299-3.396,6.082-5.091,9.119
	c5.208,1.006,8.586,3.926,8.726,9.271c0.093,3.598-1.842,6.593-5.2,8.074c-4.849,2.138-8.699,0.117-12.075-4.051
	c-1.515,2.23-2.914,4.146-4.155,6.158c-0.98,1.587-1.998,3.452-3.612,4.056c-10.326,3.865-13.233,13.696-17.749,22.052
	c-14.292,26.458-28.287,53.078-42.384,79.645c-14.427,27.188-28.806,54.403-43.263,81.576c-11.54,21.69-23.2,43.317-34.749,65.003
	c-14.782,27.761-29.494,55.561-44.266,83.327c-5.572,10.475-11.239,20.898-16.831,31.361c-0.719,1.343-1.826,2.537-1.872,4.162
	c55.783,55.574,55.279,135.044,23.74,187.185C258.382,775.305,178.183,808.852,107.521,778.74z M201.585,520.477
	C146.454,501.327,78.428,527.44,51.35,587.92c-26.356,58.865-0.133,118.612,32.479,143.409c1-3.294,2.016-6.489,2.934-9.713
	c0.967-3.396,2.992-4.248,6.074-2.656c1.692,0.872,3.33,1.847,5.516,3.067c3.377-11.826,8.118-22.468,10.87-33.695
	c-6.254-4.405-7.962-7.776-6.258-12.108c1.814-4.61,4.606-5.707,12.208-4.805C143.92,621.202,172.665,570.996,201.585,520.477z
	 M150.605,711.334c-3.885,4.677-8.104,8.764-11.582,13.565c-3.417,4.721-7.369,9.051-11.138,13.616
	c1.626,0.908,2.826,1.588,4.035,2.252c4.583,2.518,4.873,4.076,1.484,8.077c-1.974,2.331-3.95,4.661-6.009,7.092
	c48.306,17.107,114.873-1.488,145.973-59.188c29.457-54.653,11.771-119.083-28.285-151.855
	c-27.676,50.889-55.312,101.702-82.863,152.36c4.373,5.216,5.053,9.508,2.29,12.886
	C161.656,713.628,156.608,714.153,150.605,711.334z M453.411,65.97c2.809-5.031,5.306-9.605,7.899-14.123
	c2.178-3.786,4.936-4.67,8.907-3.019c5.08,2.113,6.857,6.929,4.31,12.277c-2.126,4.458-4.455,8.823-6.78,13.183
	c-4.771,8.95-9.601,17.869-14.409,26.799c-6.078,11.284-12.073,22.613-18.302,33.814c-1.571,2.824-3.703,5.671-7.795,3.57
	c-3.815-1.959-5.008-4.917-3.401-9.211c1.411-3.774,3.103-7.443,4.693-11.21c-2.784-1.47-4.695-3.798-7.688-3.845
	c-6.476,8.618-7.752,17.943-4.771,28.114c1.06,3.622,2.779,6.353,6.109,8.175c7.436,4.071,14.813,8.251,22.22,12.376
	c1.868,1.041,3.822,1.839,6.02,1.773c10.174-0.303,22.582-10.116,25.36-20.035c-2.42-1.351-4.831-2.698-7.388-4.125
	c-2.526,3.829-4.679,7.659-7.706,10.809c-2.618,2.722-6.145,2.911-9.207,0.69c-2.983-2.163-2.355-4.98-0.941-7.565
	c4.874-8.916,9.833-17.788,14.906-26.592c4.489-7.789,9.28-15.404,13.742-23.208c4.56-7.969,8.984-16.013,14.136-23.623
	c2.168-3.201,5.082-4.919,9.041-3.967c5.82,1.398,7.838,6.269,5.034,11.687c-2.31,4.456-5.857,8.192-7.813,13.08
	c2.441,1.509,4.467,3.228,7.297,3.576c6.087-9.853,12.217-19.5,18.052-29.322c3.626-6.104,2.959-8.945-3.203-12.467
	c-15.701-8.973-31.496-17.783-47.378-26.43c-6.136-3.341-8.569-2.466-11.912,3.766c-4.199,7.836-8.127,15.819-12.168,23.741
	c-1.265,2.48-2.722,4.883-3.36,7.688C449.218,63.629,451.384,64.839,453.411,65.97z M211.39,502.716
	c-69.614-24.859-150.475,7.447-180.542,82.559c-28.957,72.334,7.943,141.01,46.534,166.476c1.134-3.641,2.254-7.235,3.332-10.692
	C31.446,700.899,18.003,631.255,47.951,575.54c13.318-24.775,32.731-43.729,58.254-55.905c32.268-15.397,65.626-17.712,99.671-7.043
	C207.834,509.083,209.604,505.915,211.39,502.716z M113.286,772.189c55.664,23.289,138.962,6.488,177.888-66.384
	c36.561-68.446,9.896-143.803-36.173-178.421c-1.814,3.25-3.631,6.505-5.398,9.669c46.824,40.169,58.962,104.095,35.004,156.078
	c-12.38,26.859-31.467,47.784-57.711,61.584c-34.024,17.895-69.549,20.489-106.062,8.606
	C118.223,766.389,115.801,769.232,113.286,772.189z M215.709,526.082c-28.555,51.146-57.131,102.333-85.874,153.815
	c2.197,0.954,4.053,3.021,6.834,3.232c28.656-51.325,57.253-102.547,85.948-153.945
	C220.414,528.032,218.628,526.663,215.709,526.082z M147.21,689.478c28.766-51.526,57.315-102.662,85.913-153.884
	c-2.411-1.909-4.253-3.289-6.522-3.813c-28.695,51.396-57.255,102.554-85.888,153.839
	C142.779,687.422,145.031,688.486,147.21,689.478z M126.011,677.558c28.529-51.101,57.05-102.188,85.666-153.442
	c-1.747-1.11-3.791-1.758-6.095-2.217c-29.059,50.703-57.994,101.189-87.027,151.846
	C120.628,675.586,122.799,676.961,126.011,677.558z M102.003,775.907c8.541-9.852,17-19.608,25.559-29.48
	c-12.112-6.763-23.876-13.329-35.967-20.079c-3.955,12.632-7.809,24.941-11.659,37.239
	C87.452,767.784,94.559,771.752,102.003,775.907z M237.025,538.274c-28.667,51.348-57.137,102.342-85.725,153.548
	c2.722,1.509,4.488,3.136,7.25,3.463c27.771-51.094,55.529-102.163,83.218-153.107C240.107,540.295,238.641,539.005,237.025,538.274
	z M429.509,131.513c2.391-0.496,2.788-2.157,3.522-3.455c5.342-9.402,10.166-19.091,15.172-28.663
	c6.623-12.664,12.871-25.539,19.491-38.218c0.896-1.716,1.888-3.51,0.664-5.64c-3.464-0.72-4.261,2.029-5.283,4.213
	c-5.171,11.038-10.766,21.867-15.997,32.878c-5.056,10.643-10.229,21.243-15.289,31.891
	C430.808,126.584,429.435,128.64,429.509,131.513z M456.486,146.983c4.023-3.694,6.781-7.779,8.979-11.93
	c5.025-9.49,11.945-17.71,17.2-27.053c5.647-10.043,12.245-19.551,18.337-29.349c0.912-1.466,2-3.256-0.033-4.829
	C497.147,74.987,456.761,140.813,456.486,146.983z M301.802,431.846c7.153-13.234,15.022-25.959,21.38-39.54
	c-1.895-1.163-3.228-2.457-5.055-2.523c-7.316,13.106-14.558,26.078-21.698,38.866C297.861,430.896,299.715,431.354,301.802,431.846
	z M248.213,460.654c6.931-12.415,13.753-24.636,20.603-36.903c-1.825-1.172-3.25-2.601-5.727-2.506
	c-6.725,12.045-13.487,24.157-20.308,36.376C244.609,458.641,246.266,459.566,248.213,460.654z M400.233,240.836
	c-8.207,14.699-16.269,29.137-24.312,43.544c1.66,1.287,2.835,2.253,4.145,2.336c8.173-14.638,16.236-29.082,24.234-43.407
	C402.858,241.902,401.646,241.236,400.233,240.836z M317.632,326.119c-7.585,13.586-15.04,26.939-22.56,40.408
	c1.408,0.786,2.939,1.642,4.7,2.624c7.823-13.402,15.766-26.476,22.748-39.968C321.269,327.605,319.772,327.137,317.632,326.119z
	 M344.896,341.281c-7.635,13.675-15.093,27.033-22.724,40.702c2.083,0.847,3.327,2.316,4.992,2.303
	c7.553-13.529,14.96-26.796,22.318-39.977C348.135,342.567,346.509,342.063,344.896,341.281z M290.156,373.656
	c-7.016,13.713-15.613,26.19-22.035,39.893c1.833,1.219,3.265,2.024,5.155,2.369c8.304-12.508,14.592-26.155,22.42-38.953
	C294.297,375.293,292.518,374.538,290.156,373.656z M350.084,280.014c-1.438-0.999-2.625-2.003-4.701-2.205
	c-7.589,13.593-15.252,27.317-22.95,41.107c1.271,1.017,2.521,2.128,4.763,2.094C334.721,307.533,342.318,293.924,350.084,280.014z
	 M292.299,437.03c-6.871,12.307-13.705,24.547-20.571,36.846c1.986,1.192,3.479,2.475,5.06,2.742
	c7.029-12.59,13.872-24.846,20.604-36.903C295.861,437.507,293.996,437.383,292.299,437.03z M298.933,379.124
	c-7.27,13.021-14.558,26.075-21.873,39.178c2.135,1.345,3.486,3.197,5.837,2.859c0.193-0.128,0.355-0.177,0.416-0.284
	c2.474-4.412,4.939-8.83,7.403-13.248c-3.125-5.917-1.454-10.534,6.859-11.464c2.259-4.627,5.526-8.911,7.221-13.991
	C302.948,380.742,301.366,379.65,298.933,379.124z M300.62,398.031c3.314,7.099,1.638,10.105-5.979,11.464
	c-2.625,4.702-5.215,9.342-7.792,13.956c1.767,1.947,3.531,3.153,6.096,3.122c6.867-13.234,15.079-25.696,21.148-39.281
	c-1.908-1.064-3.464-1.933-5.17-2.886C305.331,388.526,303.463,393.459,300.62,398.031z M371.839,282.29
	c8.253-14.785,16.273-29.15,24.226-43.394c-1.296-1.616-2.682-2.236-4.407-2.733c-2.999,5.372-6.009,10.762-9.035,16.182
	c2.854,6.481,0.632,10.107-6.327,11.539c-3.019,5.407-5.945,10.649-8.893,15.929C369.033,280.724,370.375,281.473,371.839,282.29z
	 M326.467,331.01c-7.604,13.618-15.051,26.958-22.524,40.345c1.563,1.383,3.145,2.44,5.298,2.815
	c2.755-4.935,5.483-9.821,8.196-14.68c-2.927-6.151-1.045-10.431,6.494-11.812c2.59-4.639,5.107-9.147,7.697-13.787
	C329.944,332.951,328.503,332.146,326.467,331.01z M372.145,261.449c-3.074-5.858-0.955-10.318,6.522-11.733
	c3.004-5.38,5.938-10.635,8.867-15.882c-1.506-1.184-2.783-2.27-4.836-2.355c-8.037,14.396-16.101,28.84-24.173,43.3
	c1.581,1.104,2.882,2.162,4.833,2.408C366.279,271.956,369.209,266.708,372.145,261.449z M372.014,292.226
	c-7.869,14.095-15.52,27.798-23.179,41.518c1.724,1.103,2.944,2.351,4.4,2.224c7.793-13.959,15.436-27.649,23.079-41.341
	C374.551,293.642,373.345,292.969,372.014,292.226z M374.555,226.829c-8.125,14.555-16.18,28.98-24.329,43.577
	c1.702,0.669,2.734,2.024,4.619,1.795c8.014-14.353,16.022-28.697,24.007-42.999C377.817,227.82,376.584,227.258,374.555,226.829z
	 M255.03,516.873c6.041-10.821,12.047-21.58,18.056-32.342c-1.892-1.446-3.438-2.621-5.505-2.93
	c-5.895,10.561-11.764,21.072-17.598,31.522C251.557,514.903,253.043,516.12,255.03,516.873z M272.729,425.959
	c-6.962,12.471-13.786,24.693-20.578,36.859c2.067,1.152,3.862,2.155,5.809,3.243c2.72-4.872,5.314-9.521,7.924-14.194
	c-3.05-6.542-0.692-10.685,6.528-11.779c2.018-3.614,3.993-7.151,5.966-10.685C276.927,427.69,275.094,426.995,272.729,425.959z
	 M267.486,471.469c6.995-12.529,13.815-24.746,20.648-36.984c-1.971-1.266-3.472-2.555-5.895-2.805
	c-0.992,1.775-2.009,3.6-3.028,5.423c-1.023,1.835-2.048,3.67-2.974,5.328c3.13,6.703,0.578,10.459-6.305,11.801
	c-2.66,4.763-5.248,9.399-7.918,14.185C263.915,469.476,265.6,470.416,267.486,471.469z M318.16,379.447
	c7.601-13.614,15.104-27.054,22.622-40.521c-1.929-1.068-3.179-2.273-5.153-2.443c-2.587,4.633-5.176,9.271-7.743,13.869
	c2.772,6.519,1.105,9.398-6.317,11.498c-2.84,5.085-5.564,9.965-8.3,14.866C315.102,377.738,316.667,378.612,318.16,379.447z
	 M282.08,369.482c-7.249,12.985-14.59,26.136-21.988,39.386c1.451,1.013,2.453,2.676,5.208,1.315
	c6.913-12.382,14.144-25.334,21.391-38.314C285.661,370.548,284.339,369.875,282.08,369.482z M354.617,302.266
	c3.157,6.621,0.299,10.495-6.317,11.679c-2.803,5.021-5.53,9.907-8.269,14.811c1.704,1.158,3.016,2.473,4.836,2.427
	c7.7-13.792,15.308-27.416,22.949-41.105c-1.603-1.35-3.019-2.363-4.925-2.632C360.124,292.402,357.45,297.19,354.617,302.266z
	 M353.977,282.169c-7.811,13.991-15.418,27.617-23.03,41.253c1.35,1.644,2.976,2.336,4.969,2.873
	c2.735-4.898,5.467-9.792,8.233-14.748c-3.12-7.013-0.186-10.639,6.529-11.711c2.772-4.966,5.502-9.854,8.305-14.874
	C357.324,284.038,355.885,283.234,353.977,282.169z M247.668,484.185c2.132-3.817,4.023-7.204,5.926-10.613
	c-2.065-1.455-3.838-2.765-6.126-3.166c-5.921,10.606-11.713,20.981-17.521,31.383c2.083,1.462,3.93,2.721,6.442,2.922
	c1.69-3.027,3.392-6.076,5.088-9.128C238.517,488.844,240.519,485.229,247.668,484.185z M238.112,465.07
	c-6.09,10.907-12.043,21.571-18.159,32.525c2.033,0.905,3.828,1.903,6.174,2.098c5.882-10.534,11.701-20.958,17.649-31.611
	C242.255,466.861,240.611,465.87,238.112,465.07z M240.271,507.141c1.801,1.627,3.514,3.131,6.288,3.453
	c5.602-10.66,12.067-20.697,16.927-31.675c-2.021-1.194-3.677-2.453-5.82-2.945c-2.034,3.643-3.946,7.065-5.821,10.426
	c2.714,6.857,1.129,9.638-6.502,11.655C243.686,501.024,242.045,503.963,240.271,507.141z M277.008,486.823
	c-6.117,10.958-12.212,21.874-18.377,32.918c1.549,1.404,2.875,2.607,4.189,3.8c6.421-11.501,12.706-22.757,18.926-33.898
	C280.208,487.953,278.794,487.154,277.008,486.823z M326.962,394.75c-7.943,12.788-14.339,26.187-21.485,39.071
	c1.348,1.533,2.602,2.292,4.577,2.513c6.932-13.121,14.427-26.022,20.688-39.486C329.728,395.589,328.68,395.013,326.962,394.75z
	 M285.198,481.398c6.976-12.495,13.742-24.614,20.431-36.595c-1.418-1.739-2.639-2.51-4.039-2.497
	c-6.906,12.371-13.72,24.574-20.534,36.78C282.799,480.058,284.007,480.733,285.198,481.398z M238.856,455.51
	c6.965-12.475,13.752-24.631,20.578-36.858c-1.08-1.042-2.082-2.206-4.293-2.725c-6.842,12.256-13.741,24.611-20.718,37.108
	C235.692,453.744,237.025,454.488,238.856,455.51z M234.285,462.715c-1.541-1.045-2.852-2.021-4.995-2.458
	c-6.277,11.245-12.533,22.45-18.971,33.982c1.896,0.567,3.568,1.069,5.456,1.632C221.972,484.77,227.992,473.988,234.285,462.715z
	 M353.669,346.29c-7.604,13.619-15.048,26.953-22.454,40.218c1.319,1.276,2.386,2.113,3.436,2.073
	c7.596-13.605,15.032-26.925,22.329-39.994C355.827,347.063,354.855,346.577,353.669,346.29z M291.403,364.04
	c7.468-13.378,14.922-26.727,22.366-40.061c-1.092-0.823-1.913-1.611-3.555-1.563c-7.746,12.979-15.729,26.031-23.066,39.694
	C288.445,363.002,289.34,363.849,291.403,364.04z M380.494,297.062c-7.827,14.019-15.484,27.734-23.126,41.422
	c1.492,1.007,2.393,2.022,2.98,1.792c7.955-14.248,15.544-27.842,22.947-41.103C382.261,297.566,381.371,297.223,380.494,297.062z
	 M481.783,118.434c-3.271,5.856-6.443,11.538-9.779,17.515c2.74,0.71,4.325,3.647,7.67,3.422c4.072-4.964,6.24-11.198,10.653-15.93
	C488.161,120.315,484.905,120.044,481.783,118.434z M432.007,90.619c-2.525,6.182-5.716,11.76-8.824,17.391
	c2.362,2.438,4.899,3.979,8.22,4.623c2.957-5.932,5.868-11.772,8.773-17.599C437.614,92.935,435.395,91.258,432.007,90.619z
	 M421.763,201.491c-5.972,10.696-11.722,20.996-17.462,31.277c1.229,1.373,2.437,2.207,3.863,2.286
	c5.881-10.532,11.676-20.911,17.518-31.375C424.165,202.831,423.072,202.221,421.763,201.491z M396.878,187.845
	c-5.552,10.805-12.356,20.637-17.514,31.606c1.75,0.642,2.687,1.93,4.583,1.592c5.688-10.187,11.435-20.481,17.162-30.739
	C400.064,189.005,398.802,188.458,396.878,187.845z M318.685,316.384c7.571-13.563,15.235-27.289,22.906-41.03
	c-0.827-0.782-1.651-1.531-3.654-1.204c-7.391,13.236-14.993,26.854-22.688,40.637C315.796,315.731,316.83,316.276,318.685,316.384z
	 M443.844,67.517c-2.956,5.896-5.889,11.748-8.957,17.87c2.658,1.474,4.837,3.194,7.527,3.839c4.099-5.602,6.199-11.99,9.518-17.854
	C449.295,69.569,446.843,68.597,443.844,67.517z M503.29,100.522c-2.126-1.573-4.274-2.824-6.851-3.776
	c-4.447,5.074-7.399,11.022-10.863,16.951c2.729,1.524,5.118,2.857,7.897,4.409C496.753,112.231,499.93,106.541,503.29,100.522z
	 M370.772,224.268c-3.371-1.952-3.933,0.98-4.809,2.448c-4.194,7.005-8.21,14.118-12.236,21.221
	c-3.446,6.08-6.821,12.199-10.251,18.34c0.724,0.768,1.515,1.532,3.251,1.061C354.591,253.252,362.597,238.914,370.772,224.268z
	 M132.153,700.957c-5.702,10.212-11.277,20.198-16.882,30.239c2.527,2.085,3.47,0.345,4.579-1.104c3.332-4.35,5.49-9.51,9.29-13.523
	c3.513-3.712,5.092-8.585,8.392-12.612C135.488,702.818,133.905,701.935,132.153,700.957z M408.361,245.625
	c-8.194,14.679-16.207,29.03-24.169,43.291c1.188,1.104,1.991,1.906,2.504,1.768c8.309-14.882,16.33-29.25,24.17-43.294
	C409.968,245.938,409.274,245.57,408.361,245.625z M405.1,192.174c-5.964,10.681-11.751,21.045-17.521,31.382
	c1.405,1.298,2.613,2.181,4.67,2.308c0.742-1.329,1.551-2.777,2.359-4.225c0.89-1.594,1.779-3.187,2.607-4.671
	c-3.145-7.746,0.11-11.036,6.414-12.072c1.945-3.484,3.832-6.864,5.764-10.325C407.91,193.744,406.695,193.065,405.1,192.174z
	 M108.54,727.386c2.001,1.907,2.859,0.769,3.709-0.766c4.131-7.459,7.764-15.197,12.805-22.146c1.268-1.746,2.702-3.618,2.719-6.248
	c-1.679-0.819-3.375-1.645-5.312-2.585C117.708,706.479,113.107,716.971,108.54,727.386z M405.622,182.56
	c4.769-8.542,9.331-16.715,13.96-25.006c-1.29-0.928-2.314-1.863-4.162-1.965c-4.55,8.152-9.165,16.417-13.807,24.733
	C402.968,181.078,404.062,181.689,405.622,182.56z M439.828,169.006c-4.65,8.331-9.264,16.594-13.881,24.864
	c1.459,0.907,2.472,1.95,4.003,1.853c4.585-8.212,9.143-16.373,13.749-24.626C442.352,170.046,441.331,169.141,439.828,169.006z
	 M401.255,218.96c-1.74,3.117-3.441,6.165-5.282,9.461c1.437,0.876,2.456,2.039,4.27,2.09c5.805-10.399,11.609-20.796,17.422-31.208
	c-1.583-1.041-2.655-2.253-4.478-1.975c-1.854,3.322-3.702,6.634-5.51,9.87C410.18,214.653,408.723,217.235,401.255,218.96z
	 M146.547,708.998c-1.442-1.998-2.885-2.89-5.272-2.663c-5.139,9.018-11.729,17.251-17.737,25.893
	c-0.709,1.019-1.804,2.222-0.077,3.897C131.263,726.957,138.917,717.962,146.547,708.998z M113.889,690.514
	c-4.017,11.313-7.946,22.489-11.212,33.862c0.531,0.188,1.063,0.374,1.594,0.559c4.807-10.598,9.613-21.195,14.393-31.732
	C117.161,691.69,115.987,690.761,113.889,690.514z M393.238,185.87c-0.981-0.962-1.884-1.587-2.269-1.029
	c-6.766,9.81-12.247,20.356-18.122,30.68c0.766,0.483,1.529,0.967,2.294,1.451C381.611,206.945,387.301,196.411,393.238,185.87z
	 M421.853,191.475c4.715-8.443,9.272-16.607,13.787-24.692c-1.189-1.336-2.33-2.052-3.906-2.229
	c-1.645,1.743-2.517,3.958-3.577,5.995c3.305,7.732-0.063,10.327-6.329,11.593c-1.332,2.387-2.612,4.682-3.861,6.917
	C418.995,190.444,420.308,190.899,421.853,191.475z M431.975,207.544c-2.008-1.966-2.803-1.234-3.54,0.093
	c-5.467,9.827-10.954,19.641-16.259,29.144c1.01,1.556,1.701,2.135,2.402,1.922C420.495,228.104,426.235,217.823,431.975,207.544z
	 M427.707,162.026c-1.524-0.996-2.564-1.954-4.304-2.043c-4.565,8.177-9.135,16.362-13.717,24.57
	c1.257,1.231,2.445,2.104,4.233,2.179c1.292-2.313,2.578-4.616,3.828-6.856c-2.611-7.177-0.973-10.065,6.527-11.7
	C425.357,166.235,426.441,164.295,427.707,162.026z M232.339,511.974c-2.082-1.881-4.383-2.31-6.442-3.252
	c-1.859,3.329-3.543,6.348-5.223,9.356c2.177,1.215,4.17,2.327,6.295,3.516C228.804,518.304,230.491,515.285,232.339,511.974z
	 M237.113,527.39c1.89-3.385,3.57-6.395,5.439-9.744c-2.353-0.814-3.608-2.956-6.164-3.362c-1.787,3.201-3.531,6.323-5.305,9.503
	C232.901,525.457,234.872,526.429,237.113,527.39z M450.671,172.41c-1.869-0.776-2.852-0.689-3.518,0.568
	c-4.203,7.937-8.408,15.873-12.63,23.799c-0.88,1.651-0.11,2.213,1.191,2.423C440.718,190.239,445.625,181.449,450.671,172.41z
	 M245.935,534.247c1.996-3.574,3.751-6.719,5.585-10.004c-1.782-1.453-3.188-3.171-5.178-3.838
	c-1.957,3.507-3.767,6.748-5.563,9.965C242.575,531.719,244.021,532.808,245.935,534.247z M215.839,504.169
	c-1.938,3.471-3.694,6.617-5.62,10.067c2.095,0.846,3.977,1.607,6.026,2.434c2.153-3.354,4.096-6.533,5.569-10.238
	C219.804,505.67,217.986,504.981,215.839,504.169z M411.666,150.764c-6.22,8.317-11.355,17.106-16.109,25.958
	c1.281,1.229,2.198,1.34,2.804,0.177C402.894,168.205,408.941,160.272,411.666,150.764z"/>
</svg>
