<?xml version="1.0" encoding="utf-8"?>
<!-- Generator: Adobe Illustrator 16.0.0, SVG Export Plug-In . SVG Version: 6.00 Build 0)  -->
<!DOCTYPE svg PUBLIC "-//W3C//DTD SVG 1.1//EN" "http://www.w3.org/Graphics/SVG/1.1/DTD/svg11.dtd">
<svg version="1.1" id="Capa_1" xmlns="http://www.w3.org/2000/svg" xmlns:xlink="http://www.w3.org/1999/xlink" x="0px" y="0px"
	 width="612px" height="792px" viewBox="0 0 612 792" enable-background="new 0 0 612 792" xml:space="preserve">
<path fill-rule="evenodd" clip-rule="evenodd" d="M323.838,576.052c-6.141-2.914-12.111-6.482-18.198-9.846
	c-5.893-3.256-9.924-9.757-17.508-10.327c-6.444-4.264-8.751-12.797-16.515-17.341c-7.577,8.119-15.985,15.271-21.86,24.104
	c-3.66,5.503-4.223,13.436-3.816,20.658c0.043,0.768,0.353,1.525,0.355,2.287c0.01,3.194,1.145,6.916-2.658,8.759
	c-3.454,1.675-5.752-0.91-8.346-3.037c0.402-3.232,1.358-6.094,3.614-8.773c3.664-4.353,3.369-10.164,4.446-15.369
	c0.947-4.573,2.806-8.217,6.004-11.522c6.024-6.226,11.822-12.669,18.341-19.698c-30.417-18.047-37.599-46.224-34.764-78.549
	c-4.057-0.295-6.64,1.48-9.684,2.705c-1.833,7.196-0.769,14.582-1.114,21.856c-0.413,8.69,0.467,17.481-0.452,26.097
	c-0.949,8.906,2.516,15.698,7.538,22.492c5.089-0.225,9.201,2.073,13.131,5.069c-0.636,3.442-4.194,4.624-5.415,7.885
	c0.861,3.645,5.132,6.765,3.067,11.67c-3.509,1.389-6.871,1.055-9.351-1.94c-2.322-2.803-2.699-5.99,0.461-8.623
	c-2.25-5.69-5.358-9.706-10.903-12.354c-10.254-4.899-20.109-10.633-30.475-16.204c-11.018,10.323-21.854,20.503-32.719,30.649
	c-7.846,7.327-13.45,7.991-22.758,2.835c-16.227-8.992-32.463-17.968-49.022-27.132c-4.656,4.444-9.247,8.825-13.932,13.298
	c0.377,1.991,0.842,3.83,1.052,5.699c0.341,3.031-0.649,5.52-3.893,6.144c-2.612,0.503-5.663,1.105-7.345-1.791
	c-1.614-2.779-1.163-5.646,1.245-7.909c3.925-3.688,7.943-7.279,11.582-11.457c-21.224,8.262-42.781,15.715-60.809,30.54
	C8.75,558.75,3,552.25,4.98,551.171c27.295-12.27,54.037-24.291,81.091-36.452c0.014-30.947-0.274-61.633,1.126-91.181
	c-4.625-5.224-7.648,1.11-11.45-0.226c-0.783-4.471-0.556-8.852-0.208-13.156c3.828-2.717,6.024,5.366,10.428,0.226
	c0-25.091,0-51.14,0-77.827c17.649-3.619,35.153-4.149,52.337-5.302c1.771-2.541,0.955-4.766,0.971-6.57
	c-2.868-2.622-3.964,0.027-5.74,1.456c-0.678-3.612-0.673-6.761,0.045-10.68c2.189,3.773,4.813,3.265,7.723,1.946
	c0-21.981,0-44.018,0-66.588c-10.338-2.26-20.679-4.385-30.951-6.796c-14.493-3.405-28.843-7.306-42.257-13.993
	c-3.831-1.91-7.444-4.183-10.369-7.332c-5.571-5.999-4.509-12.38,2.683-16.173c5.754-3.035,12.1-3.99,18.45-4.581
	c26.372-2.455,52.505,0.034,78.542,4.111c19.479,3.05,38.805,6.806,57.507,13.236c7.146,2.458,14.086,5.376,20.33,9.719
	c2.713,1.888,5.189,4.05,7.005,6.865c4.413,6.84,2.803,12.788-4.63,16.032c-9.626,4.2-20.002,4.289-30.201,4.485
	c-17.999,0.347-35.927-0.992-53.712-3.95c-1.493-0.247-3.035-0.206-5.786-0.376c0.837,26.164-1.867,52.02,2.743,78.684
	c19.273-0.19,38.875,0.47,59.288,2.66c-0.544-8.292-1.018-15.906-1.549-23.517c-0.605-8.677-1.137-17.362-1.929-26.023
	c-0.901-9.857,4.014-16.107,12.173-20.486c8.138-4.367,17.016-6.386,26.042-7.485c28.605-3.482,57.104-3.538,85.201,3.978
	c6.558,1.753,13.018,3.908,17.306,10.292c12.796-11.194,28.483-13.162,44.378-13.704c19.701-0.673,39.459-1.313,59.018,2.195
	c13.047,2.339,19.898,9.771,21.224,23.069c1.359,13.65,2.525,27.319,3.82,41.469c4.763,1.304,9.726,0.336,14.636-0.005
	c4.828-0.334,9.657-0.883,14.476-0.277c9.649,1.214,12.913,4.478,13.293,14.246c0.347,8.879,0.046,17.785-0.005,26.68
	c-0.035,6.343,0.184,12.744-4.08,19.05c-12.519,4.409-25.725,9.301-39.106,13.656c-5.582,1.817-9.467,4.874-11.816,10.693
	c24.511,18.851,38.79,43.716,41.603,76.766c10.972-20.599,21.104-39.622,32.623-61.248c0-12.661,0-28.698,0-44.556
	c-1.511-1.637-2.817-1.011-3.862,0.39c-1.396-2.295-0.621-4.218-0.852-6.2c1.857-1.034,3.822,1.432,5.872-1.142
	c0-23.338,0-47.427,0-72.003c-5.852-5.44-11.754-10.467-21.463-10.582c-12.099-0.145-24.174-2.599-36.251-4.127
	c-2.458-0.311-5.02-0.604-7.049-3.223c3.584-3.164,8.096-3.447,12.297-3.871c10.185-1.027,20.405-1.872,30.631-2.236
	c5.847-0.208,11.44-0.054,16.288-4.218c1.631-1.4,4.227-1.677,6.556-2.532c0-8.858,0-17.671,0-26.581
	c1.659-2.296,3.383-1.815,5.294,0.268c0,8.514,0,17.188,0,26.174c5.443,1.543,10.81,3.166,14.145,7.561
	c16.956,0.65,33.362,1.676,50.639,5.428c-3.354,3.757-6.737,3.85-9.771,4.462c-10.835,2.188-21.893,3.114-32.859,3.049
	c-8.758-0.051-15.145,3.234-21.202,9.859c0,14.653,0.037,29.925-0.008,45.197C545.572,366.956,547,385,547.97,415.497
	c2.383,4.017,4.658,7.618,6.025,9.948c17.808,30.35,36.365,60.259,53.33,91.1c1.331,2.418,3.464,4.819,1.966,7.878
	c-7.353,3.117-11.187,1.047-11.718-6.204c-0.142-1.934-0.083-3.853-1.093-5.617c-8.734-15.245-17.45-30.501-26.521-46.361
	c-16.671,5.576-33.348,9.455-50.456,0.201c-8.07,23.211-17.557,44.447-28.195,66.552c16.283,7.105,22.781,21.667,29.122,36.445
	c1.668,3.887,4.894,6.89,8.038,9.812c-1.354,4.139-4.269,4.361-7.485,3.756c-3.494-0.657-5.464-2.834-5.542-6.414
	c-0.08-3.656-0.467-7.123-1.507-10.752c-3.895-13.572-13.404-22.132-25.176-29.566c-9.453,12.861-23.286,21.512-33.773,33.763
	c-4.705-1.274-8.55,0.282-12.387,2.261c-8.605,4.438-17.662,7.779-27.169,10.745c-0.898,1.186-1.934,2.548-2.931,3.861
	c-5.323,1.575-10.504,3.108-15.814,4.679c-1.314-1.167-2.583-2.294-4.028-3.577c-16.054,1.149-32.007,0.186-47.521-4.107
	c-1.242,0.925-2.306,1.717-3.771,2.808C335.712,582.989,327.508,583.652,323.838,576.052z M137.444,464.417
	c-15.975-1.764-31.331-3.703-46.205-7.998c0,18.987,0,37.334,0,56.313c15.908-7.058,31.146-13.818,46.205-20.499
	C137.444,482.645,137.444,473.822,137.444,464.417z M151.418,465.225c0,9.024,0,17.095,0,25.699
	c16.43,8.484,32.938,17.008,49.447,25.532c0.556-0.302,1.112-0.604,1.669-0.906c-15.375-14.298-7.896-32.666-9.485-49.694
	C178.916,466.985,165.464,466.012,151.418,465.225z M345.443,361.804c-7.594,7.07-16.383,10.76-25.872,12.963
	c-18.857,4.379-37.949,3.979-57.07,2.737c-6.623-0.431-13.228-1.145-19.906-1.734c0,17.02,0,33.178,0,51.198
	c14.791-28.422,37.86-42.178,66.731-47.541c12.319-2.288,24.771-3.487,37.491-4.265
	C347.381,370.631,347.084,366.554,345.443,361.804z M137.267,497.098c-16.212,7.238-31.639,14.124-48.152,21.497
	c16.752,9.27,32.17,17.8,48.152,26.644C137.267,528.842,137.267,513.513,137.267,497.098z M217.955,461.657
	c-6.426,1.42-12.151,2.686-18.297,4.042c0,5.381,0.074,10.2-0.02,15.017c-0.098,5.016-0.504,10.027-0.518,15.042
	c-0.03,12.046,9.861,25.692,21.47,29.706c-0.53-3.269-2.889-5.814-2.794-9.328c0.323-11.978,0.278-23.964,0.449-35.944
	C218.33,474.23,218.826,468.266,217.955,461.657z M185.107,513.182c-11.392-6.092-22.067-11.801-33.48-17.903
	c0,17.104,0,32.417,0,48.876C163,533.633,173.582,523.843,185.107,513.182z M567.99,462.208
	c-6.433-11.381-12.553-22.209-18.671-33.035c-0.469,0.209-0.937,0.417-1.405,0.626c0,12.155,0,24.312,0,37.078
	C554.788,465.278,561.067,463.818,567.99,462.208z M537.232,429.417c-5.784,11.886-10.824,22.244-16.023,32.927
	c5.629,1.907,10.56,3.123,16.023,3.704C537.232,454.141,537.232,442.688,537.232,429.417z M504.453,375.406
	c-16.154,3.001-31.038,4.487-46.087,5.793c0,5.796,0,10.889,0,16.187C470.565,383.833,489.009,384.555,504.453,375.406z
	 M447.708,381.44c-11.283,0-22.112,0-33.774,0c12.035,3.091,22.886,7.399,33.915,12.27
	C448.558,389.523,448.585,385.964,447.708,381.44z M507.292,375.246l0.054-0.255l-0.352,0.078L507.292,375.246z"/>
</svg>
