<?xml version="1.0" encoding="utf-8"?>
<!-- Generator: Adobe Illustrator 16.0.0, SVG Export Plug-In . SVG Version: 6.00 Build 0)  -->
<!DOCTYPE svg PUBLIC "-//W3C//DTD SVG 1.1//EN" "http://www.w3.org/Graphics/SVG/1.1/DTD/svg11.dtd">
<svg version="1.1" id="Capa_1" xmlns="http://www.w3.org/2000/svg" xmlns:xlink="http://www.w3.org/1999/xlink" x="0px" y="0px"
	 width="612px" height="792px" viewBox="0 0 612 792" enable-background="new 0 0 612 792" xml:space="preserve">
<path fill-rule="evenodd" clip-rule="evenodd" d="M369.66,454.797c-3.08-0.826-6.07-1.991-9.172-3.038
	c-6.965,1.995-12.377,0.739-14.457-3.401c-3.469-6.911-2.435-12.885,4.072-18.403c-15.912-1.569-29.36-5.738-30.299-28.462
	c0.705-7.527-1.016-19.532,0.267-30.301c-1.025-3.025-3.267-2.872-4.299-4.327c-0.804-2.169-0.543-4.394-0.308-5.574
	c0.714-3.082,3.049-2.742,4.365-4.306c0.385-3.65,1.396-7.62,1.086-11.483c-0.596-7.41,2.396-13.772,9.357-17.476
	c5.734-3.052,12.056-4.314,18.372-5.378c19.914-3.353,39.771-3.299,59.475,1.562c9.099,2.245,16.234,7.907,22.914,14.038
	c4.079,3.745,3.761,9.17,3.187,14.135c-0.439,3.793-0.782,7.382,0.578,10.675c2.775,1.482,4.789,0.792,6.658-0.595
	c0.559-2.036-2.472-2.455-1.801-4.606c1.8-1.37,3.803-0.672,6.038-0.325c1.643,1.521,3.404,3.152,4.666,4.32
	c0.265,2.871-2.572,2.242-2.66,4.196c0.656,2.255,2.658,2.028,4.776,2.182c0.957-1.208,1.987-2.505,2.948-3.715
	c3.671-1.614,6.245-0.298,7.825,2.639c3.97,0.502,7.513,0.95,10.888,1.377c3.723,3.515,3.002,8.639,5.549,12.911
	c1.381-1.823,1.017-3.704,0.823-5.335c-1.162-9.78-0.839-19.599-0.832-29.401c0.005-5.575,0.559-11.16-5.961-14.148
	c1.496-5.191,0.188-10.532,3.828-14.813c1.354-1.592,0.947-3.583,0.882-5.446c-0.696-19.79-1.428-39.578-2.124-59.367
	c-0.304-8.625-0.263-17.221-4.34-25.295c-2.162-4.279-1.099-9.268-1.151-14.25c-4.526-1.187-8.958-0.269-13.398-0.064
	c-16.378,0.754-32.783,2.056-49.106-0.587c-4.785-0.774-9.632-1.841-12.94-6.17c0.566-5.75,5.117-7.152,9.301-8.654
	c17.806-6.393,36.208-10.293,54.93-12.795c1.108-0.148,2.207-0.366,3.3-0.55c2.096-2.745-0.016-6.116,2.385-10.047
	c0.606-0.942,4.591-0.247,4.399-3.955c3.515,0.744,6.597,1.397,9.125,1.932c3.282,2.818,1.891,7,4.496,9.833
	c23.949-0.433,48.523-5.915,71.672,4.922c0.279,6.971-4.071,8.772-8.229,10.519c-12.771,5.368-26.253,8.104-39.823,10.43
	c-7.939,1.36-15.92,2.485-23.989,3.732c-0.262,4.695,0.301,8.604,3.435,11.594c-5.777,19.949-2.108,40.065-2.141,60.041
	c-0.012,7.539,0.39,15.079,0.706,22.615c0.142,3.352-0.304,6.788,1.022,10.122c3.798,2.679,10.721-1.481,12.219,6.081
	c12.086-0.53,23.939-0.068,35.888-1.633c1.974-2.646,3.1-5.416,1.406-8.968c-2.245,0.342-4.422,1.945-6.922,0.362
	c0.15-3.398,1.428-6.409,3.367-8.954c1.86-1.086,2.553,0.395,3.507,1.369c4.678-3.413,3.774-8.546,4.073-12.967
	c0.34-5.038-0.422-10.147-0.653-15.228c-0.146-3.208,0.317-6.308,1.738-9.42c2.834,1.074,1.95,3.258,1.971,4.877
	c0.102,8.304-0.863,16.74,0.304,24.878c1.174,8.189,1.226,16.465,1.676,25.106c13.437-0.126,25.788,1.024,37.938,3.667
	c6.063,1.318,12.047,3.069,17.972,4.927c2.623,0.823,5.467,1.969,5.428,7.101c-17,9.142-36.321,6.472-55.096,8.271
	c-1.303,2.768-2.993,5.274-5.757,7.206c-2.219,1.55-2.369,4.59-2.442,7.265c-0.75,27.147-1.486,54.295-2.226,81.444
	c-0.132,4.812,2.224,8.146,6.169,10.183c0.831,2.332,0.7,4.37,0.18,6.728c-1.124,0.609-2.407,1.306-4.286,2.325
	c-4.221,21.108-0.786,42.888-3.613,64.577c6.049,1.794,7.09,6.452,8.74,10.867c4.222,11.284,7.915,22.761,12.078,34.068
	c4.523,12.284,9.77,24.406,12.703,37.3c1.543,6.783,7.434,12.362,5.391,20.896c-3.515,3.803-7.407,2.068-11.704-0.727
	c1.489-3.932-0.701-8.268,2.185-11.814c-3.533-12.913-7.647-25.391-13.789-37.295c4.431,20.165,8.862,40.328,13.271,60.384
	c14.861,8.691,29.466,17.008,40.713,29.85c-1.874,4.876-5.513,7.31-9.794,6.673c-6.87-1.022-7.486-7.529-9.454-13.273
	c-5.249-4.792-11.708-8.509-20.074-12.761c3.435,7.97,5.046,14.813,6.394,21.749c-4.188,3.426-7.783,2.494-11.114-0.212
	c-3.181-8.27,2.461-16.169-0.401-24.738c-4.159-2.818-8.962-5.61-14.13-7.962c-3.951,8.058-11.703,7.122-18.241,7.768
	c-4.756,0.469-8.668,1.578-12.38,4.468c-6.387,4.976-13.26,9.285-19.762,14.131c-4.181,3.114-9.776,4.511-14.925,6.056
	c-2.103,0.631-4.563-0.648-5.799-3.865c-5.103,21.949-12.059,42.574-9.436,64.382c-4.898,0.73-4.898,0.73-9.535-1.075
	c-1.887-5.157,0.683-10.481,2.73-14.308c4.265-7.966,4.609-16.587,6.793-24.855c1.728-6.543,2.365-13.373,4.103-19.913
	c1.183-4.458,0.568-8.445-1.999-11.792c-5.23-6.818-9.332-15.626-20.51-14.197c-1.027,1.641-2.005,3.203-2.832,4.523
	c-2.811,1.568-4.98,0.619-7.157-0.658c-1.327-4.614-1.062-9.065,0.232-13.622c-1.223-2.467-2.463-4.965-4.064-8.193
	c-13.4,7.521-26.63,14.948-39.45,22.146c-1.887,5.061-2.574,9.911-6.786,12.899c1.104,3.145,2.113,6.024,3.158,9.007
	c2.77-1.188,2.017-4.343,4.44-4.863c3.379,2.504,5.089,11.239,3.054,15.798c-2.627,0.796-3.291-2.125-5.353-2.797
	c-1.476-0.221-2.684,0.598-3.82,1.698c-0.649,2.51-0.239,4.688,1.302,6.902c3.173,4.563,4.756,9.776,5.626,15.247
	c0.625,3.928,0.677,7.955-3.021,10.127c-3.723,2.187-7.64,1.312-11.285-2.304c-0.769-8.946-0.867-18.276,1.226-27.565
	c-5.153-4.949-4.857-11.255-4.88-17.39c-0.039-10.946-2.217-21.48-4.57-31.449c-3.708-1.314-4.858,0.602-6.019,2.306
	c-5.831,8.559-12.757,16.344-17.637,25.587c-2.477,4.688-6.137,8.211-12.114,7.739c-13.563,12.417-28.69,22.106-46.244,27.721
	c-5.68,7.123-8.793,7.73-16.254,2.472c-20.066,6.554-39.75-2.021-60.797-5.098c-13.383-12.675-32.522-20.509-43.586-37.67
	c-8.539-3.608-12.307-10.367-13.168-19.305c-0.159-1.65-1.275-3.528-3.742-5.08c-1.422,5.982-3.597,11.347-4.086,17.382
	c-0.417,5.146,0.161,11.192-6.669,14.069c0.064,9.369-0.65,18.862-3.039,27.989c-4.625,2.395-8.441,1.583-11.822-1.445
	c-3.604-3.229-1.011-6.439,0.103-9.787c2.203-6.624,6.999-11.895,9.631-17.887c-1.746-4.326-6.662-5.211-7.887-9.304
	c2.348-1.938,5.046,0.465,7.32-1.27c4.027-6.737,7.08-14.066,8.473-23.208c-9.492,3.636-17.057,8.871-24.276,14.635
	c-5.723,1.022-11.461,1.971-17.164,3.1c-2.564,0.506-4.241-0.723-6.098-2.153c-4.959-3.825-10.58-6.367-17.161-8.607
	c-6.367,10.671-11.845,21.704-19.065,31.445C57.782,678.667,58,690.8,55.161,701.921c-4.903,2.109-8.542,1.321-12.913-3.213
	c16.071-27.779,32.965-55.35,47.885-84.206c-2.157-4.151-6.738-5.913-9.704-10.369c-7.988,6.054-15.726,11.919-23.361,17.706
	c-0.586,3.761,0.274,7.565-2.671,10.851c-1.466,0.299-3.283,0.672-4.747,0.972c-3.828-1.42-5.184-4.193-5.972-7.626
	c1.381-4.56,5.282-6.434,8.806-9.302c10.396-8.465,21.973-15.412,31.809-24.465c6.123-5.636,13.099-8.556,21.184-10.138
	c0-20.43,0-40.508,0-61.072c-7.366-1.409-13.998-3.905-19.664-8.319c-2.123,1.867-1.615,4.071-1.719,6.05
	c-0.851,16.198-1.691,32.397-2.409,48.603c-0.163,3.68-1.913,6.462-4.217,8.996c-2.283,2.512-4.707,4.904-7.165,7.246
	c-4.775,4.552-7.476,9.868-6.649,16.659c0.203,1.662,0.342,3.398-0.744,5.155c-2.288,1.863-4.305,0.922-6.469-0.964
	c1.896-9.191,4.067-18.056,11.823-24.336c6.872-5.565,9.571-12.501,9.692-21.686c0.235-17.884,2.029-35.749,3.185-53.744
	c-1.187-1.484-2.342-2.929-3.653-4.569c0.344-4.323-0.796-8.824,0.589-13.302c-1.457-1.813-3.935,0.924-5.185-1.416
	c-1.604-2.636-0.963-5.189,0.661-7.508c2.833-1.924,4.575,0.968,7.948,1.91c3.616-19.26,0.249-38.305,3.335-56.614
	c-2.091-1.526-3.413-2.492-4.763-3.477c0-2.036,0-3.907,0-5.56c0.561-2.13,2.727-2.159,4.149-3.938
	c-0.495-4.798,1.885-9.856,0.932-15.162c-1.286-7.16,3.514-14.557,10.489-16.59c3.578-1.044,7.611-0.264,11.491-3.167
	c0-16.898,0.579-34.25-0.326-51.524c-0.301-5.754-2.98-11.955-7.835-16.449c-2.598-2.405-2.647-5.983-3.434-9.299
	c-2.692-11.363-7.288-21.952-13.883-31.833c-2.279,1.161-3.926,2-5.401,2.753c-1.98-0.174-2.981-1.084-3.174-2.849
	c0.715-2.969,4.064-2.466,5.865-4.635c-2.536-4.033-7.097-4.945-11.027-6.674c-19.485-8.568-37.496-19.399-52.916-34.217
	c-2.299-2.208-4.45-4.656-6.253-7.278c-6.12-8.903-2.517-16.514,8.319-18.14c7.348-1.103,14.799-1.028,21.943,0.27
	c48.808,8.872,93.676,26.932,132.72,58.174c3.567,2.854,6.597,6.232,9.092,10.028c5.224,7.949,3.09,14.054-5.926,17.061
	c-7.545,2.516-15.196,1.928-22.909,0.735c-18.672-2.888-36.932-7.323-54.642-13.954c-1.047-0.393-2.177-0.564-4.354-1.111
	c-0.723,10.298,6.254,17.345,8.488,25.69c5.396,0.888,10.631-2.961,15.417,1.792c-3.755,3.007-8.167,0.352-12.618,3.004
	c5.221,1.937,9.377,1.545,12.681,0.766c2.936-1.789,2.578-4.795,4.826-5.882c3.356,2.524,4.186,10.238,1.757,16.709
	c-3.171,0.567-2.952-2.887-4.678-4.005c-4.698,4.672-5.154,15.48-1.606,25.686c2.975,8.559,7.98,16.115,11.651,23.755
	c-1.451,4.211-3.936,4.563-7.318,3.402c-2.837-4.558-3.054-10.515-7.291-16.584c0,12.587,0,23.525,0,35.036
	c3.824-0.21,7.495-0.412,11.427-0.627c2.036-7.718,4.637-14.938,8.304-21.732c3.751-1.77,7.522-0.208,11.411-0.419
	c2.533-0.844,3.896-5.742,8.356-2.398c1.017,1.847,0.088,6.343,5.229,5.064c0.867-1.255,1.9-2.75,2.934-4.245
	c0.398-1.63-2.221-2.328-1.619-3.314c1.581-3.745,5.691-4.057,9.284-1.476c0.167,2.307-2.649,3.171-2.672,5.39
	c0.888,2.33,2.694,1.415,4.065,1.483c7.164-7.57,8.025-16.976,8.866-25.672c17.073-17.47,37.922-19.636,59.922-16.218
	c13.75,2.136,27.432,4.923,40.748,9.169c4.685,1.494,9.236,3.281,13.502,5.736c14.421,8.298,18.088,20.495,10.647,35.41
	c-2.121,4.251,0.175,9.06-1.983,13.074c6.062,6.111,5.683,8.808-1.124,13.045c-5.742,12.692-2.177,27.003-8.885,39.338
	c-25.858,11.124-51.615,4.265-77.975-1.612c-0.844,19.289-1.655,37.831-2.473,56.518c5.767-2.212,41.399-26.847,42.735-29.39
	c2.282-1.786,5-1.692,7.662-2.041c4.348-4.427,9.348-6.006,15.366-3.523c1.14,0.47,2.644,0.465,3.886,0.213
	c15.134-3.061,29.939-1.846,44.522,3.085c1.362,0.46,3.127,0.701,4.416,0.238c6.104-2.189,9.772,0.282,11.883,5.667
	c14.004,6.833,25.83,15.943,34.879,28.478c1.765,2.441,3.789,4.467,7.009,5.337c3.683,0.996,5.698,3.852,4.966,7.77
	c-0.566,3.024,0.221,5.567,1.587,8.089c7.225,13.336,11.03,27.577,11.212,42.568c5.591,7.335,5.147,11.144-1.195,17.572
	c-0.39,9.95-4.028,19.418-7.53,29.299c6.99-2.847,13.563-5.959,19.444-11.124c4.004,2.116,7.767-0.093,11.705-1.762
	c1.569-13.917,2.735-27.572-0.979-41.458c-4.385-0.057-7.693-1.962-9.211-6.459c2.209-2.114,4.481-0.172,6.646-0.638
	c1.919-0.982,3.917-2.005,6.249-3.198c1.643-11.262,1.153-22.655,1.131-35.007c-7.141,2.526-2.625,9.977-7.004,12.735
	c-1.922,0.562-3.81-0.203-3.896-2.039c-0.363-7.737-7.364-13.338-6.43-21.645c0.354-3.152-2.938-5.956-4.709-8.844
	c-2.065-3.367-4.076-6.769-6.476-10.763C391.833,464.834,376.667,460.834,369.66,454.797 M449.41,611.092
	c4.333-1.344,8.138-3.528,11.385-6.705c-1.767-2.391-3.265-2.051-4.835-0.317c-2.15,2.371-4.351,4.697-6.529,7.042l-0.224,0.209
	L449.41,611.092z M436.479,583.753c13.331,1.166,21.907,11.155,33.547,16.064c4.185-6.388,11.604-11.433,11.567-19.039
	c-0.157-32.083,2.369-64.123,1.312-96.194c-0.209-6.374-0.67-12.915-2.854-19.198c-2.033,1.143-1.398,4.052-4.262,4.232
	c-3.405-2.602-0.7-7.653-4.185-10.896c-5.683-0.134-12.434-1.165-16.997,3.715c-5.768,6.169-10.485,13.327-15.523,20.158
	c-0.84,1.139-1.403,2.777-1.413,4.188c-0.1,15.067-0.063,30.136-0.063,46.478c-0.002-0.002,1.149,1.202,2.884,3.018
	C435.935,551.26,435.336,566.926,436.479,583.753z M132.266,587.258c0.481-0.124,0.962-0.249,1.444-0.373
	c1.788-20.178,3.577-40.354,5.325-60.081c-7.185-5.845-14.372-5.021-22.277-2.841c0.279,18.845-0.532,37.557,0.821,56.183
	C122.943,582.412,129.771,580.126,132.266,587.258z M395.708,603.889c-3.036,1.396-5.729,2.569-7.62,4.621
	c1.768,4.36,5.447,7.633,4.403,12.322c-2.23,1.36-3.866-1.28-6.52,0.435c0.514,7.624,1.056,15.692,1.705,25.344
	c13.054-9.438,26.38-16.015,39.628-24.06c-3.786-1.547-7.953-1.905-9.382-4.07C412.44,610.176,402.7,609.216,395.708,603.889z
	 M527,537.618c-16.471,8.884-20.607,25.913-31.781,38.741c11.729,1.507,22.251,2.42,34.009,1.22c0-13.211,0-26.04,0-39.404
	C528.686,537.563,527.309,537.674,527,537.618z M142.568,590.176c6.156-10.52,5.97-22.042,8.714-32.846
	c2.737-10.776,8.744-20.291,13.164-31.483c-7.744,0-13.995,0-20.89,0c-2.071,20.813-4.126,41.475-6.182,62.134
	C139.391,589.126,140.952,590.114,142.568,590.176z M470.859,614.378c-13.291,15.107-12.177,27.409,3.192,37.543
	c5.914-3.583,9.313-23.224,5.981-35.446C476.539,617.929,473.581,616.364,470.859,614.378z M491.807,656.345
	c6.591,1.258,19.265-5.573,22.732-11.313c-3.719-10.744-13.007-14.959-21.577-21.538
	C491.837,635.278,491.104,645.83,491.807,656.345z M133.238,595.013c-6.342,0.269-11.451-4.483-15.422-0.035
	c0,14.15,0,27.04,0,39.703c3.543,0.756,3.543,0.756,6.561,0.131C129.801,622.617,128.675,608.882,133.238,595.013z M517.315,585.382
	c-8.178-2.406-15.744-2.232-23.881-1.425c-0.356,5.593-1.806,11.098,1.303,17.06c7.194,0.278,13.511,4.404,20.921,5.896
	C517.453,599.509,517.12,592.462,517.315,585.382z M131.644,632.021c8.045-4.268,15.21-6.879,20.855-12.523
	c-1.23-5.896-1.825-11.647-4.331-16.9c-3.826-1.448-6.481-4.77-11.318-5.537C134.93,608.218,131.256,618.955,131.644,632.021z
	 M428.027,394.305c11.36-0.214,22.479,1.375,35.23,2.151c-5.54-5.731-2.488-11.009-0.305-17.044
	c-5.498,0.309-9.817-0.287-13.367-2.11c-2.174,1.046-1.831,3.474-4.817,4.327c-2.285,0-5.653,0-8.539,0
	c-3.756,2.366-4.52,5.832-5.28,10.32c-1.409-2.087-2.256-3.342-3.347-4.956C426.922,389.573,426.87,391.551,428.027,394.305z
	 M561.516,634.704c-2.623-12.504-4.863-23.459-7.25-34.382c-0.603-2.76-2.375-4.436-5.681-4.241
	c-1.501,10.478-1.899,20.687,0.066,31.276C552.414,629.506,556.268,631.707,561.516,634.704z M169.04,371.083
	c-2.766-2.505-5.696-1.568-8.955-2.892c-1.039-0.379-1.058-3.049-3.799-3.525c-2.977,0.924-6.62,1.298-11.244,1.345
	c2.506,3.513,1.544,6.815,1.043,10.689c8.428-0.847,16.353-1.137,24.863-0.354C170.012,373.762,169.389,372.044,169.04,371.083z
	 M539.759,545.848c-0.637,10.205-2.395,20.272-1.257,30.464c3.778,0.881,6.649-0.038,9.715-2.186
	C545.896,564.565,546.366,554.268,539.759,545.848z M402.459,600.417c8.048,2.103,13.168,8.791,21.16,10.585
	c1.229-5.149,1.919-9.343,1.283-13.735c-2.109-1.011-4.109-1.97-6.099-2.923c-1.617,1.03-0.973,3.821-3.486,4.151
	c-1.892-0.212-2.136-3.163-5.168-2.828C408.103,596.561,405.411,597.729,402.459,600.417z M542.917,623.263
	c0-9.883,0-19.379,0-28.906c-1.188-1.498-2.444-2.814-5.276-2.633c-1.172,6.088-1.624,12.334-1.76,18.018
	c0.578,2.476,3.844,2.212,3.227,4.846c-0.184,2.849-4.002,1.363-4.823,3.951C536.928,620.319,539.38,622.253,542.917,623.263z
	 M492.97,619.547c7.677,5.496,14.13,10.116,21.231,15.2c0.71-4.015,1.477-7.017,0.377-10.024
	C508.977,618.475,501.763,619.185,492.97,619.547z M436.377,596.344c2.852,3.979,2.234,8.77,4.053,13.169
	c5.144-2.593,8.663-6.159,10.916-10.967C445.009,592.527,440.096,591.725,436.377,596.344z M105.587,630.424
	c0-9.848,0-18.427,0-28.199c-3.45,4.879-6.269,8.718-8.337,13.538C99.81,620.266,102.397,624.813,105.587,630.424z M94.067,608.94
	c3.755-5.573,6.451-10.838,7.132-17.451c-6.933,1.269-11.041,5.64-15.813,10.046C88.195,603.933,90.73,606.095,94.067,608.94z
	 M103.386,637.185c-2.897-6.059-5.25-11.124-9.27-15.553c-2.862,2.791-4.689,5.517-5.569,9.467
	C92.923,633.38,97.259,635.705,103.386,637.185z M485.234,388.021c-4.418-0.362-6.022,1.775-7.998,10.399
	c2.886,1.868,5.706,4.079,9.081,0.628C486.569,395.173,486.109,391.541,485.234,388.021z M444.064,623.16
	c2.59,2.652,4.609,4.489,7.715,5.127c3.593-3.915,5.898-8.505,7.429-13.722C454.351,617.321,449.494,620.077,444.064,623.16z
	 M526.762,606.849c2.743-4.894,0.935-10.08,2.262-14.731c-1.927-1.348-3.464-1.316-5.335-0.086
	c-0.684,4.727-1.825,9.606-1.12,14.665C523.976,607.518,525.182,607.675,526.762,606.849z M520.52,637.565
	c4.24,0.471,7.688-0.021,10.316-4.052c-2.934-2.406-5.463-4.764-9.32-4.787C519.705,631.478,519.777,634.204,520.52,637.565z
	 M424.168,488.873c6.891-0.532,5.382-5.399,5.947-9.783c-2.371,1.506-3.7-0.627-5.717-1.128
	C423.43,481.485,423.548,484.561,424.168,488.873z M417.219,478.894c0.193-3.724,0.464-7.198-0.442-10.629
	c-1.357-0.76-2.561-1.644-4.545-0.97C411.464,472.062,411.915,476.27,417.219,478.894z M520.768,620.61
	c2.423,5.813,9.561,9.747,14.579,8.578C530.593,626.392,526.311,623.872,520.768,620.61z M439.034,472.844
	c3.932-3.364,6.214-6.468,8.444-11.174c-3.116,1.63-5.849,0.862-7.772,3.44C439.529,467.142,439.328,469.462,439.034,472.844z
	 M550.821,589.22c0.212-3.398,0.664-5.655-2.035-7.993C548.396,584.255,547.438,586.517,550.821,589.22z M408.96,471.128
	c0.042-1.77,1.646-4.219-1.854-5.252C406.367,468.221,407.419,469.701,408.96,471.128z M495.292,611.057
	c2.468,1.479,4.271,0.95,7.457,0.813C499.6,610.062,497.81,609.867,495.292,611.057z M536.43,638.953
	c2.274-0.043,3.396,1.033,4.416-0.571C539.853,637.06,538.804,636.979,536.43,638.953z M515.443,619.823
	c-0.412-2.421-1.55-1.457-3.003-0.94C513.51,620.122,514.318,620.662,515.443,619.823z"/>
</svg>
