<?xml version="1.0" encoding="utf-8"?>
<!-- Generator: Adobe Illustrator 16.0.0, SVG Export Plug-In . SVG Version: 6.00 Build 0)  -->
<!DOCTYPE svg PUBLIC "-//W3C//DTD SVG 1.1//EN" "http://www.w3.org/Graphics/SVG/1.1/DTD/svg11.dtd">
<svg version="1.1" id="Capa_1" xmlns="http://www.w3.org/2000/svg" xmlns:xlink="http://www.w3.org/1999/xlink" x="0px" y="0px"
	 width="612px" height="792px" viewBox="0 0 612 792" enable-background="new 0 0 612 792" xml:space="preserve">
<path fill-rule="evenodd" clip-rule="evenodd" d="M242.753,306.385c3.157,0,6.313,0,9.47,0c2.2,1.254,3.549,3.03,3.344,5.679
	c-0.198,2.553-0.425,5.106-0.707,7.651c-1.163,10.554-2.352,21.105-3.54,31.737c0.676,0.472,1.284,0.967,1.956,1.353
	c1.619,0.93,3.221,1.909,4.911,2.692c18.928,8.767,39.192,12.022,59.678,14.168c11.364,1.19,22.779,1.891,34.173,2.797
	c9.21,0.732,18.414,1.542,27.632,2.136c11.089,0.715,22.195,1.161,33.284,1.866c12.885,0.821,25.761,1.787,38.639,2.709
	c14.449,1.034,28.905,1.983,43.343,3.166c14.433,1.182,28.873,2.363,43.26,3.992c14.948,1.692,29.851,3.828,44.747,5.954
	c7.132,1.018,13.192,3.845,17.412,10.281c12.848,19.593,8.68,46.729-9.86,62.165c-11.8,9.823-25.604,15.153-40.56,17.837
	c-1.327,0.238-2.646,0.523-3.967,0.786c8.555,1.136,16.997,1.604,25.407,2.41c10.676,1.025,21.335,2.252,31.979,3.572
	c2.018,0.25,3.932,1.341,5.934,2.059c0,21.177,0,41.775,0,62.356c-0.996,0.623-1.794,1.122-2.622,1.64c0,2.397,0,4.655,0,7.04
	c-1.347,0.474-2.618,0.921-3.898,1.371c-1.852,5.747-3.682,11.43-6.078,18.867c-1.701,21.348-3.554,44.582-5.436,68.203
	c0.83,0.577,1.722,1.196,2.499,1.736c-0.307,5.241-0.598,10.197-0.917,15.669c2.148-1.191,3.595-1.993,4.953-2.746
	c-0.149-1.208-0.275-2.22-0.4-3.232c0.319-0.105,0.638-0.212,0.956-0.317c1.504,2.609,3.008,5.219,4.512,7.828
	c-0.238,0.233-0.477,0.469-0.716,0.702c-0.915-0.501-1.83-1.001-2.888-1.58c-0.623,0.146-1.419,0.334-2.424,0.569
	c1.178,0.99,2.288,1.678,3.074,2.632c2.623,3.185,3.477,6.83,2.048,10.763c-1.153,3.172-3.896,4.556-6.981,4.568
	c-5.295,0.021-9.442-2.652-12.414-6.867c-2.528-3.586-1.251-7.113,1.32-10.605c-1.441-0.541-2.684-1.008-4.105-1.542
	c-0.217-0.562-0.493-1.274-0.49-1.266c-2.114-1.267-3.664-2.194-5.284-3.165c-0.231-4.526-0.451-8.842-0.668-13.098
	c0.768-0.582,1.443-1.094,2.492-1.89c-1.124-23.457-2.255-47.05-3.308-69.001c-2.793-6.607-4.96-11.734-7.321-17.321
	c-3.709,0-7.462,0.251-11.167-0.069c-3.771-0.326-7.492-1.214-11.234-1.856c-1.919-0.329-3.838-0.944-5.757-0.944
	c-68.162,0.018-136.324,0.026-204.487,0.195c-21.394,0.054-42.802,0.166-64.174,1.001c-13.163,0.515-26.283,2.325-39.398,3.78
	c-12.604,1.399-25.076,4.06-37.893,3.252c-4.104-0.258-8.279,0.182-12.392,0.603c-2.674,0.272-5.293,1.086-7.855,1.641
	c-0.256,3.479-0.47,6.4-0.69,9.394c-2.127,0.095-3.97,0.177-5.813,0.26c0.195,0.267,0.391,0.534,0.586,0.802
	c-1.812,1.775-3.597,3.579-5.447,5.313c-0.958,0.898-2.288,1.491-3.015,2.526c-10.629,15.153-21.184,30.359-31.76,45.551
	c-5.672,8.146-11.351,16.289-16.993,24.386c1.988,3.734,3.167,7.376,0.412,10.973c-2.137,2.789-4.844,4.597-9.023,3.415
	c0,4.975,0,9.731,0,14.45c-1.63,0.152-2.872,0.268-4.257,0.397c-0.546,3.602-1.064,7.021-1.583,10.44
	c0.294,0.245,0.589,0.491,0.884,0.736c2.208-0.693,4.417-1.388,6.496-2.04c-0.21-1.888-0.353-3.163-0.538-4.822
	c4.149,3.27,6.692,9.034,4.931,10.882c-0.74-0.922-1.466-1.829-2.251-2.807c-0.596,0.209-1.218,0.429-1.91,0.672
	c5.462,4.195,5.464,13.615,2.305,17.188c-3.357,3.798-8.625,4.887-12.756,2.223c-4.458-2.875-6.673-11.256-4.282-15.926
	c-2.051-0.988-4.109-1.979-6.023-2.901c-0.104-1.406-0.188-2.538-0.278-3.762c-1.405,0-2.56,0-3.783,0
	c-0.287-3.893-0.566-7.685-0.849-11.521c-5.396-1.081-10.719,0.746-16.196-0.757c0.659-1.05,1.004-1.6,1.351-2.146
	c-0.341-0.537-0.684-1.077-0.895-1.408c1.03-1.635,1.898-3.011,2.745-4.354c-0.5-0.66-0.997-1.316-1.945-2.57
	c5.76,0,10.88,0,16.116,0c0-1.692,0.056-2.962-0.009-4.227c-0.583-11.421-0.853-22.871-1.882-34.253
	c-0.944-10.443,0.305-21.063-3.157-31.343c-2.142-6.36-5.552-11.024-12.193-12.202c-5.985-1.062-12.137-1.151-18.194-1.851
	c-2.047-0.236-4.03-1.024-5.867-1.514c-0.261-2.1-0.437-3.521-0.653-5.262c-9.824,0-19.451,0-29.264,0
	c0-2.31,0.147-4.282-0.069-6.214c-0.093-0.827-0.942-1.569-1.448-2.351c0-6.116,0-12.232,0-18.349
	c2.681-5.322,7.574-6.352,12.991-6.574c1.181-1.643,2.394-3.309,3.584-4.99c1.192-1.684,2.363-3.381,3.663-5.243
	c0-1.738-0.032-3.61,0.006-5.48c0.136-6.769,2.438-9.074,9.315-9.268c2.519-0.071,5.041-0.012,7.57-0.012
	c0.635-5.227-2.256-7.832-5.532-10.192c0-4.6,0.011-9.131-0.005-13.662c-0.009-2.273,1.21-3.15,3.349-3.131
	c2.941,0.027,5.883,0.007,8.8,0.007c1.085-1.524,2.048-2.879,3.23-4.54c0-3.745,0-7.743,0-12.055c31.084,0,61.873,0,92.904,0
	c0-58.353,0-116.455,0-174.728c1.023,0,1.803,0.005,2.582,0c26.322-0.197,52.644-0.374,78.965-0.609
	C230.957,306.811,236.854,306.55,242.753,306.385z"/>
</svg>
