<?xml version="1.0" encoding="utf-8"?>
<!-- Generator: Adobe Illustrator 16.0.0, SVG Export Plug-In . SVG Version: 6.00 Build 0)  -->
<!DOCTYPE svg PUBLIC "-//W3C//DTD SVG 1.1//EN" "http://www.w3.org/Graphics/SVG/1.1/DTD/svg11.dtd">
<svg version="1.1" id="Capa_1" xmlns="http://www.w3.org/2000/svg" xmlns:xlink="http://www.w3.org/1999/xlink" x="0px" y="0px"
	 width="612px" height="792px" viewBox="0 0 612 792" enable-background="new 0 0 612 792" xml:space="preserve">
<path fill-rule="evenodd" clip-rule="evenodd" d="M214.964,599.642c-1.475-0.452-1.752-1.729-1.857-3.134
	c-2.386-0.787-5.209-0.447-6.378-3.037c-21.148-4.997-42.04-10.274-62.52-16.785c-1.154,0.476-1.56,1.478-2.023,2.123
	c-0.661,1.187,0.928,1.798-0.02,3.328c-1.024,1.198-2.282-0.052-3.654-0.619c-1.315-0.545-2.533-1.358-4.095-1.377
	c-0.072-1.87-0.263-3.548,2.29-2.674c0.809-1.388,1.626-2.8,1.626-2.8c-11.336-5.135-23.818-11.515-34.695-17.199
	c-7.087-3.704-13.958-7.833-21.249-11.188c-5.017-2.308-9.645-5.453-14.486-8.151c-9.923-5.53-19.915-10.938-29.799-16.537
	c-8.908-5.046-17.775-10.172-26.508-15.511c-2.085-1.274-4.249-2.905-4.975-5.653c-0.961-3.636-0.359-5.57,3.127-6.928
	c7.463-2.906,15.026-5.559,22.563-8.273c8.402-3.025,16.817-6.015,25.231-9.004c23.316-8.286,46.647-16.528,69.948-24.856
	c12.936-4.625,25.77-9.537,38.747-14.044c11.258-3.909,22.433-8.074,33.737-11.814c8.84-2.926,14.464-8.909,19.061-16.401
	c3.164-5.157,6.77-10.015,9.939-15.181c4.826-7.871,10.058-15.506,15.396-23.045c3.604-5.091,7.668-9.878,14.046-11.745
	c3.344-0.979,6.551-0.903,9.97,0.315c6.743,2.403,13.661,4.313,20.495,6.462c2.2,0.692,4.364,1.021,6.87,0.711
	c2.309-0.285,3.25-1,5.462-3.06c5.192-5.656,10.358-11.198,15.431-16.826c10.527-11.678,21.112-23.315,31.824-34.81
	c9.192-9.864,18.341-19.792,27.48-29.699c9.976-10.815,19.837-21.767,29.789-32.606c7.649-8.331,14.961-17.002,23.099-24.907
	c4.511-4.382,8.545-9.259,12.719-13.979c5.012-5.667,10.151-11.225,15.25-16.806c7.021-7.685,14.186-15.243,21.104-23.024
	c3.468-3.899,7.258-7.471,10.513-11.609c3.825-4.862,4.092-10.016,3.099-15.6c-0.444-2.499-1.048-4.969-1.62-7.643
	c3.705-2.032,8.02-1.717,12.141-3.36c-1.336-0.987-1.207-2.13-0.509-3.299c-1.164-0.522-2.192-0.982-3.216-1.441
	c-0.433-1.806-0.863-3.6-1.311-5.469c2.763-4.109,3.907-4.509,8.942-2.81c0.316,2.411,2.882,4.752,0.286,7.601
	c-0.446,0.489-0.255,1.299,0.34,1.961c0.684,0.761,0.521,1.675-0.358,2.526c3.23-0.721,6.291-1.405,9.454-2.111
	c-1.465-1.451-0.097-4.763-3.521-4.435c-0.725-2.89-2.464-5.595,0.353-8.125c2.533-2.274,4.993-1.135,7.585,0.25
	c0.446,1.801,0.913,3.684,1.423,5.743c-0.636,0.403-1.288,0.815-1.86,1.177c-0.876,1.599,2.422,2.898-0.641,4.779
	c3.878-0.771,6.941-1.379,10.415-2.069c-1.313-0.989-0.526-2.321-1.036-3.416c-0.494-1-1.846-0.379-2.411-1.343
	c-2.045-5.644-1.365-8.26,2.458-9.279c3.5-0.933,5.265,0.932,6.593,6.934c0.029,1.183-1.451,1.182-1.605,2.127
	c-0.456,1.376,2.024,2.157-0.238,4.013c3.805-0.687,6.708-1.07,9.521-2.11c-0.304-1.04-0.773-2.058-0.39-3.14
	c-0.724-0.756-1.657-0.771-2.663-0.653c-0.361-3.276-2.876-6.349,0.837-9.154c2.399-1.813,4.377-0.459,6.709,0.194
	c0.593,2.705,3.231,5.294-0.103,8.15c0.557,1.109,1.69,2.144-0.226,3.913c3.954-0.801,6.814-1.38,10.229-2.072
	c-1.367-0.992-1.468-2.045-0.764-3.114c-1.143-0.722-2.009-1.271-3.063-1.937c-0.376-1.298-0.8-2.759-1.285-4.435
	c0.75-2.177,2.097-3.987,5.108-4.408c1.331,0.187,2.909,0.577,4.227,1.691c0.345,1.623,0.685,3.219,1.08,5.083
	c-2.847,1.467-0.335,3.717-0.555,5.712c-0.226,0.023-0.587-0.063-0.298,0.396c0.088-0.163,0.168-0.307,0.246-0.451
	c2.842,0.438,5.366-0.976,8.145-1.159c-0.08-1.425-0.148-2.621-0.205-3.636c-0.649-1.107-1.991-0.362-2.735-1.734
	c-0.268-1.149-0.638-2.734-1.027-4.408c0.307-0.818,0.631-1.684,0.938-2.505c1.675-1.176,3.309-2.006,5.481-1.606
	c3.9,0.716,2.857,4.209,3.916,6.361c-0.014,1.293-1.565,1.177-1.706,2.239c-0.246,1.544,1.448,2.389,1.105,3.999
	c3.706-0.35,6.993-1.247,10.409-1.426c9.509-0.498,16.83,3.839,23.289,10.157c1.531,1.498,1.313,3.019-0.559,4.371
	c-3.643,2.631-7.954,3.269-12.137,4.166c-21.432,4.597-41.714,12.267-61.09,22.449c-11.618,6.105-20.969,14.919-29.655,24.552
	c-5.181,5.745-10.581,11.309-15.485,17.28c-5.744,6.994-11.939,13.578-17.765,20.494c-5.397,6.408-10.979,12.661-16.471,18.989
	c-6.04,6.959-12.063,13.932-18.106,20.887c-5.308,6.107-10.702,12.14-15.938,18.308c-7.948,9.361-15.937,18.705-24.08,27.877
	c-9.38,10.566-18.66,21.23-27.928,31.888c-7.936,9.125-16.152,18.025-23.709,27.499c-2.452,3.074-5.275,5.953-7.98,8.87
	c-0.899,0.969-2.127,2.306-4.127,5.54c-3.205,4.672-1.425,2.171-4.375,6.625c-2.723,4.349,1.654,13.038,5.401,16.435
	c0.92,0.834,2.186,0.982,3.438,1.164c15.184,2.197,30.494,2.071,45.77,2.429c11.179,0.262,22.369,0.051,33.556,0.051
	c2.94,2.016,6.007,3.707,6.333,7.842c0.383,4.858-2.046,8.177-5.833,10.484c-12.115,7.383-24.38,14.52-36.518,21.864
	c-17.394,10.524-35.135,20.462-52.377,31.243c-7.519,4.702-15.226,9.116-22.968,13.444c-10.507,5.871-16.275,15.269-20.41,26.122
	c-3.607,9.469-7.758,18.732-11.352,28.207c-3.242,8.546-6.753,16.991-10.192,25.446c-3.9,9.593-7.569,19.292-11.791,28.755
	c-1.048,2.352-4.497,3.576-7.837,2.958c-4.035-0.745-8.045-1.623-12.311-2.493c-2.07,1.791-4.494-0.066-7.089,0.172
	c-0.317,0.443-0.721,1.007-1.125,1.572c-3.401,0.123-7.243,2.556-9.778-1.865c0,0.002,0.153-0.01,0.153-0.01L214.964,599.642z"/>
</svg>
