<?xml version="1.0" encoding="utf-8"?>
<!-- Generator: Adobe Illustrator 16.0.0, SVG Export Plug-In . SVG Version: 6.00 Build 0)  -->
<!DOCTYPE svg PUBLIC "-//W3C//DTD SVG 1.1//EN" "http://www.w3.org/Graphics/SVG/1.1/DTD/svg11.dtd">
<svg version="1.1" id="Capa_1" xmlns="http://www.w3.org/2000/svg" xmlns:xlink="http://www.w3.org/1999/xlink" x="0px" y="0px"
	 width="612px" height="792px" viewBox="0 0 612 792" enable-background="new 0 0 612 792" xml:space="preserve">
<path fill-rule="evenodd" clip-rule="evenodd" d="M586.012,241.15c2.029-1.55,3.488,0.35,4.506,2.373
	c0.982,3.353,0.259,5.608-3.833,6.594c-2.108-0.024-2.689-1.669-3.8-2.854c-0.998,1.354-1.645,2.7-1.85,4.277
	c1.133,0.658,2.647-0.056,3.684,0.98c1.637,4.154,0.961,6.323-2.749,8.762c-1.627-0.577-2.861-1.765-4.203-2.897
	c-0.517,1.37-1.536,2.508-1.233,4.297c1.915,0.102,4.049,0.571,4.195,2.93c0.164,2.648-0.365,5.273-3.697,6.658
	c-1.588,0.121-2.664-1.512-3.987-2.704c-1.438,2.594-1.371,6.144-4.971,6.957c-7.806-5.094-16.081-5.506-25.386,2
	c-21.706,17.509-43.691,34.672-65.505,52.05c-19.888,15.844-39.655,31.84-59.556,47.669c-19.89,15.822-39.895,31.5-59.815,47.282
	c-7.228,5.727-14.479,11.436-21.494,17.416c-4.694,4.002-5.133,9.669-4.844,15.407c0.013,0.261,0.048,0.542,0.157,0.772
	c4.465,9.371-0.693,16.346-5.472,23.717c-8.587,13.245-16.69,26.805-25.068,40.187c-8.371,13.371-16.88,26.655-25.235,40.035
	c-6.958,11.144-13.748,22.393-20.673,33.557c-6.574,10.6-13.22,21.154-19.847,31.722c-6.998,11.159-14.021,22.302-20.999,33.474
	c-0.773,1.237-1.291,2.653-3.397,2.293c-1.098-4.987,1.262-9.588,1.985-14.325c1.877-12.303,4.014-24.597,4.724-37.003
	c0.704-12.307,1.153-24.646,0.865-37.017c-0.231-9.939-0.303-19.855-1.787-29.697c-1.73-11.48-3.865-22.826-11.94-31.962
	c-6.595-7.462-14.198-13.236-24.672-12.921c-7.417,0.225-13.588,3.908-19.134,9.083c-5.476,0.167-10.234-3.287-15.563-3.846
	c-1.93,1.304-1.371,3.343-1.668,5.132c-1.625,0.516-3.554,0.132-4.312-1.172c0.2-1.084,1.714-3.235,0.731-5.576
	c-6.601-1.282-13.564-2.879-20.609-3.942c-9.804-1.479-19.606-2.947-29.388-4.581c-8.303-1.386-16.769-0.683-25.158-1.039
	c-13.059-0.556-26.126-1.222-39.19-1.21c-6.476,0.007-12.921-0.584-19.386-0.415c-1.334,0.035-3.311-1.194-4.313-2.486
	c6.026-1.896,6.114-1.869,8.859-2.755c15.199-4.904,30.542-9.358,45.836-13.966c13.807-4.161,27.625-8.28,41.415-12.496
	c10.532-3.22,21.011-6.614,31.542-9.837c12.768-3.907,25.58-7.671,38.348-11.578c15.876-4.856,31.706-9.87,47.597-14.681
	c16.505-4.997,33.083-9.754,49.585-14.758c18.716-5.676,37.383-11.516,56.08-17.253c0.837-0.257,1.82-0.44,2.647-0.259
	c9.704,2.121,17.385-1.908,24.875-7.492c14.055-10.478,28.402-20.56,42.57-30.887c17.828-12.995,35.589-26.082,53.396-39.107
	c13.836-10.121,27.72-20.177,41.542-30.317c14.34-10.521,28.867-20.807,42.868-31.765c11.068-8.663,19.864-19.732,29.201-30.173
	c7.641-8.543,15.047-17.294,22.553-25.957c0.59-0.681,1.304-1.314,1.695-2.101c3.595-7.242,9.932-10.86,17.31-12.953
	c3.522-1,6.672-3.378,10.957-3.338c-1.159,5.532-4.105,9.908-5.619,14.777c4.681,2.647,5.417,4.764,3.006,8.442
	c-1.493,2.28-3.19,2.225-6.557-0.313c-0.524,1.192-1.033,2.349-1.674,3.807c2.245,0.641,5.412,0.517,5.02,4.009
	c-0.224,1.984-0.367,4.37-2.667,5.262c-2.158,0.836-3.882-0.15-5.141-2.094c-1.381,1.216-1.486,3-2.16,4.491
	c0.059,0.039,0.112,0.086,0.165,0.132c-0.037-0.09-0.073-0.182-0.11-0.272c1.724,0.045,3.343,0.456,5.071,1.484
	c0.984,2.978,0.035,5.736-2.398,7.525c-2.223,1.634-3.787-0.345-5.081-2.2c-1.543,0.92-1.551,2.521-1.977,3.987
	c1.448,0.674,3.22,0.323,4.443,1.889c0.672,2.759,0.433,5.636-2.354,7.306c-2.066,1.237-3.831-0.132-5.211-2.428
	c-1.089,2.02-2.158,3.665-1.579,5.829c-0.075-0.039-0.157-0.068-0.238-0.097c0.066-0.018,0.134-0.035,0.201-0.052
	C586.098,241.009,586.055,241.08,586.012,241.15z"/>
</svg>
