<?xml version="1.0" encoding="utf-8"?>
<!-- Generator: Adobe Illustrator 16.0.0, SVG Export Plug-In . SVG Version: 6.00 Build 0)  -->
<!DOCTYPE svg PUBLIC "-//W3C//DTD SVG 1.1//EN" "http://www.w3.org/Graphics/SVG/1.1/DTD/svg11.dtd">
<svg version="1.1" id="Capa_1" xmlns="http://www.w3.org/2000/svg" xmlns:xlink="http://www.w3.org/1999/xlink" x="0px" y="0px"
	 width="612px" height="792px" viewBox="0 0 612 792" enable-background="new 0 0 612 792" xml:space="preserve">
<path fill-rule="evenodd" clip-rule="evenodd" d="M429.948,674.245c15.001,18.587,32.999,32.71,55.844,40.589
	c0,11.104,0,22.232,0,33.578c-118.683,0-237.232,0-356.006,0c0-11.169,0-22.198,0-33.568c22.418-7.692,40.479-21.68,55.486-40.215
	c-6.443-3.704-12.649-7.137-18.723-10.789c-22.173-13.333-42.374-29.204-60.809-47.355C92.2,603.151,79.948,588.749,69.17,573.102
	c-19.764-28.692-33.649-59.959-40.039-94.264c-6.343-34.053-5.118-67.818,5.345-101.088c8.249-26.229,21.532-49.832,37.53-71.924
	c14.456-19.964,29.68-39.37,44.423-59.128c13.005-17.429,24.823-35.62,32.998-55.88c7.968-19.748,12.681-40.253,10.378-61.644
	c-3.126-29.038-16.034-52.652-42.111-67.097c-22.174-12.282-45.45-12.548-68.69-2.312c-3.963,1.746-7.677,4.059-11.212,6.699
	c3.251-0.706,6.473-1.636,9.76-2.082c20.869-2.827,40.979,9.447,47.753,29.037c6.948,20.095-0.988,42.475-19.463,52.942
	c-15.224,8.625-30.958,8.617-45.853-0.779c-15.124-9.541-21.75-23.791-20.543-41.648c0.653-9.657,5.086-17.858,10.33-25.598
	C31.22,61.441,46.555,49.477,66.183,43.521c24.215-7.349,47.784-5.351,70.062,6.71c27.285,14.773,44.371,37.945,52.642,67.535
	c2.695,9.641,3.659,19.765,5.414,29.667c0.149,0.845,0.29,1.69,0.445,2.596c13.319,0,26.457,0,39.835,0c0-18.192,0-36.251,0-54.469
	c-4.393-5.768-4.531-9.58-0.354-12.904c3.326-2.647,8.025-2.071,10.848,1.331c2.875,3.464,1.936,7.711-2.705,12.012
	c0,17.823,0,35.702,0,53.875c5.04,0,10.018,0,15.343,0c0-24.09,0-48.279,0-72.554c-4.705-4.931-5.256-9.193-1.575-12.718
	c3.065-2.934,7.884-2.845,10.978,0.203c3.282,3.234,2.657,7.953-1.692,12.427c0,24.147,0,48.351,0,72.745c5.264,0,10.243,0,15.478,0
	c0-30.86,0-61.547,0-92.291c-5.685-5.573-5.277-9.68-1.381-13.438c3.08-2.972,7.495-2.565,10.599,0.64
	c3.253,3.358,2.65,7.749-1.761,12.179c0,30.814,0,61.729,0,92.875c5.165,0,10.159,0,15.474,0c0-35.879,0-71.804,0-107.841
	c-4.819-4.388-4.867-9.129-1.348-12.751c2.935-3.02,8.328-2.688,10.966,0.325c3.259,3.721,2.549,8.364-2.019,12.437
	c0,35.749,0,71.618,0,107.771c5.055,0,10.037,0,15.367,0c0-30.893,0-61.879,0-92.949c-4.313-4.738-4.766-8.851-1.28-12.229
	c3.318-3.215,7.659-3.23,10.817-0.036c3.729,3.774,3.197,7.67-1.764,12.762c0,30.771,0,61.564,0,92.546c5.149,0,10.04,0,15.265,0
	c0-24.222,0-48.417,0-72.721c-4.419-5.309-4.831-9.503-1.175-12.771c3.135-2.803,7.694-2.695,10.712,0.253
	c3.422,3.342,2.861,7.655-1.728,12.679c0,24.01,0,48.124,0,72.496c5.146,0,10.111,0,15.291,0c0-17.931,0-35.78,0-53.763
	c-4.744-4.431-6.03-8.336-1.909-12.764c3.057-3.282,7.569-3.225,10.848-0.113c3.44,3.265,3.073,7.472-1.176,12.234
	c0,17.947,0,36.029,0,54.387c13.082,0,26.069,0,39.277,0c0.665-5.231,1.188-10.55,2.035-15.817
	c4.289-26.657,15.078-50.187,35.195-68.542c28.512-26.013,61.48-33.345,97.8-19.634c22.867,8.634,39.334,25.084,47.981,48.157
	c9.266,24.723-6.784,52.284-32.69,57.463c-24.836,4.964-48.744-11.367-52.729-36.017c-5.446-33.69,26.965-60.417,59.125-48.758
	c0.286,0.104,0.594,0.149,0.891,0.222c0.131-0.263,0.262-0.525,0.393-0.789c-5.182-2.665-10.163-5.86-15.58-7.902
	c-24.158-9.105-47.657-7.564-69.634,6.315c-19.41,12.259-30.679,30.462-35.862,52.612c-4.603,19.669-2.307,38.976,3.089,58.117
	c5.962,21.145,16.259,40.219,28.929,57.923c14.218,19.867,29.239,39.158,43.889,58.716c15.27,20.386,29.391,41.493,39.685,64.906
	c8.752,19.905,14.238,40.705,16.094,62.397c3.763,44.009-5.447,85.426-25.476,124.539c-16.898,33.004-40.1,61.079-67.863,85.515
	c-17.172,15.114-35.685,28.318-55.596,39.569C436.531,670.65,433.376,672.354,429.948,674.245z M193.945,172.451
	c-0.194,0.753-0.343,1.159-0.399,1.578c-2.833,20.828-9.565,40.459-18.563,59.334c-10.919,22.908-24.766,44.099-38.773,65.187
	c-12.973,19.53-25.962,39.058-36.025,60.324c-7.495,15.838-12.896,32.294-14.681,49.838c-1.794,17.64-0.447,35.042,3.706,52.23
	c6.421,26.573,19.065,50.058,36.263,71.099c22.733,27.813,50.931,48.605,83.405,63.729c3.223,1.501,6.542,2.796,10.202,4.349
	c0.995-6.423,1.91-12.324,2.876-18.552c4.388,0,8.497,0,12.667,0c0-136.604,0-272.818,0-409.115
	C220.938,172.451,207.577,172.451,193.945,172.451z M393.52,581.65c1.017,6.213,1.951,11.913,2.945,17.98
	c1.284-0.437,2.215-0.667,3.072-1.058c4.484-2.041,9.016-3.991,13.412-6.21c32.09-16.192,59.654-37.942,81.323-66.798
	c18.56-24.715,30.681-52.077,34.58-83.015c3.886-30.835-2.21-59.617-15.941-87.171c-10.44-20.949-23.408-40.343-36.276-59.793
	c-14.451-21.845-28.591-43.854-39.384-67.806c-6.634-14.721-11.877-29.904-14.679-45.861c-0.545-3.108-1.15-6.207-1.746-9.409
	c-13.414,0-26.638,0-40.058,0c0,136.417,0,272.625,0,409.14C385.074,581.65,389.206,581.65,393.52,581.65z M326.899,581.556
	c0-136.407,0-272.617,0-409.053c-5.188,0-10.169,0-15.323,0c0,136.461,0,272.753,0,409.053
	C316.815,581.556,321.718,581.556,326.899,581.556z M265.461,172.466c0,136.591,0,272.75,0,409.059c5.268,0,10.241,0,15.375,0
	c0-136.489,0-272.749,0-409.059C275.608,172.466,270.7,172.466,265.461,172.466z M288.417,172.403c0,136.56,0,272.785,0,409.039
	c5.338,0,10.397,0,15.468,0c0-136.524,0-272.729,0-409.039C298.597,172.403,293.674,172.403,288.417,172.403z M357.65,172.53
	c0,136.484,0,272.677,0,409.061c5.218,0,10.188,0,15.423,0c0-136.487,0-272.66,0-409.061
	C367.887,172.53,363.001,172.53,357.65,172.53z M257.816,581.538c0-136.374,0-272.578,0-409.009c-5.25,0-10.218,0-15.435,0
	c0,136.414,0,272.594,0,409.009C247.614,581.538,252.605,581.538,257.816,581.538z M334.582,172.488c0,136.517,0,272.697,0,409.004
	c5.231,0,10.191,0,15.307,0c0-136.451,0-272.632,0-409.004C344.712,172.488,339.817,172.488,334.582,172.488z"/>
</svg>
