<?xml version="1.0" encoding="utf-8"?>
<!-- Generator: Adobe Illustrator 16.0.0, SVG Export Plug-In . SVG Version: 6.00 Build 0)  -->
<!DOCTYPE svg PUBLIC "-//W3C//DTD SVG 1.1//EN" "http://www.w3.org/Graphics/SVG/1.1/DTD/svg11.dtd">
<svg version="1.1" id="Capa_1" xmlns="http://www.w3.org/2000/svg" xmlns:xlink="http://www.w3.org/1999/xlink" x="0px" y="0px"
	 width="612px" height="792px" viewBox="0 0 612 792" enable-background="new 0 0 612 792" xml:space="preserve">
<path fill-rule="evenodd" clip-rule="evenodd" d="M515.52,190.325c1.98,9.175,1.777,12.927,0,22.856
	c-9.067,36.465-22.1,71.526-36.883,106.03c-59.596,139.087-129.57,272.968-202.703,405.279c-2.108,3.814-5.873,7.149-5.207,12.149
	c4.726,2.724,10.587-0.404,16.111,5.256c1.363,9.315-9.717,19.29-3.037,30.634c8.633,5.124,24.496-0.846,32.2,17.165
	c-17,0-30.027-0.561-43.449-0.385c-52.002,0.675-104.019,0.238-156.03,0.328c-5.676,0.01-11.003-0.288-14.961-5.04
	c-1.65-2.098-3.81-4.348,0-7.619c7.9-8.082,7.9-18.673,0-27.936c-1.81-2.543-2.56-4.793,0-7.619
	c5.3-4.575,12.019-2.974,17.071-3.812c26.236-66.7,17.764-135.045,14.841-203.047c-2.473-4.196,2.857-4.865,2.986-9.114
	c-0.509-3.194-5.971-4.548-4.386-10.274c4.256-6.964,4.679-9.934,4.679-16.198c0.002-105.347-0.084-210.692,0.193-316.04
	c0.019-7.056-1.737-12.862-4.994-17.019c-0.82-5.541,4.37-6.287,4.596-10.669c-0.726-0.821-1.705-2.111-2.871-3.202
	c-1.711-1.6-2.092-3.551-0.434-5.843c6.16-43.796,5.614-87.094-12.252-127.287C127.458,8.553,135.016,8.097,144,6.073
	c6.497-0.779,11-0.823,18.511,1.398c9.238,2.564,18.121,4.688,28.237,2.8c12.368-2.307,25.232-2.076,37.76,1.086
	c43.34,10.938,69.75,40.957,88.225,79.282c13.053,27.075,19.653,56.512,28.949,84.956c3.936,12.046,8.043,24.044,14.626,34.957
	c9.242,15.325,18.733,18.459,35.193,11.46c11.863-5.042,21.225-13.678,30.632-22.214c10.931-9.92,21.091-20.813,34.399-27.802
	C484.042,159.648,504.882,166.59,515.52,190.325z M469.86,224.178c-16.673,15.883-31.435,33.851-50.706,45.279
	c0,14.271,0,27.127,0,39.984c18.676-27.886,37.248-57.221,52.013-86.858C471.135,222.708,469.893,224.054,469.86,224.178z
	 M197.793,647.468c8.873-9.108,8.873-9.108,14.471-17.162c0-174.19,0-347.28,0-520.277c-5.833-0.811-8.889-0.661-16.264,2.971
	c0,43.933,0.354,91.23,0.364,136.783c0.021,98.475-0.237,196.953,0.235,295.427c0.164,34.171-1.141,68.385,1.457,102.516
	l-0.29-0.042L197.793,647.468z M192.667,113.917c-11.89,7.344-18.332,15.287-22.13,26.403c9.071,5.037,5.005,10.578-0.017,15.396
	c1.359,4.204,6.611,5.617,4.609,11.414c-4.523,6.637-4.586,9.977-4.587,16.175c-0.029,104.931-0.001,209.859-0.066,314.79
	c-0.004,6.766-1.726,7.154,4.141,16.893c2.564,6.522-3.997,7.271-3.862,11.405c0.917,3.207,4.744,5.042,4.174,9.04
	c-6.397,11.855-6.379,128.078-0.027,143.799c20.849-19.482,18.234-26.951,18.158-45.69c-0.675-167.479-0.393-334.961-0.393-502.44
	C192.667,126.174,192.667,121.246,192.667,113.917z M233.173,114.823c-5.565-2.828-8.71-4.157-15.447-3.817
	c0,169.478,0,338.829,0,509.873c10.885-10.543,15.86-20.504,15.779-34.625c-0.607-107.047-0.332-214.101-0.332-321.152
	C233.173,215.192,233.173,165.28,233.173,114.823z M237.625,118.431c0,158.563,0,315.827,0,475.134
	c10.604-10.876,16.298-20.873,16.23-34.734c-0.485-98.914-0.443-197.831-0.535-296.745c-0.041-43.896-0.007-87.791-0.007-130.88
	C248.517,126.045,245.112,121.12,237.625,118.431z M258.017,137.476c0,143.769,0,284.739,0,429.118
	c6.66-9.271,11.266-15.682,15.595-21.706c0.162-1.853,0.362-9.628,0.359-10.889c-0.156-122.562-0.022-250.773,0.362-373.332
	C268.333,151.333,268.043,148.979,258.017,137.476z M277.738,536.178c11.584-11.84,16.169-23.504,16.066-38.72
	c-0.656-96.426-0.767-197.641-0.352-294.07c-7.785-17.388-6.706-21.223-15.714-35.514
	C277.738,292.108,277.738,413.164,277.738,536.178z M298.113,506.82c8.725-11.368,15.637-20.076,15.536-33.722
	c-0.561-75.596-0.803-156.406-0.431-232.004c-5.035-9.427-7.68-16.962-15.105-31.417
	C298.113,307.914,298.113,406.148,298.113,506.82z M317.722,477.437c9.904-12.914,16.203-22.47,16.007-36.52
	c-0.77-55.386-0.332-116.862,0.271-172.25c-9-10-7-9.667-16.278-22.88C317.722,322.988,317.722,398.225,317.722,477.437z
	 M338.357,445.825c8.496-12.194,15.651-20.883,15.234-34.667c-1.034-34.196-0.35-68.443-0.354-102.671
	c-0.003-10.903-0.001-21.805-0.001-32.403c-5.98-1.937-8.736-2.834-14.879-6.359C338.357,327.636,338.357,385.291,338.357,445.825z
	 M359.07,279.147c0,44.327,0,87.917,0,133.247c10.856-11.144,15.135-22.006,14.62-35.711c-0.886-23.568-0.092-47.194-0.319-70.792
	c-0.081-8.264-0.121-13.39-0.121-24.89C368.969,280.536,363.501,279.626,359.07,279.147z M379.009,377.61
	c5.909-6.897,13.712-12.986,13.993-21.823c0.8-25.155,0.28-50.351,0.28-75.995c-5.953,0.623-9.782,1.208-14.532,0.958
	C378.75,312.885,379.009,346.224,379.009,377.61z M398.916,278.438c0,22.314,0,44.037,0,67.142
	c22.435-21.718,12.777-47.486,14.671-72.947C407.414,275.075,403.211,276.739,398.916,278.438z"/>
</svg>
