<?xml version="1.0" encoding="utf-8"?>
<!-- Generator: Adobe Illustrator 16.0.0, SVG Export Plug-In . SVG Version: 6.00 Build 0)  -->
<!DOCTYPE svg PUBLIC "-//W3C//DTD SVG 1.1//EN" "http://www.w3.org/Graphics/SVG/1.1/DTD/svg11.dtd">
<svg version="1.1" id="Capa_1" xmlns="http://www.w3.org/2000/svg" xmlns:xlink="http://www.w3.org/1999/xlink" x="0px" y="0px"
	 width="612px" height="792px" viewBox="0 0 612 792" enable-background="new 0 0 612 792" xml:space="preserve">
<path d="M540.479,433.648c-2.822-11.456,1.291-23.091-3.674-33.586c-12.35-1.841-22.796,7.231-34.567,4.784
	c-3.85-11.283,1.451-23.113-4.341-33.633c-12.031-1.966-22.442,7.127-34.225,4.992c-3.916-11.309,1.283-23.138-4.445-33.966
	c-11.851-1.781-22.311,7.099-34.565,4.994c-2.982-11.179,1.087-22.88-3.803-33.532c-12.135-2.61-22.504,7.002-34.314,4.63
	C383.75,304.75,381.75,296,380,281.5c-41,39.25-51.734,121.028-9.765,189.899c-21.069,30.313-42.362,60.942-65.29,93.929
	c-20.507-38.841-39.832-75.442-59.246-112.217c34.33-33.63,46.313-74.944,40.55-121.361c-8.332-3.562-14.385-5.506-22.728-6.058
	c-6.029,10.397-2.616,23.336-8.958,33.265c-12.16-0.578-20.994-10.005-32.617-9.311c-6.619,10.25-3.309,23.088-8.703,33.31
	c-12.367-0.519-21.31-9.556-32.838-9.443c-7.68,9.86-2.992,23.257-9.64,33.25c-12-0.55-20.952-9.564-32.428-9.392
	c-7.644,9.828-2.909,23.179-9.167,33.253c-12.251-0.116-21.083-9.713-33.064-9.065c-2.855,8.137-2.606,7.191-6.356,19.691
	c36.463,27.407,79.742,43.148,125.392,29.142c24.531,40.054,48.251,78.778,72.196,117.877
	c-14.679,21.809-31.62,38.108-49.626,53.441c-9.81,8.352-19.406,17.003-26.072,28.22c-8.062,13.567-6.027,24.567,5.869,33.985
	c12.821,10.149,24.285,9.584,35.549-2.385c10.845-11.519,16.554-26.153,23.162-40.194c7.007-14.89,13.587-30.027,25.285-43.475
	c6.215,8.796,8.718,17.993,11.744,27.002c5.443,16.215,9.437,33.049,18.5,47.815c9.86,16.067,21.679,19.541,36.377,11.239
	c14.367-8.114,17.837-21.09,9.522-37.06c-5.99-11.504-14.665-21.063-23.242-30.665c-12.459-13.95-25.167-27.74-33.87-46.349
	c12.855-16.048,25.895-32.298,38.902-48.572c13.26-16.589,26.49-33.199,39.325-49.288C471.179,515.072,570.747,480.39,579.5,428.5
	C566.75,431.5,555.75,433.75,540.479,433.648z M355.535,331.191l13.443-2.392l5.651-12.432l6.431,12.047l13.568,1.533l-9.47,9.837
	l2.735,13.379l-12.283-5.967l-11.879,6.736l1.879-13.526L355.535,331.191z M400.27,410.173l-12.282-5.968l-11.879,6.736
	l1.878-13.525l-10.076-9.217l13.445-2.392l5.65-12.432l6.43,12.048l13.568,1.532l-9.471,9.838L400.27,410.173z M427.633,421.509
	l1.879-13.524l-10.076-9.217l13.445-2.393l5.65-12.432l6.429,12.048l13.57,1.534l-9.471,9.837l2.735,13.379l-12.283-5.967
	L427.633,421.509z M477.865,474.864l-12.282-5.967l-11.879,6.735l1.877-13.524l-10.076-9.217l13.446-2.393l5.65-12.432l6.43,12.048
	l13.569,1.533l-9.471,9.837L477.865,474.864z M526.755,472.71l-12.282-5.967l-11.879,6.735l1.878-13.524l-10.076-9.217l13.445-2.392
	l5.65-12.433l6.43,12.048l13.569,1.533l-9.471,9.837L526.755,472.71z M28.832,328.01c-10.638-42.836,12.681-97.11,51.656-121.25
	c41.073-25.44,98.879-20.125,138.515,13.337c0.374,6.694-0.545,12.345-3.176,18.464c-12.07,1.476-21.178-9.729-34.619-8.478
	c-2.194,10.598-4.409,21.297-6.636,32.056c-13.096,1.385-22.24-9.05-35.268-8.952c-2.189,10.831-4.363,21.58-6.607,32.675
	c-13.125,1.624-22.365-8.378-35.294-9.26c-2.279,11.246-4.539,22.409-6.789,33.517c-12.877,0.914-21.765-8.318-33.926-9.21
	c-5.99,10.001-3.546,22.639-8.661,33.149C40.5,332.25,34.455,331.095,28.832,328.01z M525.32,226.379
	C479.055,213.588,416,237.5,386.5,276.5c1.521,15.282,2.006,18.205,4.047,35.025c13.064,3.248,23.514-7.611,35.368-3.339
	c5.058,10.608-0.834,22.645,4.604,32.471c12.336,2.796,22.747-8.509,34.395-3.298c4.232,10.85-0.791,22.133,4.382,32.644
	c11.843,1.659,22.301-7.212,34.498-5.331c4.26,11.085-1.532,23.506,4.218,34.136c12.507,1.542,22.872-7.671,35.004-4.963
	c2.68,11.453-1.299,23.032,3.374,33.445c36.111-3.538,41.74-6.842,51.699-37.042c3.331-10.102,5.9-20.568,7.641-31.066
	C615.743,298.778,581.091,241.803,525.32,226.379z M433.398,278.964l-4.719,12.815l-7.301-11.541l-13.646-0.528l8.72-10.509
	l-3.715-13.14l12.689,5.045l11.35-7.593l-0.875,13.626l10.728,8.448L433.398,278.964z M477.277,286.025l-7.301-11.541l-13.646-0.528
	l8.72-10.509l-3.715-13.141l12.689,5.045l11.35-7.593l-0.875,13.626l10.729,8.449l-13.232,3.377L477.277,286.025z M511.987,325.265
	l-4.719,12.815l-7.3-11.541l-13.646-0.528l8.72-10.509l-3.715-13.141l12.689,5.045l11.35-7.593l-0.876,13.626l10.729,8.449
	L511.987,325.265z M538.487,332.75l8.72-10.509l-3.715-13.141l12.688,5.045l11.35-7.593l-0.876,13.627l10.729,8.448l-13.231,3.377
	l-4.718,12.814l-7.301-11.541L538.487,332.75z M580.698,387.944l-4.719,12.814l-7.301-11.54l-13.646-0.528l8.719-10.509
	l-3.714-13.141l12.689,5.045l11.35-7.594L583.2,376.12l10.729,8.447L580.698,387.944z M126.279,423.524
	c2.232-10.853,4.44-21.586,6.642-32.292c13.221-1.941,22.214,9.797,34.162,8.158c6.736-10.266,2.334-23.427,9.014-33.159
	c12.109,0.889,21.11,9.688,32.52,9.487c7.536-9.911,2.208-23.547,10.11-33.156c11.747,0.635,20.672,9.923,32.233,9.053
	c6.106-10.294,3.089-22.513,8.073-32.094C268.256,318.708,276,321.25,285,324c-4.246-36.925-35.674-86.962-59.61-95.959
	c-5.15,4.605-0.476,12.989-7.219,17.817c-10.993-0.556-20.43-9.816-31.721-9.493c-7.189,10.363-2.585,23.151-9.581,32.524
	c-12.16,0.924-20.872-9.313-32.33-8.575c-7.443,9.945-2.418,23.417-9.812,33.595c-11.531-1.272-20.683-9.509-31.66-9.835
	c-8.34,9.81-2.367,23.719-10.495,33.102c-11.895,0.214-20.597-9.835-31.863-8.814c-8.114,9.907-1.864,23.748-10.344,33.62
	c-4.206-0.75-5.098-0.493-8.117-1.482c-3.429-1.128-6-1.25-12.25-3c6.391,38.414,23.28,73.187,52.33,99.783
	c6.891-16.579,5.92-14.533,9.871-23.439C103.671,414.415,113.046,423.942,126.279,423.524z M221.922,262.552l6.044-12.246
	l6.043,12.246l13.514,1.963l-9.779,9.532l2.309,13.459l-12.086-6.354l-12.087,6.354l2.309-13.459l-9.779-9.532L221.922,262.552z
	 M207.37,309.276l6.044-12.246l6.043,12.246l13.514,1.963l-9.779,9.532l2.309,13.459l-12.086-6.354l-12.087,6.354l2.309-13.459
	l-9.779-9.532L207.37,309.276z M147.612,315.448l6.044-12.246l6.043,12.246l13.514,1.963l-9.779,9.531l2.309,13.459l-12.086-6.354
	l-12.087,6.354l2.309-13.459l-9.779-9.531L147.612,315.448z M120.198,360.337l6.043-12.246l6.043,12.246l13.514,1.963l-9.778,9.532
	l2.309,13.459l-12.087-6.354l-12.087,6.354l2.309-13.459l-9.779-9.532L120.198,360.337z M78.192,364.143l2.309,13.459l-12.087-6.354
	l-12.087,6.354l2.309-13.459l-9.779-9.532l13.514-1.963l6.043-12.246l6.043,12.246l13.514,1.963L78.192,364.143z"/>
</svg>
