<?xml version="1.0" encoding="utf-8"?>
<!-- Generator: Adobe Illustrator 16.0.0, SVG Export Plug-In . SVG Version: 6.00 Build 0)  -->
<!DOCTYPE svg PUBLIC "-//W3C//DTD SVG 1.1//EN" "http://www.w3.org/Graphics/SVG/1.1/DTD/svg11.dtd">
<svg version="1.1" id="Capa_1" xmlns="http://www.w3.org/2000/svg" xmlns:xlink="http://www.w3.org/1999/xlink" x="0px" y="0px"
	 width="612px" height="792px" viewBox="0 0 612 792" enable-background="new 0 0 612 792" xml:space="preserve">
<path fill-rule="evenodd" clip-rule="evenodd" d="M502.964,252.907c5.961-0.402,21.062-6.648,21.53-8.491
	c-1.102,0-2.141,0.087-3.16-0.016c-3.463-0.352-6.259-1.786-7.776-5.111c-1.469-3.217-0.443-6.067,1.48-8.672
	c2.928-3.963,9.612-5.493,13.925-3.294c5.656,2.883,6.055,9.798,0.853,14.335c-0.648,0.565-1.152,1.296-1.723,1.951
	c0.211,0.258,0.422,0.517,0.633,0.776c7.313-2.697,14.625-5.394,21.989-8.11c0.248-1.78-0.551-1.986-2.103-1.943
	c-6.617,0.185-10.83-4.531-9.363-10.306c1.752-6.899,11.791-10.192,17.288-5.67c3.723,3.062,3.889,8.496,0.359,12.204
	c-0.425,0.447-0.999,0.768-1.359,1.254c-0.46,0.621-0.772,1.351-1.149,2.034c0.756,0.068,1.603,0.394,2.251,0.163
	c6.56-2.338,13.086-4.768,19.711-7.205c0.26-2.272-1.062-2.315-2.73-2.335c-6.31-0.073-10.186-4.444-8.831-9.996
	c0.968-3.966,3.784-6.262,7.555-7.452c3.711-1.17,7.223-0.687,10.173,1.91c3.792,3.338,3.166,9.334-1.282,12.918
	c-1.123,0.905-2.198,1.616-0.612,3.206c1.563-0.51,3.199-1.115,4.875-1.578c8.739-2.413,17.241,1.222,21.852,9.304
	c4.698,8.236,3.64,16.723-3.095,23.19c-5.651,5.427-12.425,8.097-20.135,5.86c-7.356-2.134-12.722,0.121-17.208,5.816
	c-4.756,6.035-9.146,12.434-14.472,17.923c-5.626,5.799-12.108,10.779-18.339,15.97c-2.002,1.668-4.389,2.317-6.729,0.244
	c-6.756-5.985-14.218-5.845-21.633-1.791c-6.565,3.59-12.869,7.69-19.113,11.83C425.1,352.615,365.02,392.54,306.292,431.515
	c-28.398,18.846-56.822,37.655-85.236,56.479c-5.221,3.46-6.591,9.574-3.053,14.747c5.771,8.438,14.052,12.952,24.896,10.019
	c4.413-1.194,8.692-2.896,13.015-4.417c4.548-1.6,8.972-1.695,12.593,1.885c3.5,3.461,3.807,7.854,2.307,12.328
	c-4.544,13.544-14.473,21.578-27.437,26.358c-10.664,3.932-21.825,5.778-33.017,7.286c-9.852,1.327-17.302,6.192-22.827,14.253
	c-8.085,11.797-16.069,23.664-24.203,35.429c-6.021,8.707-11.83,17.595-19.938,24.636c-14.755,12.813-31.839,17.63-51.143,15.322
	c-9.24-1.104-16.765-5.748-23.988-11.059c-15.845-11.651-28.224-26.436-37.801-43.464c-7.872-13.995-15.666-28.1-22.361-42.675
	c-10.11-22.011-7.451-43.326,7.625-62.194c12.551-15.71,29.209-25.409,49.395-28.198c8.389-1.159,16.895-1.482,25.28-2.664
	c23.131-3.262,44.483-10.483,60.83-28.386c7.38-8.082,15.066-15.897,22.169-24.213c3.418-4.002,5.431-6.986,10.428-11.84
	C197,380,210.796,374.408,226.434,370.458c5.311-1.341,10.421-0.596,15.191,1.826c6.639,3.372,11.443,13.209,3.171,19.974
	c-6.285,5.138-12.522,10.354-18.484,15.858c-3.481,3.215-6.679,6.843-9.468,10.676c-4.071,5.595-3.653,11.636-0.196,17.417
	c2.798,4.68,8.649,5.829,13.239,3.017c24.54-15.035,49.106-30.027,73.662-45.038c19.659-12.019,37.311-24.05,56.975-36.063
	c39.553-24.164,81.116-48.31,120.649-72.506c1.709-1.046,3.301-2.377,4.69-3.822c2.358-2.449,3.323-5.34,2.103-8.754
	c-0.532-1.488-0.777-3.078-1.191-4.61c-1.253-4.638,0.896-8.901,5.399-10.615c2.457-0.936,4.933-1.823,8.225-3.036
	c-1.284-0.522-1.818-0.915-2.369-0.937c-6.572-0.257-10.143-3-10.193-7.902c-0.055-5.25,4.747-9.787,10.64-10.055
	c6.624-0.3,11.08,4.289,9.456,10.097c-0.533,1.908-2.172,3.519-3.367,5.223C504.121,251.837,503.503,252.344,502.964,252.907z"/>
</svg>
