<?xml version="1.0" encoding="utf-8"?>
<!-- Generator: Adobe Illustrator 16.0.0, SVG Export Plug-In . SVG Version: 6.00 Build 0)  -->
<!DOCTYPE svg PUBLIC "-//W3C//DTD SVG 1.1//EN" "http://www.w3.org/Graphics/SVG/1.1/DTD/svg11.dtd">
<svg version="1.1" id="Capa_1" xmlns="http://www.w3.org/2000/svg" xmlns:xlink="http://www.w3.org/1999/xlink" x="0px" y="0px"
	 width="612px" height="792px" viewBox="0 0 612 792" enable-background="new 0 0 612 792" xml:space="preserve">
<path fill-rule="evenodd" clip-rule="evenodd" d="M310.179,68.109c-27.749,13.361-55.519,26.68-81.891,39.351
	c-27.288,20.207-14.514,60.252,5.628,87.636c0.764,1.039,1.64,1.994,2.439,3.008c26.598,33.705,52.162,68.127,73.865,105.277
	c3.045,5.213,4.358,10.403,4.331,16.437c-0.181,40.269-0.447,80.542,0.12,120.803c0.187,13.29-2.261,24.665-9.498,36.274
	c-16.413,26.33-15.616,54.404-0.919,80.981c8.2,14.83,10.992,29.525,10.389,45.982c-0.768,20.96-0.192,41.97-0.193,62.958
	c-0.002,19.349-0.001,38.694-0.001,59.804c-27.081,23.03-61.354,27.995-97.423,33.999c3.285,2.041,3.993,2.842,4.757,2.9
	c9.363,0.717,18.645-0.195,28.36-2.054c2.873,9.847,11.111,12.989,19.467,15.53c25.8,7.849,52.174,7.659,78.632,4.745
	c10.908-1.201,21.658-3.391,31.574-8.483c6.705-3.443,10.896-8.083,7.521-17.212c-17.922-12.158-39.87-10.648-60.861-14.071
	c-0.956-12.261-1.179-23.194,4.833-34.821c20.566-39.782,27.522-79.976-3.104-118.741c-2.909-3.682-2.459-7.851-2.46-12.007
	c-0.018-36.81,0.101-73.622-0.119-110.43c-0.043-7.314,1.392-13.634,5.139-20.103c11.717-20.229,17.348-41.951,14.88-65.634
	c-1.977-18.958-9.049-36.119-16.866-53.115c-1.77-3.851-3.128-7.604-3.12-11.988c0.098-54.568,0.063-109.137,0.063-164.222
	c6.171-5.818,7.588-13.77,6.558-21.825c-2.258-17.646,3.542-32.655,13.807-46.851c19.723-6.068,39.048-14.936,62.164-13.394
	c-11.31-13.458-16.533-27.215-16.796-43.984C367.935,47.917,337.473,54.967,310.179,68.109z M314.424,173.252
	c0.085,40.908,0.035,81.816,0.035,123.426c-1.329-0.802-2.316-1.054-2.688-1.673c-22.944-38.174-50.042-73.375-77.333-108.454
	c-10.171-13.076-15.562-27.985-15.271-44.792c0.144-8.308,2.098-15.884,6.111-21.019c17.414-9.589,35.967-9.928,52.501-17.153
	c10.982-4.798,31.888-11.253,32.377,3.023c-2.021,9.767-1.934,18.758-1.74,27.726c0.251,11.664,5.009,16.132,5.009,16.132
	C314.667,163.333,314.401,162.551,314.424,173.252z M313.99,562.757c-20.185-26.485-19.177-66.776,0-88.12
	C313.99,504.17,313.99,533.167,313.99,562.757z M313.46,742.193c-2.896,0.291-5.333,0.537-10.01,1.008
	c4.089-3.593,6.543-5.75,9.465-8.315C315.295,736.914,314.025,739.201,313.46,742.193z M326.186,596.505
	c26.748,32.601,17.857,76.11,0,106.928C326.186,667.901,326.186,633.137,326.186,596.505z M326.224,335.696
	c18.219,36.057,18.725,70.011,0,104.061C326.224,405.8,326.224,371.841,326.224,335.696z M434.61,34.909
	c4.987,12.91-0.597,22.773-18.165,32.082c-13.609-7.6-21.877-28.734-17.957-45.899C418.722,15.648,428.633,19.44,434.61,34.909z"/>
</svg>
