<?xml version="1.0" encoding="utf-8"?>
<!-- Generator: Adobe Illustrator 16.0.0, SVG Export Plug-In . SVG Version: 6.00 Build 0)  -->
<!DOCTYPE svg PUBLIC "-//W3C//DTD SVG 1.1//EN" "http://www.w3.org/Graphics/SVG/1.1/DTD/svg11.dtd">
<svg version="1.1" id="Capa_1" xmlns="http://www.w3.org/2000/svg" xmlns:xlink="http://www.w3.org/1999/xlink" x="0px" y="0px"
	 width="612px" height="792px" viewBox="0 0 612 792" enable-background="new 0 0 612 792" xml:space="preserve">
<path fill-rule="evenodd" clip-rule="evenodd" d="M250.562,763.748c-0.094-2.094-0.242-3.865-0.242-5.637
	c0.037-113.261,0.13-226.521-0.004-339.781c-0.006-5.412,2.117-8.521,6.491-10.396c5.474-2.344,7.179-6.279,7.138-12.019
	c-0.247-35.242-0.375-70.488-0.256-105.731c0.023-6.629-1.136-11.714-8.167-14c-2.142-0.696-4.664-1.626-4.821-4.643
	c-0.168-3.236,2.463-3.463,4.597-4.518c11.613-5.732,15.768-14.864,11.995-27.341c-1.703-5.634-4.472-10.946-6.896-16.733
	c7.786-6.992,16.808-12.518,23.419-20.687c7.773-9.604,13.925-20.469,10.548-32.864c-2.977-10.927-7.732-21.495-12.996-31.786
	c-3.435-6.717-8.921-12.798-10.496-19.827c-2.262-10.097-8.289-18.15-11.854-27.464c-4.969-12.979-11.285-25.521-17.977-37.727
	c-4.039-7.367-5.202-15.927-10.106-22.727C219.88,14.54,204.74,6.642,185.823,7.712c-18.527,1.048-36.371,4.286-45.226,24.025
	c-0.586,1.307-1.675,2.461-2.734,3.472c-14.293,13.653-17.294,30.188-11.489,48.386c3.362,10.54,5.868,21.298,9.861,31.796
	c5.795,15.233,17.432,27.702,19.954,44.221c0.254,1.67,2.592,3.164,4.201,4.439c1.417,1.125,2.688,1.875,2.796,4.106
	c0.507,10.379,6.542,19.133,10.429,28.126c3.915,9.059,9.024,19.618,20.646,23.236c4.68,1.456,4.977,6.275,5.839,10.343
	c2.678,12.635,2.141,26.481,14.709,35.195c2.477,1.717,2.291,6.193-1.372,7.262c-6.74,1.967-7.942,7.411-9.702,12.809
	c-6.013,18.452-11.738,37.005-18.228,55.287c-5.61,15.805-5.257,32.37-2.215,47.752c1.916,9.688,15.393,13.932,23.595,20.724
	c1.609,1.332,3.173,2.854,5.021,3.74c10.998,5.273,12.978,14.368,12.946,25.705c-0.289,105.199-0.158,210.397-0.209,315.598
	c-0.002,3.206,0.802,6.54-0.688,9.603c-26.958,8.557-34.43,14.116-34.153,25.84c30.145,0,60.303,0.006,90.461-0.016
	c1.763-0.002,3.527-0.228,6.903-0.459C280.458,771.444,265.572,767.544,250.562,763.748z M207.596,223.921
	c1.339-7.367-2.148-10.666-8.475-13.253c-11.507-4.706-12.56-8.877-6.017-19.705c5.446-9.014,13.112-16.055,20.486-23.431
	c-13.611,5.014-21.872,16.134-29.973,27.155c-6.863-1.88-6.846-6.787-5.682-11.568c1.549-6.369,4-12.515,5.713-18.85
	c0.853-3.155,3.376-6.826-1.445-9.783c-5.167,1.738-5.511,7.111-8.879,12.761c-2.022-10.871,2.142-19.579,3.243-29.453
	c-8.791,2.674-6.996,11.617-12.096,16.77c-4.767-12.024,3.399-22.681,2.056-34.302c-8.271,1.694-5.36,10.277-10.57,14.599
	c-3.845-5.273-2.093-10.684-1.548-15.999c0.519-5.06,3.088-10.198,0.207-15.659c-6.917,1.6-5.387,8.355-8.918,12.728
	c-3.595-8.565-0.471-16.7-0.717-24.669c-0.11-3.59,0.638-8.553-5.628-5.215c-0.022,0.122-0.05,0.24-0.071,0.362
	c-0.067-0.054-0.12-0.109-0.183-0.163c-0.482,4.356-0.964,8.715-1.447,13.074c-6.077-18.722-10.204-37.263,4.283-53.989
	c3.222-3.718,6.474-7.15,2.512-11.807c7.45-8.59,15.476-0.159,23.229-1.55c0.508-8.485-7.26-7.42-11.38-10.361
	c6.473-3.611,9.658-3.723,15.577-1.847c5.034,1.598,8.279,6.939,14.507,6.81c2.809-7.6-4.288-9.35-7.907-13.521
	c11.535-1.512,15.947,7.812,21.846,14.091c6.817-4.688-0.541-8.185,0.146-12.092c15.049,9.905,15.095,9.926,16.942,7.349
	c6.694,3.837,11.536,9.098,14.094,18.01c-15.492-6.925-30.935-11.21-46.401-6.258c-22.155,7.094-39.855,20.02-46.396,44.078
	c-0.732,2.691-2.468,5.538,0.397,8.013c0.003-0.025,0.005-0.05,0.008-0.075c0.088-0.048,0.16-0.079,0.246-0.125
	c1.984-11.046,8.305-19.655,15.31-28.361c5.4,9.397,7.961,9.892,15.57,2.237c9.87-9.93,21.189-15.314,35.406-13.417
	c3.2,0.428,6.561,0.403,9.66,3.645c-19.648,0.525-36.964,4.854-47.985,22.993c5.404,6.824,9.959,2.872,13.95-0.291
	c13.062-10.345,27.664-13.443,43.839-10.282c3.823,0.748,7.397,1.88,12.394,5.943c-25.575-2.16-47.92-0.238-63.428,21.365
	c6.685,6.934,10.743,1.845,14.574-1.253c12.865-10.401,27.386-14.031,43.6-11.617c2.631,0.393,5.259,0.722,8.645,3.793
	c-23.843-1.083-45.414,1.048-58.892,23.049c5.461,6.09,8.892,1.382,12.015-0.979c10.194-7.708,20.983-13.895,34.101-14.315
	c7.664-0.244,15.368,0.158,22.702,7.612c-8.879,0.266-16.085-0.917-23.245,0.201c-11.48,1.794-21.939,5.678-30.736,13.422
	c-3.572,3.145-6.168,6.68-2.319,11.8c6.134,0.52,10.347-3.691,14.923-6.658c10.935-7.09,22.735-10.361,35.725-9.021
	c8.362,0.864,11.936,3.108,15.65,9.498c-35.357-1.936-53.025,4.613-56.182,20.945c4.48,3.448,7.138-0.624,9.926-2.749
	c12.448-9.488,26.415-12.046,41.535-9.509c3.137,0.527,6.313,1.384,10.114,4.762c-11.506,0.317-21.819-1.84-31.607,1.862
	c-9.699,3.668-18.797,7.996-21.474,19.72c9.511-4.035,16.761-12.024,27.156-13.951c10.506-1.948,20.67-1.943,30.3,4.692
	c-17.637,0.2-35.255,0.131-49.708,12.43c17.127-6.99,34.457-10.359,52.522-4.073c-14.325-1.007-28.664-2.346-41.119,7.295
	c10.774-2.948,21.715-3.656,32.688-2.128c23.894,3.329,30.326,17.18,17.615,37.429c-1.691,2.319-3.381,4.641-5.071,6.96
	c-5.33,10.254-15.884,14.82-24.585,22.432c5.983,11.64,15.082,24.261,4.857,36.819c-7.383,9.068-19.546,6.786-30.459,5.323
	c6.598-12.604,4.733-18.093-8.458-23.086C210.846,237.551,205.968,232.879,207.596,223.921z M207.38,403.011
	c-2.137-1.628-4.032-3.784-6.418-4.837c-15.668-6.908-16.977-20.446-13.274-33.787c7.392-26.647,16.622-52.783,24.912-78.57
	c5.397-1.216,8.102,2.237,12.246,4.131c-0.436-6.118-4.582-7.805-9.656-9.921c4.344-3.076,7.483-6.302,6.269-11.892
	c8,1.091,15.262,2.563,23.346,1.479c0.32,5.399,2.339,9.319,7.961,11.111c4.813,1.537,6.122,5.839,6.106,10.826
	c-0.104,33.128-0.125,66.256,0.036,99.384c0.031,6.319-2.274,10.487-7.666,13.932C228.758,419.224,228.839,419.352,207.38,403.011z
	 M234.149,428.824c-0.006-5.677,1.648-9.157,9.107-10.121c0,8.835,0,17.18,0,25.522c-0.001,100.147-0.003,200.296-0.005,300.445
	c0,1.792,0.009,3.586-0.003,5.38c-0.024,3.621,0.258,8.213-4.61,8.145c-4.903-0.069-4.38-4.723-4.381-8.301
	C234.246,642.872,234.271,535.849,234.149,428.824z M197.34,783.373c16.992-14.597,64.725-14.422,79.543,0
	C250.365,783.373,224.534,783.373,197.34,783.373z M282.593,192.104c-1.709,2.351-3.399,4.672-5.089,6.992
	c-3.25,1.03-4.631,5.357-9.929,5.095c8.959-10.005,12.076-21.404,11.498-33.948C288.139,172.431,288.385,174.507,282.593,192.104z
	 M262.707,171.811c4.496-2.992,7.771-2.822,10.038,1.592c5,9.73-7.458,33.619-20.19,35.752
	C261.266,197.452,267.979,185.998,262.707,171.811z M248.674,169.801c10.674,3.399,10.276,9.589,9.677,15.449
	c-1.257,12.306-8.064,21.998-17.904,24.072C245.872,196.64,255.162,185.605,248.674,169.801z M226.548,206.563
	c8.682-10.142,14.896-20.715,9.667-35.586c10.854,3.339,10.549,10.219,9.51,16.878C243.875,199.71,236.194,207.624,226.548,206.563z
	 M255.632,246.061c-0.634,5.569-4.866,6.805-9.033,7.141c-6.278-0.068-10.258-6.162-10.18-14.457
	c0.034-3.597,1.319-5.563,5.218-5.353C248.173,233.746,256.232,240.787,255.632,246.061z M219.127,204.548
	c2.322-11.145,11.784-20.304,2.834-33.291c9.283,4.487,10.211,10.284,9.642,16.183C230.914,194.577,229.021,201.431,219.127,204.548
	z M229.141,213.162c9.072,1.981,16.181,4.15,23.727,2.791C245.361,221.246,237.985,220.752,229.141,213.162z M253.658,384.913
	c0.213-29.864,0.102-59.731,0.081-89.597c-0.001-2.365,0.29-5.387-2.383-6.253c-5.896-1.906-11.779-0.646-17.468,1.363
	c-4.844,1.71-5.338,5.671-5.35,10.14c-0.071,26.287-0.362,52.571-0.396,78.858c-0.01,7.364-0.877,14.818,0.915,22.076
	C241.364,401.168,253.6,393.129,253.658,384.913z M233.156,335.956c0.663-8.112,6.233-12.362,15.514-12.637
	c1.903,18.871,1.182,36.712,0.234,54.52c-0.299,5.611-4.402,8.261-12.05,9.615c-2.935-1.741-3.372-4.892-3.691-7.749
	C231.533,365.135,231.967,350.496,233.156,335.956z M197.769,345.425c1.03,23.609,11.812,43.393,23.117,63.075
	c-8.168-6.277-16.284-12.627-24.528-18.804c-4.483-3.36-6.234-7.9-6.272-13.22C190.005,365.606,192.425,355.287,197.769,345.425z
	 M224.252,295.633c0,34.128,0,68.255,0,103.947C220.065,393.343,219.827,302.746,224.252,295.633z"/>
</svg>
