<?xml version="1.0" encoding="utf-8"?>
<!-- Generator: Adobe Illustrator 16.0.0, SVG Export Plug-In . SVG Version: 6.00 Build 0)  -->
<!DOCTYPE svg PUBLIC "-//W3C//DTD SVG 1.1//EN" "http://www.w3.org/Graphics/SVG/1.1/DTD/svg11.dtd">
<svg version="1.1" id="Capa_1" xmlns="http://www.w3.org/2000/svg" xmlns:xlink="http://www.w3.org/1999/xlink" x="0px" y="0px"
	 width="612px" height="792px" viewBox="0 0 612 792" enable-background="new 0 0 612 792" xml:space="preserve">
<path fill-rule="evenodd" clip-rule="evenodd" d="M498.634,396.456c1.209-16.541,15.24-29.516,32.253-29.785
	c4.822-0.077,9.62-0.049,14.303-1.599c15.172-5.022,20.534-21.276,11.113-34.11c-5.287-7.203-13.123-9.093-21.424-10.452
	c-18.432-3.017-29.831-19.715-26.78-38.15c0.782-4.724,3.786-8.387,5.117-12.746c-8.802-9.497-17.454-18.778-26.046-28.114
	c-8.479-9.212-17.819-17.81-25.145-27.868c-13.101-17.99-29.96-30.156-50.785-37.2c-31.335-10.6-63.046-8.933-94.715-2.11
	c-39.014,8.406-74.921,24.471-109.022,44.995c-42.184,25.39-79.271,56.897-111.975,93.482c-26.866,30.056-49.69,63.001-66.536,99.84
	c-9.18,20.073-16.501,40.715-20.577,62.498c-1.476,7.89-1.986,15.899-3.692,23.733c-1.03,11.13-0.974,14.379,0,23.159
	c1.072,5.649,2.003,11.33,3.239,16.943c4.272,19.403,12.576,36.633,27.269,50.449c9.933,9.341,19.668,18.894,29.558,28.282
	c8.017,7.611,16.132,15.119,24.237,22.703c1.427-0.711,2.586-1.246,3.708-1.852c16.825-9.09,37.592-1.392,44.871,16.384
	c2.673,6.528,2.251,13.179,2.278,19.919c0.066,16.001,12.742,27.001,27.347,23.9c8.308-1.764,16.256-10.606,17.861-20.154
	c0.86-5.119,2.205-9.988,4.818-14.536c7.147-12.44,23.296-18.853,37.092-14.587c14.602,4.515,24.057,18.159,23.102,32.828
	c-0.378,5.819-2.301,11.41-2.705,17.844c45.008-13.852,84.215-36.805,120.711-65.609c-5.967-3.891-11.542-7.591-16.858-11.702
	c-16.225-12.544-17.522-36.627-2.479-50.24c11.643-10.538,29.487-10.841,43.001-0.54c4.27,3.254,8.65,5.984,13.96,7.241
	c15.617,3.698,28.927-8.448,26.663-24.286c-1.144-8.011-6.239-13.457-11.235-19.185c-9.222-10.571-10.097-26.301-2.479-38.174
	c7.214-11.246,21.917-16.907,34.947-13.79c12.594,3.012,19.769,12.471,27.038,21.938c1.487,1.937,2.188,4.635,4.989,5.61
	c19.43-25.154,37.593-50.942,53.231-79.071c-4.499-0.355-8.485-0.431-12.394-1.021C509.347,428.734,497.375,413.668,498.634,396.456
	z M453.279,390.82c-17.083,39.124-41.479,73.377-70.631,104.414c-27.1,28.853-57.451,53.675-91.229,74.268
	c-26.868,16.379-55.283,29.389-85.694,37.724c-22.609,6.197-45.633,9.689-69.126,7.997c-26.748-1.927-51.558-9.363-71.468-28.435
	c-16.1-15.42-25.294-34.499-28.578-56.546c-1.188-7.979-1.551-15.983-1.829-21.917c0.731-31.793,8.577-59.773,20.556-86.751
	c12.196-27.466,28.142-52.652,46.762-76.146c19.224-24.256,41.005-46.014,64.859-65.762c20.974-17.363,43.329-32.696,67.291-45.496
	c23.401-12.5,47.793-22.679,73.762-28.992c17.923-4.357,35.979-7.17,54.344-6.939c23.773,0.298,46.692,4.736,67.009,18.06
	c23.003,15.086,36.513,36.536,41.453,63.457C477.926,318.805,468.752,355.381,453.279,390.82z M608.779,345.132
	c-0.131,32.187-22.649,60.648-53.966,68.487c-8.333,2.087-16.725,3.316-25.263,2.73c-6.922-0.477-12.218-3.89-14.8-10.584
	c-2.521-6.532-0.882-12.305,3.854-17.273c3.626-3.804,8.324-4.571,13.277-4.418c9.383,0.291,18.202-1.631,26.11-6.833
	c12.888-8.479,19.569-20.405,17.94-35.883c-1.571-14.919-10.134-25.248-23.528-31.749c-4.709-2.285-9.718-3.132-14.818-3.917
	c-6.835-1.052-12.009-4.498-14.088-11.451c-2.003-6.701,0.16-13.401,5.575-17.701c5.365-4.26,11.574-3.386,17.576-2.393
	C581.607,279.927,608.497,309.175,608.779,345.132z M477.593,575.784c-8.137,30.956-35.632,51.238-67.82,51.255
	c-19.288-0.242-36.106-6.924-50.548-19.598c-7.243-6.355-7.809-16.519-1.54-23.655c5.556-6.326,15.958-6.728,23.082-0.675
	c9.925,8.434,21.225,12.624,34.257,11.066c24.094-2.878,39.016-27.803,30.583-50.553c-2.331-6.289-5.541-11.847-10.263-16.64
	c-5.378-5.46-8.669-11.741-5.413-19.589c4.538-10.939,17.513-13.89,26.231-5.457C477.293,522.376,485.105,547.202,477.593,575.784z
	 M232.605,674.007c-1.219,14.672-6.77,27.847-16.148,39.037c-15.571,18.578-35.598,27.999-60.089,26.83
	c-27.304-1.305-53.526-21.606-62.064-47.659c-3.807-11.618-5.86-23.406-3.83-35.596c1.188-7.132,6.298-12.007,13.417-13.381
	c6.455-1.247,12.956,1.688,16.512,7.468c2.52,4.095,2.075,8.644,1.925,13.162c-0.306,14.492,4.434,26.766,16.08,35.891
	c18.896,14.807,47.378,7.605,57.511-14.373c2.242-4.864,3.803-9.849,4.723-15.106c1.55-8.871,9.316-14.838,17.929-13.949
	C227.124,657.213,233.375,664.743,232.605,674.007z"/>
</svg>
