<?xml version="1.0" encoding="utf-8"?>
<!-- Generator: Adobe Illustrator 16.0.0, SVG Export Plug-In . SVG Version: 6.00 Build 0)  -->
<!DOCTYPE svg PUBLIC "-//W3C//DTD SVG 1.1//EN" "http://www.w3.org/Graphics/SVG/1.1/DTD/svg11.dtd">
<svg version="1.1" id="Capa_1" xmlns="http://www.w3.org/2000/svg" xmlns:xlink="http://www.w3.org/1999/xlink" x="0px" y="0px"
	 width="612px" height="792px" viewBox="0 0 612 792" enable-background="new 0 0 612 792" xml:space="preserve">
<path fill-rule="evenodd" clip-rule="evenodd" d="M410.553,541.278c-17.124,1.712-59.324,3.939-76.502,4.8
	c-1.614,39.916-3.218,79.57-4.824,119.299c2.741,1.092,5.574,0.11,8.104,0.985c8.012,7.022,10.419,23.79,5.639,32.822
	c-1.144,0.076-2.319,0.154-4.371,0.29c2.733,1.742,4.899,2.997,6.926,4.446c2.242,1.606,4.658,3.439,3.636,6.636
	c-1.033,3.226-3.952,3.674-6.958,3.749c-3.797,0.095-6.931-1.211-9.448-4.038c-2.594-2.914-5.192-5.823-7.788-8.732
	c-4.404,0.552-8.73,1.094-13.313,1.668c0.402,2.297,1.976,3.806,3.104,5.483c1.743,2.595,3.051,5.265,1.419,8.246
	c-1.435,2.622-4.161,2.975-6.846,2.706c-3.533-0.353-6.485-1.84-7.489-5.531c-0.833-3.067-1.278-6.24-1.984-9.817
	c-5.332-0.143-10.635,0.813-16.046,1.469c-0.46,2.606-0.738,5.074-1.347,7.458c-1.459,5.703-8.229,8.969-13.523,6.594
	c-1.933-0.867-2.912-2.247-2.342-4.551c0.838-3.386,2.634-6.255,4.933-9.337c-3.666,0.391-6.897,0.733-10.091,1.073
	c-7.613-10.211-7.234-21.597-5.619-33.656c5.425,0.511,9.604-2.366,14.671-3.162c-2.15-39.642-4.292-79.143-6.459-119.079
	c-23.465,1.425-46.604,2.83-69.807,4.24c-1.217,5.523-0.248,10.903-1.062,16.116c-5.804,1.925-11.6,1.064-17.618,1.305
	c-0.812-5.392-1.583-10.512-2.437-16.183c-28.039,1.794-55.991,3.583-84.565,5.411c0,52.792,0,105.316,0,158.052
	c-8.571,1.729-16.674,2.158-25.361,2.852c-7.523-52.68-14.043-105.247-21.077-158.204c-8.369,0-16.41,0-24.75,0
	c-0.511-5.569-1.007-10.964-1.453-15.816c-0.62-1.504-1.799-0.741-2.365-1.511c-0.237-2.177-0.556-4.405-0.709-6.646
	c-0.779-11.356-1.478-22.72-2.29-34.073c-0.243-3.396,0.255-6.626,1.632-9.697c1.882-4.2,2.362-8.628,2.579-13.157
	c0.989-20.679-1.022-41.225-2.635-61.789c-0.677-8.627-1.345-17.256-2.075-25.88c-0.134-1.578,0.684-2.702,1.39-3.923
	c4.677-8.089,9.352-16.18,14.243-24.643c-3.146,0.336-5.355,2.455-8.464,2.634c-2.841-4.513-5.726-9.092-8.637-13.715
	c4.15-5.987,8.223-11.81,12.227-17.681c0.787-1.153,1.923-1.732,3.035-2.378c5.216-3.032,10.452-6.031,15.936-9.188
	c-2.889-4.727-5.705-9.333-8.571-14.023c125.524-75.133,252.254-147.885,380.317-218.9c2.795,5.205,5.354,9.973,8.208,15.29
	c15.695-11.216,34.486-14.491,52.01-21.787c2.637,4.953,5.123,9.625,7.861,14.768c-16.969,9.619-33.865,19.197-50.801,28.797
	c0.712,1.7,1.292,3.085,1.958,4.676c-11.628,6.833-23.12,13.588-34.795,20.45c33.11,62.702,66.102,125.179,99.147,187.759
	c31.187,5.091,59.649,18.18,89.159,28.4c0.257,10.525,0.401,20.68-1.315,30.78c-1.384,8.141-0.64,16.324-0.243,24.491
	c0.287,5.915,0.627,11.824,2.313,17.564c2.003,6.823,5.535,12.496,11.689,16.376c2.6,1.64,5.04,3.531,7.536,5.332
	c4.044,2.918,6.074,6.91,5.989,11.871c-0.169,9.839-0.879,19.648-1.757,29.582c-1.043,0.361-2.018,0.698-3.3,1.143
	c-0.523,5.069-1.056,10.212-1.612,15.604c-18.345,1.746-36.473,3.471-55.025,5.235c-5.663,48.899-13.386,97.294-17.568,146.503
	c-7.143,0.9-13.734,3.244-20.774,3.814c-3.18-3.478-6.29-6.879-9.982-10.917c0.57-44.107,4.649-89.336,1.416-135.159
	C471.085,537.022,440.672,539.16,410.553,541.278 M482.245,341.587c-31.271-61.009-62.33-121.605-93.517-182.45
	c-96.254,55.25-192.16,110.3-288.067,165.351c0.05,0.193,0.1,0.386,0.15,0.579c14.12-0.529,28.239-1.058,42.286-1.584
	c0.49-3.611-0.848-6.335-1.806-9.102c-0.778-2.246-0.528-4.216,0.897-6.016c3.17-4.003,6.481-7.89,10.702-10.852
	c2.795-1.961,5.712-2.884,9.335-2.224c4.173,0.762,8.488,0.82,12.749,1.017c14.05,0.65,27.875-1.197,41.709-3.474
	c18.934-3.116,38.01-5.152,57.141-6.765c18.873-1.591,37.664-0.939,56.483,0.612c16.298,1.343,32.303,5.172,48.667,5.773
	c11.095,0.407,22.258,1.571,33.197-1.774c4.316-1.32,8.481-0.12,12.293,2.014c2.469,1.381,4.702,3.177,7.088,4.714
	c3.289,2.118,4.573,5.168,4.78,8.991c0.354,6.509,0.825,13.017,1.483,19.501c0.593,5.845,2.022,11.422,7.157,15.688
	C457.026,341.587,469.332,341.587,482.245,341.587z M71.5,491.083l-0.417,14.084l-4,0.083l0.167-14.417h-6.917
	c-1.49,4.374-1.045,22.164-1.971,27.071c167.038-10.396,333.699-20.771,500.54-31.154c0.754-3.1,1.44-5.927,2.16-8.885
	c-4.122-2.29-13.541-12.417-17.646-14.698c-0.301,1.422,7,11.084,4.769,11.49c-3.991,2.25-11.989-8.842-15.019-10.24
	c-0.498,1.288,7.084,10.25,5.295,10.646c-4.646,2.268-12.069-8.276-15.128-9.812c-0.088,0.895,4.92,8.53,4.887,9.001
	c-0.043,0.589-0.021,1.197-1.387,2.082c-7.097,0.294-10.607-7.073-17.361-9.901c-0.709,0.035-2.174,0.106-4.024,0.195
	c2.193,2.455,5.105,3.363,6.719,5.814c0.178,1.607,0.564,3.251-0.503,4.839c-4.545,2.224-13.981-8.64-17.33-10.03
	c-0.614,1.521,8.75,10.083,6.228,10.857c-2.162,0.949-4.23,0.468-6.152-0.998c-3.299-2.514-6.646-4.969-9.85-7.599
	c-1.867-1.534-3.747-2.029-6.391-1.146c2.609,1.966,10.582,9.635,8.665,10.135c-1.582,0.547,0,0-1.582,0.547
	c-4.154,1.969-11.019-7.725-14.085-9.38c1.167,2.083,5.167,9.5,4.057,9.772c-3.785,2.218-12.012-7.892-14.557-9.856
	c-0.231,1.31,5.506,10.061,4.604,10.965c-3.511,0.967-6.535,0.375-9.32-2.358c-3.025-2.97-6.425-5.559-9.203-7.924
	c-2.394,0-4.206,0-6.666,0c3.396,2.485,10.42,9.484,9.503,10.234c-1.468,0.574-1.468,0.574-3.746,0.651
	c-4.587,0.432-11.665-7.32-14.587-9.818c-0.454,1.392,7.436,9.818,6.435,10.894c-2.751,1.047-5.404,1.101-7.994-1.24
	c-3.6-3.252-7.426-6.256-11.344-9.523c-1.044,0.065-2.251,0.142-3.819,0.241c2.833,4.031,7.949,6.388,6.535,12.187
	c-3.675,0.935-6.52,0.137-8.917-2.83c-2.517-3.113-5.074-6.248-8.385-8.628c1.951,3.976,7.3,6.093,5.964,11.844
	c-3.314,1.094-6.164,0.596-8.532-2.247c-2.199-2.641-4.512-5.189-6.835-7.725c-0.516-0.563-0.872-1.821-2.189-0.965
	c2.43,3.598,7.14,5.928,6.187,11.357c-2.032,0.726-4.021,0.343-6.089,0.185c-3.798-3.38-6.972-7.384-10.313-11.027
	c-2.306,0-4.49,0-7.109,0c2.779,4.145,8.008,6.511,6.894,12.408c-2.068,0.402-4.05,0.253-5.933,0.054
	c-2.559-1.856-4.279-4.31-6.289-6.475c-4.77-5.136-4.745-5.158-6.651-5.007c2.056,4.148,5.188,6.613,4.886,12.165
	c-1.451,0.473-2.773,0.95-5.653-1.686c-3.494-3.199-7.136-6.238-10.713-9.345c-1.035-0.714-2.933-0.99-4.905-0.123
	c2.301,3.215,4.487,6.271,6.5,9.083c-0.218,1.633-0.624,2.706-1.81,3.561c-1.148,0-2.438,0-4.029,0
	c-2.563-3.538-5.247-7.14-7.807-10.831c-1.088-1.566-2.2-2.344-4.016-1.259c1.328,4.453,7.447,6.632,5.939,12.494
	c-2.091,0.646-3.843,1.381-5.939,0.134c-1.518-2.108-3.019-4.552-4.882-6.676c-1.725-1.964-2.186-5.396-5.958-5.885
	c1.693,4.893,6.863,7.772,5.646,13.328c-2.1,0.486-3.958,0.665-6.022-0.138c-2.563-4.045-5.212-8.227-7.865-12.414
	c-2.778-0.063-5.4,0.005-7.976,0.592c1.538,4.566,6.003,7.66,4.743,12.97c-1.918,0.708-3.614,0.808-5.604,0.193
	c-2.424-4.296-4.905-8.69-7.367-13.051c-1.759,0.286-3.312-0.068-4.648,0.794c1.438,4.484,6.063,7.653,4.799,13.135
	c-1.95,0.389-3.664,0.636-5.708-0.018c-2.376-4.247-4.847-8.664-7.355-13.149c-2.827,0.261-5.463,0.503-8.208,0.756
	c1.238,4.658,5.232,8.037,4.615,12.875c-1.883,1.303-3.548,1.357-5.566,0.438c-2.223-4.178-4.541-8.533-6.811-12.798
	c-1.386-0.121-2.518-0.283-3.336,0.247c0.307,4.912,5.912,8.463,3.118,13.711c-3.267,0.838-4.956-0.288-6.081-2.861
	c-1.557-3.557-3.328-7.02-4.983-10.473c-1.577-0.195-2.944-0.271-4.316,0.416c1.583,4.34,5.5,7.89,4.399,13.034
	c-2.083,1.151-3.872,0.88-5.886,0.066c-2.128-4.333-4.295-8.746-6.428-13.091c-3.454,0.226-6.549,0.427-9.728,0.634
	c1.602,4.795,5.792,8.35,4.591,13.63c-1.845,0.567-3.329,0.745-5.118,0.049c-2.316-4.273-4.728-8.722-7.188-13.258
	c-1.463,0.079-2.802,0.151-4.314,0.232c1.483,4.791,5.888,8.343,4.407,13.725c-1.642,0.456-3.056,1.116-4.953,0.646
	c-2.973-4.152-4.471-9.348-7.083-13.552c-3.125,0-5.916,0-8.93,0c0.975,4.77,3.599,8.837,3.239,13.531
	c-1.833,1.294-3.588,1.483-5.914,0.438c-1.573-4.331-3.244-8.937-4.921-13.557c-1.47,0.176-2.67-0.147-3.903,0.546
	c0.244,4.76,4.099,9.093,2.271,14.163c-2.039,0.505-3.767,0.754-5.717-0.249c-1.428-4.425-2.904-9.005-4.365-13.536
	c-1.345-0.13-2.499-0.531-3.522,0.297c0.661,4.633,3.78,8.805,2.286,13.913c-2.015,0.678-3.909,0.956-5.898-0.271
	c-2.037-4.204-2.436-8.998-4.197-13.376c-3.204,0.04-6.248-0.204-9.258,0.626c-0.39,4.953,2.594,9.631,0.554,14.349
	c-2.08,0.826-3.86,1.086-5.579-0.407c-0.52-4.56-1.04-9.117-1.59-13.945c-1.626,0.32-3.036-0.113-4.672,0.794
	c0.241,4.45,0.896,9.024,0.271,13.53c-1.93,1.295-3.702,1.982-6.219,0.048c0-4.17,0-8.736,0-13.416
	c-4.704-0.435-8.708,0.566-12.785,0.586c-0.212,4.823,0.227,9.174,0.601,13.545c-2.111,1.354-4,1.925-6.136,0.54
	c-0.354-4.492-0.706-8.962-1.061-13.46c-1.8-0.345-3.388-0.23-5.202,0.397c0,4.68,0,9.35,0,14.189
	c-2.046,0.505-3.824,0.96-6.103-0.206c0-4.566,0-9.245,0-14.17c-2.112,0.214-3.722,0.376-5.734,0.579c0,4.947,0,9.743,0,14.673
	c-2.111,0.264-3.802,0.782-5.575-0.138c-0.91-4.715-0.249-9.482-0.847-14.349c-3.665,0.229-7.144,0.447-10.847,0.679
	c-0.433,4.9-0.848,9.593-1.263,14.294c-1.962,1.553-3.909,1.538-6.062,0.519c-0.606-4.74,0.171-9.415,0.282-14.079
	c-2.133,0-3.962,0-5.934,0c-0.449,5.14-0.215,10.117-1.235,15.211c-2.047,0.264-3.967,0.738-5.962-0.395
	c-0.583-4.711-0.129-9.409-0.072-14.28L71.5,491.083z M314.652,666.719c0-39.546,0-78.519,0-117.84
	c-10.78,0.655-21.016,1.278-31.245,1.9c0,39.679,0,79.006,0,118.432C294.067,668.361,304.446,667.533,314.652,666.719z"/>
</svg>
