<?xml version="1.0" encoding="utf-8"?>
<!-- Generator: Adobe Illustrator 16.0.0, SVG Export Plug-In . SVG Version: 6.00 Build 0)  -->
<!DOCTYPE svg PUBLIC "-//W3C//DTD SVG 1.1//EN" "http://www.w3.org/Graphics/SVG/1.1/DTD/svg11.dtd">
<svg version="1.1" id="Capa_1" xmlns="http://www.w3.org/2000/svg" xmlns:xlink="http://www.w3.org/1999/xlink" x="0px" y="0px"
	 width="612px" height="792px" viewBox="0 0 612 792" enable-background="new 0 0 612 792" xml:space="preserve">
<path fill-rule="evenodd" clip-rule="evenodd" d="M564.745,164.637c0.48-1.746-3.481-2.182-5.374-3.031
	c-12.73-5.709-25.634-7.921-38.617-1.389c-19.224-5.518-38.2-10.65-57.663-13.797c-32.209-5.205-59.361,2.159-78.17,30.829
	c-0.649,0.989-1.467,1.868-1.91,2.426c-3.227,0.114-5.614-2.784-8.355-0.428c-3.021,2.914-5.421,6.218-6.427,12.575
	c-0.363,1.451,4.528,2.205,4.178,5.295c-0.744,1.286-1.317,2.335-1.935,3.357c-16.313,27.024-23.071,35.419-38.759,61.719
	c-7.555,12.666-15.426,25.36-23.44,38.205c-8.262-3.308-15.395-3.32-20.553,4.12c-5.917,8.535-1.015,15.147,4.592,21.483
	c-1.135,1.745-2.074,3.188-3.169,4.871c-7.889-3.171-15.263-3.21-20.132,4.285c-5.277,8.123-1.937,15.287,4.311,21.264
	c-1.708,2.968-2.7,5.853-5.544,7.833c-7.01-2.273-14-2.882-19.197,4.062c-6.467,8.639-1.357,15.56,5.02,23.355
	c-8.287,2.017-17.079-2.035-22.676,5.59c-6.379,8.691-2.873,15.601,3.45,22.2c-1.434,1.769-1.612,4.289-5.178,4.512
	c-4.271-3.316-10.345-5.193-14.533-9.956c8.533-14.081,16.819-27.757,25.25-41.668c-7.461-4.999-8.508,1.54-10.348,4.531
	c-41.954,68.201-83.749,136.498-125.55,204.795c-5.086,8.309-10.03,16.705-15.041,25.06c0.765,0.776,2.886,2.239,3.651,3.017
	c4.915-7.014,8.257-14.831,12.377-16.29l3.746,2.124c-1.076,7.074-0.555,13.404,5.4,18.33c-4.389,2.873-5.95-1.593-9.329-0.245
	c-4.006,6.54-8.326,13.592-12.155,19.841c0.509,3.725,4.39,3.782,3.992,7.348c-4.823,4.906-10.028,10.738-18.029,5.506
	c-7.63-4.988-5.888-12.174-2.67-19.14c0.5-1.082,1.099-2.117,1.649-3.177c28.995-55.92,57.972-111.849,86.995-167.755
	c8.925-17.19,17.972-34.319,26.722-51.014c11.257-2.13,16.193-6.553,15.741-13.532c-0.475-7.329-5.723-11.291-16.186-12.196
	c-1.49-0.13-2.988-0.183-4.482-0.256c-23.305-1.156-46.611-2.308-69.916-3.462c-12.251-0.607-24.497-1.317-36.753-1.778
	c-6.556-0.248-12.017,2.178-13.819,8.926c-1.48,5.537-0.382,10.992,5.278,13.931c2.808,1.455,6.175,1.831,9.907,2.867
	c2.414,7.658,2.587,14.908,1.587,22.499c-2.959,22.459-11.106,43.227-19.705,63.904c-13.194,31.726-31.253,61.11-44.513,92.806
	c-11.08,26.485-15.617,52.635-7.18,81.718c14.843,51.169,70.8,55.741,98.906,32.299c10.372-8.65,19.292-18.556,28.079-28.638
	c3.321,1.684,6.193,3.14,9.742,4.939c4.58-7.478,9.003-14.699,12.989-21.21c-1.676-4.185-5.957-3.992-6.652-7.798
	c23.646-41.451,47.427-83.138,71.264-124.924c3.959,2.545,7.942,3.36,10.463,6.879c-6.926,12.256-13.858,24.444-20.7,36.685
	c-1.66,2.968-4.392,6.33,1.193,8.331c3.99-1.533,4.865-5.374,6.55-8.356c22.628-40.049,45.125-80.175,67.649-120.283
	c20.036-35.678,40.094-71.342,60.049-107.063c1.747-3.127,5.771-6.92-0.639-9.824c-5.866,4.564-6.653,12.285-12.302,17.405
	c-2.584-2.297-6.559-2.415-8.332-6.274c22.925-40.25,45.824-80.454,68.657-120.538c8.502,1.042,9.362,0.391,13.539-9.577
	c1.147-3.966-3.629-5.085-3.086-8.302c11.271-21.824,26.53-29.652,52.334-27.052c18.115,1.822,36.192,3.889,53.981,7.269
	c13.406,15.639,89.7,27.829,91.02,15.204C605.987,186,559.004,185.501,564.745,164.637z M157.533,647.731
	c-3.498,5.794-6.8,11.269-10.698,17.725c-16.984-10.404-33.598-20.583-50.933-31.204c3.624-5.965,6.917-11.387,10.677-17.577
	C123.767,627.15,140.211,637.174,157.533,647.731z M154.354,548.527c-8.109-1.133-15.651-1.78-20.218,6.266
	c-4.247,7.482-1.042,13.692,4.064,19.51c-2.9,4.664-5.547,8.92-8.451,13.589c-6.648-1.728-12.823-0.119-18.744,3.276l-3.753-1.856
	c13.034-21.311,26.07-42.625,39.574-64.703c5.322,3.14,10.3,6.077,16.205,9.561C160.166,538.912,157.474,543.365,154.354,548.527z
	 M182.343,503.304c-8.025-1.126-16.167-2.115-20.461,6.579c-3.577,7.239-1.098,13.768,3.837,20.166
	c-6.717-0.482-11.294-4.724-16.985-8.52c9.993-16.287,19.817-32.296,29.636-48.301l2.692,1.401c0.125,0.114,0.25,0.188,0.373,0.194
	h0c-1.561,7.301-2.534,14.383,6.338,19.424C185.808,497.524,184.155,500.281,182.343,503.304z M225.282,433.475
	c-7.993-1.409-16.046-2.438-20.482,6.265c-3.757,7.372-1.543,13.896,4.981,19.366c-2.245,3.498-4.296,6.693-6.669,10.391
	c-10.835-5.526-14.625,0.972-20.192,1.746l-2.602-1.1c11.257-18.475,21.397-35.12,32.212-52.87
	c5.908,3.599,10.909,6.647,15.77,9.608C228.806,430.14,226.626,431.457,225.282,433.475z M238.073,518.856
	c-4.155-2.406-7.208-4.173-10.858-6.286c10.078-17.703,19.935-35.021,29.819-52.384c4.095,0.888,7.04,2.657,10.442,5.892
	C257.91,483.248,248.269,500.555,238.073,518.856z M270.033,461.721c-4.505,0.084-7.114-2.979-11.161-4.741
	c9.714-17.042,19.104-33.514,28.399-49.819c4.58,0.398,7.332,2.556,10.421,5.42C288.252,429.354,279.195,445.443,270.033,461.721z
	 M337.245,342.165c-12.52,22.285-24.829,44.194-37.039,65.929c-4.517-0.334-7.256-2.56-10.53-5.195
	c12.459-21.866,24.904-43.706,37.615-66.015C330.854,338.774,333.664,340.264,337.245,342.165z M408.786,200.489
	c-0.49,4.531-2.555,6.969-5.471,9.858c-10.493-6.408-21.068-12.862-31.963-19.512c1.141-4.085,2.797-6.984,5.933-9.744
	C388.029,187.707,398.555,194.188,408.786,200.489z"/>
</svg>
