<?xml version="1.0" encoding="utf-8"?>
<!-- Generator: Adobe Illustrator 16.0.0, SVG Export Plug-In . SVG Version: 6.00 Build 0)  -->
<!DOCTYPE svg PUBLIC "-//W3C//DTD SVG 1.1//EN" "http://www.w3.org/Graphics/SVG/1.1/DTD/svg11.dtd">
<svg version="1.1" id="Capa_1" xmlns="http://www.w3.org/2000/svg" xmlns:xlink="http://www.w3.org/1999/xlink" x="0px" y="0px"
	 width="612px" height="792px" viewBox="0 0 612 792" enable-background="new 0 0 612 792" xml:space="preserve">
<path fill-rule="evenodd" clip-rule="evenodd" d="M579.875,577c2-1.875,3.167-3.424,4.189-4.846
	c5.836-8.122,9.437-16.816,10.178-27.094c1.415-19.65-4.414-37.236-13.926-53.799c-13.357-23.26-26.999-46.32-36.973-71.35
	c-9.332-23.421-17.029-47.083-13.632-72.808c2.402-18.188,10.571-32.768,27.155-41.847c2.039-1.117,4.438-1.799,6.318-4.136
	c-62.649-23.146-123.277-50.346-186.959-69.043c-0.978,1.925,0.016,2.764,0.7,3.645c7.558,9.723,11.491,20.913,13.433,32.927
	c2.564,15.868,2.424,31.919,2.28,47.869c-0.152,16.865,4.733,32.207,11.554,47.09c14.415,31.453,35.352,58.622,56.962,85.318
	c11.854,14.643,25.033,28.087,37.614,42.072c3.733,4.15,5.258,8.697,3.325,14.23c-3.9,11.167-15.348,16.378-26.743,11.887
	c-6.868-2.707-13.188-6.503-18.776-11.285c-28.535-24.418-50.125-49.691-77.133-76.273c1.614-1.852,0.576-0.761,2.632-2.399
	c7.301-6.284,11.938-9.507,18.645-16.181c-13.436-13.75-26.999-26.537-39.041-40.243c1.582-7.453,2.219-14.006-2.793-20.006
	c-5.58-6.681-10.718-5.563-20.291-4.508c-6.645-6.339-13.729-13.097-20.598-19.648c2.511-18.354-6.201-27.753-24.125-25.292
	c-19.545-18.961-39.578-38.396-59.652-57.871c-3.492,1.566-5.702,3.706-7.613,6.169c-0.928,1.647,1.109,3.286-0.45,5.37
	c-2.329,2.094-3.928,5.875-7.85,7.298c-4.253-1.7-6.892-5.244-9.965-8.224c-13.846-13.426-26.1-28.533-42.017-39.771
	c-19.847-14.011-41.43-22.565-66.216-21.14c-21.261,1.224-38.365,9.675-48.429,29.12c-9.188,17.753-12.094,36.88-9.924,56.71
	c1.336,12.213,4.176,23.941,12.579,33.574c3.42,3.921,7.54,7.021,11.472,10.356c8.1,6.874,9.693,13.167,5.835,23.096
	c-3.295,8.479-8.35,15.905-14.201,22.789c-4.159,4.895-8.52,9.618-12.73,14.352c6.378,8.759,12.757,16.804,21.719,22.978
	c-5.631,5.045-10.993,9.872-6.449,17.675c2.618,4.495,8.119,6.376,13.032,5.03c5.037-1.381,8.223-5.688,8.398-12.18
	c0.189-7.029-5.311-9.069-10.915-11.199c11.145-10.626,21.435-21.727,31.757-32.794c5.569-5.972,11.693-11.911,13.102-20.268
	c1.969-11.676,2.441-23.449-1.52-35.018c-4.136-12.077-10.376-23.037-16.981-33.857c-3.72-6.094-7.946-11.928-10.027-18.921
	c-3.598-12.085,0.946-21.729,12.677-26.609c7.122-2.963,14.205-2.905,21.36,0.046c9.123,3.762,16.596,9.877,23.543,16.613
	c19.741,19.141,38.424,39.32,57.551,59.064c23.301,24.053,46.591,48.117,69.828,72.232c1.786,1.853-0.992-1.077,4.463,4.355
	c-6.871,5.123-11.248,8.742-17.593,13.831c34.229,34.198,68.456,68.394,102.759,102.665c5.587-4.754,9.237-7.942,15.192-14.328
	c0.896,1.314,1.575,1.896,2.729,3.074c12.464,12.748,25.139,26.352,37.569,39.134c24.001,24.68,49.452,47.51,79.771,64.388
	c19.307,10.749,38.295,10.663,57.293-0.61c6.112-3.628,11.748-7.939,18.045-12.668c-0.495,5.026,0.264,9.144,2.595,12.863
	c-0.564,0.886-0.932,1.637-1.458,2.251c-0.866,1.008-1.825,1.938-2.763,2.883c-11.452,11.533-25.747,18.162-40.767,23.478
	c-15.428,5.461-30.408,4.516-44.896-3.356c-7.338-3.987-14.396-8.354-20.924-13.585c-2.07-1.659,0,0-5.466-4.276
	c6.821-16.726,1.709-25.426-12.505-33.753c-10.655-6.242-22.206-2.827-32.099,9.491c-7.037,8.762-6.402,21.693,1.483,30.214
	c10.17,10.989,21.867,11.188,37.257,0.636c24.821,30.895,94.521,45.715,128.645-7.89c11.869-0.219,19.68-5.862,19.668-14.211
	C600.771,582.336,595.5,574.375,579.875,577z M207.021,297.828c-4.275,0.072-8.999-5.353-8.966-10.298
	c0.032-4.768,4.635-9.647,9.04-9.585c4.954,0.069,9.895,5.273,10.048,10.583C217.296,293.849,213.075,297.727,207.021,297.828z
	 M257.111,346.88c-5.481-0.03-9.352-3.654-9.366-8.771c-0.016-5.485,4.813-11.074,9.484-10.978
	c4.438,0.093,8.912,5.237,8.934,10.272C266.188,343.326,262.764,346.91,257.111,346.88z M365.046,493.068
	c-30.225-29.945-60.183-60.174-89.636-91.263c3.257-2.306,4.602-3.762,7.251-5.092c29.479,30.374,58.992,60.779,88.537,91.22
	C368.167,490.833,368.167,490.833,365.046,493.068z M284.793,374.304c0.67-3.404,6.742-8.407,10.263-8.456
	c3.912-0.055,9.56,4.938,10.194,9.015c0.693,4.443-2.567,11.138-9.469,11.901C287.379,385.965,283.908,378.794,284.793,374.304z
	 M329.9,422.183c0.166-4.725,5.246-9.679,9.717-9.477c5.385,0.243,10.27,5.255,10.089,10.351
	c-0.169,4.72-6.117,10.282-10.729,10.031C334.546,432.846,329.729,427.06,329.9,422.183z M371.52,421.313
	c-48.58-49.829-97.032-99.526-145.753-149.5c3.428-4.18,6.568-7.311,10.089-10.041c2.318,0.893,3.552,2.753,5.052,4.236
	c13.976,13.818,27.845,27.744,41.897,41.482c1.537,1.29,2.089,1.755,2.089,1.755c-2.782,5.762,0.272,13.998,3.106,18.921
	c3.115,5.527,8.619,7.768,15.314,7.027c1.974-0.219,3.975-0.194,6.289-0.296c7.418,6.969,14.92,14.017,22.282,20.934
	c-2.234,15.92,2.191,20.519,21.467,22.287c9.907,10.09,20.334,20.12,29.981,31.386C380.119,414.286,375.737,417.528,371.52,421.313z
	 M396.999,472.756c-0.693,3.485-7.389,9.521-10.608,9.563c-3.549,0.047-9.659-5.649-10.348-9.646
	c-0.687-3.989,0.991-9.121,10.411-11.573C395.138,460.966,397.83,468.575,396.999,472.756z M572.058,582.565
	c-5.462-5.889-10.299-11.105-15.26-16.454c-7.57,3.58-14.731,5.728-22.133,2.094c-6.578-3.229-11.832-8.068-15.413-14.457
	c-4.277-7.631-1.457-16.021,8.027-24.975c8.849-8.352,17.022-9.979,25.169-5.013c12.663,7.721,16.348,18.302,11.574,34.072
	c5.196,6.678,11.66,11.501,15.853,19.167C577.295,578.087,573.738,578.608,572.058,582.565z M362.204,209.754
	c2.709-10.742,7.716-13.455,17.787-9.691c66.619,24.893,132.748,51.053,199.041,76.791c2.014,0.782,4.058,1.494,6.111,2.168
	c5.556,1.823,7.188,7.282,3.508,11.814c-3.488,4.296-8.462,5.526-14.389,3.469c-21.877-7.595-43.277-16.438-64.869-24.78
	c-47.383-18.307-94.759-36.63-142.15-54.913C364.96,213.73,363.003,212.668,362.204,209.754z M56.337,416.657
	c-18.052,3.159-34.68,5.563-51.753,7.045c8.641-10.887,18.63-20.257,29.32-29.726C42.102,400.392,48.727,407.822,56.337,416.657z
	 M223.795,344.061c-0.01,5.553-5.578,10.754-11.54,10.78c-5.715,0.025-10.419-4.978-10.431-11.093
	c-0.014-6.727,4.892-11.701,11.525-11.688C219.521,332.073,223.809,336.998,223.795,344.061z"/>
</svg>
