<?xml version="1.0" encoding="utf-8"?>
<!-- Generator: Adobe Illustrator 16.0.0, SVG Export Plug-In . SVG Version: 6.00 Build 0)  -->
<!DOCTYPE svg PUBLIC "-//W3C//DTD SVG 1.1//EN" "http://www.w3.org/Graphics/SVG/1.1/DTD/svg11.dtd">
<svg version="1.1" id="Capa_1" xmlns="http://www.w3.org/2000/svg" xmlns:xlink="http://www.w3.org/1999/xlink" x="0px" y="0px"
	 width="612px" height="792px" viewBox="0 0 612 792" enable-background="new 0 0 612 792" xml:space="preserve">
<path fill-rule="evenodd" clip-rule="evenodd" d="M360.711,208.572c67.555,27.502,133.819,54.481,200.884,81.784
	c-20.943,36.616-49.079,64.375-85.78,83.099c-18.916,9.652-36.883,20.18-51.105,36.467c-5.123,5.866-8.884,12.147-11.717,19.183
	c-24.964,62.002-44.799,125.62-61.615,190.302c-10.316,39.681-26.264,77.191-50.32,110.891
	c-11.337,15.879-21.035,18.652-40.924,10.395c-18.031-7.488-22.914-17.073-20.119-35.31c7.992-52.145,30.97-98.248,57.05-143.071
	c25.524-43.863,45.672-90.262,67.118-136.135c14.708-31.462,12.685-60.862,2.152-91.625
	C352.32,293.63,350.255,252.216,360.711,208.572z M22.232,250.844c8.546,41.375,28.729,76.491,56.339,108.141
	c14.583,16.715,26.437,35.831,26.375,59.219c-0.17,64.284-4.452,128.253-13.433,192.006c-6.175,43.843-6.835,87.978,3.586,131.612
	c4.897,20.507,12.579,25.877,37.568,25.49c16.335-0.253,24.737-8.657,28.916-26.556c10.359-44.374,9.346-89.117,3.04-133.611
	c-8.385-59.163-12.129-118.509-13.411-178.178c-0.448-20.836,5.524-38.625,15.988-55.835c8.459-13.914,20.494-24.905,30.006-37.947
	c21.29-29.191,34.574-61.471,39.186-97.953c-72.257,0-143.678,0-216.333,0C20.878,242.429,21.371,246.676,22.232,250.844z
	 M524.861,79.326c-53.894-19.597-119.018,7.256-137.903,57.792c69.146,28.136,137.712,56.036,206.331,83.956
	C614.124,163.255,583.319,100.581,524.861,79.326z M239.416,159.744c0.386-48.034-44.097-108.633-119.147-104.79
	c-54.708,2.8-106.574,54.72-102.789,104.79C91.431,159.744,165.425,159.744,239.416,159.744z M240.237,184.437
	c-75.089,0-149.278,0-223.75,0c-0.89,9.892,0.231,18.905,0.958,28.379c74.045,0,147.363,0,220.887,0
	C240.646,203.567,240.66,194.448,240.237,184.437z M367.221,186.11c68.813,28.001,136.817,55.675,205.404,83.585
	c4.803-9.237,9.075-17.502,12.021-26.994c-69.323-28.222-137.936-56.153-206.764-84.173
	C372.83,167.417,370.479,176.231,367.221,186.11z"/>
</svg>
