<?xml version="1.0" encoding="utf-8"?>
<!-- Generator: Adobe Illustrator 16.0.0, SVG Export Plug-In . SVG Version: 6.00 Build 0)  -->
<!DOCTYPE svg PUBLIC "-//W3C//DTD SVG 1.1//EN" "http://www.w3.org/Graphics/SVG/1.1/DTD/svg11.dtd">
<svg version="1.1" id="Capa_1" xmlns="http://www.w3.org/2000/svg" xmlns:xlink="http://www.w3.org/1999/xlink" x="0px" y="0px"
	 width="612px" height="792px" viewBox="0 0 612 792" enable-background="new 0 0 612 792" xml:space="preserve">
<path fill-rule="evenodd" clip-rule="evenodd" d="M459.189,395.778c-5.052-2.733-10.27-4.714-15.47-6.782
	c-0.131,0.352-0.291,0.56-0.241,0.685c1.9,4.841,0.387,8.834-2.403,12.996c-11.653,17.379-24.767,33.524-39.473,48.405
	c-16.076,16.267-33.641,30.643-53.397,42.226c-29.427,17.254-60.943,26.48-95.333,24.546c-9.057-0.509-17.889-2.588-26.859-3.71
	c-2.555-0.32-4.924,0.119-7.354,0.453c-3.107,0.427-6.192,1.014-9.292,1.493c-5.56,0.86-7.803,3.169-7.993,8.875
	c-0.181,5.419-0.039,10.849-0.039,16.4c17.736,6.823,29.723,18.82,33.275,37.812c3.521,18.828-2.772,34.449-16.925,47.194
	c1.624,5.493,3.934,10.733,6.782,15.646c4.858,8.381,4.612,17.051,2.345,25.971c-2.239,8.811-7.673,15.394-14.732,20.793
	c-3.836,2.935-7.4,6.182-12.016,8.077c-9.43,3.873-18.693,3.317-26.58-2.718c-12.149-9.299-24.293-18.666-35.542-29.104
	c-15.05-13.966-28.739-29.137-40.957-45.637c-0.731-0.987-1.479-1.961-2.182-2.893c-25.585,4.242-45.769-9.858-53.98-27.565
	c-8.215-17.713-5.956-41.107,12.106-57.75c-8.706-29.996-15.548-60.57-17.954-91.79c-22.214-11.466-33.348-29.173-29.371-54.096
	c3.299-20.677,16.644-33.292,36.867-39.596c0.701-2.576,1.431-5.611,2.352-8.588c5.989-19.344,13.946-37.817,24.323-55.241
	c3.56-5.977,7.369-11.782,11.243-17.552c0.361-0.537,0.856-1.19,0.818-1.757c-0.425-6.275,1.558-12.33,0.954-18.74
	c-2.266-24.055,12.987-46.497,35.78-54.424c11.525-4.008,24.241-4.016,36.208,0.182c5.697-3.975,11.662-7.737,17.182-12.066
	c15.42-12.096,33.436-18.238,51.977-23.28c1.831-0.498,3.662-0.998,5.718-1.558c1.906-5.036,3.907-10.15,7.168-14.67
	c11.574-16.041,27.211-24.108,46.973-23.272c16.882,0.715,30.455,8.279,40.541,21.826c1.715,2.305,4.383,2.961,6.249,4.802
	c3.547,3.5,7.987,4.295,12.695,4.855c17.253,2.051,34.008,6.27,50.434,11.901c5.4,1.852,10.718,3.9,16.137,6.129
	c6.194-3.911,12.978-6.255,20.194-7.393c3.306-0.521,6.699-1.08,9.954-0.499c7.995,1.427,15.932-0.521,23.904,0.037
	c22.936,1.605,42.974,18.829,47.951,41.184c2.635,11.833,1.571,23.231-3.196,34.331c-0.187,0.434-0.307,0.896-0.527,1.552
	c8.501,8.124,16.54,16.75,24.212,26.024c4.034-0.619,8.069-1.685,12.258-1.889c27.131-1.321,50.957,17.386,55.867,44.012
	c0.361,1.96,0.625,3.974,0.618,5.962c-0.03,8.068-0.021,16.11,0.552,24.188c0.772,10.906-2.192,21.093-8.008,30.399
	c-0.246,0.396-0.425,0.833-0.576,1.132c2.236,7.522,4.619,14.847,6.585,22.281c6.648,25.138,9.374,50.692,7.698,76.678
	c-0.374,5.808-3.767,9.878-7.993,13.299c-2.956,2.393-6.282,4.33-9.88,5.659c-10.619,3.923-20.96,8.525-31.421,12.836
	c-2.798,1.153-5.472,0.459-8.071-0.405c-4.92-1.634-8.974-4.582-11.982-8.838c-3.747-5.299-6.892-10.927-8.942-17.288
	c-21.999,6.983-41.962,3.811-58.194-12.963C453.971,437.76,451.339,417.738,459.189,395.778z M414.989,242.009
	c0.039-0.001,0.079-0.002,0.119-0.002c-0.057-0.014-0.111-0.027-0.167-0.041c-0.541-3.329-3.3-5.585-4.247-8.69
	c-1.181-3.871-4.678-4.466-8.251-6.391c0.887,1.593,1.379,2.487,1.881,3.377C406.987,234.987,411.068,238.427,414.989,242.009z
	 M527.155,344.891c0.108-0.047,0.217-0.093,0.178-0.076c0.009-0.007-0.112,0.08-0.233,0.167c0.666-0.953-0.122-1.635-0.522-2.305
	c-4.283-7.164-8.819-14.167-13.678-20.954c-0.458-0.64-0.771-1.567-1.791-1.574c-1.504,2.167-1.058,4.262-0.07,6.458
	C514.53,334.373,519.98,340.392,527.155,344.891z M515.671,355.706c0.155-0.196,0.448-0.419-0.102-0.494
	c0.058,0.158,0.111,0.306,0.164,0.452c5.127,8.103,18.862,16.575,25.507,15.564c-1.096-2.352-2.164-4.646-3.223-6.921
	c-7.646-1.556-14.717-4.154-21.081-8.481C516.526,355.548,516.113,355.361,515.671,355.706z M103.795,218.585
	c6.96-5.295,14.839-8.506,23.476-9.401c5.456-0.566,7.848-4.886,12.125-7.757c-12.601-1.513-26.264,4.188-33.783,13.801
	c-0.75,0.958-2.234,1.658-1.74,3.309c-0.014-0.05-0.027-0.101-0.042-0.151C103.819,218.452,103.807,218.519,103.795,218.585z
	 M579.217,288.893c-0.083,0.132-0.165,0.263,0.002-0.004c-0.08,0.309-0.041,0.158-0.002,0.008c-0.881-0.313-1.232-1.151-1.755-1.807
	c-5.594-7.019-12.762-11.598-21.468-13.702c-4.418-1.068-8.901-1.518-13.75-0.656c1.865,2.438,3.53,4.617,5.306,6.938
	c10.886,0.152,20.986,3.067,30.098,9.155C578.173,289.177,578.675,289.284,579.217,288.893z M480.829,178.396
	c0.039-0.018,0.078-0.035,0.117-0.053c-0.059-0.022-0.117-0.044-0.176-0.067c8.722,11.513,11.555,24.566,10.016,38.751
	c1.88,1.44,3.197,3.454,5.519,4.562c3.957-16.35,0.369-30.193-12.122-41.404C483.235,179.334,482.4,178.115,480.829,178.396z
	 M101.086,378.607c-0.11,0.063-0.22,0.125-0.328,0.19c0.125-0.071,0.25-0.142,0.375-0.212c-0.721,0.917-0.166,1.805,0.051,2.707
	c2.327,9.676,2.144,19.261-1.222,28.676c-2.902,8.118-7.618,15.06-13.879,20.603c0,1.95,0,3.614,0,5.346
	c2.577-0.217,4.391-1.72,6.33-2.832c7.189-4.122,12.454-10.093,15.247-17.852C112.471,401.864,109.981,389.605,101.086,378.607z
	 M487.817,450.209c3.859,1.912,11.21,5.2,15.493,5.699c6.672,0.778,13.218,0.341,19.81-2.565
	c-11.936-21.939-29.459-37.821-50.662-50.514c-0.479,1.358-0.887,2.311-1.155,3.3C466.578,423.543,472.853,440.246,487.817,450.209
	 M252.743,475.015c0.931-0.719,2.034-0.959,3.149-1.243c27.61-7.053,53.82-17.691,78.848-31.226
	c19.117-10.339,37.303-22.16,54.555-35.404c12.851-9.866,25.272-20.222,36.66-31.772c1.57-1.592,3.468-2.341,5.665-2.203
	c1.494,0.095,2.976,0.391,4.474,0.598c4.509-5.274,8.963-10.477,13.409-15.688c2.02-2.367,4.411-4.189,7.423-5.109
	c7.258-2.22,14.332-1.484,21.113,1.678c6.294,2.936,12.294,6.443,18.162,10.265c2.25-0.364,4.456-0.72,6.612-1.069
	c0-0.394,0.057-0.604-0.011-0.759c-0.153-0.345-0.356-0.669-0.56-0.987c-6.735-10.507-9.139-22.028-8.047-34.366
	c0.126-1.418,0.702-2.92,0.403-4.231c-1.896-8.309-1.833-16.59,0.073-24.811c-11.168-12.79-23.121-24.488-36.149-35.251
	c-4.668,0.497-9.184-1.148-13.936-0.42c-25.324,3.883-50.688-12.218-58.133-36.737c-0.769-2.53-1.419-5.098-2.105-7.581
	c-11.597-4.652-23.308-8.463-35.405-11.059c-4.882,9.851-11.484,17.79-20.757,23.578c-22.653,14.139-52.521,9.687-69.439-10.904
	c-2.983-3.631-6.349-6.429-10.431-8.876c-21.131,6.929-40.1,18.328-59.094,30.151c0.326,4.638-1.679,8.943-1.12,13.601
	c1.706,14.211-1.273,27.411-9.983,38.834c-12.026,15.773-28.133,23.053-48.041,21.578c-5.137-0.381-10.114-1.522-15.104-3.402
	c-9.103,14.26-16.079,29.222-20.558,45.154c20.649,11.107,31.198,27.779,28.532,51.032c-2.498,21.774-15.861,35.051-36.233,41.823
	c0.023,9.537,2.004,46.174,5.245,51.594c15.906-2.368,30.204,1.348,42.143,12.493c11.94,11.146,16.62,25.201,15.267,41.961
	c4.862-5.107,9.63-9.009,15.417-11.817c-0.125-7.563,0.261-15.068,0.632-22.576c0.383-7.758,1.925-15.049,7.258-21.148
	c5.572-6.372,12.878-9.24,20.872-10.801c6.108-1.192,12.299-0.966,18.691-0.581c-0.264-4.711,2.591-6.809,6.351-8.101
	c1.341-0.462,2.726-0.87,4.124-1.082c7.337-1.115,14.643-2.387,21.923-3.837c2.639-0.525,5.226-1.627,8.036-1.271
	C252.697,475.031,252.72,475.023,252.743,475.015z M176.22,622.448c-6.038-20.822-9.452-41.33-10.889-62.791
	c-11.37,9.687-16.205,21.184-13.603,35.211C154.246,608.437,162.594,617.274,176.22,622.448z M212.746,611.836
	c7.268-6.057,11.133-20.263,8.513-31.235c-2.578-10.799-8.754-18.804-18.847-24.066
	C202.696,569.285,208.284,599.108,212.746,611.836z M96.887,520.369c20.818,6.344,33.063,20.081,37.285,41.909
	c4.055-14.194,1.909-26.326-7.7-36.566c-8.34-8.888-18.805-12.36-31.125-10.788C95.729,517.104,96.193,518.901,96.887,520.369z
	 M86.092,603.805c-1.187-1.971-2.109-3.296-2.82-4.725c-1.448-2.912-3.65-4.811-6.55-6.373
	c-9.339-5.033-16.117-12.575-20.569-22.213c-2.016-4.363-3.348-8.937-4.421-13.631c-3.262,11.11-2.596,21.688,4.264,31.423
	C63.19,598.497,73.099,603.486,86.092,603.805z M437.203,177.915c13.574,7.747,26.271,16.427,38.662,26.265
	c0-0.888,0.052-1.18-0.007-1.446c-3.259-14.751-12.016-24.688-26.18-29.894c-0.736-0.271-1.478-0.458-2.228-0.193
	C443.877,173.908,440.358,175.284,437.203,177.915z M38.711,361.404c-11.539,6.167-18.403,14.931-20.125,27.203
	c-1.511,10.769,1.237,20.448,8.766,28.543c-0.038-1.154-0.301-2.244-0.554-3.337c-3.376-14.595-0.638-28.081,8.13-40.078
	C37.648,370.014,37.92,366.154,38.711,361.404z M333.564,204.587c-4.216-0.464-8.169-0.898-12.159-1.336
	c-9.541,10.538-21.235,16.811-35.739,18.632C303.191,229.027,324.848,221.649,333.564,204.587z M247.184,148.702
	c3.562-0.606,6.873-1.492,10.22-1.657c4.211-0.208,14.847-2.295,20.847-3.045c1.763-0.22,14.7-0.715,16.5-0.75
	c12.75-0.25,21.539,2.909,4.25-9.5C283.428,126.423,256.031,131.814,247.184,148.702z M559.363,296.507
	c7.115,11.728,13.81,23.597,20.085,36.339c2.271-4.058,4.162-7.61,5.121-11.743C580.211,308.842,571.827,300.612,559.363,296.507z
	 M124.133,299.606c17.373,5.267,35.372-3.429,42.975-15.95c-11.965,8.028-24.56,11.315-38.179,9.793
	C127.217,295.5,125.427,297.192,124.133,299.606z M515.136,379.027c12.328,10.566,22.598,21.95,32.006,34.678
	C546.667,398.39,533.835,382.177,515.136,379.027z M171.611,253.862c-10.127,7.441-19.524,15.203-28.509,24.227
	C155.895,275.965,169.162,264.666,171.611,253.862z M120.468,568.734c1.497-11.155-7.709-26.742-16.256-29.976
	C109.009,549.056,114.186,558.98,120.468,568.734z M271.253,205.803c9.102,2.545,17.839,1.504,26.198-2.783
	C288.625,202.933,279.924,203.986,271.253,205.803z M88.414,387.148c-1.019,6.221-1.832,12.436-1.685,18.737
	C89.414,399.837,89.94,393.58,88.414,387.148z M137.944,582.418c-1.762,1.823-3.295,3.41-4.922,5.095
	c1.602,1.61,2.283,4.192,4.824,5.791C137.389,589.482,137.41,586.103,137.944,582.418z M175.755,636.256
	c-0.072,0.162-0.144,0.324-0.217,0.486c2.553,2.406,5.105,4.813,7.657,7.22c-0.532-2.491-0.997-4.868-2.359-6.863
	C179.063,636.805,177.409,636.53,175.755,636.256z"/>
</svg>
