<?xml version="1.0" encoding="utf-8"?>
<!-- Generator: Adobe Illustrator 16.0.0, SVG Export Plug-In . SVG Version: 6.00 Build 0)  -->
<!DOCTYPE svg PUBLIC "-//W3C//DTD SVG 1.1//EN" "http://www.w3.org/Graphics/SVG/1.1/DTD/svg11.dtd">
<svg version="1.1" id="Capa_1" xmlns="http://www.w3.org/2000/svg" xmlns:xlink="http://www.w3.org/1999/xlink" x="0px" y="0px"
	 width="612px" height="792px" viewBox="0 0 612 792" enable-background="new 0 0 612 792" xml:space="preserve">
<path fill-rule="evenodd" clip-rule="evenodd" d="M314.631,274.532c17.348,10.211,48.813,81.388,43.473,98.456
	c-5.432,0.78-8.625-3.401-12.42-5.98c-15.551-10.562-32.303-13.942-50.113-7.424c-33.646,12.313-66.521,26.569-99.448,40.671
	c-2.325,0.996-4.744,1.999-6.947,5.699c3.585,13.93,11.072,26.973,20.001,40.778c18.487-7.239,36.628-14.157,54.628-21.424
	c97.861-39.505,195.673-79.124,293.544-118.603c7.996-3.226,16.242-5.875,24.479-8.444c3.936-1.227,8.107-2.174,12.201-2.292
	c7.088-0.204,12.596,3.099,14.537,10.127c1.857,6.719-2.541,11.034-7.77,13.883c-6.16,3.358-12.684,6.095-19.186,8.774
	c-88.1,36.32-176.258,72.503-264.313,108.936c-16.788,6.946-29.234,11.662-50.234,20.412c-21.33,9.556-45.026,13.428-62.509,32.191
	c-5.498-6.276-8.224-12.673-8.892-20.755c11.308-5.424,25.26-1.411,35.698-10.116c-1.025-8.247-6.127-5.606-10.33-3.876
	c-22.175,9.137-44.3,18.398-66.407,27.7c-27.708,11.656-55.402,23.35-83.059,35.124c-6.831,2.908-13.937,4.709-21.195,5.924
	c-17.908,3.001-34.892-6.863-41.383-23.874c-6.048-15.85-0.391-32.467,16.671-41.26c30.688-15.813,62.075-30.271,93.221-45.191
	c52.79-25.284,105.358-51,157.425-77.763c21.22-10.906,33.243-27.135,35.862-50.747
	C312.568,281.852,312.191,277.805,314.631,274.532z M176.374,409.133c-30.361,11.827-59.714,24.446-89.427,38.454
	c6.505,15.056,12.138,29.092,22.084,41.994c30.257-11.301,59.03-24.552,88.381-38.198
	C192.425,435.919,185.768,422.46,176.374,409.133z M270.867,439.677c-4.302,14.175,341.698-129.075,324.706-133.283
	c-6.738-2.4-12.666,0.518-18.473,2.641c-70.59,25.791-139.457,55.892-209.219,83.762c-29.684,11.857-59.152,24.261-88.623,36.646
	C275.279,431.114,269.59,432.188,270.867,439.677z M99.356,494.209c-6.547-14.419-13.862-27.983-22.275-41.514
	c-10.174,1.905-19.047,5.6-27.519,10.187c0.522,6.724,4.566,9.925,8.991,12.387c7.305,4.063,10.798,9.352,8.488,18.005
	c-1.299,4.86-0.029,9.437,4.977,12.921C81.144,503.244,90.167,499.597,99.356,494.209z M38.537,467.405
	c-9.106,5.099-18.074,9.551-18.674,21.427c-0.489,9.703,4.264,16.764,12.308,21.178c9.337,5.124,19.105,5.864,28.632,0.126
	c-0.525-5.015-3.358-7.766-6.84-9.367c-8.301-3.814-10.826-10.029-9.49-18.732C45.284,476.754,43.477,471.99,38.537,467.405z
	 M236.63,452.605c2.685,4.746,15.567-0.681,21.68-3.566c3.195-1.51,4.218-4.544,0.877-8.986
	C251.153,441.44,234.065,448.352,236.63,452.605z"/>
</svg>
