<?xml version="1.0" encoding="utf-8"?>
<!-- Generator: Adobe Illustrator 16.0.0, SVG Export Plug-In . SVG Version: 6.00 Build 0)  -->
<!DOCTYPE svg PUBLIC "-//W3C//DTD SVG 1.1//EN" "http://www.w3.org/Graphics/SVG/1.1/DTD/svg11.dtd">
<svg version="1.1" id="Capa_1" xmlns="http://www.w3.org/2000/svg" xmlns:xlink="http://www.w3.org/1999/xlink" x="0px" y="0px"
	 width="612px" height="792px" viewBox="0 0 612 792" enable-background="new 0 0 612 792" xml:space="preserve">
<path fill-rule="evenodd" clip-rule="evenodd" d="M609.696,460.179c-3.331-7.274-8.435-13.771-17.298-15.754
	c-7.477-1.674-15.217-2.153-22.831-3.221c-14.795-2.071-29.612-3.994-44.364-6.331c-19.121-3.029-38.173-6.481-57.282-9.603
	c-22.239-3.63-44.525-6.979-66.753-10.673c-20.72-3.444-41.38-7.227-62.082-10.773c-20.52-3.516-41.072-6.835-61.582-10.411
	c-13.974-2.436-27.898-5.165-41.844-7.76c0.083-0.481,0.166-0.962,0.248-1.441c-16.452-3.636-33.026-6.566-49.962-6.379
	c-4.665-14.839-7.005-29.404-7.13-44.549c11.208,0.912,22.447,1.439,33.582,2.813c21.535,2.654,43.2,4.421,64.502,8.769
	c15.379,3.139,30.983,5.625,45.412,12.108c5.01,2.25,9.185,6.031,10.824,11.965c2.383,8.618,4.208,17.422,7.995,25.795
	c1.299,1.655,3.074,2.078,4.563,1.338c18.375-12.46,25.889-78.559,15.134-113.162c-2.661-8.354-8.922-7.508-11.084-4.169
	c-3.489,5.389-6.504,10.794-8.147,16.936c-1.874,6.999-6.666,11.594-13.298,14.119c-16.82,6.401-34.513,7.965-52.256,8.414
	c-18.367,0.464-36.754,0.074-55.133,0.123c-21.376,0.056-42.737-0.497-64.088-1.457c-17.69-0.795-35.388-1.436-53.07-2.371
	c-13.831-0.73-27.632-2.079-41.468-2.646c-12.327-0.505-24.527-3.024-36.941-2.091c-14.082,1.058-22.448,10.868-20.512,23.092
	c2.88,18.181,12.723,28.307,30.759,33.335c12.17,3.393,24.993,3.604,37.533,4.944c17.206,1.839,34.338,4.147,51.463,6.533
	c17.193,2.394,34.347,5.061,51.503,7.704c8.279,1.274,16.332,3.469,24.816,6.322c-4.083,3.11-6.126,7.019-8.491,10.921
	c-7.572-2.554-15.402,1.845-23.496-2.613c-4.243-2.978-7.581-9.633-15.019-9.011c-8.118,6.929-8.849,9.807-5.356,19.867
	c4.832,2.128,13.665,0.952,16.937-2.385c7.358,0.263,12.908,4.434,19.185,5.536c12.199,2.144,24.394,4.225,36.833,5.319
	c16.56,1.456,32.887,5.508,49.332,8.339c18.908,3.255,37.846,6.335,56.751,9.604c18.622,3.22,37.21,6.633,55.829,9.865
	c20.581,3.573,41.183,7.019,61.77,10.552c16.936,2.908,33.845,5.968,50.797,8.772c22.41,3.706,44.84,7.319,67.288,10.792
	c11.604,1.794,23.01,6.154,34.317,3.334C603.732,478.708,611.655,467.226,609.696,460.179 M41.227,359.01
	c-11.686-1.632-21.525-6.363-25.83-18.091c-2.684-7.312-3.498-15.077,5.136-20.709c5.728-2.506,11.055-1.92,16.348,0.404
	C39.553,333.34,42.875,345.836,41.227,359.01z M67.276,361.674c-5.885,0.386-11.555-0.984-17.258-1.214
	c-5.188-12.974-6.45-26.265-6.418-39.932c6.065,0.587,12.48,1.209,19.01,1.842C64.674,335.711,67.293,342.663,67.276,361.674z
	 M177.013,376.843c-33.548-5.522-67.656-10.168-101.509-14.067c-4.706-12.688-5.565-25.829-5.813-39.494
	c34.267,3.174,68.286,6.325,101.694,9.419C175.903,347.456,177.984,361.613,177.013,376.843z M201.734,404.612
	c3.342-3.908,4.689-8.315,8.617-11.38c6.515,0.18,12.972,2.17,19.705,2.949c-1.983,4.47-4.81,8.028-8.339,11.582
	C215.546,406.79,209.178,405.785,201.734,404.612z M598.001,464.12c-0.483,6.504-2.386,7.983-11.381,8.264
	c-10.521,0.328-20.743-2.439-31.063-4.093c-18.952-3.037-37.91-6.044-56.83-9.277c-22.739-3.883-45.433-8.029-68.159-11.985
	c-16.72-2.91-33.471-5.635-50.189-8.551c-26.071-4.543-52.131-9.162-78.189-13.779c-22.54-3.993-45.074-8.021-67.604-12.069
	c-1.671-0.299-3.288-0.895-5.216-1.434c2.628-5.757,6.932-10.229,11.009-14.986c115.449,19.912,230.356,38.688,345.544,57.591
	c1.444,0.142,2.263,0.272,3.638,0.753c0.575,0.201,0.839,0.348,1.396,0.593c0.063,0.004,0.612,0.266,0.678,0.296
	c0.26,0.117,0.596,0.161,0.849,0.293c1.005,0.335,1.005,0.335,1.816,0.935c0.01,0.007,0.582,0.414,0.592,0.421
	c0.044,0.025,0.464,0.274,0.508,0.297c0.776,0.426,1.721,1.523,2.116,2.37c0.447,0.957,0.429,1.563,0.55,2.623
	c0.069,0.624,0.01,1.183-0.101,1.739C597.976,464.12,597.988,464.12,598.001,464.12z"/>
</svg>
