<?xml version="1.0" encoding="utf-8"?>
<!-- Generator: Adobe Illustrator 16.0.0, SVG Export Plug-In . SVG Version: 6.00 Build 0)  -->
<!DOCTYPE svg PUBLIC "-//W3C//DTD SVG 1.1//EN" "http://www.w3.org/Graphics/SVG/1.1/DTD/svg11.dtd">
<svg version="1.1" id="Capa_1" xmlns="http://www.w3.org/2000/svg" xmlns:xlink="http://www.w3.org/1999/xlink" x="0px" y="0px"
	 width="612px" height="792px" viewBox="0 0 612 792" enable-background="new 0 0 612 792" xml:space="preserve">
<path fill-rule="evenodd" clip-rule="evenodd" d="M209.181,708.984c-10.494-2.493-21.228-3.836-31.4-7.843
	c-30.348-11.955-52.048-32.73-65.075-62.608c-0.988-2.267-2.056-4.499-3.027-6.617c-11.739,11.966-23.285,23.734-35.449,36.135
	c2.086,5.858,2.739,13.024-2.676,19.656c-6.312,7.729-17.909,9.621-25.323,2.942c-10.382-9.352-20.078-19.466-30.035-29.287
	c-2.726-2.688-5.398-5.437-7.988-8.255c-5.565-6.055-6.542-13.207-3.264-20.387c3.221-7.052,9.328-10.632,17.264-10.672
	c0.828-0.005,1.655-0.104,1.762-0.111c44.958-44.896,89.487-89.363,134.359-134.173c-2.872-3.817-6.676-6.955-10.331-10.519
	c-4.913,3.292-8.082,8.104-12.472,11.499c-4.198-4.104-8.319-8.135-12.556-12.276c10.929-10.761,21.65-21.317,32.356-31.859
	c4.028,3.806,8.206,7.753,13.198,12.471c-4.085,3.308-7.844,6.352-11.843,9.59c3.738,4.864,7.522,8.156,10.967,11.404
	c10.223-10.151,20.098-19.958,30.012-29.802c-3.401-3.329-6.896-6.749-11.495-11.25c-3.022,4.031-6.195,8.262-9.587,12.785
	c-5.342-5.444-9.371-9.549-13.393-13.647c10.815-10.811,21.478-21.468,32.259-32.244c3.931,3.954,7.952,7.999,12.834,12.91
	c-4.1,3.239-8.112,6.41-12.209,9.646c3.933,5.445,7.994,8.584,11.07,11.862c9.943-9.805,19.747-19.472,29.734-29.319
	c-2.959-3.901-6.636-7.142-11.241-11.135c-3.439,4.121-6.714,8.045-10.083,12.083c-5.636-4.119-9.204-8.686-13.501-12.594
	c11.082-10.957,21.886-21.641,32.786-32.418c3.671,3.982,7.469,8.102,11.64,12.625c-3.346,3.504-6.96,7.288-10.745,11.252
	c3.729,3.715,7.208,7.182,10.565,10.526c10.046-10.19,20.038-20.324,30.436-30.87c-3.206-2.826-6.927-6.106-11.312-9.972
	c-2.909,3.401-6.326,7.397-9.909,11.586c-5.694-4.32-9.302-8.822-13.583-12.929c11.015-10.675,21.831-21.158,32.771-31.76
	c3.227,3.335,7.22,7.462,11.529,11.915c-3.24,3.406-6.757,7.104-10.58,11.121c3.114,4.271,7.068,7.451,10.327,10.677
	c35.793-35.852,71.288-71.404,108.426-108.604c4.805-20.292,9.249-43.308,12.965-66.481c3.404-21.231,6.421-42.482,6.764-64.03
	c0.112-7.029-0.399-13.967-2.258-20.787c-1.468-5.387-0.868-10.349,3.966-13.912c4.582-3.377,9.259-2.667,14.086-0.19
	c11.208,5.752,20.852,13.681,30.4,21.704c21.927,18.423,42.937,37.883,62.992,58.3c27.283,27.773,54.604,55.58,76.825,87.797
	c3.768,5.462,7.378,11.13,8.524,17.887c1.877,11.063-6.283,19.607-16.809,16.154c-25.047-8.217-50.035-4.646-75.174-1.517
	c-22.184,2.761-43.963,7.507-65.713,12.518c-5.573,1.284-10.13,3.432-13.996,7.812c-3.812,4.317-8.421,7.933-13.197,12.331
	c11.383,5.398,21.5,10.061,30.352,16.984c28.026,21.924,43.726,50.407,46.12,86.069c1.744,25.986-4.653,49.867-18.667,71.688
	c-8.255,12.855-19.563,23.08-30.269,33.787c-46.629,46.631-93.609,92.915-139.79,139.983
	c-21.995,22.418-46.895,38.029-78.532,41.619c-0.623,0.071-1.206,0.491-1.808,0.749
	C223.847,708.984,216.514,708.984,209.181,708.984z M371.267,386.72c-12.649,0.408-24.869,4.522-35.34,13.337
	c-12.111,10.197-22.688,21.978-33.9,33.096c-24.813,24.604-49.559,49.277-74.135,74.116c-13.097,13.237-27.088,25.629-38.984,40.017
	c-15.462,18.702-16.378,47.59-2.406,67.471c20.392,29.017,61.257,33.216,86.884,8.601c16.312-15.667,32.161-31.814,48.169-47.796
	c29.073-29.025,58.115-58.082,87.158-87.138c8.069-8.074,14.874-16.928,18.137-28.158
	C437.794,422.596,409.804,387.165,371.267,386.72z"/>
</svg>
