<?xml version="1.0" encoding="utf-8"?>
<!-- Generator: Adobe Illustrator 16.0.0, SVG Export Plug-In . SVG Version: 6.00 Build 0)  -->
<!DOCTYPE svg PUBLIC "-//W3C//DTD SVG 1.1//EN" "http://www.w3.org/Graphics/SVG/1.1/DTD/svg11.dtd">
<svg version="1.1" id="Capa_1" xmlns="http://www.w3.org/2000/svg" xmlns:xlink="http://www.w3.org/1999/xlink" x="0px" y="0px"
	 width="612px" height="792px" viewBox="0 0 612 792" enable-background="new 0 0 612 792" xml:space="preserve">
<path fill-rule="evenodd" clip-rule="evenodd" d="M78.835,488.034c0.302-1.549,0.604-3.099,0.948-4.864
	c-0.779,0.229-1.542,0.454-2.359,0.694c-0.294-0.434-0.583-0.86-0.96-1.417c-3.139,1.322-6.27,2.656-9.412,3.962
	c-4.568,1.898-9.162,3.736-13.707,5.687c-1.288,0.553-2.4,1.507-3.678,2.091c-0.857,0.393-1.916,0.336-2.786,0.709
	c-0.582,0.25-1.059,0.85-1.465,1.383c-0.816,1.071-1.713,1.609-3.142,1.206c-0.662-0.187-1.498-0.055-2.176,0.171
	c-1.334,0.446-2.614,1.059-3.46,1.412c-0.661,2.102-0.988,3.884-1.769,5.438c-0.978,1.944-3.27,2.084-5.019,2.948
	c-1.439,0.71-2.935,1.305-4.29,1.9c-0.855,1.841-1.631,3.512-2.409,5.183c-0.02,0.043-0.058,0.077-0.081,0.118
	c-0.496,0.864-6.038,3.432-6.768,2.89c-1.249-0.928-2.559-2.029-3.279-3.363c-2.444-4.53-4.843-9.108-6.85-13.842
	c-1.047-2.467-1.296-5.287-1.777-7.971c-0.134-0.745,0.188-1.572,0.31-2.428c2.071-0.886,4.045-2.041,6.173-2.522
	c1.309-0.297,2.968,0.18,4.265,0.764c2.481,1.117,4.66,0.57,6.885-0.558c0.932-0.473,1.9-0.873,2.864-1.278
	c2.006-0.844,3.854-0.154,5.714,0.575c0.406,0.159,0.957,0.168,1.374,0.035c1.077-0.345,2.18-0.695,3.147-1.26
	c0.686-0.4,1.251-1.092,1.721-1.759c0.912-1.295,1.766-1.614,3.272-1.034c0.983,0.38,3.112-0.219,3.873-1.103
	c0.881-1.022,1.954-1.411,3.327-1.373c0.74,0.021,1.509-0.436,2.238-0.74c5.671-2.361,11.335-4.739,17.002-7.11
	c1.528-0.639,3.057-1.273,4.669-1.944c0.198-1.812,2.083-1.536,3.137-2.447c-0.129-0.669-0.263-1.365-0.472-2.452
	c1.609-0.739,3.282-1.508,5.138-2.359c0.535,0.658,0.995,1.223,1.602,1.97c2.181-0.789,4.512-1.559,6.786-2.469
	c5.495-2.198,10.982-4.416,16.437-6.712c6.963-2.931,13.887-5.954,20.833-8.924c5.863-2.506,11.732-4.999,17.602-7.488
	c5.544-2.35,11.101-4.672,16.639-7.035c5.903-2.519,11.784-5.088,17.687-7.604c5.518-2.353,11.055-4.66,16.581-6.995
	c5.843-2.469,11.682-4.946,17.523-7.421c1.427-0.604,2.852-1.21,4.413-1.872c-0.599-1.4-1.107-2.591-1.636-3.827
	c-0.763,0.301-1.369,0.54-1.973,0.778c-0.64-1.512-0.249-3.095,1.085-3.854c1.275-0.726,2.652-1.271,4.085-1.943
	c-0.338-0.964-0.674-1.92-1.014-2.886c0.852-0.423,1.598-0.792,2.525-1.251c-2.072-4.999-4.095-9.876-6.2-14.956
	c-0.997,0.367-1.957,0.712-2.911,1.073c-3.096,1.172-3.346,1.059-4.374-1.966c0.386-1.723,1.969-1.884,3.169-2.409
	c3.958-1.731,7.956-3.375,11.978-4.952c0.696-0.273,1.7-0.312,2.358-0.012c1.244,0.566,1.166,1.822,0.935,3.304
	c-1.557,0.748-3.269,1.572-5.074,2.44c2.106,5.068,4.143,9.966,6.218,14.957c0.925-0.338,1.753-0.641,2.719-0.995
	c0.404,0.896,0.805,1.784,1.266,2.805c1.138-0.429,2.243-0.824,3.332-1.26c2.089-0.838,3.289-0.452,4.565,1.57
	c-0.673,0.304-1.336,0.604-2.091,0.946c0.384,0.799,0.725,1.508,1.12,2.331c1.701-0.762,3.282-1.469,4.971-2.225
	c-0.267-0.786-0.518-1.523-0.782-2.298c-0.768,0.285-1.423,0.528-2.078,0.769c-1.07-2.584,0.155-3.896,5.173-5.652
	c-0.331-0.937-0.663-1.877-1.039-2.943c0.781-0.438,1.586-0.89,2.526-1.418c-2.052-4.933-4.085-9.82-6.173-14.839
	c-1.908,0.693-3.667,1.331-5.758,2.091c-0.51-0.923-1.193-1.703-1.332-2.569c-0.092-0.576,0.434-1.632,0.955-1.866
	c4.665-2.092,9.374-4.088,14.104-6.03c2.189-0.899,3.392,0.205,3.337,3.295c-1.585,0.778-3.332,1.635-5.226,2.564
	c2.093,5.003,4.147,9.916,6.226,14.884c1.063-0.361,1.889-0.642,2.771-0.941c0.428,0.994,0.796,1.848,1.181,2.741
	c2.092-0.232,3.788-2.27,6.058-1.339c0.7,0.287,1.278,0.87,2.146,1.483c-0.921,0.448-1.529,0.743-2.279,1.107
	c0.169,0.488,0.345,0.997,0.587,1.696c1.615-0.714,3.108-1.374,4.769-2.108c-0.112-0.483-0.231-0.995-0.369-1.585
	c-0.826,0.281-1.494,0.508-2.161,0.734c-0.944-2.288-0.367-2.932,5.241-5.748c-0.328-0.881-0.664-1.783-1.078-2.896
	c0.766-0.397,1.535-0.797,2.575-1.337c-2.035-4.876-4.104-9.834-6.217-14.898c-1.357,0.519-2.566,0.91-3.71,1.44
	c-0.881,0.409-1.706,0.66-2.485-0.061c-0.814-0.753-1.163-1.688-0.784-2.806c0.075-0.22,0.103-0.456,0.148-0.667
	c4.828-2.059,9.598-4.114,14.387-6.126c2.527-1.063,3.715-0.14,3.794,3.171c-1.632,0.796-3.382,1.649-5.251,2.561
	c2.114,5.043,4.174,9.956,6.259,14.93c0.891-0.359,1.657-0.667,2.555-1.028c0.501,1.041,0.945,1.961,1.393,2.892
	c2.681-0.799,5.347-3.378,7.886,0.109c-0.5,0.718-2.085,0.402-1.721,2.098c7.091-3.223,14.032-6.378,21.24-9.655
	c-5.632-1.703-9.007-5.098-10.133-10.573c-0.825-4.013,0.69-7.255,3.372-10.107c2.455-2.61,5.466-4.44,8.575-6.13
	c0.312-0.169,0.693-0.21,1.12-0.333c0.193,1.588,0.374,3.073,0.545,4.485c-1.903,0.964-3.898,1.765-5.665,2.917
	c-2.801,1.827-4.74,4.257-4.568,7.909c0.161,3.418,3.023,6.199,5.849,7.298c3.458,1.344,6.479-0.08,9.569-1.328
	c5.402-2.181,10.83-4.299,16.246-6.446c0.133-0.053,0.26-0.184,0.387-0.181c3.955,0.098,6.981-2.367,10.352-3.824
	c6.518-2.819,12.965-5.804,19.414-8.776c5.855-2.698,11.674-5.477,17.513-8.21c6.477-3.031,12.977-6.014,19.434-9.086
	c5.819-2.769,11.597-5.624,17.387-8.454c7.145-3.493,14.309-6.948,21.415-10.516c6.051-3.038,12.039-6.202,18.044-9.33
	c5.959-3.104,11.944-6.161,17.847-9.369c7.402-4.024,14.773-8.11,22.081-12.303c5.581-3.203,11.152-6.444,16.526-9.976
	c5.885-3.867,11.421-8.225,16.549-13.085c5.866-5.559,10.756-11.864,14.602-18.958c2.704-4.989,4.663-10.292,6.166-15.764
	c0.286-1.044,0.62-2.077,0.969-3.102c0.794-2.333-0.072-4.352-0.822-6.557c-1.209-3.558-1.917-7.29-2.742-10.97
	c-0.119-0.535,0.288-1.188,0.432-1.711c2.887-0.029,4.172,1.953,5.458,3.692c5.724,7.746,10.463,16.114,14.781,24.689
	c4.431,8.797,8.656,17.709,12.605,26.732c4.666,10.658,9.053,21.443,13.347,32.259c3.544,8.928,6.874,17.945,10.1,26.994
	c1.41,3.958,2.386,8.078,3.435,12.156c0.399,1.55,0.541,3.188-0.345,4.708c-0.629,1.081-1.575,1.43-2.389,0.491
	c-1.364-1.577-2.544-3.333-3.649-5.108c-1.224-1.965-2.237-4.06-3.428-6.046c-0.35-0.583-0.915-1.132-1.513-1.454
	c-4.83-2.605-9.733-5.034-14.952-6.821c-4.958-1.697-10.036-2.759-15.213-3.399c-6.126-0.758-12.268-0.947-18.401-0.084
	c-5.381,0.757-10.785,1.409-16.115,2.441c-3.784,0.733-7.47,1.994-11.186,3.066c-5.998,1.731-12.021,3.388-17.963,5.293
	c-4.542,1.458-8.979,3.248-13.458,4.9c-0.556,0.206-1.087,0.479-1.735,0.769c15.185,13.037,20.815,29.26,16.845,48.732
	c2.066,1.284,2.435,1.274,4.727-0.128c0-3.667-0.007-7.367,0.001-11.067c0.008-3.721-0.167-7.456,0.111-11.157
	c0.201-2.663,1.014-5.28,1.559-7.945c0.521,0.024,0.941,0.044,1.561,0.073c0.059,0.821,0.165,1.65,0.17,2.479
	c0.025,4.137-0.067,8.278,0.058,12.412c0.137,4.481,0.559,8.953,0.69,13.433c0.126,4.261-0.524,8.397-1.992,12.464
	c-1.882,5.217-5.08,9.583-8.341,13.923c-1.321,1.759-3.762,1.683-4.652-0.01c-0.289-0.552-0.083-1.364-0.104-2.058
	c0.188-0.301,0.376-0.602,0.563-0.902c0.154-0.213,0.309-0.426,0.466-0.637c0.163-0.054,0.322-0.109,0.482-0.165l0.062-0.022
	c0,0-0.031,0.048-0.034,0.046c-0.16,0.055-0.316,0.112-0.474,0.169c-0.164,0.206-0.329,0.411-0.493,0.617
	c-0.181,0.309-0.36,0.619-0.541,0.928c-0.408,0.074-0.815,0.148-1.306,0.238c-0.702-0.606-1.41-1.217-1.991-1.719
	c-0.297-1.449,2.189-1.861,1.183-3.453c-2.739,2.655-5.175,5.354-7.962,7.62c-2.747,2.233-5.851,4.026-8.798,6.012
	c0.074,0.102,0.147,0.203,0.221,0.304c-2.464,1.076-4.928,2.152-7.516,3.282c0.285,2.193,0.581,4.28,0.823,6.375
	c0.558,4.819-1.864,8.314-5.196,11.336c-0.964,0.875-1.843,0.497-3.463-1.172c0.07-0.298,0.145-0.611,0.217-0.919
	c-0.918-0.389-1.823-0.771-2.789-1.18c-0.27,0.466-0.496,0.856-0.784,1.355c-1.063-0.418-2.097-0.825-3.023-1.19
	c0-1.405,0-2.73,0-4.209c-3.071,3.621-7.481,5.004-11.719,6.962c0.112,0.614,0.226,1.24,0.336,1.848
	c-1.43,0.729-3.029,1.282-4.464,2.01c-0.507,0.169-0.87,0.37-1.375,0.541c-0.211,0.076-0.353,0.133-0.563,0.209
	c-0.716,0.239-0.967,0.344-1.398,0.512c-6.357,2.469-12.711,4.949-19.063,7.434c-4.182,1.635-8.358,3.279-12.612,4.948
	c0.275,0.51,0.494,0.914,0.713,1.318c0.057-0.077,0.114-0.154,0.171-0.231c1.217,0.55,2.434,1.1,3.953,1.785
	c6.438-2.791,13.199-5.724,20.003-8.675c-0.331-0.943-0.624-1.778-0.974-2.776c0.91-0.376,1.759-0.726,2.557-1.055
	c0.311,0.428,0.547,0.752,0.813,1.118c2.035-0.882,3.965-1.718,5.883-2.548c0-0.623,0-0.981,0-1.455
	c0.415-0.18,0.609-0.236,0.929-0.379c0.499-0.176,0.733-0.202,1.232-0.379c0.491,0.834,0.849,1.443,1.396,2.374
	c2.185-0.906,4.325-1.795,6.635-2.753c0.427,0.933,0.829,1.813,1.28,2.799c-2.206,0.985-4.355,1.944-6.668,2.978
	c0.287,0.872,0.559,1.698,0.895,2.718c-0.798,0.35-1.606,0.704-2.52,1.104c-0.194-0.335-0.385-0.663-0.66-1.137
	c-2.011,0.828-3.972,1.636-5.895,2.429c0,0.558,0,1.016,0,1.635c-0.74,0.289-1.501,0.586-2.367,0.924
	c-0.43-0.905-0.769-1.62-1.246-2.625c-6.9,2.974-13.758,5.929-20.584,8.87c-0.678,3.775-3.439,5.197-7.016,3.791
	c-0.607-0.238-1.475-0.04-2.151,0.176c-1.167,0.374-2.281,0.916-3.414,1.396c-1.132,0.479-2.26,0.97-3.385,1.453
	c-1.438,4.809-4.369,5.194-6.739,4.163c-2.839-1.234-3.224-4.012-1.179-7.708c-0.215-0.547-0.455-1.155-0.736-1.872
	c-20.393,8.726-40.751,17.436-61.309,26.231c0.71,1.854,1.32,3.587,2.029,5.276c2.478,5.896,4.979,11.784,7.494,17.664
	c0.705,1.649,1.544,3.244,2.233,4.9c1.061,2.545,0.487,4.366-1.941,5.434c-4.757,2.091-9.563,4.073-14.389,6
	c-2.056,0.82-3.934-0.287-4.853-2.51c-0.649-1.57-1.413-3.094-2.202-4.804c-1.331,0.548-2.827,1.163-4.199,1.728
	c0.891,1.943,1.712,3.732,2.595,5.659c0.092,2.763-0.594,3.798-3.372,4.957c-4.256,1.774-8.514,3.544-12.76,5.34
	c-1.591,0.673-3.145,0.827-4.504-0.394c-0.509-0.457-0.823-1.173-1.117-1.821c-0.703-1.552-1.342-3.133-2.067-4.845
	c-1.338,0.56-2.839,1.187-4.297,1.796c0.743,1.688,1.368,3.352,2.189,4.913c1.04,1.979-0.132,4.43-1.546,5.031
	c-5.122,2.178-10.268,4.3-15.44,6.354c-1.687,0.67-3.648-0.481-4.344-2.212c-2.998-7.463-6.022-14.916-9.044-22.37
	c-0.831-2.047-1.687-4.085-2.596-6.285c-2.729,1.255-5.373,2.478-8.021,3.686c-9.005,4.109-18.032,8.171-27.012,12.335
	c-7.048,3.268-14.003,6.736-21.074,9.953c-2.254,1.025-4.779,1.438-7.125,2.287c-5.168,1.869-10.273,3.914-15.455,5.742
	c-5.491,1.937-11.024,3.761-16.573,5.528c-4.342,1.383-8.816,2.07-13.377,2.303c-7.91,0.403-15.217-1.637-21.909-5.664
	c-5.715-3.439-10.819-7.754-15.063-12.919c-4.82-5.865-8.46-12.417-10.292-19.866c-1.434-5.832-1.823-11.713-0.921-17.672
	c0.631-4.165,1.69-8.197,3.433-12.042c0.074-0.163,0.031-0.379,0.041-0.57c-0.008,0.012-0.014,0.024-0.02,0.037
	c-1.286,0.471-2.573,0.938-3.858,1.412c-2.575,0.95-5.15,1.903-7.753,2.865c0,0.541,0,0.943,0,1.455
	c-0.837,0.247-1.639,0.483-2.441,0.72c-0.187-0.101-0.374-0.2-0.561-0.301c-0.134-0.061-0.268-0.121-0.401-0.182
	c-0.028-0.016-0.056-0.031-0.084-0.048c0.025-0.025,0.05-0.052,0.076-0.077c0.017,0.027,0.033,0.056,0.05,0.083
	c0.062,0.135,0.123,0.27,0.184,0.403c0.19,0.103,0.38,0.206,0.57,0.31c0.419,1.021,1.12,2.021,1.195,3.066
	c0.127,1.786-1.061,2.92-2.902,3.218c-0.657,0.106-1.321,0.172-2.09,0.27c-0.13,0.455-0.28,0.977-0.499,1.739
	c-1.094-0.324-2.105-0.624-3.116-0.924L78.835,488.034z M329.273,447.942c0.189-0.098,0.379-0.196,0.568-0.294
	c0.287-0.097,0.574-0.194,0.861-0.291c0.871-0.358,1.746-0.704,2.611-1.076c8.095-3.478,16.194-6.944,24.278-10.444
	c8.304-3.596,16.585-7.244,24.891-10.836c10.655-4.608,21.327-9.179,31.988-13.774c8.27-3.565,14.695-5.894,22.028-9.977
	c1.44-0.625,5.625-3.055,7.248-3.801c-1.392-0.919-2.484-1.121-3.691-0.351c-1.503,0.961-2.977,2.016-4.59,2.75
	c-4.361,1.984-8.801,3.797-13.189,5.722c-5.859,2.571-11.696,5.196-17.552,7.777c-5.072,2.236-10.161,4.437-15.236,6.666
	c-5.899,2.591-11.789,5.202-17.688,7.795c-6.24,2.744-12.485,5.477-18.729,8.214c-4.729,2.074-9.468,4.124-14.181,6.229
	c-2.808,1.255-5.575,2.597-8.361,3.898c-0.285,0.101-0.569,0.2-0.854,0.301c-0.19,0.098-0.382,0.196-0.572,0.294
	c-0.192,0.104-0.386,0.206-0.578,0.31c-0.281,0.097-0.563,0.194-0.846,0.291c-0.192,0.099-0.386,0.198-0.579,0.297
	c-0.284,0.098-0.567,0.195-0.852,0.292c-0.191,0.099-0.382,0.198-0.573,0.297c-2.392,0.983-4.782,1.967-7.174,2.95
	c0.082,0.187,0.164,1.373,0.246,1.56c2.36-1.105,4.721-2.211,7.081-3.315c0.196-0.104,0.394-0.207,0.59-0.311
	c0.281-0.093,0.563-0.187,0.844-0.279c0.193-0.104,0.387-0.207,0.579-0.311c0.283-0.094,0.566-0.188,0.851-0.282
	C328.887,448.143,329.08,448.043,329.273,447.942z M460.611,407.347c-0.304,0.503-0.606,1.005-0.91,1.508
	c0.214,0.087,0.428,0.173,0.642,0.26c0.145-0.535,0.288-1.07,0.433-1.606c0.059-0.084,0.117-0.169,0.352-0.51
	C460.783,407.23,460.697,407.289,460.611,407.347z M220.113,422.943c0.209,0.941,0.417,1.882,0.632,2.849
	c-1.387,0.607-2.593,1.143-3.804,1.665c-6.466,2.792-12.903,5.657-19.411,8.349c-6.048,2.501-12.185,4.788-18.263,7.218
	c-7.005,2.801-14.031,5.555-20.97,8.515c-5.882,2.509-11.707,5.168-17.454,7.972c-4.751,2.317-9.386,4.879-14.004,7.456
	c-2.312,1.29-4.825,2.512-6.624,4.368c-3.738,3.857-6.08,8.654-7.412,13.867c-1.494,5.846-1.294,11.647,0.435,17.466
	c1.688,5.681,4.699,10.514,8.713,14.771c2.714,2.879,5.859,5.193,9.36,7.078c4.152,2.234,8.561,3.471,13.227,3.79
	c5.63,0.386,10.873-1.223,15.964-3.398c4.143-1.771,8.242-3.643,12.297-5.441c0.532,0.148,0.953,0.267,1.23,0.344
	c-0.578-1.961-1.273-3.856-1.689-5.812c-1.376-6.476,1.646-13.741,6.987-17.552c2.478-1.769,5.277-2.717,8.005-3.911
	c6.035-2.642,11.998-5.45,17.987-8.195c1.73-0.793,3.454-1.601,5.195-2.408c-1.234-0.68-2.43-1.188-3.456-1.929
	c-3.748-2.711-5.718-6.829-8.168-10.561c-1.728-2.631-3.152-5.485-5.685-7.51c-0.212-0.169-0.321-0.466-0.493-0.727
	c2.698-1.28,4.806-0.13,6.279,1.974c2.298,3.281,4.35,6.735,6.637,10.025c1.656,2.384,3.783,4.446,6.881,4.367
	c2.072-0.054,4.278-0.527,6.153-1.397c3.257-1.514,5.817-3.858,6.435-7.725c0.425-2.656-0.223-5.177-0.975-7.645
	c-1.245-4.09-2.387-8.14-1.434-12.487c0.302-1.376,1.088-1.847,2.394-2.004c0.092,0.724,0.254,1.367,0.242,2.007
	c-0.078,3.904,0.837,7.595,1.985,11.306c0.929,3.004,1.448,6.161,1.849,9.289c0.187,1.46-0.336,3.011-0.562,4.711
	c3.882-1.777,7.682-3.516,11.633-5.324c-3.231-7.738-6.411-15.356-9.604-23.004c-0.51,0.12-0.904,0.214-1.432,0.339
	c-0.38-0.899-0.734-1.737-1.118-2.646c7.905-3.289,15.617-6.498,23.478-9.77c0.38,0.993,0.675,1.765,0.948,2.478
	c-0.45,0.423-0.75,0.705-1.074,1.011c1.479,3.507,2.939,6.965,4.424,10.483c1.676-0.7,3.176-1.327,4.711-1.969
	c-1.519-3.635-2.981-7.134-4.447-10.642c-0.519,0.125-0.952,0.229-1.445,0.348c-0.363-0.891-0.688-1.687-1.062-2.604
	c7.858-3.281,15.555-6.496,23.414-9.778c0.429,0.941,0.773,1.696,1.111,2.438c-0.453,0.341-0.78,0.587-1.183,0.89
	c1.464,3.527,2.906,6.998,4.418,10.639c1.706-0.685,3.174-1.274,4.737-1.901c-1.533-3.667-3.001-7.181-4.487-10.735
	c-0.521,0.143-0.909,0.248-1.349,0.367c-0.361-0.827-0.715-1.636-1.146-2.623c7.783-3.237,15.531-6.462,23.471-9.765
	c0.406,0.956,0.738,1.74,1.06,2.499c-0.53,0.327-0.844,0.521-1.188,0.732c3.046,7.332,6.085,14.646,9.201,22.145
	c10.002-4.386,19.924-8.736,29.862-13.094c0.048-0.351,0.092-0.679,0.15-1.104c1.236-0.563,2.516-1.145,3.855-1.754
	c-0.104-0.333-0.155-0.557-0.245-0.764c-0.093-0.214-0.223-0.411-0.39-0.71c-4.836-0.422-9.081-2.067-11.858-6.38
	c-2.746-4.265-3.211-8.812-1.148-13.408c3.048-6.794,11.214-10.732,19.375-6.561c3.555,1.817,5.794,4.844,6.798,8.638
	c1.376,5.208-0.088,9.793-3.668,13.681c0.209,0.553,0.373,0.982,0.587,1.546c11.759-3.419,22.475-9.241,33.646-13.938
	c11.244-4.727,22.334-9.818,33.526-14.764c-2.355-5.61-4.633-11.04-6.916-16.468c-2.356-5.604-4.646-11.239-7.12-16.791
	c-0.768-1.722-2.04-3.219-3.275-5.118c-36.725,14.933-73.66,29.95-110.676,45.001c1.164,2.815,2.29,5.362,3.269,7.965
	c0.83,2.205,2.471,4.221,1.795,6.826l-0.035-0.009c0.798-0.209,1.596-0.417,2.424-0.633c0.234,0.609,0.445,1.156,0.69,1.793
	c-7.807,3.276-15.536,6.521-23.461,9.847c-0.265-0.746-0.483-1.358-0.702-1.975c0.878-0.395,1.559-0.7,2.038-0.916
	c-3.665-4.082-4.316-9.601-6.981-14.154c-1.482,0.582-3.007,1.18-4.648,1.824c0.932,2.23,1.957,4.219,2.594,6.324
	c0.877,2.9,3.367,5.339,2.457,8.756c0.872-0.322,1.634-0.604,2.393-0.884c0.303,0.759,0.511,1.279,0.76,1.903
	c-7.809,3.256-15.584,6.497-23.471,9.786c-0.271-0.765-0.455-1.28-0.675-1.901c0.744-0.36,1.438-0.696,2.223-1.076
	c-2.614-1.646-2.863-4.505-3.98-6.853c-1.136-2.389-2.095-4.862-3.175-7.402c-1.621,0.694-3.112,1.333-4.68,2.004
	c0.894,2.173,1.845,4.143,2.52,6.202c0.962,2.935,3.298,5.46,2.583,8.994c0.856-0.377,1.564-0.688,2.334-1.027
	c0.28,0.744,0.492,1.307,0.751,1.994c-7.794,3.246-15.521,6.466-23.452,9.77c-0.209-0.717-0.383-1.312-0.57-1.95
	c0.735-0.398,1.334-0.723,1.673-0.906c-3.636-5.286-4.918-11.574-7.901-17.104c-0.322,0.195-0.56,0.34-0.8,0.483
	c-0.052,0.001-0.104,0.003-0.157,0.004c0.02-0.021,0.04-0.043,0.06-0.063C220.069,422.896,220.091,422.919,220.113,422.943z
	 M444.844,338.371c0.804,1.899,1.624,3.811,2.424,5.731c4.59,11.031,9.162,22.069,13.792,33.083
	c0.319,0.759,1.061,1.341,1.605,2.006c0.119-0.082,0.239-0.163,0.358-0.245c1.18,2.856,2.36,5.713,3.648,8.828
	c1.262-0.729,2.618-1.133,3.368-2.039c1.037-1.253,2.089-1.367,3.46-0.988c0.908-0.565,1.856-1.101,2.748-1.716
	c3.141-2.168,5.751-4.834,8.022-7.931c3.191-4.35,5.01-9.193,5.799-14.446c0.79-5.252,0.155-10.401-1.67-15.384
	c-1.771-4.834-4.43-9.141-8.354-12.495c-2.353-2.011-4.922-3.825-7.588-5.396c-2.151-1.268-4.397-2.042-7.153-0.771
	c-4.462,2.058-9.168,3.588-13.767,5.352c-2.325,0.892-4.641,1.807-6.981,2.72c0.369,1.017,0.673,1.855,0.994,2.742
	C445.335,337.711,445.111,338.011,444.844,338.371z M425.895,386.929c3.334-0.879,5.893-2.937,9.181-3.71
	c7.364-1.733,13.639-0.512,18.944,4.946c1.034,1.064,1.86,2.331,2.825,3.558c1.314-0.489,2.589-0.963,4.069-1.513
	c-0.883-2.062-1.792-3.986-2.526-5.975c-0.486-1.313-1.653-2.586-0.534-4.125c-5.574-13.361-11.128-26.673-16.721-40.078
	c-1.921,0.098-1.63-1.847-2.677-2.978c-9.093,3.599-18.247,7.223-27.448,10.864c0.551,1.363,0.971,2.406,1.468,3.637
	c-0.364,0.228-0.728,0.455-1.124,0.702C416.23,363.889,421.052,375.381,425.895,386.929z M344.823,395.113
	c-6.807-0.04-11.275,5.552-10.783,11.389c0.477,5.652,4.935,10.259,11.466,9.82c5.596-0.375,9.929-5.207,9.743-10.95
	C355.055,399.387,349.994,395.042,344.823,395.113z M246.194,482.622c-19.145,9.119-38.617,17.273-57.465,26.801
	c-0.286-0.392-0.505-0.692-0.802-1.099c-0.604,0.415-1.173,0.807-1.737,1.194c-0.068,0.373-0.11,0.703-0.19,1.025
	c-0.282,1.14,0.212,2.139,1.152,2.45c0.824,0.273,1.9,0.027,2.795-0.232c0.748-0.217,1.357-0.875,2.095-1.174
	c0.857-0.347,1.833-0.408,2.676-0.779c3.421-1.506,6.812-3.083,10.212-4.636c6.199-2.83,12.399-5.655,18.595-8.492
	c5.382-2.464,10.759-4.937,16.135-7.412c2.655-1.223,5.303-2.461,8.069-3.745C247.219,485.225,246.741,484.01,246.194,482.622z
	 M284.52,443.979c2.913,7.019,5.764,13.888,8.651,20.845c1.694-0.67,3.197-1.264,4.794-1.896c-2.963-7.088-5.83-13.945-8.738-20.901
	C287.513,442.737,286.089,443.328,284.52,443.979z M503.19,370.554c-1.956,4.025-3.896,8.019-5.86,12.061
	c0.163,0.121,0.415,0.309,0.803,0.597c0.925-1.059,1.839-2.106,2.82-3.231c0.901,0.763,1.726,1.459,2.64,2.233
	c-0.844,1.102-1.633,2.133-2.597,3.393c2.572-0.404,6.438-7.022,6.615-10.342c-0.979-1.491-1.786-2.721-2.69-4.097
	C504.55,371.036,503.938,370.818,503.19,370.554z M404.09,439.535c-0.061-0.156-0.221-0.579-0.438-1.147
	c-4.63,1.81-9.163,3.582-13.707,5.358c0.297,0.708,0.53,1.262,0.672,1.601c1.53,0.653,2.849,1.216,4.292,1.832
	c2.414-1.026,4.967-2.113,7.445-3.167C402.901,442.601,403.423,441.254,404.09,439.535z M266.649,459.861
	c-1.079-2.534-2.068-4.858-3.05-7.165c-1.796,0.778-3.202,1.388-4.632,2.007c1.022,2.44,2,4.775,3.005,7.175
	C263.546,461.2,265.006,460.57,266.649,459.861z M302.773,487.793c1.636-0.689,3.019-1.273,4.731-1.995
	c-0.769-1.915-1.517-3.779-2.329-5.805c-1.712,0.727-3.206,1.36-4.798,2.035C301.204,484.018,301.941,485.791,302.773,487.793z
	 M279.597,490.741c-1.723,0.765-3.136,1.392-4.665,2.069c0.775,1.904,1.481,3.643,2.264,5.568c1.594-0.624,3.068-1.2,4.76-1.861
	C281.179,494.613,280.42,492.758,279.597,490.741z M467.984,412.965c0.675-3.2,0.987-5.984-0.562-8.921
	c-1.749,1.077-3.376,2.079-5.11,3.148c0.883,0.427,1.507,0.728,2.174,1.05c-0.273,0.765-0.521,1.457-0.781,2.188
	c0.87,0.194,1.68,0.376,2.489,0.558c-0.047,0.076-0.093,0.152-0.14,0.229C466.622,411.731,467.19,412.246,467.984,412.965z
	 M267.504,474.978c0.652,1.615,1.262,3.124,1.884,4.666c1.588-0.709,3.074-1.372,4.635-2.069c-0.654-1.629-1.227-3.053-1.832-4.56
	C270.607,473.678,269.143,474.291,267.504,474.978z"/>
</svg>
