<?xml version="1.0" encoding="utf-8"?>
<!-- Generator: Adobe Illustrator 16.0.0, SVG Export Plug-In . SVG Version: 6.00 Build 0)  -->
<!DOCTYPE svg PUBLIC "-//W3C//DTD SVG 1.1//EN" "http://www.w3.org/Graphics/SVG/1.1/DTD/svg11.dtd">
<svg version="1.1" id="Capa_1" xmlns="http://www.w3.org/2000/svg" xmlns:xlink="http://www.w3.org/1999/xlink" x="0px" y="0px"
	 width="612px" height="792px" viewBox="0 0 612 792" enable-background="new 0 0 612 792" xml:space="preserve">
<path d="M135.112,280.256c-1.782-1.667-3.415-3.032-4.683-4.945c2.049-2.69,4.756-4.563,7.139-6.961
	c2.05,1.597,3.325,3.658,5.362,5.543C140.236,276.086,137.773,278.089,135.112,280.256z M143.873,226.427
	c2.063-2.611,4.716-4.66,6.71-7.54c-1.731-1.459-3.038-3.076-4.931-4.065c-2.738,2.196-5.029,4.613-7.44,7.035
	c0.805,0.882,1.43,1.569,2.054,2.254C141.389,224.831,142.51,225.552,143.873,226.427z M449.162,588.947
	c7.283-5.31,14.231-10.86,20.305-17.409c6.343-5.654,12.122-11.826,17.076-18.985c4.316,3.356,7.527,7.329,10.278,11.734
	c-3.76,2.559-4.721,4.71-3.248,7.006c1.472,2.296,3.767,2.317,7.726-0.155c9.233,16.633,21.021,31.237,35.384,43.726
	c5.314,6.011,10.644,12.012,14.913,18.85c2.687,4.305,5.134,8.729,6.438,13.677c1.528,5.798,1.034,8.789-6.983,9.278
	c-8.86,0.541-16.213-3.44-23.163-8.287c-6.45-4.497-11.889-10.111-17.296-15.795c-9.175-9.645-19.549-17.773-31.578-23.652
	c-2.666-1.304-5.324-2.625-7.979-3.952c-0.651-0.326-1.403-0.521-1.801-1.213c1.487-4.395,1.246-5.906-1.133-7.152
	c-2.315-1.213-3.847-0.479-6.424,3.105c-0.938,0.036-1.53-0.743-2.328-1.049l-0.013-0.013
	C455.686,595.827,451.978,593.053,449.162,588.947z M482.519,580.111c-0.043,2.255,1.741,4.153,3.98,4.236
	c2.231,0.082,4.255-1.891,4.298-4.19c0.041-2.175-1.878-4.067-4.132-4.074C484.32,576.075,482.562,577.782,482.519,580.111z
	 M472.884,590.089c0.002,2.158,1.955,4.052,4.196,4.067c2.387,0.016,4.052-1.63,4.085-4.037c0.031-2.256-1.773-4.188-3.96-4.237
	C475.007,585.831,472.882,587.9,472.884,590.089z M166.616,244.447c2.356-2.287,4.339-4.676,6.396-7.165
	c-1.555-1.772-3.055-3.254-4.825-4.696c-2.754,2.007-5.122,4.225-7.714,6.59C162.517,241.021,164.257,242.841,166.616,244.447z
	 M84.335,216.146c1.943,2.934,3.675,6.026,5.919,8.755c1.347-0.178,2.491-0.458,3.761-1.411c-2.274-3.656-4.455-7.16-6.68-10.736
	C85.844,213.662,84.951,214.673,84.335,216.146z M116.053,257.68c3.089-2.392,6.212-4.326,8.894-7.009
	c-1.514-2.075-2.88-4.024-4.668-5.863c-2.938,2.737-6.079,4.914-8.704,7.833C112.725,254.635,114.407,255.959,116.053,257.68z
	 M96.696,272.446c0.708,0.256,1.48-0.261,2.279,0.251c0.172,0.526,0.374,1.146,0.631,1.936c3.759,0.335,7.497,0.587,11.14-0.73
	c2.833-1.025,3.878-2.997,3.476-6.02c-0.296-2.225-1.327-4.194-2.065-6.033c0.566-1.316,1.867-1.777,2.071-3.198
	c-1.467-1.492-2.665-3.362-4.385-4.537c-1.196,0.216-1.693,1.266-2.854,1.35c-1.533-0.673-2.909-1.933-4.697-2.419
	c-2.998-0.815-5.747-0.063-7.022,2.469c-2.001,3.973-1.751,8.282-1.577,12.205c0.878,0.882,1.795,0.352,2.379,1.016
	c-0.207,0.704-0.411,1.396-0.608,2.065C95.805,271.47,96.067,272.09,96.696,272.446z M134.452,234.206
	c-3.015-4.019-5.704-6.823-9.304-9.401c-1.412,0.918-2.704,1.737-3.509,3.007c0.086,0.854,0.592,1.344,1.041,1.825
	c2.757,2.956,2.407,4.697,8.326,8.855c4.596,4.281,5.601,5.604,8.387,8.441c12.004,12.22,24.033,24.416,36.025,36.647
	c7.602,7.754,15.136,15.575,22.736,23.331c10.34,10.553,20.718,21.068,31.062,31.616c0.239,0.244,0.568,0.456,0.786,0.789
	l16.08,16.46c60.343,61.572,120.684,123.142,180.967,184.654c1.814-1.081,8.124-7.367,9.128-8.985
	c-0.282-1.019-1.176-1.588-1.878-2.281c-12.382-12.231-24.778-24.449-37.174-36.668c-10.183-10.038-20.354-20.086-30.554-30.106
	c-13.135-12.904-26.296-25.783-39.438-38.682c-0.912-0.896-1.75-1.867-2.623-2.803c-5.043-4.867-10.125-9.694-15.122-14.608
	c-19.324-19-38.623-38.025-57.919-57.054c-0.229-0.225-0.488-0.435-0.731-0.667l-0.003,0.003l-0.15-0.147l-16.513-16.159
	l0.037-0.041C200.89,299.556,167.671,266.881,134.452,234.206z M171.437,228.622c-0.625,1.085-1.751,1.689-1.942,2.996
	c1.185,1.854,2.833,3.28,4.54,4.772c0.911-0.668,1.66-1.216,2.443-1.79c1.246,0.735,2.414,1.534,3.673,2.147
	c3.241,1.58,6.661,0.895,8.172-1.939c2.101-3.936,1.691-8.278,1.75-12.217c-0.94-0.858-1.844-0.367-2.424-0.975
	c-0.269-0.778,0.444-1.389,0.369-2.203c-0.191-0.665-0.555-1.286-0.939-1.509c-0.943-0.47-1.637,0.171-2.344-0.336
	c-0.195-0.542-0.416-1.158-0.615-1.714c-2.067-0.538-7.159-0.507-9.508,0.027c-4.723,1.075-6.252,3.644-4.853,8.32
	C170.214,225.731,170.888,227.196,171.437,228.622z M128.87,276.824c-1.363,0.079-1.895,1.236-3.052,1.369
	c-1.287-0.688-2.428-1.771-3.888-2.34c-3.057-1.189-6.112-0.614-7.563,1.874c-2.335,4.003-2.045,8.465-2.044,12.534
	c0.875,0.898,1.817,0.406,2.38,1.127c-0.178,0.611-0.362,1.243-0.523,1.795c0.227,0.854,0.625,1.445,1.343,1.782
	c0.696,0.303,1.468-0.361,2.191,0.194c0.115,0.557,0.236,1.139,0.426,2.058c3.755,0.461,7.359,0.58,10.9-0.53
	c3.256-1.021,4.411-3.149,3.807-6.546c-0.354-1.991-1.218-3.822-1.764-5.54c0.49-1.324,1.792-1.785,2.09-3.11
	C131.889,279.726,130.299,278.228,128.87,276.824z M173.369,252.765c-16.608-13.672-33.009-27.172-49.534-40.775
	c-5.465,5.18-10.625,10.072-15.992,15.16c13.148,16.508,25.643,32.196,38.609,48.477c1.974-1.723,2.143-2.001,4.049-3.782
	c0,0,1.593-1.156,1.594-1.156c2.344-1.75,0.716-0.485,2.765-2.027c-12.161-13.45-24.424-27.015-36.772-40.674
	c2.645-2.188,4.716-4.479,7.481-6.244c13.469,12.39,26.846,24.696,40.288,37.061C168.498,256.847,171.015,255.218,173.369,252.765z
	 M148.588,210.402c-0.093,0.774-0.564,1.162-1.026,1.557c-0.09-0.086-0.181-0.172-0.271-0.258c0.086,0.09,0.172,0.181,0.258,0.271
	c-0.264,0.522-0.811,0.938-0.55,1.874c1.165,1.006,2.478,2.152,3.806,3.281c0.299,0.254,0.648,0.449,0.922,0.636
	c1.172-0.22,1.53-1.429,2.566-1.761c1.378,0.603,2.747,1.335,4.199,1.811c3.761,1.229,6.995-0.39,7.994-3.958
	c1.08-3.858,0.373-7.71,0.044-11.389c-0.866-0.7-1.838,0.02-2.526-0.792c0.109-0.646,0.229-1.354,0.334-1.97
	c-0.344-0.748-0.806-1.21-1.45-1.478c-0.659-0.286-1.312,0.4-2.06-0.057c-0.25-0.514-0.542-1.108-0.907-1.857
	c-3.343,0.01-6.667,0.208-9.868,1.345c-3.896,1.382-5.07,3.792-3.844,7.742C146.771,207.209,147.838,208.782,148.588,210.402z
	 M477.159,592.169c1.301-0.072,2.151-0.816,2.068-2.198c-0.083-1.355-0.952-2.027-2.282-1.994c-1.308,0.032-1.894,0.818-1.923,2.283
	C475.142,591.368,475.765,592.246,477.159,592.169z M577.039,662.891c-2.333-0.526-5.211,1.293-7.828,5.243
	c-1.337,2.017-3.184,4.04-1.899,6.805C571.939,675.164,578.595,666.728,577.039,662.891z M573.084,674.496
	c3.837,1.997,7.251,3.961,10.871,5.51c0.122-0.142,0.244-0.282,0.366-0.424c-1.993-3.437-3.986-6.873-6.124-10.56
	C576.295,670.813,574.735,672.406,573.084,674.496z M494.952,568.858c-0.067,1.336,0.704,2.172,2.028,2.255
	c1.255,0.078,2.037-0.642,2.117-1.904c0.087-1.36-0.634-2.112-1.91-2.232C495.832,566.98,495.015,567.59,494.952,568.858z
	 M466.261,598.18c-1.381-0.005-2.133,0.77-2.106,2.142c0.024,1.271,0.777,2.011,2.037,2.023c1.374,0.014,2.056-0.805,2.141-2.139
	C468.2,598.939,467.544,598.185,466.261,598.18z M64.997,674.917c0.303,0.188,0.634,0.348,0.998,0.465
	c-0.64,1.206-1.273,2.415-1.896,3.631c-5.786,11.284-11.542,22.585-17.326,33.87c-0.452,0.882-0.743,1.894-1.927,2.675
	c-5.17-2.959-10.449-5.979-15.858-9.074c1.768-3.581,4.014-6.539,5.867-9.728c1.748-3.007,3.894-5.773,5.361-8.947
	c0.014-0.019,0.027-0.037,0.042-0.055l-0.011-0.01c-0.01,0.021-0.021,0.042-0.031,0.064c-3.131,3.872-5.556,8.222-8.271,12.372
	c-4.097,6.265-8.031,12.636-12.063,18.943c-1.316,2.061-2.895,3.9-4.955,5.272c-2.262,1.509-5.156,1.605-7.036,0.25
	c-2.101-1.514-3.16-4.686-2.423-7.255c0.538-1.876,2.064-3.176,4.279-2.992c3.481,0.289,5.328-1.469,6.76-4.329
	c5.857-11.704,11.024-23.732,16.73-35.506c2.53-5.22,5.075-10.435,7.96-15.472c0.697-1.218,1.33-2.491,2.61-3.662
	c3.796,2.708,7.596,5.419,11.504,8.206c-1.391,2.96-3.318,5.402-4.974,8.168c1.712,1.233,1.398,2.615,0.431,4.17
	c-0.635,1.02-1.013,2.211-1.066,3.449c-0.12,2.801,2.421,4.477,4.946,3.277c1.749-0.831,2.713-2.379,3.609-3.978
	c0.882-1.574,1.726-3.169,2.542-4.67c1.625-0.133,2.729,0.973,4.065,0.929C64.917,674.968,64.949,674.936,64.997,674.917z
	 M47.409,697.004c-0.026-2.143-1.945-3.862-4.351-3.898c-2.584-0.039-4.697,1.841-4.754,4.231c-0.058,2.392,1.696,4.069,4.275,4.09
	C45.21,701.448,47.439,699.407,47.409,697.004z M486.602,582.284c1.342-0.129,2.229-0.784,2.149-2.166
	c-0.075-1.295-0.871-2.14-2.233-2.086c-1.236,0.048-2.036,0.812-2.023,2.06C484.507,581.393,485.241,582.202,486.602,582.284z
	 M122.329,194.989c-3-1.916-5.935-3.998-9.221-5.693c-1.007,0.832-1.985,1.512-2.682,2.939c3.559,2.398,6.984,4.706,10.481,7.062
	C121.88,197.912,122.258,196.611,122.329,194.989z M86.296,209.492c3.362,5.238,6.791,10.582,10.176,15.856
	c2.084-0.656,2.766-2.713,4.679-3.05c1.659,1.259,2.246,3.493,4.2,4.781c6.554-6.09,13.037-12.113,19.735-18.335
	c-1.78-1.344-3.259-2.461-4.788-3.616c0.572-1.587,2.396-1.858,2.764-3.55c-5.214-3.436-10.419-6.865-15.439-10.172
	c-1.569,0.561-2.249,1.873-3.812,2.162c-4.729-3.292-9.579-6.668-14.298-9.952c-1.284,0.402-2.094,0.934-2.546,1.955
	c0.33,1.517,1.375,3.156-0.404,4.423c-1.603,1.142-3.068-0.424-4.625-0.433c-0.861,0.706-1.695,1.378-2.039,2.76
	c3.152,4.403,6.391,8.926,9.571,13.369C88.545,207.204,87.004,207.801,86.296,209.492z M607.603,600.066
	c-4.676,15.898-12.495,30.237-21.851,43.81c-1.029,1.492-2.257,2.865-2.912,4.597l0.008-0.008c-3.178,3.233-5.581,7.086-8.449,10.57
	c-14.939,18.146-32.045,33.737-52.995,44.719c-15.738,8.25-32.498,12.362-50.328,11.14c-14.069-0.965-27.232-5.198-39.603-11.932
	c-3.972-2.162-7.764-4.616-11.582-7.039c-9.494-6.024-15.842-14.687-20.973-24.43c-5.033-9.56-9.205-19.521-13.774-29.298
	c-2.084-4.457-4.266-8.876-7.268-12.827c-1.884-2.479-4.106-4.438-7.168-5.337c-2.106-0.617-3.91-1.823-5.568-3.227
	c-3.341-2.826-3.253-7.022,0.187-9.703c0.854-0.665,1.757-1.283,2.806-1.586c7.174-2.068,9.577-7.561,10.118-14.271
	c0.521-6.471-1.068-12.597-3.53-18.513c-4.263-10.241-9.909-19.649-17.591-27.687c-5.895-6.167-12.823-10.747-21.509-12.014
	c-4.871-0.71-9.558-0.086-13.902,2.358c-2.496,1.405-4.354,3.345-5.178,6.195c-0.551,1.903-1.509,3.612-3.098,4.883
	c-2.507,2.003-5.11,1.662-7.003-0.931c-1.438-1.97-2.064-4.275-2.264-6.63c-0.476-5.62-3.452-9.809-7.351-13.535
	c-7.291-6.968-15.686-12.551-23.553-18.798c-8.631-6.853-16.845-14.106-23.44-23.056c-6.8-9.227-10.957-19.48-12.406-30.812
	c-1.494-11.675-0.52-23.137,3.466-34.272c3.668-10.247,9.427-19.217,16.721-27.24c0.499-0.549,1.015-1.083,1.511-1.634
	c0.084-0.094,0.11-0.242,0.281-0.638c-7.064-7.838-14.209-15.765-21.591-23.956c-0.006,0.01-0.011,0.02-0.017,0.029
	c-0.293-0.353-0.643-0.663-1.048-0.915c-0.01-0.044-0.034-0.082-0.049-0.124L64.995,673.501l-3.162-1.334l172.044-307.615
	c-1.225-1.328-2.481-2.691-3.849-4.174C173.394,461.805,116.674,562.963,56.216,662.401c-4.036-2.966-7.799-5.732-11.747-8.635
	c2.081-2.879,3.981-5.551,5.925-8.19c7.845-10.654,15.127-21.693,22.324-32.786c11.678-18.001,22.904-36.286,33.939-54.687
	c11.483-19.146,22.769-38.408,33.967-57.723c20.574-35.487,40.66-71.25,60.679-107.052c7.178-12.836,14.241-25.736,21.352-38.61
	c0.258-0.467,0.462-0.963,0.805-1.682c-23.952-26.549-47.924-53.123-71.95-79.754c0.335-0.513,0.335-0.513,1.492-1.691l1.091-0.967
	c1.896-1.826,0.487-0.51,2.221-2.127c-6.02-7.257-20.242-22.419-26.481-29.373c0.143-0.129,0.273-0.121,0.417-0.25
	c30.278,30.896,68.699,70.032,99.161,101.115l16.363,16.705c60.264,61.498,120.526,122.995,180.506,184.203
	c-2.824,2.885-5.344,5.458-7.942,8.111c-0.394-0.077-0.677-0.578-1.038-0.961c-13.053-13.831-26.091-27.676-39.149-41.503
	c-12.225-12.943-24.473-25.864-36.703-38.804c-6.578-6.959-13.082-13.99-19.73-20.883c-3.791-3.929-7.291-8.142-11.385-11.777
	c-0.774-0.932-1.502-1.908-2.331-2.789c-6.751-7.168-13.52-14.319-20.284-21.475c-14.765-15.616-29.528-31.234-44.306-46.837
	l0.009,0l-0.301-0.319c-0.02-0.028-0.043-0.051-0.069-0.074l-15.919-16.897l0.001-0.001c-22.987-24.336-45.974-48.673-68.962-73.009
	c-0.2,0.202-0.399,0.405-0.599,0.607c22.973,24.336,45.945,48.672,68.918,73.009l0.001,0l15.739,16.616
	c0.009,0.01,0.018,0.019,0.027,0.029c0.479,0.527,0,0,0.479,0.527c0.003,0.004,0.009-0.003,0.014-0.003
	c9.991,10.624,19.989,21.24,29.986,31.859c6.102,6.481,12.178,12.989,18.31,19.443c6.269,6.598,12.591,13.144,18.89,19.713
	c0.429,0.521,0.829,1.067,1.29,1.557c9.381,9.973,18.759,19.946,28.156,29.902c12.083,12.802,24.18,25.591,36.277,38.38
	c12.652,13.377,25.317,26.744,37.964,40.127c1.419,1.502,2.756,3.082,4.021,4.502c-0.351,1.189-1.076,1.717-1.695,2.331
	c-1.034,1.025-1.455,2.194-0.4,3.396c1.115,1.272,2.366,0.912,3.618,0.076c0.827-0.553,1.205-1.662,2.594-1.911
	c8.531,8.091,17.169,16.283,25.808,24.476c0.185-0.195,0.37-0.391,0.555-0.585c-8.652-8.266-17.304-16.531-26.127-24.959
	c3.224-2.497,5.2-5.634,8.268-8.008c9.006,8.524,17.907,16.95,26.809,25.377c0.187-0.2,0.373-0.401,0.56-0.601
	c-8.896-8.461-17.79-16.922-26.361-25.075c3.174-3.255,6.068-6.223,9.123-9.354c8.653,8.54,17.416,17.187,26.179,25.833
	c0.078-0.081,0.155-0.161,0.234-0.241c-8.601-8.895-17.2-17.789-25.912-26.8c2.705-2.582,5.067-5.412,8.092-7.923
	c8.982,9.142,17.805,18.121,26.627,27.101c0.199-0.196,0.399-0.394,0.6-0.59c-8.824-9.02-17.648-18.04-26.465-27.051
	c0.837-1.649,2.144-2.544,3.193-3.651c1.12-1.181,1.627-2.459,0.365-3.719c-1.249-1.246-2.538-0.789-3.729,0.333
	c-1.11,1.046-1.998,2.358-3.488,3.107c-1.581-1.211-2.937-2.6-4.348-3.94c-11.049-10.5-22.131-20.966-33.194-31.451
	c-7.785-7.378-15.563-14.763-23.333-22.154c-14.32-13.619-28.634-27.246-42.948-40.87c-8.109-7.718-16.216-15.439-24.326-23.154
	c-14.125-13.436-28.245-26.877-42.383-40.298c-5.526-5.246-11.096-10.447-16.646-15.668c-1.34-1.35-2.681-2.7-4.021-4.05
	l-0.003-0.002l-0.35-0.353c-0.003,0.003-0.007,0.007-0.01,0.011l-15.795-14.996c-22.064-20.966-44.128-41.934-66.191-62.9
	c-0.199,0.209-0.398,0.419-0.598,0.628c22.064,20.976,44.129,41.953,66.193,62.929l16.636,15.828l0.002-0.017
	c1.104,1.244,1.517,1.618,3.52,3.448c0.498,0.547,1.181,1.003,1.716,1.511c7.092,6.732,14.204,13.441,21.289,20.18
	c14.463,13.755,28.906,27.533,43.372,41.287c15.54,14.776,31.108,29.523,46.645,44.304c21.152,20.126,42.286,40.272,63.43,60.408
	c3.506,3.34,7.019,6.671,10.459,9.94c-2.808,2.803-5.448,5.439-8.232,8.219c-1.462-1.346-3.131-2.798-4.706-4.346
	c-17.027-16.736-34.045-33.48-51.053-50.235c-12.445-12.26-24.855-24.555-37.312-36.803c-6.295-6.189-12.657-12.311-18.989-18.462
	c-0.499-0.546-0.975-1.115-1.501-1.634c-12.73-12.531-25.468-25.058-38.204-37.585c-11.197-11.015-22.39-22.033-33.598-33.036
	c-0.248-0.243-0.465-0.586-0.778-0.8l-15.876-15.553c0.005-0.005,0.011-0.011,0.017-0.016
	c-33.158-32.624-66.314-65.249-99.472-97.874c0.191-0.159,0.273-0.23,0.314-0.255c0.289-0.173,0,0,0.289-0.173
	c10.021,8.753,19.251,18.43,29.99,26.392c2.001-0.95,3.263-2.847,5.581-4.091c22.947,21.756,45.963,43.577,69.175,65.584
	c1.448-2.568,2.825-4.933,4.129-7.337c17.331-31.959,34.699-63.898,51.957-95.896c11.271-20.897,22.377-41.882,33.559-62.827
	c3.208-6.01,6.376-12.042,9.648-18.017c1.426-2.604,3.063-5.088,5.535-6.885c2.716-1.974,5.033-2.103,7.875-0.323
	c1.902,1.192,3.836,2.24,6.148,2.386c2.462,0.156,4.362-0.802,5.635-2.867c0.717-1.163,1.579-2.179,2.499-3.166h2.024
	c0.781,1.288,1.018,2.682,0.46,4.076c-2.109,5.262-3.276,10.844-5.531,16.058c-2.495,5.771-4.836,6.516-10.051,3.033
	c-1.905-1.272-3.665-2.762-5.733-3.788c-2.085-1.034-2.893-0.92-3.948,1.123c-2.567,4.971-4.939,10.042-7.485,15.025
	c-8.163,15.973-16.592,31.807-25.132,47.582c-10.304,19.034-20.534,38.109-30.896,57.112c-10.75,19.714-21.619,39.363-32.432,59.043
	c-0.386,0.702-0.897,1.355-0.966,2.422c1.079,1.399,2.503,2.59,3.938,3.79L353.5,150.667l4,2.333l-102.301,182.04
	c0.119,0.121,0.231,0.235,0.356,0.362l0.415,0.403c-0.141-0.138-0.283-0.277-0.358-0.35c10.064,9.549,20.862,19.824,31.008,29.45
	c3.871-3.617,7.711-6.893,11.865-9.774c10.58-7.338,22.241-11.749,35.096-12.919c18.224-1.659,35.098,2.462,50.678,11.94
	c10.438,6.35,18.632,15.063,25.579,24.994c4.484,6.41,8.682,13.024,13.258,19.367c2.847,3.945,6.098,7.648,11.262,8.697
	c1.45,0.295,2.939,0.388,4.395,0.66c1.801,0.337,3.546,0.883,5.026,2.016c2.843,2.177,3.002,5.105,0.422,7.61
	c-0.978,0.948-2.094,1.764-3.386,2.172c-6.651,2.102-8.748,7.385-9.298,13.556c-0.792,8.893,2.53,16.538,8.368,22.912
	c12.061,13.168,26.852,21.755,44.573,24.791c4.916,0.843,9.819,0.217,14.288-2.408c2.691-1.581,4.514-3.814,5.418-6.783
	c0.501-1.644,1.28-3.121,2.41-4.401c2.374-2.691,6.008-2.817,8.61-0.345c1.748,1.661,3.071,3.628,3.792,5.903
	c1.31,4.134,4.242,6.792,7.758,8.972c7.546,4.677,15.827,7.821,23.872,11.463c9.278,4.201,18.523,8.451,26.976,14.247
	c9.396,6.442,16.245,15.132,22.083,24.698c6.381,10.455,10.336,21.793,11.504,34.02
	C612.266,577.779,610.849,589.032,607.603,600.066z M80.374,616.949c-1.431-1.497-2.834-2.471-4.539-3.428
	c-3.075,4.814-6.093,9.542-9.187,14.388c1.664,1.07,3.059,1.967,4.65,2.989C74.439,626.07,77.4,621.521,80.374,616.949z
	 M494.028,522.611c5.877,0.875,11.134-0.724,14.853-5.438c3.655-4.635,3.328-9.991,1.178-15.184
	c-1.899-4.586-7.859-6.288-11.753-3.591c-2.417,1.676-3.286,4.723-2.093,7.336c1.284,2.812,4.335,4.542,7.05,3.702
	c3.058-0.945,4.777,0.01,5.101,3.932c0.368,4.47-3.747,7.66-8.449,6.663c-2.879-0.609-5.439-1.979-7.888-3.564
	c-7.966-5.154-14.815-11.687-21.983-17.824c-6.558-5.615-12.982-11.402-20.36-15.965c-4.776-2.953-9.623-5.779-16.896-5.928
	c-3.122-0.156-6.769,1.659-8.978,5.494c-2.285,3.965-1.591,8.184,0.721,11.942c1.792,2.913,4.624,4.513,8.178,4.331
	c2.798-0.143,5.021-2.303,4.968-4.653c-0.08-3.51-3.073-6.041-6.563-5.483c-1.142,0.182-2.273,0.321-3.421,0.232
	c-1.672-0.128-2.664-1.182-3.333-2.6c-0.611-1.295-0.028-2.365,0.755-3.349c1.647-2.068,3.846-2.635,6.347-2.149
	c3.044,0.591,5.658,2.139,8.169,3.873c4.84,3.344,9.232,7.237,13.621,11.134c6.808,6.046,13.488,12.247,20.886,17.588
	C480.185,517.478,486.453,521.484,494.028,522.611z M467.303,563.102c1.017,1.104,2.041,2.202,3.331,2.963
	c0.884-0.339,1.453-0.84,1.733-1.762c-0.936-1.148-1.782-2.417-3.224-3.076C468.233,561.578,467.628,562.13,467.303,563.102z
	 M457.567,572.114c0.931,1.161,1.878,2.327,3.327,3.16c0.618-0.661,1.376-1.093,1.736-2.093c-1.07-1.055-1.996-2.262-3.398-3.152
	C458.258,570.511,457.695,571.101,457.567,572.114z M447.962,580.548c1.033,0.972,1.832,2.303,3.378,2.954
	c0.622-0.536,1.32-0.924,1.557-1.823c-0.995-1.179-1.936-2.364-3.373-3.166C448.597,578.979,448.053,579.499,447.962,580.548z
	 M444.646,589.836c0.387,1.131,1.15,1.813,1.822,2.561c5.998,6.682,13.593,11.033,21.678,14.565
	c15.906,6.95,30.03,16.386,41.883,29.157c6.636,7.148,13.842,13.656,22.58,18.204c6.111,3.181,12.44,5.481,19.555,4.601
	c6.125-0.759,8.548-4.025,7.226-10.031c-0.982-4.462-2.836-8.573-5.059-12.524c-5.237-9.31-11.867-17.558-19.648-24.823
	c-11.012-10.282-20.721-21.6-28.518-34.514c-1.982-3.283-3.564-6.89-5.705-9.966c-3.357-4.826-6.554-9.918-11.143-13.804
	c-1.014-0.858-2.047-1.694-3.146-2.604c-1.461,1.867-2.3,3.994-4.265,5.438c-1.232-1.125-2.406-2.196-3.582-3.27
	c-0.857,0.545-1.563,1.023-1.789,2.057c1.104,1.21,2.224,2.437,3.46,3.791c-1.126,1.313-2.104,2.589-3.219,3.732
	C466.943,572.506,457.162,582.672,444.646,589.836z M372.813,536.149c-0.161,5.201,1.879,9.742,4.394,14.104
	c5.529,9.588,12.956,17.726,20.067,26.103c5.584,6.578,11.477,12.915,15.905,20.395c1.036,1.751,1.887,3.596,2.35,5.574
	c1.315,5.622-2.316,9.992-7.442,9.018c-3.022-0.574-3.836-1.875-3.029-4.847c0.792-2.921-0.863-5.991-3.941-7.308
	c-2.628-1.124-5.646-0.123-7.221,2.395c-2.415,3.864-0.872,9.404,3.356,11.388c3.697,1.734,7.603,2.244,11.615,1.059
	c5.773-1.707,9.561-7.431,9.549-14.446c0.061-2.945-0.57-5.763-1.615-8.494c-2.665-6.96-6.893-12.99-11.575-18.669
	c-6.863-8.324-14.021-16.404-20.938-24.684c-2.981-3.567-5.842-7.286-7.255-11.827c-0.72-2.316-0.819-4.662,0.682-6.789
	c1.239-1.758,2.931-2.404,4.515-1.768c1.771,0.713,2.836,2.588,2.605,4.575c-0.125,1.07-0.328,2.14-0.343,3.212
	c-0.041,3.07,2.428,5.487,5.523,5.489c2.635,0.001,4.385-2.018,4.513-5.203c0.055-1.368-0.142-2.667-0.773-3.918
	c-2.176-4.312-7.763-6.9-12.668-5.821C376.446,526.707,372.971,531.081,372.813,536.149z M603.34,555.758
	c-3.098-13.802-9.876-25.604-19.755-35.62c-6.36-6.448-14.064-11.076-21.928-15.446c-9.965-5.538-20.367-10.241-30.264-15.907
	c-7.025-4.023-14.047-8.021-15.643-17.08c-0.269-1.526-1.507-2.682-2.94-3.455c-1.816-0.98-2.978-0.708-4.136,1.023
	c-1.037,1.551-1.486,3.347-1.781,5.128c-0.592,3.563-2.688,5.74-5.867,7.155c-1.802,0.802-3.644,1.406-5.565,1.806
	c-7.365,1.53-14.628,0.857-21.818-1.058c-11.823-3.149-21.805-9.545-30.733-17.702c-5.815-5.313-11.022-11.144-13.979-18.608
	c-3.12-7.878-3.03-15.509,1.896-22.76c2.23-3.283,5.332-5.257,8.974-6.577c1.445-0.525,2.453-1.574,2.325-3.191
	c-0.135-1.698-1.348-2.584-2.919-2.934c-1.048-0.233-2.126-0.451-3.193-0.465c-5.731-0.072-10.68-1.72-14.449-6.367
	c-3.067-3.781-5.85-7.751-8.58-11.767c-5.618-8.264-11.479-16.305-18.866-23.151c-12.612-11.688-27.401-18.633-44.502-20.141
	c-18.322-1.615-35.027,3.134-49.875,14.092c-3.185,2.35-6.211,4.905-8.917,7.694c0.214,0.897,0.624,1.374,1.294,1.573
	c0.572-0.045,0.867-0.441,1.2-0.764c2.814-2.729,5.813-5.238,9.043-7.458c18.858-12.958,39.337-16.315,61.283-9.96
	c14.134,4.093,25.654,12.347,35.327,23.303l0.102-0.009c0,0-0.008,0.102-0.007,0.102c4.717,5.565,8.918,11.507,12.994,17.551
	c3.05,4.523,6.007,9.148,10.074,12.878c2.641,2.421,5.629,4.131,9.342,4.344c2.08,0.119,4.151,0.433,6.222,0.698
	c0.704,0.091,1.522,0.101,1.708,1.071c-0.411,0.835-1.246,1.01-1.977,1.313c-7.778,3.234-11.669,9.526-12.7,17.441
	c-1.404,10.777,3.411,19.491,10.326,27.271l-0.01-0.01c8.229,9.676,18.186,17.071,29.848,22.037
	c10.139,4.316,20.712,6.085,31.647,3.739c6.644-1.425,12.118-4.374,13.059-12.1c0.079-0.659,0.359-1.298,0.582-1.934
	c0.179-0.509,0.386-1.021,1.087-1.176c1.855,0.426,2.409,2.033,2.721,3.595c1.173,5.883,4.95,9.751,9.717,12.868
	c2.427,1.586,4.896,3.117,7.415,4.552c10.963,6.248,22.521,11.372,33.452,17.691c8.608,4.977,16.444,10.84,22.627,18.707
	c11.461,14.584,16.487,31.136,15.256,49.656c-0.587,8.824-2.443,17.349-5.374,25.652c-6.132,17.373-15.723,32.793-26.919,47.286
	c-14.995,19.411-32.648,35.747-54.812,46.721c-17.358,8.594-35.646,12.081-54.794,8.131c-23.743-4.899-42.787-16.966-55.426-38.163
	c-4.152-6.964-7.654-14.262-11.118-21.581c-2.886-6.097-5.63-12.277-9.431-17.883c-2.509-3.7-5.523-6.797-10.188-7.768
	c-1.368-0.285-2.685-0.908-3.965-1.504c-1.147-0.534-2.064-1.328-1.659-2.839c0.818-1.049,2.08-1.246,3.193-1.653
	c7.966-2.911,12.247-8.614,13.294-16.989c0.668-5.352-0.188-10.495-1.663-15.567c-3.341-11.481-9.668-21.333-17.07-30.543
	c-6.227-7.746-13.293-14.537-22.475-18.77c-5.322-2.453-10.891-3.614-16.723-2.751c-6.164,0.913-11.043,4.087-14.839,9.004
	c-0.695,0.901-1.106,2.124-2.377,2.592c-0.499-1.032-0.638-2.033-0.717-3.034c-0.421-5.348-2.666-9.749-6.441-13.572
	c-5.3-5.366-11.458-9.623-17.478-14.063c-10.502-7.747-20.601-15.879-28.736-26.254c-9.885-12.609-13.906-26.77-11.99-42.62
	c1.662-13.75,7.062-25.935,15.646-36.765c1.452-1.832,3.309-3.352,4.425-5.479c-0.395-0.655-0.705-1.249-1.75-1.221
	c-1.623,1.896-3.406,3.83-5.022,5.895c-8.906,11.377-14.334,24.185-15.744,38.626c-1.078,11.04,0.248,21.692,5.359,31.664
	c6.445,12.574,16.202,22.291,27.083,31.006c7.74,6.199,16.116,11.569,23.626,18.069c4.551,3.938,8.22,8.377,8.585,14.783
	c0.092,1.602,0.509,3.195,0.884,4.767c0.249,1.041,0.578,2.132,1.932,2.307c1.039-0.177,1.589-0.955,2.144-1.725
	c0.986-1.368,1.932-2.768,2.966-4.1c3.739-4.819,8.726-7.367,14.769-7.7c8.422-0.464,15.547,2.976,21.96,7.97
	c12.017,9.359,20.649,21.406,26.977,35.141c2.993,6.494,4.781,13.314,4.365,20.584c-0.362,6.307-2.631,11.517-8.215,14.927
	l-0.032,0.032c-1.812,0.736-3.624,1.471-5.434,2.21c-1.482,0.605-2.811,1.329-2.992,3.189c-0.19,1.967,0.633,3.368,2.214,4.444
	c1.935,1.317,4.153,1.941,6.349,2.574c2.508,0.724,4.47,2.169,6.075,4.153c1.316,1.628,2.487,3.358,3.527,5.179
	c4.693,8.209,8.331,16.94,12.585,25.366c4.636,9.182,9.676,18.114,16.813,25.614c7.623,8.009,16.697,14.054,26.737,18.619
	c15.575,7.083,31.83,9.395,48.757,6.65c12.894-2.091,24.803-6.854,35.932-13.566c14.611-8.812,27.389-19.861,38.626-32.66
	c6.142-6.994,11.842-14.358,16.889-22.203l0.07-0.07c9.384-13.743,16.969-28.362,21.237-44.526
	C605.511,582.036,606.299,568.94,603.34,555.758z M140.273,224.118c-0.002-0.002-0.004-0.004-0.006-0.007c0,0-0.001,0-0.001-0.001
	L140.273,224.118z M147.147,211.565c0.048,0.045,0.095,0.091,0.143,0.136c-0.045-0.048-0.091-0.096-0.136-0.144L147.147,211.565z
	 M536.679,614.858c0.001,0.002,0.003,0.003,0.004,0.005c0.002,0.001,0.003,0.003,0.005,0.004L536.679,614.858z"/>
</svg>
