<?xml version="1.0" encoding="utf-8"?>
<!-- Generator: Adobe Illustrator 16.0.0, SVG Export Plug-In . SVG Version: 6.00 Build 0)  -->
<!DOCTYPE svg PUBLIC "-//W3C//DTD SVG 1.1//EN" "http://www.w3.org/Graphics/SVG/1.1/DTD/svg11.dtd">
<svg version="1.1" id="Capa_1" xmlns="http://www.w3.org/2000/svg" xmlns:xlink="http://www.w3.org/1999/xlink" x="0px" y="0px"
	 width="612px" height="792px" viewBox="0 0 612 792" enable-background="new 0 0 612 792" xml:space="preserve">
<path fill-rule="evenodd" clip-rule="evenodd" d="M41.856,176.087c-1.366,0-2.732,0-4.099,0c-0.251-0.404-0.503-0.809-0.754-1.213
	c3.07-2.142,5.984-4.566,9.244-6.363c5.808-3.204,9.828-7.197,7.907-14.438c-0.463-1.746-1.174-3.827-2.477-4.877
	c-5.104-4.114-10.491-7.877-16.28-12.144c-0.506,2.056-0.849,3.451-1.323,5.381c-1.966-0.72-3.66-1.34-5.674-2.077
	c-0.313,2.422-0.619,4.79-1.098,8.486c-3.175-2.418-5.35-4.073-8.598-6.546c0.478,6.238,0.878,11.461,1.307,17.056
	c-1.862,1.401-3.763,2.832-5.664,4.261c-0.324,5.891,2.803,8.03,11.431,6.982c4.076,6.371,8.409,13.143,12.934,20.216
	c4.409-2.288,9.046-4.072,11.941,1.281c2.677,4.95-1.357,7.088-5.51,8.756c0.311,0.39,0.621,0.779,0.931,1.169
	c4.278-2.103,8.394-4.759,12.902-6.071c2.212-0.645,5.663,0.587,7.56,2.165c1.082,0.898,0.398,4.243,0.036,6.407
	c-0.162,0.967-1.489,1.738-2.715,3.06c9.343,7.708,17.173,16.98,30.892,19.114c-4.681,4.167-8.889,3.16-12.486,0.939
	c-5.729-3.537-11.11-7.654-16.51-11.699c-6.914-5.178-9.62-5.576-14.927-1.524c-0.052,6.198-1.367,12.354-8.285,14.413
	c-6.63,1.974-13.254,1.742-17.495-5.676c-9.908,1.511-16.372-2.233-18.246-12.753c2.613-11.1,5.727-13.221,16.919-13.125
	c3.28,0.028,6.58-2.334,10.486-3.839c-3.334-5.349-5.962-10.023-9.093-14.332c-1.056-1.454-3.301-2.546-5.151-2.831
	c-8.442-1.296-12.45-6.316-11.279-14.954c1.706-1.141,3.551-2.376,5.894-3.943c-0.691-6.526-1.392-13.152-2.112-19.957
	c4.936-3.251,9.133-6.651,13.887-8.843c1.986-0.916,5.458,0.164,7.72,1.353c3.656,1.922,6.74,4.904,10.315,7.017
	c2.601,1.538,5.792,2.087,8.373,3.649c2.441,1.479,6.05,3.502,6.317,5.638c0.824,6.614,0.301,13.397,0.301,20.442
	c-1.514,0.952-3.257,2.047-5.002,3.144l-0.037-0.038c3.448-0.37,6.891-0.802,10.345-1.096c8.519-0.723,15.611,2.426,21.817,8.058
	c1.388,1.26,3.057,2.208,5.552,3.977c-1.601-4.604-1.601-4.604-16.033-12.746c-2.969-10.008,3.694-14.589,19.795-14.557
	c3.796-0.879,7.575-2.399,11.392-2.501c7.708-0.206,13.392,6.279,12.887,13.87c-0.49,7.372-7.238,12.92-14.635,12.448
	c-2.811-0.179-5.683,0.591-8.786,0.958c4.131,2.62,7.696,4.294,10.553,6.781c36.399,31.687,72.698,63.489,109.021,95.263
	c34.229,29.944,68.459,59.887,102.684,89.836c14.365,12.57,28.717,25.157,43.041,37.708c8.138-1.037,15.783,0.484,22.08,5.572
	c12.538,10.129,24.824,20.58,37,31.145c9.713,8.426,20.808,13.656,33.427,15.717c1.297,0.212,2.716-0.328,5.035-0.654
	c-3.776-4.646-11.05-3.075-11.846-9.886c2.1-3.915,5.729-5.714,10.14-5.116c5.41,0.733,9.474,5.376,9.682,10.165
	s-2.747,9.943-7.728,10.316c-7.303,0.549-14.985,0.565-22.039-1.13c-11.374-2.733-20.345-10.077-28.566-18.302
	c-6.685-6.687-13.725-13.017-20.607-19.506c-0.616,0.315-1.233,0.63-1.85,0.945c0.654,3.015,0.49,6.581,2.094,8.955
	c12.132,17.977,22.806,37.415,37.488,53.061c14.917,15.895,22.81,34.894,31.74,53.562c11.183,23.378,25.778,43.816,44.43,61.728
	c11.739,11.274,22.54,23.53,33.688,35.413c1.385,1.476,2.316,3.376,4.035,5.941c-4.854,3.741-9.344,7.409-14.066,10.746
	c-2.092,1.478-4.88,1.973-6.964,3.46c-5.091,3.632-9.132,2.258-12.546-2.235c-9.963-13.107-20.351-25.934-29.614-39.523
	c-13.161-19.309-28.823-35.755-47.923-49.385c-13.213-9.429-25.25-20.555-37.429-31.354c-3.74-3.317-6.217-8.061-9.229-12.093
	c1.919-2.521,3.15-4.14,4.912-6.455c-12.491-15.116-24.994-30.246-39.173-47.404c-5.455,6.66-10.134,12.371-14.811,18.082
	c-0.773-0.161-1.546-0.321-2.319-0.48c-1.665-6.305-2.52-12.981-5.194-18.824c-3.66-8,2.093-12.694,5.032-18.788
	c-13.433-12.746-26.848-25.474-40.525-38.45c-1.6,1.406-4.42,3.886-7.618,6.697c-1.708-1.4-3.271-2.427-4.524-3.747
	c-43-45.376-85.985-90.767-128.941-136.185c-25.057-26.492-50.095-53.001-75.021-79.613c-1.912-2.041-3.551-4.822-4.146-7.517
	c-1.562-7.076-7.729-12.891-15.206-13.349c-2.598-0.16-5.212-0.055-7.819-0.063c-2.381-0.006-4.762-0.001-8.403-0.001
	c1.513-1.52,2.338-2.35,3.164-3.179c1.388-0.699,2.776-1.398,4.165-2.098c1.046-0.692,2.091-1.386,3.137-2.08
	c0.436-0.079,0.871-0.157,0.12-0.021c0.669-0.378,0.287-0.162-0.095,0.053c-1.041,0.699-2.083,1.396-3.124,2.095
	C44.628,174.691,43.243,175.39,41.856,176.087z M400.223,508.588c-12.222-15.441-23.983-30.304-36.07-45.575
	c-3.806,2.461-7.026,4.542-10.934,7.067c12.975,15.692,25.349,30.655,38.092,46.066
	C394.539,513.408,397.086,511.248,400.223,508.588z M295.043,407.205c13.493,13.901,26.087,26.878,39.124,40.31
	c3.659-3.242,6.67-5.908,10.178-9.017c-13.522-12.824-26.535-25.165-40.003-37.938C301.126,402.858,298.569,404.687,295.043,407.205
	z M360.411,429.241c-2.531-2.365-4.363-4.177-6.297-5.867c-10.286-8.995-20.633-17.921-30.889-26.95
	c-5.223-4.597-9.262-4.276-14.171,1.831c13.002,12.26,26.041,24.556,39.381,37.135C352.313,433.399,355.928,431.543,360.411,429.241
	z M368.69,460.633c12.382,15.753,23.969,30.494,35.624,45.323c1.887-1.105,3.249-1.836,4.532-2.688
	c0.547-0.362,0.926-0.979,2.276-2.464c-10.168-14.613-20.426-29.358-31.154-44.779C376.274,457.535,373.055,458.85,368.69,460.633z
	 M422.891,494.089c-11.738-16.826-23.147-33.181-35.075-50.277c-0.677,4.791-1.195,8.464-1.766,12.499
	c9.815,13.962,19.788,28.148,30.008,42.686C418.865,496.979,420.608,495.729,422.891,494.089z M324.515,390.804
	c9.713,8.627,18.512,16.442,27.545,24.466c1.69-2.052,2.869-3.482,4.558-5.532c-6.299-5.508-12.604-10.567-18.349-16.2
	C334.55,389.89,330.674,389.372,324.515,390.804z M371.388,414.1c-0.343,0.456-0.685,0.911-1.028,1.366
	c4.193,2.369,6.227,8.285,13.067,6.342C379.414,419.237,375.401,416.669,371.388,414.1z M367.555,419.309
	c-1.436,2.533-2.402,4.24-4.115,7.266c3.789-0.573,6.355-0.962,8.924-1.351c0.095-0.479,0.189-0.96,0.284-1.439
	C371.082,422.409,369.516,421.033,367.555,419.309z"/>
<path fill-rule="evenodd" clip-rule="evenodd" d="M287.999,625.563c0.479,2.72,0.689,5.52,1.48,8.144
	c5.71,18.935,14.224,36.493,26.343,52.184c18.249,23.625,42.393,38.218,71.687,42.255c28.138,3.879,55.65-0.998,81.928-12.133
	c25.441-10.78,48.714-25.005,69.492-43.261c24.731-21.729,47.184-45.154,57.75-77.445c-0.251,4.861,0.422,9.994-0.917,14.535
	c-4.969,16.847-15.256,30.755-26.717,43.613c-14.538,16.313-29.189,32.604-48.017,44.387
	c-20.647,12.922-41.876,24.374-65.362,31.585c-18.652,5.726-37.466,8.735-56.909,7.944c-35.029-1.424-64.078-15.311-86.6-42.235
	c-15.079-18.027-24.629-38.856-29.826-61.73c-0.728-3.202-1.646-6.361-2.453-9.546c-3.892-15.356-8.31-15.725-20.936-18.765
	c-0.994-0.239-2.018-0.348-4.301-0.73c0.608-8.84,1.21-17.619,1.814-26.398c0.498-0.081,0.996-0.162,1.494-0.243
	c1.707,5.663,3.414,11.325,4.69,15.558c6.682,4.888,12.317,9.011,18.868,13.802c-3.131-8.206-4.799-16.733-9.333-23.271
	c-4.418-6.372-11.771-10.71-18.303-16.344c7.896-4.472,16.471-8.695,19.784-19.157c-7.96-19.818-19.481-37.617-38.983-48.95
	c-9.29-5.398-18.365-6.326-27.072,4.878c-1.284,1.651-5.363,2.23-7.691,1.604c-1.72-0.464-4.041-3.902-3.77-5.657
	c1.234-8.004-3.145-11.795-9.143-15.655c-17.974-11.573-35.365-23.981-48.817-40.961c-6.357-8.024-10.744-17.055-11.75-27.371
	c-0.299-3.076,0.424-6.251,0.68-9.38c0.536,0.01,1.071,0.018,1.607,0.025c0.707,3.77,1.271,7.573,2.147,11.303
	c3.323,14.157,11.683,25.414,22.665,34.106c12.755,10.096,26.701,18.686,40.15,27.899c0.375,0.257,0.985,0.17,1.59,0.26
	c0.857-2.049,1.69-4.043,2.524-6.036c0.555-0.034,1.11-0.068,1.665-0.102c1.377,6.87,2.753,13.74,4.238,21.149
	c1.285-0.755,2.064-1.067,2.665-1.587c12.599-10.899,25.255-8.526,37.021,0.078c10.79,7.892,19.106,18.14,26.655,29.051
	c1.444,2.087,2.927,4.146,4.792,5.979c-1.657-14.608-8.019-27.143-17.041-38.321c-8.498-10.53-18.44-19.361-31.933-23.124
	c-9.202-2.566-18.148-2.279-26.717,2.396c-1.57,0.857-3.259,1.496-5.177,2.364c-0.508-1.442-1.061-2.238-1.018-3.003
	c0.574-10.193-4.913-16.216-13.24-21.098c-15.462-9.064-29.949-19.451-42.006-32.992c-21.232-23.846-23.358-50.934-3.605-76.671
	c8.057-10.498,18.405-19.25,27.856-28.649c1.239-1.232,3.351-1.588,5.058-2.349l-0.039-0.04c-6.559,7.603-13.41,14.976-19.609,22.86
	c-9.242,11.753-16.213,24.832-17.434,39.967c-1.211,15.025,4.222,28.292,13.587,39.879c11.294,13.976,25.544,24.426,41.02,33.27
	c11.063,6.322,13.25,8.809,15.748,19.449c0.623-0.107,1.379-0.033,1.88-0.356c13.224-8.527,26.221-5.773,38.204,2.014
	c22.454,14.595,37.379,34.939,42.693,61.486c1.322,6.605,2.102,13.955,0.58,20.355c-2.824,11.869-5.032,13.536-16.189,21.403
	c0.459,0.499,0.804,1.165,1.343,1.418c11.704,5.51,16.031,15.945,19.21,27.555c7.592,27.721,20,52.933,41.104,73.006
	c15.254,14.51,33.563,22.644,54.495,26.047c17.895,2.911,35.404,1.367,52.777-1.961c24.112-4.617,47.051-13.172,69.277-23.569
	c7.387-3.455,14.993-6.57,21.961-10.74c5.125-3.067,9.613-7.349,13.971-11.522c14.178-13.583,27.919-27.581,38.963-43.954
	c9.392-13.923,16.224-29.071,16.508-45.933c0.268-15.941-5.415-30.552-14.596-43.735c-15.786-22.672-37.187-39.142-59.783-54.25
	c-8.647-5.782-17.577-11.182-26.631-16.308c-6.756-3.824-12.413-8.261-13.912-17.299c-2.075,1.302-3.553,2.028-4.798,3.041
	c-8.568,6.968-18.334,8.723-28.931,6.63c-11.76-2.322-22.579-7.208-32.089-14.258c-13.209-9.791-25.932-20.263-38.538-30.829
	c-3.215-2.694-5.56-6.643-7.69-10.367c-4.794-8.381-3.05-16.878,4.469-23.26c2.485-2.109,5.198-3.951,8.852-6.701
	c-12.374-1.462-15.224-11.023-19.314-19.565c-6.342-13.243-14.471-25.281-24.912-35.666c-14.979-14.898-33.26-23.118-54.058-25.276
	c-20.576-2.135-40.839,0.332-60.667,6.312c-1.489,0.449-3.183,0.221-5.125-0.915c1.396-0.824,2.697-1.94,4.201-2.429
	c22.79-7.405,45.913-12.168,70.088-9.045c23.395,3.021,41.972,14.594,57.237,32.016c10.023,11.441,17.9,24.299,24.018,38.214
	c3.023,6.876,8.662,10.604,15.234,13.378c1.607,0.679,3.104,1.62,5.608,2.947c-8.62,5.099-18.056,8.323-18.841,18.954
	c-0.267,3.617,1.646,7.395,3.38,11.118c7.578-5.545,5.651-15.391,11.705-22.364c2.921,9.688-2.03,20.391,7.557,28.414
	c-4.219,1.721-7.116,2.903-11.473,4.678c3.442,3.097,6.382,5.956,9.543,8.547c12.484,10.23,24.719,20.877,40.318,26.341
	c14.196,4.972,27.903,4.63,40.825-3.883c1.878-1.237,3.748-2.491,5.651-3.69c0.245-0.154,0.673-0.021,1.124-0.021
	c0.326,0.274,1.013,0.559,1.066,0.934c1.862,13.222,12.454,17.719,22.521,23c25.908,13.592,50.6,29.013,71.151,50.183
	c15.013,15.466,25.616,33.425,27.548,55.289c1.231,13.942-3.146,27.054-8.616,39.758c-1.016,2.359-1.651,4.882-2.462,7.328
	c-0.555,0.403-1.323,0.685-1.631,1.228c-14.092,24.854-33.494,45.467-52.887,66.064c-2.803,2.977-6.148,5.774-9.777,7.579
	c-13.344,6.639-26.812,13.049-40.42,19.125c-18.566,8.29-37.898,14.736-57.878,18.094c-13.906,2.336-28.327,2.836-42.454,2.345
	c-23.976-0.836-45.176-9.782-63.438-25.499c-18.612-16.018-30.747-36.45-40.269-58.689"/>
<path fill-rule="evenodd" clip-rule="evenodd" d="M307.65,461.747c-2.005,1.438-4.567,4.499-5.98,4.038
	c-3.116-1.018-5.652-3.81-8.087-6.551c-3.659-1.895-5.251,0.076-5.48,3.96c-0.726,12.363,6.464,20.921,14.351,28.883
	c10.386,10.484,19.076,22.114,24.68,35.751c2.725,6.63,4.475,13.336,2.295,21.158c-2.853,10.237-19.291,15.427-27.856,11.693
	c-4.076-1.776-7.207-8.151-5.687-11.7c1.754-4.094,5.008-5.659,9.317-4.706c3.826,0.847,5.513,3.915,6.04,11.389
	c2.899-0.615,5.654-1.199,8.359-1.773c2.166-17.113-4.998-29.317-15.45-40.624c-6.909-7.476-13.356-15.524-18.975-24.004
	c-6.367-9.607-6.217-20.345-1.927-30.903c2.017-4.964,6.551-6.487,11.423-6.857C300.123,451.087,304.025,453.999,307.65,461.747z"/>
<path fill-rule="evenodd" clip-rule="evenodd" d="M167.008,307.497c0,0-0.039-0.039-0.039-0.04L167.008,307.497z"/>
</svg>
