<?xml version="1.0" encoding="UTF-8"?>
<svg xmlns="http://www.w3.org/2000/svg" xmlns:xlink="http://www.w3.org/1999/xlink" width="96pt" height="96pt" viewBox="0 0 96 96" version="1.1">
<g id="surface5819830">
<path style=" stroke:none;fill-rule:nonzero;fill:rgb(100%,100%,100%);fill-opacity:1;" d="M 43.601562 8.398438 C 25.199219 10.398438 10.398438 25.199219 8.398438 43.199219 C 6.398438 62 17.199219 78.800781 33.601562 85.199219 C 34.800781 85.601562 36 84.800781 36 83.199219 L 36 76.800781 C 36 76.800781 34.398438 77.199219 32.398438 77.199219 C 26.800781 77.199219 24.398438 72.398438 24 69.601562 C 23.601562 68 22.800781 66.800781 21.601562 65.601562 C 20.398438 65.199219 20 65.199219 20 64.800781 C 20 64 21.199219 64 21.601562 64 C 24 64 26 66.800781 26.800781 68 C 28.800781 71.199219 31.199219 72 32.398438 72 C 34 72 35.199219 71.601562 36 71.199219 C 36.398438 68.398438 37.601562 65.601562 40 64 C 30.800781 62 24 56.800781 24 48 C 24 43.601562 26 39.199219 28.800781 36 C 28.398438 35.199219 28 33.199219 28 30.398438 C 28 28.800781 28 26.800781 28.800781 25.199219 C 28.800781 24.398438 29.601562 24 30 24 L 30.398438 24 C 32.398438 24.398438 36.398438 25.601562 40 29.199219 C 42.398438 28.398438 45.199219 28 48 28 C 50.800781 28 53.601562 28.398438 56 29.199219 C 59.601562 25.601562 64 24.398438 66 24 L 66.398438 24 C 67.199219 24 67.601562 24.398438 68 25.199219 C 68 26.800781 68 28.800781 68 30.398438 C 68 33.601562 67.601562 35.199219 67.199219 36 C 70 39.199219 72 43.199219 72 48 C 72 56.800781 65.199219 62 56 64 C 58.398438 66 60 69.601562 60 73.199219 L 60 83.601562 C 60 84.800781 61.199219 86 62.800781 85.601562 C 77.601562 79.601562 88 65.199219 88 48.398438 C 88 24.398438 67.601562 5.601562 43.601562 8.398438 Z M 43.601562 8.398438 "/>
</g>
</svg>
