<?xml version="1.0" encoding="UTF-8"?>
<svg xmlns="http://www.w3.org/2000/svg" xmlns:xlink="http://www.w3.org/1999/xlink" width="96pt" height="96pt" viewBox="0 0 96 96" version="1.1">
<g id="surface5820060">
<path style=" stroke:none;fill-rule:nonzero;fill:rgb(100%,100%,100%);fill-opacity:1;" d="M 76 12 L 20 12 C 15.578125 12 12 15.578125 12 20 L 12 76 C 12 80.421875 15.578125 84 20 84 L 76 84 C 80.421875 84 84 80.421875 84 76 L 84 20 C 84 15.578125 80.421875 12 76 12 Z M 30.953125 68 C 28.164062 68 25.902344 65.738281 25.902344 62.953125 L 25.902344 45.042969 C 25.90625 42.261719 28.167969 40 30.953125 40 C 33.738281 40 36 42.261719 36 45.046875 L 36 62.957031 C 36 65.738281 33.738281 68 30.953125 68 Z M 30.777344 34.867188 C 27.691406 34.867188 25.632812 32.8125 25.632812 30.066406 C 25.632812 27.324219 27.6875 25.269531 31.117188 25.269531 C 34.199219 25.269531 36.261719 27.324219 36.261719 30.066406 C 36.261719 32.8125 34.203125 34.867188 30.777344 34.867188 Z M 67.117188 68 C 64.421875 68 62.230469 65.8125 62.230469 63.117188 L 62.230469 52.695312 C 62.230469 48.464844 59.628906 48 58.652344 48 C 57.675781 48 54.421875 48.140625 54.421875 52.695312 L 54.421875 63.117188 C 54.421875 65.8125 52.230469 68 49.535156 68 L 49.210938 68 C 46.515625 68 44.328125 65.8125 44.328125 63.117188 L 44.328125 45.046875 C 44.328125 42.261719 46.589844 40 49.375 40 C 52.164062 40 54.425781 42.261719 54.425781 45.046875 C 54.425781 45.046875 55.550781 40 63.214844 40 C 68.09375 40 72 43.90625 72 52.695312 L 72 63.117188 C 72 65.8125 69.8125 68 67.117188 68 Z M 67.117188 68 "/>
</g>
</svg>
