<?xml version="1.0" encoding="UTF-8"?>
<svg xmlns="http://www.w3.org/2000/svg" xmlns:xlink="http://www.w3.org/1999/xlink" width="96pt" height="96pt" viewBox="0 0 96 96" version="1.1">
<g id="surface9586537">
<path style=" stroke:none;fill-rule:nonzero;fill:rgb(100%,100%,100%);fill-opacity:1;" d="M 55.867188 15.949219 C 54.117188 16.011719 52.609375 17.210938 52.152344 18.902344 L 36.152344 74.902344 C 35.546875 77.027344 36.777344 79.242188 38.902344 79.847656 C 41.027344 80.453125 43.242188 79.222656 43.847656 77.097656 L 59.847656 21.097656 C 60.21875 19.859375 59.972656 18.519531 59.179688 17.5 C 58.390625 16.480469 57.15625 15.902344 55.867188 15.949219 Z M 28.128906 25.914062 C 27.089844 25.890625 26.082031 26.273438 25.320312 26.980469 L 5.320312 45.03125 C 4.480469 45.789062 4 46.867188 4 48 C 4 49.132812 4.480469 50.210938 5.320312 50.96875 L 25.320312 69.019531 C 26.375 70.019531 27.886719 70.367188 29.273438 69.929688 C 30.65625 69.492188 31.695312 68.34375 31.988281 66.917969 C 32.28125 65.496094 31.78125 64.027344 30.679688 63.082031 L 13.96875 48 L 30.679688 32.917969 C 31.917969 31.828125 32.363281 30.09375 31.796875 28.542969 C 31.234375 26.996094 29.777344 25.953125 28.128906 25.914062 Z M 67.75 25.917969 C 66.125 26.003906 64.714844 27.0625 64.179688 28.601562 C 63.648438 30.136719 64.097656 31.84375 65.320312 32.917969 L 82.03125 48 L 65.320312 63.082031 C 64.21875 64.027344 63.71875 65.496094 64.011719 66.921875 C 64.304688 68.34375 65.34375 69.492188 66.726562 69.929688 C 68.113281 70.367188 69.625 70.019531 70.679688 69.019531 L 90.679688 50.96875 C 91.519531 50.210938 92 49.132812 92 48 C 92 46.867188 91.519531 45.789062 90.679688 45.03125 L 70.679688 26.980469 C 69.886719 26.246094 68.828125 25.863281 67.75 25.917969 Z M 67.75 25.917969 "/>
</g>
</svg>
