<?xml version="1.0" encoding="utf-8"?>
<!-- Generator: Adobe Illustrator 21.0.2, SVG Export Plug-In . SVG Version: 6.00 Build 0)  -->
<svg version="1.1" id="Слой_3" xmlns="http://www.w3.org/2000/svg" xmlns:xlink="http://www.w3.org/1999/xlink" x="0px" y="0px"
	 viewBox="0 0 2000 2000" style="enable-background:new 0 0 2000 2000;" xml:space="preserve">
<path d="M885.9,1076c12.7,14.7,28.2,22.8,43.8,22.8c13.4,0,25.6-6.3,34.5-17.6c10.2-13.1,15.6-32.4,15.6-55.8l-4.3-83.3
	c-0.9-17-13.8-30.7-30.7-32.5l-78.7-8.6c-0.6-0.1-1.1-0.1-1.7-0.1c-4.3,0-8.4,1.8-11.3,5c-2.9,3.2-4.3,7.4-3.8,11.7l9.4,88.1
	C861.9,1034.7,871.3,1059,885.9,1076z M905.9,1029.8c-6.7-8-13.6-15.4-20.6-22.2l-0.2-7.1c9.5,8.8,18.6,18.6,27.5,29.5L905.9,1029.8
	z M928.8,1030.6c-14-18.7-28.6-34.4-44.1-47.5l-0.2-6.7c17.9,14.6,34.7,32.6,50.6,54.4L928.8,1030.6z M928.4,946
	c7.2,6.9,14.1,14.5,21,22.6l0.2,8.2c-9.2-11.5-18.7-21.8-28.6-30.9L928.4,946z M900.6,945.5c17.5,13.7,33.9,30.7,49.4,51.1l0.2,8.7
	c-18.1-24.8-37.4-44.5-58.2-59.9L900.6,945.5z M950.9,1027.2l0.1,4.2l-3.4-0.1c-19.7-29.3-40.7-52.4-63.5-69.9L884,955
	C908.1,972.9,930.2,996.7,950.9,1027.2z"/>
<path d="M946.5,1320c2.8,0.8,5.7,1.5,8.6,2.1l3.6,0.7l1.8,0.3c0.6,0.1,1.1,0.2,2,0.3c3.4,0.4,7-1.8,8.2-5.1c0.3-0.8,0.5-1.7,0.6-2.5
	l0-0.6l0-0.5l0-0.9l-0.1-3.7c-0.1-2.4-0.2-4.9-0.4-7.3c-0.2-3.1-0.6-6.2-1-9.3c-0.2-1.1-1.8-1.1-1.9,0c-0.5,3.1-0.8,6.2-1,9.3
	c-0.2,2.4-0.3,4.9-0.4,7.3l-0.1,3.7l0,0.9l0,0.5l0,0.3c0,0.4-0.1,0.7-0.2,1c-0.5,1.3-1.9,2.3-3.3,2.3c-0.3,0-1-0.1-1.6-0.1l-1.8-0.2
	l-3.7-0.2c-2.9-0.2-5.9-0.3-8.9-0.3C945.7,1318.1,945.4,1319.7,946.5,1320z"/>
<path d="M946.5,1378c2.8,0.8,5.7,1.5,8.6,2.1l3.6,0.7l1.8,0.3c0.6,0.1,1.1,0.2,2,0.3c3.4,0.4,7-1.8,8.2-5.1c0.3-0.8,0.5-1.7,0.6-2.5
	l0-0.6l0-0.5l0-0.9l-0.1-3.7c-0.1-2.4-0.2-4.9-0.4-7.3c-0.2-3.1-0.6-6.2-1-9.3c-0.2-1.1-1.8-1.1-1.9,0c-0.5,3.1-0.8,6.2-1,9.3
	c-0.2,2.4-0.3,4.9-0.4,7.3l-0.1,3.7l0,0.9l0,0.5l0,0.3c0,0.4-0.1,0.7-0.2,1c-0.5,1.3-1.9,2.3-3.3,2.3c-0.3,0-1-0.1-1.6-0.1l-1.8-0.2
	l-3.7-0.2c-2.9-0.2-5.9-0.3-8.9-0.3C945.7,1376.1,945.4,1377.7,946.5,1378z"/>
<path d="M946.5,1436c2.8,0.8,5.7,1.5,8.6,2.1l3.6,0.7l1.8,0.3c0.6,0.1,1.1,0.2,2,0.3c3.4,0.4,7-1.8,8.2-5.1c0.3-0.8,0.5-1.7,0.6-2.5
	l0-0.6l0-0.5l0-0.9l-0.1-3.7c-0.1-2.4-0.2-4.9-0.4-7.3c-0.2-3.1-0.6-6.2-1-9.3c-0.2-1.1-1.8-1.1-1.9,0c-0.5,3.1-0.8,6.2-1,9.3
	c-0.2,2.4-0.3,4.9-0.4,7.3l-0.1,3.7l0,0.9l0,0.5l0,0.3c0,0.4-0.1,0.7-0.2,1c-0.5,1.3-1.9,2.3-3.3,2.3c-0.3,0-1-0.1-1.6-0.1l-1.8-0.2
	l-3.7-0.2c-2.9-0.2-5.9-0.3-8.9-0.3C945.7,1434.1,945.4,1435.7,946.5,1436z"/>
<path d="M894.5,1735c2.8,0.8,5.7,1.5,8.6,2.1l3.6,0.7l1.8,0.3c0.6,0.1,1.1,0.2,2,0.3c3.4,0.4,7-1.8,8.2-5.1c0.3-0.8,0.5-1.7,0.6-2.5
	l0-0.6l0-0.5l0-0.9l-0.1-3.7c-0.1-2.4-0.2-4.9-0.4-7.3c-0.2-3.1-0.6-6.2-1-9.3c-0.2-1.1-1.8-1.1-1.9,0c-0.5,3.1-0.8,6.2-1,9.3
	c-0.2,2.4-0.3,4.9-0.4,7.3l-0.1,3.7l0,0.9l0,0.5l0,0.3c0,0.4-0.1,0.7-0.2,1c-0.5,1.3-1.9,2.3-3.3,2.3c-0.3,0-1-0.1-1.6-0.1l-1.8-0.2
	l-3.7-0.2c-2.9-0.2-5.9-0.3-8.9-0.3C893.7,1733.1,893.4,1734.7,894.5,1735z"/>
<path d="M946.5,1631c2.8,0.8,5.7,1.5,8.6,2.1l3.6,0.7l1.8,0.3c0.6,0.1,1.1,0.2,2,0.3c3.4,0.4,7-1.8,8.2-5.1c0.3-0.8,0.5-1.7,0.6-2.5
	l0-0.6l0-0.5l0-0.9l-0.1-3.7c-0.1-2.4-0.2-4.9-0.4-7.3c-0.2-3.1-0.6-6.2-1-9.3c-0.2-1.1-1.8-1.1-1.9,0c-0.5,3.1-0.8,6.2-1,9.3
	c-0.2,2.4-0.3,4.9-0.4,7.3l-0.1,3.7l0,0.9l0,0.5l0,0.3c0,0.4-0.1,0.7-0.2,1c-0.5,1.3-1.9,2.3-3.3,2.3c-0.3,0-1-0.1-1.6-0.1l-1.8-0.2
	l-3.7-0.2c-2.9-0.2-5.9-0.3-8.9-0.3C945.7,1629.1,945.4,1630.7,946.5,1631z"/>
<path d="M946.5,1689c2.8,0.8,5.7,1.5,8.6,2.1l3.6,0.7l1.8,0.3c0.6,0.1,1.1,0.2,2,0.3c3.4,0.4,7-1.8,8.2-5.1c0.3-0.8,0.5-1.7,0.6-2.5
	l0-0.6l0-0.5l0-0.9l-0.1-3.7c-0.1-2.4-0.2-4.9-0.4-7.3c-0.2-3.1-0.6-6.2-1-9.3c-0.2-1.1-1.8-1.1-1.9,0c-0.5,3.1-0.8,6.2-1,9.3
	c-0.2,2.4-0.3,4.9-0.4,7.3l-0.1,3.7l0,0.9l0,0.5l0,0.3c0,0.4-0.1,0.7-0.2,1c-0.5,1.3-1.9,2.3-3.3,2.3c-0.3,0-1-0.1-1.6-0.1l-1.8-0.2
	l-3.7-0.2c-2.9-0.2-5.9-0.3-8.9-0.3C945.7,1687.1,945.4,1688.7,946.5,1689z"/>
<path d="M946.5,1551c2.8,0.8,5.7,1.5,8.6,2.1l3.6,0.7l1.8,0.3c0.6,0.1,1.1,0.2,2,0.3c3.4,0.4,7-1.8,8.2-5.1c0.3-0.8,0.5-1.7,0.6-2.5
	l0-0.6l0-0.5l0-0.9l-0.1-3.7c-0.1-2.4-0.2-4.9-0.4-7.3c-0.2-3.1-0.6-6.2-1-9.3c-0.2-1.1-1.8-1.1-1.9,0c-0.5,3.1-0.8,6.2-1,9.3
	c-0.2,2.4-0.3,4.9-0.4,7.3l-0.1,3.7l0,0.9l0,0.5l0,0.3c0,0.4-0.1,0.7-0.2,1c-0.5,1.3-1.9,2.3-3.3,2.3c-0.3,0-1-0.1-1.6-0.1l-1.8-0.2
	l-3.7-0.2c-2.9-0.2-5.9-0.3-8.9-0.3C945.7,1549.1,945.4,1550.7,946.5,1551z"/>
<path d="M946.5,1746c2.8,0.8,5.7,1.5,8.6,2.1l3.6,0.7l1.8,0.3c0.6,0.1,1.1,0.2,2,0.3c3.4,0.4,7-1.8,8.2-5.1c0.3-0.8,0.5-1.7,0.6-2.5
	l0-0.6l0-0.5l0-0.9l-0.1-3.7c-0.1-2.4-0.2-4.9-0.4-7.3c-0.2-3.1-0.6-6.2-1-9.3c-0.2-1.1-1.8-1.1-1.9,0c-0.5,3.1-0.8,6.2-1,9.3
	c-0.2,2.4-0.3,4.9-0.4,7.3l-0.1,3.7l0,0.9l0,0.5l0,0.3c0,0.4-0.1,0.7-0.2,1c-0.5,1.3-1.9,2.3-3.3,2.3c-0.3,0-1-0.1-1.6-0.1l-1.8-0.2
	l-3.7-0.2c-2.9-0.2-5.9-0.3-8.9-0.3C945.7,1744.1,945.4,1745.7,946.5,1746z"/>
<path d="M894.5,1309c2.8,0.8,5.7,1.5,8.6,2.1l3.6,0.7l1.8,0.3c0.6,0.1,1.1,0.2,2,0.3c3.4,0.4,7-1.8,8.2-5.1c0.3-0.8,0.5-1.7,0.6-2.5
	l0-0.6l0-0.5l0-0.9l-0.1-3.7c-0.1-2.4-0.2-4.9-0.4-7.3c-0.2-3.1-0.6-6.2-1-9.3c-0.2-1.1-1.8-1.1-1.9,0c-0.5,3.1-0.8,6.2-1,9.3
	c-0.2,2.4-0.3,4.9-0.4,7.3l-0.1,3.7l0,0.9l0,0.5l0,0.3c0,0.4-0.1,0.7-0.2,1c-0.5,1.3-1.9,2.3-3.3,2.3c-0.3,0-1-0.1-1.6-0.1l-1.8-0.2
	l-3.7-0.2c-2.9-0.2-5.9-0.3-8.9-0.3C893.7,1307.1,893.4,1308.7,894.5,1309z"/>
<path d="M894.5,1367c2.8,0.8,5.7,1.5,8.6,2.1l3.6,0.7l1.8,0.3c0.6,0.1,1.1,0.2,2,0.3c3.4,0.4,7-1.8,8.2-5.1c0.3-0.8,0.5-1.7,0.6-2.5
	l0-0.6l0-0.5l0-0.9l-0.1-3.7c-0.1-2.4-0.2-4.9-0.4-7.3c-0.2-3.1-0.6-6.2-1-9.3c-0.2-1.1-1.8-1.1-1.9,0c-0.5,3.1-0.8,6.2-1,9.3
	c-0.2,2.4-0.3,4.9-0.4,7.3l-0.1,3.7l0,0.9l0,0.5l0,0.3c0,0.4-0.1,0.7-0.2,1c-0.5,1.3-1.9,2.3-3.3,2.3c-0.3,0-1-0.1-1.6-0.1l-1.8-0.2
	l-3.7-0.2c-2.9-0.2-5.9-0.3-8.9-0.3C893.7,1365.1,893.4,1366.7,894.5,1367z"/>
<path d="M894.5,1425c2.8,0.8,5.7,1.5,8.6,2.1l3.6,0.7l1.8,0.3c0.6,0.1,1.1,0.2,2,0.3c3.4,0.4,7-1.8,8.2-5.1c0.3-0.8,0.5-1.7,0.6-2.5
	l0-0.6l0-0.5l0-0.9l-0.1-3.7c-0.1-2.4-0.2-4.9-0.4-7.3c-0.2-3.1-0.6-6.2-1-9.3c-0.2-1.1-1.8-1.1-1.9,0c-0.5,3.1-0.8,6.2-1,9.3
	c-0.2,2.4-0.3,4.9-0.4,7.3l-0.1,3.7l0,0.9l0,0.5l0,0.3c0,0.4-0.1,0.7-0.2,1c-0.5,1.3-1.9,2.3-3.3,2.3c-0.3,0-1-0.1-1.6-0.1l-1.8-0.2
	l-3.7-0.2c-2.9-0.2-5.9-0.3-8.9-0.3C893.7,1423.1,893.4,1424.7,894.5,1425z"/>
<path d="M894.5,1620c2.8,0.8,5.7,1.5,8.6,2.1l3.6,0.7l1.8,0.3c0.6,0.1,1.1,0.2,2,0.3c3.4,0.4,7-1.8,8.2-5.1c0.3-0.8,0.5-1.7,0.6-2.5
	l0-0.6l0-0.5l0-0.9l-0.1-3.7c-0.1-2.4-0.2-4.9-0.4-7.3c-0.2-3.1-0.6-6.2-1-9.3c-0.2-1.1-1.8-1.1-1.9,0c-0.5,3.1-0.8,6.2-1,9.3
	c-0.2,2.4-0.3,4.9-0.4,7.3l-0.1,3.7l0,0.9l0,0.5l0,0.3c0,0.4-0.1,0.7-0.2,1c-0.5,1.3-1.9,2.3-3.3,2.3c-0.3,0-1-0.1-1.6-0.1l-1.8-0.2
	l-3.7-0.2c-2.9-0.2-5.9-0.3-8.9-0.3C893.7,1618.1,893.4,1619.7,894.5,1620z"/>
<path d="M894.5,1678c2.8,0.8,5.7,1.5,8.6,2.1l3.6,0.7l1.8,0.3c0.6,0.1,1.1,0.2,2,0.3c3.4,0.4,7-1.8,8.2-5.1c0.3-0.8,0.5-1.7,0.6-2.5
	l0-0.6l0-0.5l0-0.9l-0.1-3.7c-0.1-2.4-0.2-4.9-0.4-7.3c-0.2-3.1-0.6-6.2-1-9.3c-0.2-1.1-1.8-1.1-1.9,0c-0.5,3.1-0.8,6.2-1,9.3
	c-0.2,2.4-0.3,4.9-0.4,7.3l-0.1,3.7l0,0.9l0,0.5l0,0.3c0,0.4-0.1,0.7-0.2,1c-0.5,1.3-1.9,2.3-3.3,2.3c-0.3,0-1-0.1-1.6-0.1l-1.8-0.2
	l-3.7-0.2c-2.9-0.2-5.9-0.3-8.9-0.3C893.7,1676.1,893.4,1677.7,894.5,1678z"/>
<path d="M894.5,1540c2.8,0.8,5.7,1.5,8.6,2.1l3.6,0.7l1.8,0.3c0.6,0.1,1.1,0.2,2,0.3c3.4,0.4,7-1.8,8.2-5.1c0.3-0.8,0.5-1.7,0.6-2.5
	l0-0.6l0-0.5l0-0.9l-0.1-3.7c-0.1-2.4-0.2-4.9-0.4-7.3c-0.2-3.1-0.6-6.2-1-9.3c-0.2-1.1-1.8-1.1-1.9,0c-0.5,3.1-0.8,6.2-1,9.3
	c-0.2,2.4-0.3,4.9-0.4,7.3l-0.1,3.7l0,0.9l0,0.5l0,0.3c0,0.4-0.1,0.7-0.2,1c-0.5,1.3-1.9,2.3-3.3,2.3c-0.3,0-1-0.1-1.6-0.1l-1.8-0.2
	l-3.7-0.2c-2.9-0.2-5.9-0.3-8.9-0.3C893.7,1538.1,893.4,1539.7,894.5,1540z"/>
<path d="M894.5,1483c2.8,0.8,5.7,1.5,8.6,2.1l3.6,0.7l1.8,0.3c0.6,0.1,1.1,0.2,2,0.3c3.4,0.4,7-1.8,8.2-5.1c0.3-0.8,0.5-1.7,0.6-2.5
	l0-0.6l0-0.5l0-0.9l-0.1-3.7c-0.1-2.4-0.2-4.9-0.4-7.3c-0.2-3.1-0.6-6.2-1-9.3c-0.2-1.1-1.8-1.1-1.9,0c-0.5,3.1-0.8,6.2-1,9.3
	c-0.2,2.4-0.3,4.9-0.4,7.3l-0.1,3.7l0,0.9l0,0.5l0,0.3c0,0.4-0.1,0.7-0.2,1c-0.5,1.3-1.9,2.3-3.3,2.3c-0.3,0-1-0.1-1.6-0.1l-1.8-0.2
	l-3.7-0.2c-2.9-0.2-5.9-0.3-8.9-0.3C893.7,1481.1,893.4,1482.7,894.5,1483z"/>
<path d="M946.5,1494c2.8,0.8,5.7,1.5,8.6,2.1l3.6,0.7l1.8,0.3c0.6,0.1,1.1,0.2,2,0.3c3.4,0.4,7-1.8,8.2-5.1c0.3-0.8,0.5-1.7,0.6-2.5
	l0-0.6l0-0.5l0-0.9l-0.1-3.7c-0.1-2.4-0.2-4.9-0.4-7.3c-0.2-3.1-0.6-6.2-1-9.3c-0.2-1.1-1.8-1.1-1.9,0c-0.5,3.1-0.8,6.2-1,9.3
	c-0.2,2.4-0.3,4.9-0.4,7.3l-0.1,3.7l0,0.9l0,0.5l0,0.3c0,0.4-0.1,0.7-0.2,1c-0.5,1.3-1.9,2.3-3.3,2.3c-0.3,0-1-0.1-1.6-0.1l-1.8-0.2
	l-3.7-0.2c-2.9-0.2-5.9-0.3-8.9-0.3C945.7,1492.1,945.4,1493.7,946.5,1494z"/>
<path d="M999.5,1445c2.8,0.8,5.7,1.5,8.6,2.1l3.6,0.7l1.8,0.3c0.6,0.1,1.1,0.2,2,0.3c3.4,0.4,7-1.8,8.2-5.1c0.3-0.8,0.5-1.7,0.6-2.5
	l0-0.6l0-0.5l0-0.9l-0.1-3.7c-0.1-2.4-0.2-4.9-0.4-7.3c-0.2-3.1-0.6-6.2-1-9.3c-0.2-1.1-1.8-1.1-1.9,0c-0.5,3.1-0.8,6.2-1,9.3
	c-0.2,2.4-0.3,4.9-0.4,7.3l-0.1,3.7l0,0.9l0,0.5l0,0.3c0,0.4-0.1,0.7-0.2,1c-0.5,1.3-1.9,2.3-3.3,2.3c-0.3,0-1-0.1-1.6-0.1l-1.8-0.2
	l-3.7-0.2c-2.9-0.2-5.9-0.3-8.9-0.3C998.7,1443.1,998.4,1444.7,999.5,1445z"/>
<path d="M999.5,1698c2.8,0.8,5.7,1.5,8.6,2.1l3.6,0.7l1.8,0.3c0.6,0.1,1.1,0.2,2,0.3c3.4,0.4,7-1.8,8.2-5.1c0.3-0.8,0.5-1.7,0.6-2.5
	l0-0.6l0-0.5l0-0.9l-0.1-3.7c-0.1-2.4-0.2-4.9-0.4-7.3c-0.2-3.1-0.6-6.2-1-9.3c-0.2-1.1-1.8-1.1-1.9,0c-0.5,3.1-0.8,6.2-1,9.3
	c-0.2,2.4-0.3,4.9-0.4,7.3l-0.1,3.7l0,0.9l0,0.5l0,0.3c0,0.4-0.1,0.7-0.2,1c-0.5,1.3-1.9,2.3-3.3,2.3c-0.3,0-1-0.1-1.6-0.1l-1.8-0.2
	l-3.7-0.2c-2.9-0.2-5.9-0.3-8.9-0.3C998.7,1696.1,998.4,1697.7,999.5,1698z"/>
<path d="M999.5,1329c2.8,0.8,5.7,1.5,8.6,2.1l3.6,0.7l1.8,0.3c0.6,0.1,1.1,0.2,2,0.3c3.4,0.4,7-1.8,8.2-5.1c0.3-0.8,0.5-1.7,0.6-2.5
	l0-0.6l0-0.5l0-0.9l-0.1-3.7c-0.1-2.4-0.2-4.9-0.4-7.3c-0.2-3.1-0.6-6.2-1-9.3c-0.2-1.1-1.8-1.1-1.9,0c-0.5,3.1-0.8,6.2-1,9.3
	c-0.2,2.4-0.3,4.9-0.4,7.3l-0.1,3.7l0,0.9l0,0.5l0,0.3c0,0.4-0.1,0.7-0.2,1c-0.5,1.3-1.9,2.3-3.3,2.3c-0.3,0-1-0.1-1.6-0.1l-1.8-0.2
	l-3.7-0.2c-2.9-0.2-5.9-0.3-8.9-0.3C998.7,1327.1,998.4,1328.7,999.5,1329z"/>
<path d="M999.5,1503c2.8,0.8,5.7,1.5,8.6,2.1l3.6,0.7l1.8,0.3c0.6,0.1,1.1,0.2,2,0.3c3.4,0.4,7-1.8,8.2-5.1c0.3-0.8,0.5-1.7,0.6-2.5
	l0-0.6l0-0.5l0-0.9l-0.1-3.7c-0.1-2.4-0.2-4.9-0.4-7.3c-0.2-3.1-0.6-6.2-1-9.3c-0.2-1.1-1.8-1.1-1.9,0c-0.5,3.1-0.8,6.2-1,9.3
	c-0.2,2.4-0.3,4.9-0.4,7.3l-0.1,3.7l0,0.9l0,0.5l0,0.3c0,0.4-0.1,0.7-0.2,1c-0.5,1.3-1.9,2.3-3.3,2.3c-0.3,0-1-0.1-1.6-0.1l-1.8-0.2
	l-3.7-0.2c-2.9-0.2-5.9-0.3-8.9-0.3C998.7,1501.1,998.4,1502.7,999.5,1503z"/>
<path d="M999.5,1560c2.8,0.8,5.7,1.5,8.6,2.1l3.6,0.7l1.8,0.3c0.6,0.1,1.1,0.2,2,0.3c3.4,0.4,7-1.8,8.2-5.1c0.3-0.8,0.5-1.7,0.6-2.5
	l0-0.6l0-0.5l0-0.9l-0.1-3.7c-0.1-2.4-0.2-4.9-0.4-7.3c-0.2-3.1-0.6-6.2-1-9.3c-0.2-1.1-1.8-1.1-1.9,0c-0.5,3.1-0.8,6.2-1,9.3
	c-0.2,2.4-0.3,4.9-0.4,7.3l-0.1,3.7l0,0.9l0,0.5l0,0.3c0,0.4-0.1,0.7-0.2,1c-0.5,1.3-1.9,2.3-3.3,2.3c-0.3,0-1-0.1-1.6-0.1l-1.8-0.2
	l-3.7-0.2c-2.9-0.2-5.9-0.3-8.9-0.3C998.7,1558.1,998.4,1559.7,999.5,1560z"/>
<path d="M999.5,1640c2.8,0.8,5.7,1.5,8.6,2.1l3.6,0.7l1.8,0.3c0.6,0.1,1.1,0.2,2,0.3c3.4,0.4,7-1.8,8.2-5.1c0.3-0.8,0.5-1.7,0.6-2.5
	l0-0.6l0-0.5l0-0.9l-0.1-3.7c-0.1-2.4-0.2-4.9-0.4-7.3c-0.2-3.1-0.6-6.2-1-9.3c-0.2-1.1-1.8-1.1-1.9,0c-0.5,3.1-0.8,6.2-1,9.3
	c-0.2,2.4-0.3,4.9-0.4,7.3l-0.1,3.7l0,0.9l0,0.5l0,0.3c0,0.4-0.1,0.7-0.2,1c-0.5,1.3-1.9,2.3-3.3,2.3c-0.3,0-1-0.1-1.6-0.1l-1.8-0.2
	l-3.7-0.2c-2.9-0.2-5.9-0.3-8.9-0.3C998.7,1638.1,998.4,1639.7,999.5,1640z"/>
<path d="M999.5,1387c2.8,0.8,5.7,1.5,8.6,2.1l3.6,0.7l1.8,0.3c0.6,0.1,1.1,0.2,2,0.3c3.4,0.4,7-1.8,8.2-5.1c0.3-0.8,0.5-1.7,0.6-2.5
	l0-0.6l0-0.5l0-0.9l-0.1-3.7c-0.1-2.4-0.2-4.9-0.4-7.3c-0.2-3.1-0.6-6.2-1-9.3c-0.2-1.1-1.8-1.1-1.9,0c-0.5,3.1-0.8,6.2-1,9.3
	c-0.2,2.4-0.3,4.9-0.4,7.3l-0.1,3.7l0,0.9l0,0.5l0,0.3c0,0.4-0.1,0.7-0.2,1c-0.5,1.3-1.9,2.3-3.3,2.3c-0.3,0-1-0.1-1.6-0.1l-1.8-0.2
	l-3.7-0.2c-2.9-0.2-5.9-0.3-8.9-0.3C998.7,1385.1,998.4,1386.7,999.5,1387z"/>
<path d="M999.5,1755c2.8,0.8,5.7,1.5,8.6,2.1l3.6,0.7l1.8,0.3c0.6,0.1,1.1,0.2,2,0.3c3.4,0.4,7-1.8,8.2-5.1c0.3-0.8,0.5-1.7,0.6-2.5
	l0-0.6l0-0.5l0-0.9l-0.1-3.7c-0.1-2.4-0.2-4.9-0.4-7.3c-0.2-3.1-0.6-6.2-1-9.3c-0.2-1.1-1.8-1.1-1.9,0c-0.5,3.1-0.8,6.2-1,9.3
	c-0.2,2.4-0.3,4.9-0.4,7.3l-0.1,3.7l0,0.9l0,0.5l0,0.3c0,0.4-0.1,0.7-0.2,1c-0.5,1.3-1.9,2.3-3.3,2.3c-0.3,0-1-0.1-1.6-0.1l-1.8-0.2
	l-3.7-0.2c-2.9-0.2-5.9-0.3-8.9-0.3C998.7,1753.1,998.4,1754.7,999.5,1755z"/>
<path d="M1172.8,879.2l-13-17.6c-2.5-3.3-6.3-5.4-10.5-5.6l-47.2-1.9c2.4-56.7-11.2-125.6-10.2-198V453.3c0-2.3-0.4-4.6-1.2-6.7
	l-11-28.6c-1.2-3.1-1.8-6.4-1.8-9.7V63.2c0-9.2-7.6-17.1-16.8-16.9c-9,0.2-16.2,7.5-16.2,16.5v344.9c0,3.7-0.7,7.4-2.2,10.8
	l-11.4,27.3c-0.9,2.2-1.4,4.5-1.4,6.9v202.1c-2.9,69.9-20.1,136.5-20,195.5l-94-3.9c-2-0.1-3.9,0.2-5.8,0.9l-66.4,25.1
	c-3.1,1.2-5.7,3.4-7.4,6.2l-8.9,14.8c-2.3,3.8-3.3,8.1-3.1,12.5c7,127.5,20.1,245.2,43.6,346.3l5,418
	C861,1730,857,1803,858.3,1881.8c0.2,13.5,8.4,25.6,20.8,30.9c35.7,15.2,79.5,28.2,128.2,39.8c11,2.6,22.5,1.2,32.6-3.9
	c18.7-9.4,36.7-20,53.9-31.8c-0.2-35.8,0.2-71.7,0.4-107.5l0.8-131l1.5-262l1.5-262l0.8-131l0.4-65.5l0.1-32.8
	c0.1-10.7,0.4-21.5,0.6-32.2l-12-23.9l-53.5-6.2l-54.4-6.4l54.6,4.6l54.6,4.7l0.9,0.1l0.5,0.9l13.4,24.8l0.2,0.4l0,0.6
	c0.1,10.9,0.3,21.8,0.2,32.8l-0.3,32.7l-0.4,65.5l-0.8,131l-1.5,262l-1.5,262l-0.8,131c-0.3,34.8-0.2,69.6-0.8,104.3
	c15.5-10.9,30.2-22.8,44.3-35.8l2.8-475.6l1.5-257l0.7-128.5l2.7-128.3l-17.4-28.2l18.5,27.7l0.1,0.1l0,0.2l1.2,128.5l-0.8,128.5
	l-1.5,257l-2.7,470.8c5.4-5.1,10.7-10.4,15.8-15.9c4.1-4.4,6.4-10.2,6.5-16.2l5.9-952.6C1175.8,885.1,1174.8,881.8,1172.8,879.2z
	 M864.5,895.9c0.7,0,1.5,0,2.2,0.1l78.7,8.6c19.3,2.1,34.1,17.9,35.1,37.2l4.3,83.4c0,52.7-26.1,78.6-55.1,78.6
	c-32.7,0-69-32.9-75.9-97.6l-9.4-88.1C843.2,906.1,852.7,895.9,864.5,895.9z M875,1745.4c0.4,0.8,0.9,1.6,1.3,2.3l0.6,1.2
	c0.2,0.4,0.5,0.7,0.7,1.1l1.5,2.2l1.7,2l0.8,1l0.9,1l1.8,1.9l1.9,1.8c0.7,0.6,1.3,1.2,2,1.7c1.4,1.1,2.7,2.2,4.2,3.3l2.1,1.6
	l2.2,1.4c11.9,7.7,25.2,13,38.7,17c13.6,4,27.5,6.6,41.5,7.9c7,0.7,14,0.9,21.1,1c1.8,0,3.5,0,5.3,0l2.6-0.1c0.9,0,1.8,0,2.6-0.2
	c3.3-0.3,6.5-1.1,9.4-2.5c5.9-2.8,10.7-7.8,13.3-13.8c1.3-3,2.1-6.2,2.2-9.5l0.1-1.2l0-1.3l0-2.7l0.1-5.3l0.4-42.7l0.8-85.4
	l3.4-341.5l-20.9-101.4l-5.2-25.4l-2.6-12.7l-0.3-1.6l-0.4-1.5c-0.2-1-0.6-1.9-0.9-2.9c-0.3-0.9-0.8-1.8-1.2-2.8
	c-0.5-0.9-0.9-1.8-1.4-2.6c-4.1-6.8-11.1-11.9-18.9-13.8l-1.5-0.3l-1.5-0.2c-1-0.2-2.1-0.3-3.1-0.4l-6.5-0.7l-12.9-1.4l-51.6-5.5
	l-12.9-1.3c-4.3-0.5-8.6-1-12.9-1.5l-12.9-1.6c-2.1-0.2-4.4-0.6-6.1-0.6c-1.9,0-3.7,0.5-5.4,1.3c-3.4,1.7-6,4.9-6.9,8.6
	c-0.5,1.9-0.5,3.8-0.2,5.7l1.1,6.4l4.3,25.6c2.9,17.1,5.6,34.1,8.4,51.2c-3.5-16.9-7-33.9-10.4-50.8l-5.2-25.4l-1.3-6.4
	c-0.5-2.3-0.5-4.8,0-7.1c1-4.7,4.2-8.9,8.5-11.3c2.1-1.2,4.6-1.8,7-2c0.6-0.1,1.2,0,1.8,0c0.6,0,1.2,0.1,1.7,0.1l3.2,0.3l12.9,1.1
	c4.3,0.4,8.6,0.8,12.9,1.2l12.9,1.4l51.6,5.5l12.9,1.4l6.5,0.7c1.1,0.1,2.1,0.2,3.3,0.4l1.7,0.3l1.7,0.4c9.1,2.1,17.1,8.1,22,16
	c0.7,1,1.1,2,1.7,3.1c0.5,1.1,1,2.1,1.4,3.2c0.4,1.1,0.8,2.2,1,3.3l0.4,1.7l0.3,1.6l2.6,12.7l5.2,25.4l20.9,101.7l0.1,0.3l0,0.3
	l-3.4,341.8l-0.8,85.4l-0.4,42.7l-0.1,5.3l0,2.7l0,1.3l-0.1,1.4c-0.2,3.8-1.1,7.7-2.6,11.2c-3.1,7.1-8.8,13-15.7,16.3
	c-3.5,1.7-7.3,2.7-11.1,3c-1,0.1-1.9,0.1-2.8,0.2l-2.7,0.1c-1.8,0.1-3.6,0.1-5.4,0.1c-7.2,0-14.4-0.5-21.6-1.5
	c-14.3-1.8-28.3-5-42-9.5c-13.6-4.6-26.9-10.4-38.7-18.6l-2.2-1.6l-2.1-1.7c-1.4-1.1-2.8-2.3-4.1-3.5c-0.7-0.6-1.3-1.2-2-1.9
	l-1.9-1.9l-1.8-2l-0.9-1l-0.8-1.1l-1.6-2.1l-1.4-2.3c-0.2-0.4-0.5-0.8-0.7-1.1l-0.6-1.2c-0.4-0.8-0.8-1.6-1.2-2.4
	c-1.4-3.3-2.3-6.8-2.7-10.3C872.4,1738.8,873.4,1742.2,875,1745.4z M890.4,1327.7l27.8,5.3c3,0.6,5.2,3.2,5.2,6.2v29.8
	c0,4-3.6,7-7.5,6.3l-27.8-5.1c-3-0.6-5.2-3.2-5.2-6.3v-30C882.9,1330,886.5,1327,890.4,1327.7z M882.9,1306v-30c0-4,3.6-7,7.6-6.2
	l27.8,5.3c3,0.6,5.2,3.2,5.2,6.2v29.8c0,4-3.6,7-7.5,6.3l-27.8-5.1C885,1311.7,882.9,1309.1,882.9,1306z M890.4,1385.7l27.8,5.3
	c3,0.6,5.2,3.2,5.2,6.2v29.8c0,4-3.6,7-7.5,6.3l-27.8-5.1c-3-0.6-5.2-3.2-5.2-6.3v-30C882.9,1388,886.5,1385,890.4,1385.7z
	 M890.4,1443.7l27.8,5.3c3,0.6,5.2,3.2,5.2,6.2v29.8c0,4-3.6,7-7.5,6.3l-27.8-5.1c-3-0.6-5.2-3.2-5.2-6.3v-30
	C882.9,1446,886.5,1443,890.4,1443.7z M890.4,1500.7l27.8,5.3c3,0.6,5.2,3.2,5.2,6.2v29.8c0,4-3.6,7-7.5,6.3l-27.8-5.1
	c-3-0.6-5.2-3.2-5.2-6.3v-30C882.9,1503,886.5,1500,890.4,1500.7z M890.4,1580.7l27.8,5.3c3,0.6,5.2,3.2,5.2,6.2v29.8
	c0,4-3.6,7-7.5,6.3l-27.8-5.1c-3-0.6-5.2-3.2-5.2-6.3v-30C882.9,1583,886.5,1580,890.4,1580.7z M890.4,1638.7l27.8,5.3
	c3,0.6,5.2,3.2,5.2,6.2v29.8c0,4-3.6,7-7.5,6.3l-27.8-5.1c-3-0.6-5.2-3.2-5.2-6.3v-30C882.9,1641,886.5,1638,890.4,1638.7z
	 M890.4,1695.7l27.8,5.3c3,0.6,5.2,3.2,5.2,6.2v29.8c0,4-3.6,7-7.5,6.3l-27.8-5.1c-3-0.6-5.2-3.2-5.2-6.3v-30
	C882.9,1698,886.5,1695,890.4,1695.7z M937.9,1336.8l32.8,6.3c3,0.6,5.2,3.2,5.2,6.2v29.5c0,4-3.6,7-7.5,6.3l-32.8-6.1
	c-3-0.6-5.2-3.2-5.2-6.3v-29.7C930.4,1339.1,934,1336.1,937.9,1336.8z M930.4,1314.8v-29.7c0-4,3.6-7,7.6-6.2l32.8,6.3
	c3,0.6,5.2,3.2,5.2,6.2v29.5c0,4-3.6,7-7.5,6.3l-32.8-6.1C932.5,1320.5,930.4,1317.8,930.4,1314.8z M937.9,1394.8l32.8,6.3
	c3,0.6,5.2,3.2,5.2,6.2v29.5c0,4-3.6,7-7.5,6.3l-32.8-6.1c-3-0.6-5.2-3.2-5.2-6.3v-29.7C930.4,1397.1,934,1394.1,937.9,1394.8z
	 M937.9,1452.8l32.8,6.3c3,0.6,5.2,3.2,5.2,6.2v29.5c0,4-3.6,7-7.5,6.3l-32.8-6.1c-3-0.6-5.2-3.2-5.2-6.3v-29.7
	C930.4,1455.1,934,1452.1,937.9,1452.8z M937.9,1509.8l32.8,6.3c3,0.6,5.2,3.2,5.2,6.2v29.5c0,4-3.6,7-7.5,6.3l-32.8-6.1
	c-3-0.6-5.2-3.2-5.2-6.3v-29.7C930.4,1512.1,934,1509.1,937.9,1509.8z M937.9,1589.8l32.8,6.3c3,0.6,5.2,3.2,5.2,6.2v29.5
	c0,4-3.6,7-7.5,6.3l-32.8-6.1c-3-0.6-5.2-3.2-5.2-6.3v-29.7C930.4,1592.1,934,1589.1,937.9,1589.8z M937.9,1647.8l32.8,6.3
	c3,0.6,5.2,3.2,5.2,6.2v29.5c0,4-3.6,7-7.5,6.3l-32.8-6.1c-3-0.6-5.2-3.2-5.2-6.3v-29.7C930.4,1650.1,934,1647.1,937.9,1647.8z
	 M937.9,1704.8l32.8,6.3c3,0.6,5.2,3.2,5.2,6.2v29.5c0,4-3.6,7-7.5,6.3l-32.8-6.1c-3-0.6-5.2-3.2-5.2-6.3v-29.7
	C930.4,1707.1,934,1704.1,937.9,1704.8z M990.4,1346.9l33.3,6.4c3,0.6,5.2,3.2,5.2,6.2v29.1c0,4-3.6,7-7.5,6.3l-33.3-6.2
	c-3-0.6-5.2-3.2-5.2-6.3v-29.3C982.9,1349.2,986.5,1346.2,990.4,1346.9z M982.9,1324.5v-29.3c0-4,3.6-7,7.6-6.2l33.3,6.4
	c3,0.6,5.2,3.2,5.2,6.2v29.1c0,4-3.6,7-7.5,6.3l-33.3-6.2C985,1330.2,982.9,1327.6,982.9,1324.5z M990.4,1404.9l33.3,6.4
	c3,0.6,5.2,3.2,5.2,6.2v29.1c0,4-3.6,7-7.5,6.3l-33.3-6.2c-3-0.6-5.2-3.2-5.2-6.3v-29.3C982.9,1407.2,986.5,1404.2,990.4,1404.9z
	 M990.4,1462.9l33.3,6.4c3,0.6,5.2,3.2,5.2,6.2v29.1c0,4-3.6,7-7.5,6.3l-33.3-6.2c-3-0.6-5.2-3.2-5.2-6.3v-29.3
	C982.9,1465.2,986.5,1462.2,990.4,1462.9z M990.4,1519.9l33.3,6.4c3,0.6,5.2,3.2,5.2,6.2v29.1c0,4-3.6,7-7.5,6.3l-33.3-6.2
	c-3-0.6-5.2-3.2-5.2-6.3v-29.3C982.9,1522.2,986.5,1519.2,990.4,1519.9z M990.4,1599.9l33.3,6.4c3,0.6,5.2,3.2,5.2,6.2v29.1
	c0,4-3.6,7-7.5,6.3l-33.3-6.2c-3-0.6-5.2-3.2-5.2-6.3v-29.3C982.9,1602.2,986.5,1599.2,990.4,1599.9z M990.4,1657.9l33.3,6.4
	c3,0.6,5.2,3.2,5.2,6.2v29.1c0,4-3.6,7-7.5,6.3l-33.3-6.2c-3-0.6-5.2-3.2-5.2-6.3v-29.3C982.9,1660.2,986.5,1657.2,990.4,1657.9z
	 M990.4,1714.9l33.3,6.4c3,0.6,5.2,3.2,5.2,6.2v29.1c0,4-3.6,7-7.5,6.3l-33.3-6.2c-3-0.6-5.2-3.2-5.2-6.3v-29.3
	C982.9,1717.2,986.5,1714.2,990.4,1714.9z M980.7,888.6c2,0.2,4.1,0.9,5.8,2c1.8,1.1,3.2,2.6,4.3,4.4c0.3,0.4,0.5,0.9,0.7,1.4
	l0.5,1.2l1.1,2.4l4.2,9.4l2.1,4.7l2.1,4.8c0.4,1,0.7,1.9,0.8,2.9c0.1,0.5,0.2,1,0.2,1.5l0.1,1.3l0.5,5.1c0.6,6.8,1.2,13.7,2,20.5
	l2.2,20.5l2.3,20.5c3.2,27.3,6.8,54.5,10.9,81.7c8.1,54.3,17.7,108.5,29,162.2c2.8,13.4,5.7,26.9,8.8,40.3l2.3,10.1
	c0.4,1.8,0.6,3.6,0.7,5.5c0.1,0.9,0.1,1.8,0.1,2.7l0,2.6l-0.1,20.6l-0.6,82.5l-2.2,330c0,27.7-3.8,55.4-11.1,82.2
	c-1.8,6.7-3.9,13.3-6.2,19.9c-2.3,6.5-4.8,13-7.6,19.4c-2.8,6.4-5.9,12.6-9.2,18.7c-3.4,6.1-7.1,12-11.3,17.6
	c-4.3,5.5-8.9,10.9-14.5,15.4c-0.7,0.6-1.4,1.1-2.1,1.7c-0.8,0.6-1.6,1.1-2.5,1.5c-1.8,0.9-3.7,1.4-5.7,1.6c-1,0.1-2,0.1-2.8,0
	l-2.6-0.1l-5.2-0.3c-13.8-0.9-27.6-3.1-40.9-6.8c-1.7-0.5-3.3-0.9-5-1.4l-4.9-1.6l-2.5-0.8l-2.4-0.9l-4.8-1.8
	c-6.4-2.7-12.7-5.5-18.7-9c-12.1-6.7-23.2-15-33.4-24.2c20.9,17.9,45.8,31,72.4,37.3c13.3,3.2,26.9,5,40.5,5.5l5.1,0.1
	c1.7,0,3.5,0.2,4.9,0c1.5-0.2,2.9-0.6,4.2-1.3c0.6-0.3,1.3-0.7,1.8-1.2c0.6-0.5,1.2-1.1,1.9-1.6c5-4.3,9.3-9.6,13.3-15
	c7.9-10.9,14.5-22.9,20-35.3c2.8-6.2,5.2-12.6,7.5-19c2.2-6.4,4.3-12.9,6.1-19.5c7.2-26.3,11-53.6,10.9-80.9l2.2-330l0.6-82.5
	l0.1-20.6l0-2.6c0-0.8,0-1.6-0.1-2.4c-0.1-1.6-0.3-3.2-0.6-4.8l-2.2-10c-3-13.4-5.9-26.9-8.8-40.3c-11.3-53.9-21-108.1-29.1-162.5
	c-4-27.2-7.7-54.5-10.9-81.8l-2.3-20.5l-2.2-20.5c-0.7-6.8-1.3-13.7-2-20.5l-0.5-5.1l-0.1-1.3c0-0.4-0.1-0.7-0.1-1
	c-0.1-0.7-0.3-1.4-0.6-2l-2-4.6l-2-4.7l-4-9.5l-1-2.4l-0.5-1.2c-0.1-0.3-0.3-0.6-0.4-0.9c-0.7-1.2-1.6-2.2-2.7-3
	c-1.1-0.8-2.5-1.3-3.8-1.4l-5.1-0.5l-10.3-1.1l-41-4.3l-41-4.3l-41-4.4l41.1,3l41.1,3.1l41.1,3.1l10.3,0.8L980.7,888.6z"/>
</svg>
