<svg xmlns="http://www.w3.org/2000/svg" viewBox="0 0 2748.93 2582.64"><defs><style>.cls-1{fill:#ffda00;}.cls-2{fill:#1faaff;}.cls-3{fill:#ff5777;}</style></defs><g id="fill"><path class="cls-1" d="M1463.91,1228.69c19.22,1.52,37.37,3,56.16-15.84,19.21-15.82,31.48-40.11,35.48-70.23l.25-1.88-1.69.86c-26.27,13.23-48.33,16.37-67.45,9.6-20.45-7.25-37.32-26.16-51.57-57.82l-.26-.59H1182.72l.35,1.26c7.91,29.28,1.74,53.28-4.23,76.48-5,19.51-10.2,39.68-6.73,62.53,4.46,29.48,21.51,54.73,46.78,69.28a87.44,87.44,0,0,0,43.33,12,70.5,70.5,0,0,0,25.93-4.77c37.06-14.62,66.62-15.85,93-3.85l1.53.7-.12-1.68c-1.33-18.66-.85-37.08,19.23-57.17C1423.84,1225.52,1444.21,1227.13,1463.91,1228.69Z" transform="translate(-125.53 -208.68)"/><path class="cls-1" d="M1823.73,1820.12c-79.68,23.72-106.18,1.24-139.74-27.23-16.34-13.86-34.87-29.58-62-42.4l-.17-.08h-.19c-53.77-3.4-98,11.95-124.41,43.23-23.9,28.26-31.08,66.45-20.78,110.43a19.59,19.59,0,0,0,19.17,15.14h392.51a19.71,19.71,0,0,0,19.69-19.69v-45.3l-.18-.25C1888.19,1825.68,1852.92,1811.44,1823.73,1820.12Z" transform="translate(-125.53 -208.68)"/><path class="cls-1" d="M1897,1352.66a140,140,0,0,0-31.24-11.06l-1.11-.25-.11,1.13c-2.41,26.1-14.76,40.49-27.83,55.72-13.69,15.94-27.84,32.42-33.63,63.74-6,32.72,5.79,64.92,31.65,86.14,15,12.32,32.73,18.82,49.67,18.82a61,61,0,0,0,22.71-4.26l.63-.25v-192.2A19.54,19.54,0,0,0,1897,1352.66Z" transform="translate(-125.53 -208.68)"/><path class="cls-1" d="M1243.16,1620c-81.78,0-148.31,66.53-148.31,148.3a147.41,147.41,0,0,0,10.5,54.9l.6,1.49,1.08-1.2c17.84-20,46.61-32.18,77.08-45.12l5.37-2.28-.1-.76a54.22,54.22,0,0,1,85.85-50.75l.69.51.61-.6c22.47-22.27,35.37-50,39.42-84.7l.08-.66-.58-.32A147.85,147.85,0,0,0,1243.16,1620Z" transform="translate(-125.53 -208.68)"/><path class="cls-1" d="M1387.65,1734.92l-1.25,1a129.1,129.1,0,0,0-44.56,64,142.7,142.7,0,0,0-2,78.94l.41,1.58,1.23-1.08A148.31,148.31,0,0,0,1388,1736.46Z" transform="translate(-125.53 -208.68)"/><path class="cls-1" d="M1834.1,1222.43l.89-.52a148.41,148.41,0,0,0,71.27-106.8,19.42,19.42,0,0,0-4.58-15.49,19.77,19.77,0,0,0-14.94-6.83H1812.9l-.21.72c-14.47,48.81,3.39,96.56,20.91,128Z" transform="translate(-125.53 -208.68)"/><path class="cls-1" d="M1510.32,1365.55l.33-.51a39.84,39.84,0,0,1,57.1-10l.52.39.56-.32c19.29-10.66,32.37-28.31,38.88-52.46l.17-.65-.54-.41a106.41,106.41,0,0,0-160.65,42.31l-.37.82.78.45c19.35,11.09,41.58,18.32,62.62,20.37Z" transform="translate(-125.53 -208.68)"/><path class="cls-1" d="M2236.08,2035.44a4.49,4.49,0,0,0-5.69.12l-33.69,28.15c-12.32,10.28-21.23,20.72-27.23,31.9a19.87,19.87,0,1,1-29.53-25.32,19.2,19.2,0,0,1,5.13-2.79c13.83-5.09,24.23-10.76,32.74-17.86l37.92-31.66a4.49,4.49,0,0,0,1.14-5.55,4.54,4.54,0,0,0-5.2-2.39L2117,2033.93a37.57,37.57,0,0,0-22.77,16.53l-28.36,45.08a20.36,20.36,0,0,0,1.6,24l36.56,43.81a20.41,20.41,0,0,0,23.37,5.86l49.44-19.87a37.77,37.77,0,0,0,20.31-19.48l40.39-88.93A4.51,4.51,0,0,0,2236.08,2035.44Z" transform="translate(-125.53 -208.68)"/><circle class="cls-2" cx="1528.16" cy="1420.46" r="68.43"/><path class="cls-2" d="M1649.08,1403.13a106.23,106.23,0,0,0-41.74-101.59l-1.18-.87-.38,1.41c-6.36,23.6-19.12,40.84-37.91,51.23l-1.36.75,1.24.93a39.88,39.88,0,1,1-63.24,25.91,39.24,39.24,0,0,1,6.14-15.85l.92-1.39-1.66-.16c-20.76-2-42.71-9.16-61.81-20.11l-1-.55-.45,1a106.38,106.38,0,1,0,202.39,59.28Z" transform="translate(-125.53 -208.68)"/><path class="cls-2" d="M1416.18,1542.83a39.3,39.3,0,0,0-11.94,77.68,40.08,40.08,0,0,0,6.06.46,39.3,39.3,0,0,0,5.88-78.14Z" transform="translate(-125.53 -208.68)"/><path class="cls-2" d="M1315.45,1638.77l-1.31-.73-.17,1.49c-4,34.26-16.71,61.57-38.85,83.51l-.83.82.94.69a54.23,54.23,0,1,1-85.85,50.76l-.17-1.31-5.88,2.5c-30.68,13-59.66,25.34-77.79,45.63l-.42.46.23.57a148.35,148.35,0,0,0,236.09,56.15l.45-.41-.15-.59c-13.84-53.73,4.17-109,45.88-140.85l.5-.38-.13-.62A148.19,148.19,0,0,0,1315.45,1638.77Z" transform="translate(-125.53 -208.68)"/><path class="cls-2" d="M1906.4,1560.78c-22,8.78-48.94,3.32-70.35-14.24-25.3-20.75-36.87-52.25-31-84.25,5.68-30.78,19.65-47.06,33.16-62.8,13.29-15.48,25.84-30.1,28.32-56.82l.08-.88-.86-.19A124.28,124.28,0,0,0,1731.62,1399a113.53,113.53,0,0,0-16,68.1c2.24,26.26,13.38,51.12,33.13,73.89,42.12,48.55,52.18,107.82,26.24,154.67-24.41,44.07-74.28,66-130.17,57.28-8.12-1.25-15.94-2.11-23.23-2.56l-5.2-.32,4.72,2.22c26.92,12.7,45.34,28.33,61.59,42.12,24,20.36,44.44,37.71,82.77,37.71,16,0,35.08-3,58.83-10.09,28.38-8.43,62.72,5.47,81.65,33l1.83,2.66V1560.24Z" transform="translate(-125.53 -208.68)"/><path class="cls-2" d="M1114.77,1553.5c44.42-2.26,76.89-13.58,99.27-34.61,18.86-18.86,17.42-37,15.89-56.22-1.57-19.69-3.19-40.05,18.82-62.07s42.41-20.42,62.11-18.85c19.21,1.52,37.35,3,56.21-15.9s17.42-37,15.9-56.26c-.13-1.62-.26-3.25-.38-4.89l0-.59-.54-.25c-26.94-12.24-57-11-94.6,3.81-20.53,8.1-45.77,5.46-67.52-7.06-24.74-14.25-41.44-39-45.8-67.85-3.41-22.44,1.49-41.52,6.69-61.73,6-23.46,12.27-47.72,4.22-77.5l-.2-.74h-71.11a19.7,19.7,0,0,0-19.68,19.68v421.34a19.74,19.74,0,0,0,19.75,19.71Z" transform="translate(-125.53 -208.68)"/><path class="cls-2" d="M1486,1153.08a62.35,62.35,0,0,0,21,3.5c14.48,0,30.53-4.41,48-13.2l.47-.24.07-.52a171.88,171.88,0,0,0,1.22-31.25,19.56,19.56,0,0,0-19.65-18.58H1432.64l.63,1.41C1447.75,1126.38,1465,1145.64,1486,1153.08Z" transform="translate(-125.53 -208.68)"/><path class="cls-2" d="M1660.69,1206.2a149.14,149.14,0,0,0,174.3,15.71l.83-.5-.47-.85c-17.34-31.12-35-78.33-20.75-126.48l.39-1.29H1630.56a19.57,19.57,0,0,0-14.83,6.79,19.84,19.84,0,0,0-4.62,15.87A149,149,0,0,0,1660.69,1206.2Z" transform="translate(-125.53 -208.68)"/><path class="cls-2" d="M924.27,1486.79,776.15,1384.13a7.21,7.21,0,0,0-7.65-.48,7.35,7.35,0,0,0-4.07,6.55l-2.09,180.19a7.36,7.36,0,0,0,3.57,6.44,7.48,7.48,0,0,0,7.33.28l26.9-13.89A22.94,22.94,0,0,1,831,1573l23.53,45.61a7.4,7.4,0,0,0,10,3.2L907,1599.94a7.47,7.47,0,0,0,3.2-10.07l-23.54-45.59a22.91,22.91,0,0,1,9.85-30.84l26.9-13.89a7.39,7.39,0,0,0,4-6.21V1493A7.4,7.4,0,0,0,924.27,1486.79Z" transform="translate(-125.53 -208.68)"/><path class="cls-3" d="M2779.09,2018.53l-353-235.33a14.62,14.62,0,1,0-16.21,24.33l353,235.3a14.61,14.61,0,1,0,16.21-24.3Z" transform="translate(-125.53 -208.68)"/><path class="cls-3" d="M2719.34,2108.14l-353-235.33a14.62,14.62,0,1,0-16.21,24.33l353,235.3a14.57,14.57,0,0,0,8.09,2.46,14.89,14.89,0,0,0,2.89-.28,14.6,14.6,0,0,0,5.23-26.48Z" transform="translate(-125.53 -208.68)"/><path class="cls-3" d="M2537.86,1406.06v-68a25.94,25.94,0,0,0-25.91-25.91H2023.1a25.94,25.94,0,0,0-25.91,25.91v68A25.94,25.94,0,0,0,2023.1,1432H2512A25.94,25.94,0,0,0,2537.86,1406.06Zm-48.18-35.28a19.24,19.24,0,1,1-19.24-19.24A19.26,19.26,0,0,1,2489.68,1370.78Zm-81.23,0a19.24,19.24,0,1,1-19.24-19.24A19.26,19.26,0,0,1,2408.45,1370.78Zm-81.21,0a19.24,19.24,0,1,1-19.24-19.24A19.26,19.26,0,0,1,2327.24,1370.78Z" transform="translate(-125.53 -208.68)"/><path class="cls-3" d="M1246,739.27h-758a25.94,25.94,0,0,0-25.91,25.9v63.68a25.94,25.94,0,0,0,25.91,25.91h633.32a111,111,0,0,0,76.7-30.6l59.34-56.3a16.56,16.56,0,0,0-11.4-28.59ZM710.47,794.85a19.24,19.24,0,1,1-19.24-19.24A19.26,19.26,0,0,1,710.47,794.85Zm-81.2,0A19.24,19.24,0,1,1,610,775.61,19.27,19.27,0,0,1,629.27,794.85Zm-81.24,0a19.24,19.24,0,1,1-19.24-19.24A19.26,19.26,0,0,1,548,794.85Z" transform="translate(-125.53 -208.68)"/><path class="cls-3" d="M588.11,1293.5a7.1,7.1,0,0,0-7.87,1.57l-103.81,103.8a13.42,13.42,0,0,0,0,19l103.81,103.81a7.08,7.08,0,0,0,5.06,2.14,7.17,7.17,0,0,0,2.81-.57,7.08,7.08,0,0,0,4.45-6.66V1300.17A7.1,7.1,0,0,0,588.11,1293.5Z" transform="translate(-125.53 -208.68)"/><path class="cls-3" d="M441.18,1382.67a13.42,13.42,0,0,0,19,0L564,1278.86a7.22,7.22,0,0,0-5.1-12.33H342.47a7.22,7.22,0,0,0-5.1,12.33Z" transform="translate(-125.53 -208.68)"/><path class="cls-3" d="M460.22,1434.09a13.5,13.5,0,0,0-19,0L337.37,1537.93a7.22,7.22,0,0,0,5.1,12.33H558.93a7.22,7.22,0,0,0,5.1-12.33Z" transform="translate(-125.53 -208.68)"/><path class="cls-3" d="M428.93,1408.36a13.32,13.32,0,0,0-4-9.49h0L321.16,1295.07a7.21,7.21,0,0,0-12.32,5.1v216.46a7.08,7.08,0,0,0,4.45,6.66,7.17,7.17,0,0,0,2.81.57,7.08,7.08,0,0,0,5.06-2.14L425,1417.91A13.35,13.35,0,0,0,428.93,1408.36Z" transform="translate(-125.53 -208.68)"/></g><g id="outline"><path d="M2811.7,654.86a109.54,109.54,0,0,0-112.28-37.43l-46.92,12.05a420.94,420.94,0,0,1-232.93-6.79L1574.7,352.77a43.17,43.17,0,0,0-56.23,39.79c-1.53,51.41,16.32,87.93,49.41,117.23a6.19,6.19,0,0,1-4.76,10.77l-94.78-9.09a43.13,43.13,0,0,0-44.74,57.45c24,66.41,79.58,95.4,180.56,111a3.8,3.8,0,0,1-.06,7.51l-84.57,12.11c-13.86,2-26.41,10.15-32.79,22.6a41.63,41.63,0,0,0,2.49,42.69c31.57,46.65,78.16,64.55,150.24,64.55,22.07,0,46.52-1.68,73.67-4.73,5-.56,6.78,6.38,2.14,8.25l-32.44,13.2c-14.7,6-25.53,19.18-27.52,34.9a43,43,0,0,0,17.15,40.2c21.83,16.29,45.83,23.85,74.36,23.85,52.68,0,120.87-25.72,219.54-69.59a10.61,10.61,0,0,0,2.18-.78c2-1,4-1.9,6-2.86q18.72-8.36,39-17.59a788.11,788.11,0,0,1,116.42-38.49c47.89-11.74,124.46-22.11,144.29,38.64a13.39,13.39,0,0,0,.78,1.75,92.94,92.94,0,0,1-1,28.61c-7.41,40.88-44,60.5-86.28,83.26-58,31.17-123.83,66.51-118.22,167.14a52.85,52.85,0,0,0,69.31,47.64L2797.1,967.69c39.51-12.89,68.62-47.61,74.16-88.43C2882.88,793.85,2862.86,718.34,2811.7,654.86Zm-692.51,73.7v-.1s.09,0,.12.07ZM2846.6,875.9c-4.29,31.41-26.74,58.16-57.22,68.12l-336,109.79a10.32,10.32,0,0,1-13.05-6.48q-1-3-2.15-5.88c-1.68-4.2-3.51-8.25-5.54-12.17s-4.11-7.6-6.69-11.65a9.41,9.41,0,0,0-13.8-2.21,9.52,9.52,0,0,0-2.42,11.46l.09.22c1.46,3.11,3,6.85,4.33,10.4s2.43,7.19,3.36,10.8c.25,1,.44,2,.65,3-.21,6.76-2.42,13.2-9.71,15.66-10.43,3.58-16.22-5.23-20-13.39a8.45,8.45,0,0,1-.31-.93q-3.14-8-6.92-15.63c-2.58-5.11-5.17-9.87-8.37-15a9.39,9.39,0,0,0-14.92-1.27,9.27,9.27,0,0,0-1.37,10.4l.19.34c2.09,4.17,4.17,9.06,6,13.7s3.36,9.49,4.7,14.29c.28,1,.47,2,.72,3,.21,2.08.46,4.2.68,6.41.72,8-2.37,12.15-8.16,15.23l-48.26,15.75c-6,1.84-12.11,4-18.31,5.2-10.68,2-16.75-2-24.16-9.09a4.61,4.61,0,0,0-2-1.18,53.16,53.16,0,0,0-11.15-6.7,77.14,77.14,0,0,0-20.43-5.63,112.94,112.94,0,0,0-19.83-1,192.38,192.38,0,0,0-37.52,5.33c-6,1.37-12,3.05-17.9,4.92s-11.62,3.86-17.66,6.26a9.42,9.42,0,0,0-3.8,14.63,9.26,9.26,0,0,0,10.12,2.93l.28-.07a260.38,260.38,0,0,1,33.23-8.15,172.73,172.73,0,0,1,33.44-3,77.76,77.76,0,0,1,23.91,3.76c3.05,1.47,5.51,3.52,5.14,6.79-.56,4.77-5.17,7.66-9.34,9.84L2132,1158.84a29,29,0,0,1-25-3,28.25,28.25,0,0,1-12.55-22.08C2089.67,1049,2143,1020.31,2199.52,990c19.12-10.27,38.52-20.7,55.15-33.53a265.42,265.42,0,0,0,39.82-27.34c12.7-10.62,24.41-23,33.63-37.49l3.42-5.45c1-1.9,2-3.83,3-5.76l2.9-5.79,2.33-6.07c.75-2,1.53-4,2.21-6.1l1.59-6.33c.53-2.08,1.09-4.2,1.53-6.28l.87-6.45c2.27-17.16.28-34.31-3.93-50.38a9.38,9.38,0,0,0-14-5.6,9.23,9.23,0,0,0-4.2,9.65l.06.28c2.68,14.29,3.18,28.68.72,42.38a111.37,111.37,0,0,1-5,12.57c-2.34,4.92-5.36,10.12-11.34,9-5.26-1-7.41-6.16-8.72-11.14-6.29-42.66-38-75.67-87.77-104.78a12.13,12.13,0,0,0-4.52-2.58c-33.87-19.25-75.69-36.81-123.33-54.4a11.34,11.34,0,0,0-1.12-.43c-37.61-13.86-78.81-27.78-122.55-42.54-41-13.82-83.32-28.11-127.94-44-13.39-4.8-26.44-9.38-39.11-13.86-58.94-20.8-109.17-38.52-148.77-58-.31-.18-.59-.31-.91-.46-65.38-32.39-101.63-69.81-100.16-134.55.12-6,2.64-11.83,7.47-15.35a18.15,18.15,0,0,1,10.71-3.55,18.84,18.84,0,0,1,5.58.88l94.18,30.1c.31.13.63.22.94.38,3.14,1.34,9.59,3.42,11.21,6.82,4.33,9-10.46,13-16.32,14.51-1.43.18-2.86.34-4.3.46a139.82,139.82,0,0,1-32.53-1.65c-5.48-.87-10.93-2.11-16.38-3.48s-11-3.12-15.79-4.86l-.43-.16a9.33,9.33,0,0,0-11.87,5.36,9.63,9.63,0,0,0,5,12,158,158,0,0,0,17.1,7.19,167.48,167.48,0,0,0,18.06,5.35,145.9,145.9,0,0,0,38.11,4.27,116,116,0,0,0,19.77-2.21,99.68,99.68,0,0,0,19.4-6.38,79.87,79.87,0,0,0,15.32-9.1,30.87,30.87,0,0,1,27.93-4.48l58.6,18.71a6.9,6.9,0,0,1,3.89,9.94c-.25.4-.47.84-.72,1.27-1.83,3.4-3.61,6.88-5.29,10.37s-3.27,7-4.86,10.87a9.34,9.34,0,0,0,6,12.52,9.5,9.5,0,0,0,10.81-4.46l.06-.15c1.62-2.74,3.61-5.89,5.54-8.81s4-5.86,6.14-8.69l.09-.13a22.21,22.21,0,0,1,24.57-7.94L1992,512.25a6.7,6.7,0,0,1,3.58,10.06l-.13.22q-3.69,5.6-6.88,11.58a113.52,113.52,0,0,0-5.39,11.61,9.34,9.34,0,0,0,4.92,12,9.67,9.67,0,0,0,12.09-4.33l.09-.18a99,99,0,0,1,5.79-9c2.15-3,4.42-5.92,6.85-8.69.72-.87,1.49-1.71,2.24-2.55a21.67,21.67,0,0,1,22.61-6.1l1.43.43a12.2,12.2,0,0,1,6.41,18.47l-.06.15q-4.86,7.15-9,14.73a150.14,150.14,0,0,0-7.16,14.88,9.38,9.38,0,0,0,6.23,12.61,9.56,9.56,0,0,0,10.77-4.92l.09-.15a133,133,0,0,1,7.6-12.33c2.8-4,5.79-8,9-11.8,1.62-2,3.3-3.9,5-5.76a27.49,27.49,0,0,1,28.56-7.54L2412,646.42a445.6,445.6,0,0,0,246.69,7.16l46.93-12a84.61,84.61,0,0,1,86.68,28.93C2839,728.43,2857.25,797.56,2846.6,875.9Z" transform="translate(-125.53 -208.68)"/><path d="M2814,2013.1l-238.42-158.95a31.11,31.11,0,0,1-13.85-25.91V1300.73a12.46,12.46,0,0,0-12.46-12.46H2023.1a24.91,24.91,0,0,1-24.91-24.91V1014.27a12.45,12.45,0,0,0-12.45-12.46H1353.66a24.9,24.9,0,0,1-24.91-24.91V727.81c0-.28-.06-.56-.09-.87,0-.47-.06-.94-.12-1.4s-.22-.75-.32-1.12-.21-.81-.37-1.22a10.63,10.63,0,0,0-.56-1.12c-.19-.34-.34-.68-.56-1a11.25,11.25,0,0,0-.87-1.12c-.19-.22-.31-.46-.53-.68,0-.06-.06-.06-.13-.13a10.62,10.62,0,0,0-1.12-1c-.25-.19-.49-.44-.74-.62s-.72-.41-1.09-.63a11.22,11.22,0,0,0-1-.53c-.31-.15-.69-.21-1-.34a10.38,10.38,0,0,0-1.31-.4c-.31-.07-.62-.07-.93-.13a12.63,12.63,0,0,0-1.52-.12.32.32,0,0,0-.16,0H450.7a12.44,12.44,0,0,0-12.45,12.45v489.9a24.9,24.9,0,0,1-24.91,24.91H297.23a11.54,11.54,0,0,0-2.28.25,6.94,6.94,0,0,0-1.09.31c-.43.13-.84.22-1.24.38s-.78.4-1.18.62-.66.31-1,.53a11.31,11.31,0,0,0-1.74,1.43.38.38,0,0,0-.16.13.3.3,0,0,0-.12.15,12.89,12.89,0,0,0-1.44,1.75,7.23,7.23,0,0,0-.53,1c-.21.38-.43.75-.62,1.15s-.25.85-.4,1.31a10,10,0,0,0-.28,1,12.59,12.59,0,0,0-.25,2.46v306.63a12.29,12.29,0,0,0,.25,2.43,7.74,7.74,0,0,0,.28,1c.15.43.25.87.4,1.31s.41.78.62,1.15.32.68.53,1a11.65,11.65,0,0,0,1.56,1.86v0a15.93,15.93,0,0,0,1.9,1.56c.31.19.65.34,1,.53s.77.44,1.18.59a8.7,8.7,0,0,0,1.28.41c.34.09.68.25,1,.31a13.68,13.68,0,0,0,2.46.25h116a24.9,24.9,0,0,1,24.91,24.91v100.19a12.45,12.45,0,0,0,12.45,12.46H976.91a24.91,24.91,0,0,1,24.91,24.91v249.09a12.45,12.45,0,0,0,12.45,12.46h632.08a24.9,24.9,0,0,1,24.91,24.91v249.09a8,8,0,0,0,.09.84c0,.5.06,1,.13,1.43s.21.75.31,1.12.21.81.37,1.22a8,8,0,0,0,.56,1.09,7.69,7.69,0,0,0,.56,1.06c.25.4.56.74.84,1.12.19.22.34.46.56.68,0,.06.1.06.13.13a11.2,11.2,0,0,0,1.34,1.12c.18.15.37.34.56.5a14.87,14.87,0,0,0,2.14,1.18l.57.15a12.54,12.54,0,0,0,1.8.57,12.34,12.34,0,0,0,2.34.21c.06,0,.09,0,.15,0h865.6a12.45,12.45,0,0,0,12.46-12.45v-182a12.45,12.45,0,0,1,19.36-10.37l130.43,86.93a12.32,12.32,0,0,0,6.92,2.12,12.45,12.45,0,0,0,10.37-5.57l59.72-89.58,28.92-43.41A12.42,12.42,0,0,0,2814,2013.1Zm-815.85-675a24.91,24.91,0,0,1,24.91-24.91H2512a24.91,24.91,0,0,1,24.91,24.91v68A24.91,24.91,0,0,1,2512,1431H2023.1a24.91,24.91,0,0,1-24.91-24.91Zm-1535-572.92a24.9,24.9,0,0,1,24.91-24.9h758c14.08,0,20.93,17.18,10.71,26.87l-59.34,56.29a110.49,110.49,0,0,1-76,30.33H488.06a24.91,24.91,0,0,1-24.91-24.91ZM342.47,1267.53H558.93a6.22,6.22,0,0,1,4.39,10.62L459.51,1382a12.42,12.42,0,0,1-17.62,0L338.08,1278.15A6.22,6.22,0,0,1,342.47,1267.53Zm238.47,28.24a6.22,6.22,0,0,1,10.62,4.39v216.47a6.22,6.22,0,0,1-10.62,4.39L477.13,1417.21a12.45,12.45,0,0,1,0-17.63Zm-271.1,220.86V1300.16a6.22,6.22,0,0,1,10.62-4.39l103.8,103.81a12.43,12.43,0,0,1,0,17.63L320.46,1521A6.22,6.22,0,0,1,309.84,1516.63Zm32.63,32.63a6.22,6.22,0,0,1-4.39-10.62L441.89,1434.8a12.47,12.47,0,0,1,17.62,0l103.81,103.84a6.22,6.22,0,0,1-4.39,10.62Zm663.24-544c-.06,0-.06.06-.12.12-.35.35-.66.75-1,1.12s-.43.5-.62.75a9.24,9.24,0,0,0-.62,1.15,5.39,5.39,0,0,0-.53,1,10.71,10.71,0,0,0-.38,1.09c-.12.4-.28.81-.37,1.21s-.06.66-.13,1a12.47,12.47,0,0,0-.12,1.49.3.3,0,0,0,0,.16v647.89a24.63,24.63,0,0,1-24.66,24.66H488.06a24.91,24.91,0,0,1-24.91-24.91v-63.86A23.91,23.91,0,0,1,487,1574.17H604a13.68,13.68,0,0,0,2.46-.25c.34-.06.68-.22,1-.31a8.7,8.7,0,0,0,1.28-.41c.41-.15.78-.4,1.18-.59s.66-.34,1-.53a15.93,15.93,0,0,0,1.9-1.56v0a11.65,11.65,0,0,0,1.56-1.86c.21-.32.34-.66.52-1s.44-.75.63-1.15.25-.88.4-1.31a7.74,7.74,0,0,0,.28-1,12.29,12.29,0,0,0,.25-2.43V1255.08a12.59,12.59,0,0,0-.25-2.46,10,10,0,0,0-.28-1c-.12-.43-.25-.9-.4-1.31s-.41-.77-.63-1.15a6.23,6.23,0,0,0-.52-1,12.89,12.89,0,0,0-1.44-1.75.3.3,0,0,0-.12-.15.46.46,0,0,0-.16-.13,11.31,11.31,0,0,0-1.74-1.43c-.31-.22-.65-.34-1-.53s-.77-.43-1.18-.62-.81-.25-1.24-.38a6.94,6.94,0,0,0-1.09-.31,11.54,11.54,0,0,0-2.28-.25H489.37a26.21,26.21,0,0,1-26.22-26.21V903.58a24.9,24.9,0,0,1,24.91-24.91h613.15c13.67,0,20.33,16.69,10.43,26.09Zm45.93,968a24.91,24.91,0,0,1-24.91-24.91V1051.63a24.91,24.91,0,0,1,24.91-24.91h896.73a24.9,24.9,0,0,1,24.91,24.91v896.74a24.9,24.9,0,0,1-24.91,24.91Zm1485.22,261.55a24.9,24.9,0,0,1-24.91,24.9H1754c-14.08,0-20.93-17.18-10.71-26.87l251-238.1c.06,0,.06-.09.13-.12.34-.35.62-.72.93-1.09s.47-.5.65-.78a10.36,10.36,0,0,0,.59-1.09,8.81,8.81,0,0,0,.57-1c.15-.34.21-.68.34-1a10.34,10.34,0,0,0,.4-1.27c.06-.31.06-.63.13-.94a12.8,12.8,0,0,0,.12-1.52.3.3,0,0,0,0-.16V1480.79a24.93,24.93,0,0,1,24.91-24.91H2512a24.93,24.93,0,0,1,24.91,24.91v324.26a12.44,12.44,0,0,1-19.37,10.33l-99.82-66.54a12.7,12.7,0,0,0-2-1l-.43-.19a13.9,13.9,0,0,0-2-.59c-.15,0-.31,0-.46-.07a7,7,0,0,0-.78-.12l-169.57-17h-.56a12.44,12.44,0,0,0-10,4.14,11.6,11.6,0,0,0-1,1.37,10.11,10.11,0,0,0-.88,1.46,1.62,1.62,0,0,1-.06.22,14.11,14.11,0,0,0-.56,1.37,3.29,3.29,0,0,1-.12.44c-.1.4-.22.78-.28,1.18,0,.25-.07.5-.1.75a8.31,8.31,0,0,0-.09.9,5.49,5.49,0,0,0,0,1,5.14,5.14,0,0,0,0,.68,6.24,6.24,0,0,0,.19,1.09c0,.19,0,.38.06.56.09.38.22.75.34,1.12.06.16.1.35.16.5a7.39,7.39,0,0,0,.5,1.12l.18.41,0,0v0l.19.34,80.68,149.58a3.79,3.79,0,0,1,.25.35,11.82,11.82,0,0,0,1.18,1.65,4.85,4.85,0,0,0,.5.62,12.47,12.47,0,0,0,2.15,1.84L2523,2041.09a31.14,31.14,0,0,1,13.86,25.91Zm-155.53-453.95-9.87,14.79-30.8,46.21s0,0,0,0l-9.84,14.79a8.2,8.2,0,0,1-14-.65l-13.32-24.72a22.88,22.88,0,0,1,1.09-23.61l21.48-32.25a23,23,0,0,1,21.39-10.09l27.93,2.8A8.21,8.21,0,0,1,2381.33,1780.88Zm341.26,347a13.63,13.63,0,0,1-18.9,3.77l-353-235.3a13.63,13.63,0,0,1,7.57-25,13.49,13.49,0,0,1,7.53,2.3l353,235.33A13.63,13.63,0,0,1,2722.59,2127.84Zm30.79-46.24-1.9,2.87a13.59,13.59,0,0,1-18.87,3.76l-353-235.33a13.63,13.63,0,0,1-3.8-18.87l1.9-2.86a13.66,13.66,0,0,1,18.9-3.77l353,235.33A13.61,13.61,0,0,1,2753.38,2081.6Zm28.93-43.37a13.6,13.6,0,0,1-18.87,3.77l-353-235.3a13.62,13.62,0,1,1,15.1-22.67l353,235.33A13.6,13.6,0,0,1,2782.31,2038.23Z" transform="translate(-125.53 -208.68)"/><path d="M2780.59,765c-1.49-3.68-3.2-7.29-4.79-10.9-.84-1.81-1.56-3.64-2.49-5.39l-2.93-5.2c-7.32-14.07-17.59-26.4-28.55-37.58a9.34,9.34,0,0,0-14.42,11.74l.44.65c7.88,11.8,15.82,23.29,21.48,36.09l2.31,4.67c.78,1.56,1.31,3.24,2,4.86l3.86,9.68c2.12,6.63,4.42,13.2,6,20a237.84,237.84,0,0,1,6.73,41.54l.56,10.62c0,3.52.15,7.07.12,10.61s-.12,7.07-.28,10.59-.4,7.19-.68,10.25l-.07.71a9.34,9.34,0,0,0,18.34,3.21c1.12-4.24,1.93-7.91,2.59-11.83s1.18-7.76,1.65-11.65.59-7.78.9-11.71c.16-3.89.19-7.81.25-11.7a202.67,202.67,0,0,0-6-46.68C2786,779.87,2783.09,772.46,2780.59,765Z" transform="translate(-125.53 -208.68)"/><circle cx="2470.44" cy="1370.78" r="20.24" transform="translate(-340.18 283.23) rotate(-10.9)"/><path d="M2398.42,772.37l-3.14-6.79c-1.18-2.18-2.34-4.36-3.64-6.48s-2.65-4.2-4.15-6.22a63.9,63.9,0,0,0-5-6.11,9.33,9.33,0,0,0-15.53,9.9l.49,1.19,2.28,5.35c.84,1.87,1.55,3.83,2.3,5.73,1.5,3.86,2.83,7.76,4,11.65a134.86,134.86,0,0,1,5.2,23.72c.71,4,.62,8,1,12-.15,4,.07,8-.43,12-.38,8.06-2.34,15.94-4.08,24.19l-.19.87a9.37,9.37,0,0,0,17.47,6.26c4.55-8.75,8.31-18.18,9.9-28.18,1.15-4.92,1.31-10,1.71-15a112,112,0,0,0-.74-15.11A103.64,103.64,0,0,0,2398.42,772.37Z" transform="translate(-125.53 -208.68)"/><circle cx="2389.21" cy="1370.78" r="20.24" transform="translate(-158.47 2473.82) rotate(-58.28)"/><path d="M2089,1663.59a82.5,82.5,0,0,0,36.36,11,84.33,84.33,0,0,0,34.75-5.38c7.26-1.62,12.92-.72,20.46,3.33.56.31,1.12.59,1.68.87a71.38,71.38,0,0,0,28.09,9.75,90.18,90.18,0,0,0,36.4-3.58c6.53-1.19,13.1-3,19.18.56,1,.53,1.86,1.09,2.74,1.62.53.4,1,.81,1.58,1.18,11.59,8.13,26,10.8,38.89,9.15a66.66,66.66,0,0,0,34.28-15.22,9.36,9.36,0,0,0-10.61-15.32l-.25.12c-8.13,4.58-16.94,7.38-25.47,7.66a37.54,37.54,0,0,1-17.66-3.45,15.2,15.2,0,0,1-2.83-3c-1.21-1.81-.56-3.74.75-5.64a133.77,133.77,0,0,0,18.93-19A138.89,138.89,0,0,0,2325,1608c4.77-10.86,8.63-22.1,10-35.06a54.74,54.74,0,0,0-1.84-21.14,44.1,44.1,0,0,0-2.37-5.79,34,34,0,0,0-3.83-5.64,27,27,0,0,0-12-8.4,28.91,28.91,0,0,0-7.1-1.59c-1.19-.1-2.31-.06-3.46-.06a15.2,15.2,0,0,0-3.3.25c-1.09.15-2.15.31-3.21.52l-2.92.85a40,40,0,0,0-5.48,2.11,55.64,55.64,0,0,0-16.6,12.58c-8.87,9.69-14.67,20.71-18.9,31.92a147,147,0,0,0-8.19,34.4,103,103,0,0,0,.59,30,12.73,12.73,0,0,1-1.12,6.54c-1.52,2.64-4.23,4.11-7.1,5.14a64,64,0,0,1-24.53,2.24,42.63,42.63,0,0,1-6.35-1.37c-1.13-.38-2.25-.78-3.34-1.25-2.18-.87-5-2.15-6.25-4.23-1.56-2.49-.63-5.2.9-7.57a125.37,125.37,0,0,0,16.78-23l2.24-3.83,2-3.92c1.28-2.62,2.62-5.23,3.87-7.88l3.26-8.06,1.62-4,1.37-4a195.16,195.16,0,0,0,8.69-33.47c1.87-11.61,2.71-23.82.22-36.86l-.44-2.43-.71-2.46c-.53-1.65-1-3.3-1.59-5l-2.21-5a47.53,47.53,0,0,0-2.93-4.92,29,29,0,0,0-3.77-4.7,25.06,25.06,0,0,0-4.7-4.26,26.55,26.55,0,0,0-5.63-3.46,27.25,27.25,0,0,0-6.32-2.3c-8.91-2.25-17.81-.38-24.6,2.92a55.83,55.83,0,0,0-16.85,12.92c-8.9,10-14.35,21.4-18.24,32.82a153.44,153.44,0,0,0-7,34.75,202.64,202.64,0,0,0,0,34.75,124.75,124.75,0,0,0,8,34.44,21.23,21.23,0,0,1,.41,2.24c.9,6.69-6.42,9.06-11.9,10.43a56.7,56.7,0,0,1-38.29-6.66c-15.51-8.78-26.28-25-30.67-43.16a112,112,0,0,1-3.21-28.55c0-9.84,1.59-19.77,3.21-29.89l.09-.56a9.36,9.36,0,0,0-18-4.67c-3.92,10.71-7.07,22-8.22,33.69a118.41,118.41,0,0,0,1.81,35.74C2051.84,1627.88,2066.76,1650.83,2089,1663.59Zm181.77-47.76a120.62,120.62,0,0,1,6.88-28.37,89.9,89.9,0,0,1,6-12.76,64.45,64.45,0,0,1,7.82-10.71,30.18,30.18,0,0,1,9-6.92c2.92-1.34,5.32-1.46,5.88-1a1.58,1.58,0,0,1,1,.77c.25.13.4.69.68,1,.19.53.47,1.06.69,1.71a30.38,30.38,0,0,1,.65,10.9,73.66,73.66,0,0,1-2.83,13.3c-.75,2.27-1.5,4.57-2.37,6.82l-2.77,6.69a114.45,114.45,0,0,1-15.32,24.57,120,120,0,0,1-9.93,10.62,3.61,3.61,0,0,1-6-2.59A85.56,85.56,0,0,1,2270.76,1615.83Zm-100.48-47.2a130.12,130.12,0,0,1,5.61-28.59c3-8.93,7.22-17.34,12.7-23.51a29.35,29.35,0,0,1,8.53-6.75c2.84-1.4,5.17-1.62,6.82-1.19s3.27,1.5,5,4a19.4,19.4,0,0,1,1.21,2c.34.81.68,1.62,1.09,2.4s.53,1.87.84,2.77l.44,1.4.28,1.53c1.62,8.22,1.24,17.9-.31,27.52a171,171,0,0,1-7.48,29.08l-1.21,3.65-1.4,3.45-2.77,7-3.24,6.66-1.65,3.33-1.87,3.15a93.09,93.09,0,0,1-6.48,10c-4.23,3.74-10.37,7.48-12.79,0a107.64,107.64,0,0,1-3.18-18A177.14,177.14,0,0,1,2170.28,1568.63Z" transform="translate(-125.53 -208.68)"/><circle cx="2182.47" cy="1162.1" r="20.24"/><path d="M2288.29,1976.7a12.45,12.45,0,0,0-6-6.13h0l-.4-.19h0a12.24,12.24,0,0,0-8.07-.62l-181.8,45.8a12.46,12.46,0,0,0-7.51,5.45l-50.22,79.8-30.36,25.35a12.46,12.46,0,0,0-1.59,17.53l66.35,79.46a12.61,12.61,0,0,0,8.44,4.42c.38,0,.75,0,1.12,0a12.29,12.29,0,0,0,8-2.89l30.36-25.35,87.5-35.18a12.35,12.35,0,0,0,6.66-6.42l77.5-170.66a4.89,4.89,0,0,0,.37-.9,12.13,12.13,0,0,0,.66-6.35A13.63,13.63,0,0,0,2288.29,1976.7Zm-51.72,63.86-40.38,88.93a36.93,36.93,0,0,1-19.77,19L2127,2168.32a19.48,19.48,0,0,1-22.23-5.58l-36.55-43.81a19.43,19.43,0,0,1-1.53-22.85L2095,2051a36.68,36.68,0,0,1,22.17-16.09l94.71-23.88a3.57,3.57,0,0,1,3.18,6.19l-37.92,31.67c-9.56,8-20.77,13.39-32.45,17.68a20.39,20.39,0,0,0-5.39,2.93,21.21,21.21,0,0,0-3.64,29.83,20.93,20.93,0,0,0,34.66-3.24c6.6-12.3,16.28-22.67,27-31.6l33.69-28.15A3.58,3.58,0,0,1,2236.57,2040.56Z" transform="translate(-125.53 -208.68)"/><path d="M2233.24,2449.64a35.43,35.43,0,0,0-9.06-2.56,53,53,0,0,0-9.06-.53,71,71,0,0,0-9.06.75,43.8,43.8,0,0,0-9.06,2.34,10.08,10.08,0,0,0,0,18.68,44.55,44.55,0,0,0,9.06,2.37,69.16,69.16,0,0,0,9.06.74,55.13,55.13,0,0,0,9.06-.56,32.79,32.79,0,0,0,9.06-2.55,10.17,10.17,0,0,0,5.05-5A10.29,10.29,0,0,0,2233.24,2449.64Z" transform="translate(-125.53 -208.68)"/><path d="M2175.3,1911.13c-3.8-.78-7.63-1.31-11.46-1.71-3.74-.66-7.57-1.62-10.15-4.52-3.21-3.64-4.08-8.9-5.08-13.48a3.92,3.92,0,0,0-.28-.9c-.34-2.68-.74-5.39-1.3-8.07a9.56,9.56,0,0,0-8.47-7.66,9.89,9.89,0,0,0-10.31,8.22c-.5,2.52-.87,5.08-1.18,7.6a3.24,3.24,0,0,0-.28.81c-1,4.58-1.87,9.84-5.08,13.48-2.89,3.27-7.35,4.08-11.52,4.77q-5.33.55-10.65,1.58a9.53,9.53,0,0,0-7.63,8.5c-.46,5,3.3,9.34,8.19,10.31,2.56.47,5.11.84,7.63,1.18a5.77,5.77,0,0,0,1.15.35c4.52.71,9.62,1.33,12.83,5s4.11,8.9,5.08,13.48a3.42,3.42,0,0,0,.21.59c.35,2.71.78,5.42,1.34,8.13a9.58,9.58,0,0,0,8.5,7.56c4.95.47,9.31-3.24,10.31-8.09.5-2.49.9-5,1.25-7.48a5.79,5.79,0,0,0,.21-.71c1-4.58,1.87-9.84,5.08-13.48s8.34-4.24,12.86-5a6.5,6.5,0,0,0,.81-.25c2.83-.38,5.66-.81,8.5-1.4a9.51,9.51,0,0,0,7.53-8.47A9.87,9.87,0,0,0,2175.3,1911.13Z" transform="translate(-125.53 -208.68)"/><path d="M2177.45,2487.87a10.13,10.13,0,0,0-5-5,10.31,10.31,0,0,0-13.67,5,35.4,35.4,0,0,0-2.55,9.06,56.22,56.22,0,0,0-.53,9.06,67.51,67.51,0,0,0,.75,9.07,44.41,44.41,0,0,0,2.33,9.06,10.07,10.07,0,0,0,18.69,0,44.52,44.52,0,0,0,2.36-9.06,67.51,67.51,0,0,0,.75-9.07,52,52,0,0,0-.56-9.06A33.14,33.14,0,0,0,2177.45,2487.87Z" transform="translate(-125.53 -208.68)"/><path d="M2177.45,2393.84a10.2,10.2,0,0,0-5-5,10.3,10.3,0,0,0-13.67,5,35.4,35.4,0,0,0-2.55,9.06,56.79,56.79,0,0,0-.53,9.09,67.5,67.5,0,0,0,.75,9.06,44.41,44.41,0,0,0,2.33,9.06,10.17,10.17,0,0,0,5.61,5.58,10,10,0,0,0,13.08-5.58,44.52,44.52,0,0,0,2.36-9.06,67.5,67.5,0,0,0,.75-9.06,52.54,52.54,0,0,0-.56-9.09A33.14,33.14,0,0,0,2177.45,2393.84Z" transform="translate(-125.53 -208.68)"/><path d="M2161.78,2697.14a51.63,51.63,0,0,0-11.52-2.55,89.34,89.34,0,0,0-11.55-.56,109.18,109.18,0,0,0-11.52.75,69.94,69.94,0,0,0-11.52,2.36,9.8,9.8,0,0,0,0,18.68,68.84,68.84,0,0,0,11.52,2.34,109.18,109.18,0,0,0,11.52.75,84.27,84.27,0,0,0,11.55-.53,55.23,55.23,0,0,0,11.52-2.56,10.14,10.14,0,0,0,5.95-6A9.94,9.94,0,0,0,2161.78,2697.14Z" transform="translate(-125.53 -208.68)"/><path d="M2121.12,2471.43a55.13,55.13,0,0,0,9.06-.56,32.79,32.79,0,0,0,9.06-2.55,10.26,10.26,0,0,0,0-18.68,35.43,35.43,0,0,0-9.06-2.56,53,53,0,0,0-9.06-.53,71,71,0,0,0-9.06.75,43.58,43.58,0,0,0-9.09,2.34,10.07,10.07,0,0,0,0,18.68,44.31,44.31,0,0,0,9.09,2.37A69.16,69.16,0,0,0,2121.12,2471.43Z" transform="translate(-125.53 -208.68)"/><path d="M2093.1,2738.37a9.94,9.94,0,0,0-18.68,0,55.23,55.23,0,0,0-2.56,11.52,91.13,91.13,0,0,0-.53,11.55,109.18,109.18,0,0,0,.75,11.52,68.84,68.84,0,0,0,2.34,11.52,10,10,0,0,0,6.38,6.38,9.79,9.79,0,0,0,12.3-6.38,69.94,69.94,0,0,0,2.36-11.52,109.18,109.18,0,0,0,.75-11.52,84.3,84.3,0,0,0-.56-11.55A51.63,51.63,0,0,0,2093.1,2738.37Z" transform="translate(-125.53 -208.68)"/><path d="M2093.1,2628.46a9.94,9.94,0,0,0-18.68,0,55.08,55.08,0,0,0-2.56,11.55,90.4,90.4,0,0,0-.53,11.52,109.18,109.18,0,0,0,.75,11.52,68.24,68.24,0,0,0,2.34,11.52,10,10,0,0,0,6.38,6.38,9.79,9.79,0,0,0,12.3-6.38,69.31,69.31,0,0,0,2.36-11.52,109.18,109.18,0,0,0,.75-11.52,83.63,83.63,0,0,0-.56-11.52A51.51,51.51,0,0,0,2093.1,2628.46Z" transform="translate(-125.53 -208.68)"/><path d="M2051.87,2697.14a51.63,51.63,0,0,0-11.52-2.55,89.34,89.34,0,0,0-11.55-.56,109.18,109.18,0,0,0-11.52.75,69.94,69.94,0,0,0-11.52,2.36,9.8,9.8,0,0,0,0,18.68,68.84,68.84,0,0,0,11.52,2.34,109.18,109.18,0,0,0,11.52.75,84.27,84.27,0,0,0,11.55-.53,55.23,55.23,0,0,0,11.52-2.56,10.06,10.06,0,0,0,6-6A9.94,9.94,0,0,0,2051.87,2697.14Z" transform="translate(-125.53 -208.68)"/><path d="M1950.58,2525.77a84,84,0,0,0-15-2.56c-5-.4-10-.62-15-.53s-10,.28-15,.78a102.92,102.92,0,0,0-14.94,2.31,9.6,9.6,0,0,0,0,18.68,107.26,107.26,0,0,0,14.94,2.33c5,.47,10,.69,15,.78s10-.15,15-.56a84,84,0,0,0,15-2.55,9.7,9.7,0,0,0,0-18.68Z" transform="translate(-125.53 -208.68)"/><path d="M1861.84,2449.67a107.81,107.81,0,0,0-2.33-15,9.61,9.61,0,0,0-18.68,0,107.84,107.84,0,0,0-2.34,15c-.46,5-.68,10-.74,15s.12,10,.52,15a84.61,84.61,0,0,0,2.56,15,9.7,9.7,0,0,0,18.68,0,83.68,83.68,0,0,0,2.55-15,147.15,147.15,0,0,0,.53-15C1862.53,2459.66,1862.31,2454.65,1861.84,2449.67Z" transform="translate(-125.53 -208.68)"/><path d="M1861.84,2590.62a107,107,0,0,0-2.33-15,9.6,9.6,0,0,0-18.68,0,107,107,0,0,0-2.34,15c-.46,5-.68,10-.74,15a149.76,149.76,0,0,0,.52,15,83.58,83.58,0,0,0,2.56,15,9.84,9.84,0,0,0,6.72,6.76,9.72,9.72,0,0,0,12-6.76,82.68,82.68,0,0,0,2.55-15,146.83,146.83,0,0,0,.53-15C1862.53,2600.59,1862.31,2595.61,1861.84,2590.62Z" transform="translate(-125.53 -208.68)"/><path d="M1809.63,2525.77a83.67,83.67,0,0,0-15-2.56c-5-.4-10-.62-15-.53s-10,.28-15,.78a103.45,103.45,0,0,0-15,2.31,9.6,9.6,0,0,0,0,18.68,107.81,107.81,0,0,0,15,2.33c5,.47,10,.69,15,.78s10-.15,15-.56a83.64,83.64,0,0,0,15-2.55,9.69,9.69,0,0,0,0-18.68Z" transform="translate(-125.53 -208.68)"/><path d="M1395.17,2319.92c-4.17-.62-4.11-6.66.06-7.28l86.56-12.4a42.08,42.08,0,0,0,29-65.1c-41.63-61.47-109.32-73-227.17-59.44a3.87,3.87,0,0,1-1.93-7.41l35.49-14.42c14.67-6,25.53-19.18,27.53-34.9a43,43,0,0,0-17.16-40.2c-62.12-46.36-141.73-21.89-293.9,45.74a10.61,10.61,0,0,0-2.18.78c-2,1-4.08,1.93-6.1,2.92q-18.69,8.33-38.8,17.5a786.61,786.61,0,0,1-116.48,38.52c-47.89,11.74-124.45,22.11-144.29-38.64a13.39,13.39,0,0,0-.78-1.75,92.94,92.94,0,0,1,1-28.61c7.41-40.88,44-60.5,86.28-83.26,58-31.17,123.83-66.51,118.22-167.14a53,53,0,0,0-23.1-41.07,52.38,52.38,0,0,0-46.21-6.57L202.91,2032.31c-39.51,12.89-68.62,47.61-74.16,88.43-11.65,85.41,8.4,160.92,59.56,224.4a109.6,109.6,0,0,0,112.28,37.43l46.92-12.05a421.25,421.25,0,0,1,232.94,6.79l844.86,269.92a44.1,44.1,0,0,0,13.23,2.06,43.08,43.08,0,0,0,24.82-7.94c11.61-8.26,18-22,18.24-36.22.94-50.59-17.18-86.65-50.25-115.64a5.83,5.83,0,0,1,4.42-10.18l95.9,9.22a39.44,39.44,0,0,0,4.21.22,43.16,43.16,0,0,0,40.54-57.64C1552.32,2364.51,1496.58,2335.55,1395.17,2319.92Zm-514.35-48.48v.1s-.09,0-.15-.07S880.76,2271.44,880.82,2271.44Zm575.84,334.72a18.81,18.81,0,0,1-7,14.29,18,18,0,0,1-16.78,3l-109-34.81c-.28-.12-.53-.28-.81-.4-3.18-1.59-7.85-4.58-4.52-8.41a17.88,17.88,0,0,1,3.37-2.89,87.83,87.83,0,0,1,25.25-5.73,139.82,139.82,0,0,1,32.53,1.65c5.48.87,10.93,2.11,16.38,3.48s11,3.12,15.79,4.86l.43.16a9.31,9.31,0,0,0,11.87-5.36,9.63,9.63,0,0,0-5-12,158,158,0,0,0-17.1-7.19,167.48,167.48,0,0,0-18.06-5.35,145.9,145.9,0,0,0-38.11-4.27,116,116,0,0,0-19.77,2.21,99.68,99.68,0,0,0-19.4,6.38,83.23,83.23,0,0,0-9.4,5.05c-1.18.59-2.4,1.15-3.64,1.77-12.8,6.35-23.67,6.85-36.68,4.67l-50.72-16.19a8.06,8.06,0,0,1-4.64-11.55l.06-.09c1.84-3.4,3.61-6.88,5.29-10.37s3.27-6.95,4.86-10.87a9.34,9.34,0,0,0-6-12.52,9.5,9.5,0,0,0-10.81,4.46l-.06.15c-1.62,2.74-3.61,5.89-5.54,8.81s-4,5.86-6.13,8.69c-1.19,1.59-2.37,3.15-3.62,4.7a14.94,14.94,0,0,1-16.31,4.86L1008,2487.75a6.73,6.73,0,0,1-3.49-10.18s0-.07,0-.1a127.67,127.67,0,0,0,6.63-11.14,118.56,118.56,0,0,0,5.64-12,9.34,9.34,0,0,0-4.92-12,9.66,9.66,0,0,0-12.08,4.33l-.1.18a99,99,0,0,1-5.79,9c-2.15,3-4.42,5.92-6.85,8.69l-1.87,2.15a22.44,22.44,0,0,1-23.47,6.35l-.94-.28a12.2,12.2,0,0,1-6.41-18.47l.09-.15c3.21-4.77,6.23-9.68,9-14.73a148,148,0,0,0,7.16-14.88,9.37,9.37,0,0,0-6.23-12.61,9.55,9.55,0,0,0-10.77,4.92l-.09.15a133,133,0,0,1-7.6,12.33c-2.8,4.05-5.79,8-9,11.8-2.61,3.18-5.35,6.2-8.22,9.13a21.45,21.45,0,0,1-21.76,5.32L588,2353.58a445.68,445.68,0,0,0-246.69-7.19l-46.93,12.05a84.6,84.6,0,0,1-86.68-28.93c-46.67-57.94-65-127.07-54.3-205.41,4.29-31.41,26.74-58.16,57.23-68.12l336.15-109.85a13.94,13.94,0,0,1,6.41.71c4.17,1.59,6,5.89,7.85,9.65.25.69.5,1.41.78,2.06,1.68,4.2,3.51,8.25,5.54,12.17s4.11,7.6,6.69,11.65a9.41,9.41,0,0,0,13.8,2.21,9.54,9.54,0,0,0,2.43-11.46l-.1-.22c-1.46-3.11-3.05-6.85-4.33-10.4-1-2.77-1.86-5.6-2.67-8.4-1-6.11-1.5-11.62,2.61-16.82,5.73-7.25,15.76-8.75,20.86.19,1.72,3,3.21,5.85,4.83,8.53.16.44.28.9.44,1.34q3.12,8,6.91,15.63c2.58,5.11,5.17,9.87,8.37,15a9.38,9.38,0,0,0,14.92,1.27,9.27,9.27,0,0,0,1.37-10.4l-.19-.34c-2.08-4.17-4.17-9.06-6-13.7s-3.36-9.49-4.7-14.29c-.5-1.77-.87-3.58-1.28-5.35-.37-6.14-3-11.81,3.18-16.23,1.53-1.09,3.15-2.08,4.83-3.05l53.52-17.47a5.09,5.09,0,0,0,1.9-.18c5.32-1.65,10.93-3.52,16.56-3.55,7.6,0,12.43,4.08,18.1,8.53.93.75,1.86,1.4,2.8,2a54,54,0,0,0,11,6.64,77.52,77.52,0,0,0,20.43,5.63,112.94,112.94,0,0,0,19.83,1,192.38,192.38,0,0,0,37.52-5.33c6-1.37,12-3.05,17.9-4.92s11.62-3.86,17.66-6.26a9.42,9.42,0,0,0,3.8-14.63,9.26,9.26,0,0,0-10.12-2.93l-.28.07a260.38,260.38,0,0,1-33.23,8.15,172.73,172.73,0,0,1-33.44,3,84.83,84.83,0,0,1-18.34-2.14c-3.76-1.13-8-2.28-9.68-6.14-2.12-4.92,2.18-8.69,6.2-11.43l107.39-35.09a27.66,27.66,0,0,1,24.38,3.49,28.16,28.16,0,0,1,12.3,21.89C910.34,1951,857,1979.69,800.49,2010c-19.12,10.27-38.52,20.7-55.11,33.53a263.74,263.74,0,0,0-39.86,27.34c-12.7,10.62-24.41,23-33.63,37.49l-3.42,5.45c-1,1.9-2,3.83-3,5.76l-2.89,5.79-2.34,6.07c-.75,2-1.52,4.05-2.21,6.1l-1.59,6.33c-.53,2.08-1.09,4.2-1.52,6.29l-.88,6.44c-2.27,17.16-.28,34.31,3.93,50.38a9.38,9.38,0,0,0,14,5.6,9.23,9.23,0,0,0,4.2-9.65l-.06-.28c-2.71-14.41-3.18-29-.68-42.75a93.51,93.51,0,0,1,4.11-15,22.43,22.43,0,0,1,4.92-6.38c3.23-2.86,5.41-4,9.68-2.58,4.08,1.3,4.54,2.58,5.45,6.25,3.45,46.4,35.87,81.61,88.61,112.44a12.56,12.56,0,0,0,4.61,2.65c33.85,19.21,75.6,36.74,123.15,54.33.4.12.77.31,1.21.43,37.61,13.89,78.81,27.78,122.59,42.54,40.94,13.82,83.29,28.11,127.91,44q20.07,7.2,39.1,13.86c58.94,20.8,109.17,38.52,148.77,58,.32.18.6.31.91.47C1422.13,2503.41,1458.38,2541,1456.66,2606.16Z" transform="translate(-125.53 -208.68)"/><path d="M1190.38,474.23a83.82,83.82,0,0,0,14.95,2.56c5,.4,10,.62,15,.53s10-.28,15-.78a103.45,103.45,0,0,0,15-2.31,9.6,9.6,0,0,0,0-18.68,107.81,107.81,0,0,0-15-2.33c-5-.47-10-.69-15-.78s-10,.15-15,.56a83.8,83.8,0,0,0-14.95,2.55,9.69,9.69,0,0,0,0,18.68Z" transform="translate(-125.53 -208.68)"/><path d="M1138.17,409.38a107,107,0,0,0,2.33,15,9.6,9.6,0,0,0,18.68,0,107,107,0,0,0,2.34-15c.47-5,.68-10,.75-14.95s-.13-10-.53-15a83.58,83.58,0,0,0-2.56-15,9.84,9.84,0,0,0-6.72-6.76,9.72,9.72,0,0,0-12,6.76,83.56,83.56,0,0,0-2.55,15,149.76,149.76,0,0,0-.53,15C1137.48,399.41,1137.7,404.39,1138.17,409.38Z" transform="translate(-125.53 -208.68)"/><path d="M1138.17,550.33a107.81,107.81,0,0,0,2.33,15,9.61,9.61,0,0,0,18.68,0,107.84,107.84,0,0,0,2.34-15c.47-5,.68-10,.75-15s-.13-10-.53-15a84.61,84.61,0,0,0-2.56-15,9.7,9.7,0,0,0-18.68,0,84.58,84.58,0,0,0-2.55,15c-.41,5-.62,10-.53,15S1137.7,545.35,1138.17,550.33Z" transform="translate(-125.53 -208.68)"/><path d="M1049.43,474.23a84,84,0,0,0,15,2.56c5,.4,10,.62,15,.53s10-.28,15-.78a102.92,102.92,0,0,0,14.94-2.31,9.6,9.6,0,0,0,0-18.68,107.26,107.26,0,0,0-14.94-2.33c-5-.47-10-.69-15-.78s-10,.15-15,.56a84,84,0,0,0-15,2.55,9.7,9.7,0,0,0,0,18.68Z" transform="translate(-125.53 -208.68)"/><path d="M948.14,302.86a51.63,51.63,0,0,0,11.52,2.55,89.34,89.34,0,0,0,11.55.56,109.18,109.18,0,0,0,11.52-.75,69.94,69.94,0,0,0,11.52-2.36,9.79,9.79,0,0,0,0-18.68,68.84,68.84,0,0,0-11.52-2.34,109.18,109.18,0,0,0-11.52-.75,84.27,84.27,0,0,0-11.55.53,55.23,55.23,0,0,0-11.52,2.56,10.06,10.06,0,0,0-5.95,6A9.94,9.94,0,0,0,948.14,302.86Z" transform="translate(-125.53 -208.68)"/><path d="M937.12,1466.62,789.78,1364.49a31.38,31.38,0,0,0-36.15.28c-8.38,6-13,15.85-13.11,26.1l-2.09,179.22a31.18,31.18,0,0,0,16.23,27.83c9.37,5.2,20.83,4.92,30.35,0l16.91-8.71a9.29,9.29,0,0,1,12.55,4l18.81,36.43a31.37,31.37,0,0,0,42.25,13.48L918,1621.18a31.37,31.37,0,0,0,13.48-42.28l-18.81-36.4a9.34,9.34,0,0,1,4-12.55l17.72-9.15a31.18,31.18,0,0,0,17-27.37C951.6,1482.72,945.93,1472.72,937.12,1466.62Zm-10.65,26.72a6.29,6.29,0,0,1-3.49,5.32l-26.9,13.89a23.92,23.92,0,0,0-10.28,32.19l23.54,45.59a6.45,6.45,0,0,1-2.77,8.72L864.1,1621a6.43,6.43,0,0,1-8.69-2.78l-23.54-45.61a23.86,23.86,0,0,0-32.19-10.24l-26.9,13.88a6.49,6.49,0,0,1-9.44-5.82l2.09-180.19a6.5,6.5,0,0,1,10.15-5.26L923.7,1487.61a6.36,6.36,0,0,1,2.77,5.35Z" transform="translate(-125.53 -208.68)"/><path d="M906.91,371.54a9.94,9.94,0,0,0,18.69,0A55,55,0,0,0,928.15,360a88.6,88.6,0,0,0,.53-11.52,109.18,109.18,0,0,0-.75-11.52,69.21,69.21,0,0,0-2.33-11.52,10,10,0,0,0-6.39-6.38,9.79,9.79,0,0,0-12.3,6.38A69.31,69.31,0,0,0,904.55,337a109.18,109.18,0,0,0-.75,11.52,83.63,83.63,0,0,0,.56,11.52A51.51,51.51,0,0,0,906.91,371.54Z" transform="translate(-125.53 -208.68)"/><path d="M906.91,261.63a9.94,9.94,0,0,0,18.69,0,55.2,55.2,0,0,0,2.55-11.52,89.31,89.31,0,0,0,.53-11.55,109.18,109.18,0,0,0-.75-11.52,69.82,69.82,0,0,0-2.33-11.52,10,10,0,0,0-6.39-6.38,9.79,9.79,0,0,0-12.3,6.38A69.94,69.94,0,0,0,904.55,227a109.18,109.18,0,0,0-.75,11.52,84.3,84.3,0,0,0,.56,11.55A51.63,51.63,0,0,0,906.91,261.63Z" transform="translate(-125.53 -208.68)"/><path d="M717.7,1153.29a9.31,9.31,0,0,1,9.34,9.31v12.86a12.45,12.45,0,0,0,12.45,12.46h36.59a12.45,12.45,0,0,0,12.45-12.46V1162a9.33,9.33,0,0,1,9.25-9.34q8.55-.09,17.09-.22c28.77-.31,57.58-.87,86.35-3.27a9.34,9.34,0,0,0,8.59-9.62,9.65,9.65,0,0,0-9-9.09c-28.64-2.37-57.29-2.9-85.94-3.21-5.69-.09-11.39-.15-17.09-.22a9.33,9.33,0,0,1-9.25-9.34v-13.48a12.44,12.44,0,0,0-12.45-12.45H739.49A12.44,12.44,0,0,0,727,1104.19v12.86a9.31,9.31,0,0,1-9.34,9.31c-25.19,0-50.35,0-75.51.25-28.77.25-57.54.06-86.34,3.86a9.47,9.47,0,0,0-8.16,10,9.67,9.67,0,0,0,8.47,8.75c28.68,3.77,57.35,3.58,86,3.83C667.35,1153.32,692.51,1153.32,717.7,1153.29Z" transform="translate(-125.53 -208.68)"/><path d="M556.28,1031.42c20.15,1.5,40.3,2.28,60.41,2.71a9.36,9.36,0,0,1,9.15,9.34v14.2a12.46,12.46,0,0,0,12.46,12.46h36.58a12.46,12.46,0,0,0,12.46-12.46v-13.29a9.31,9.31,0,0,1,9.37-9.34l31.82.12q43.2,0,86.34-.53c28.77-.28,57.58-.84,86.35-3.24a9.36,9.36,0,0,0,8.59-9.65,9.65,9.65,0,0,0-9-9.06c-28.64-2.37-57.29-2.93-85.94-3.21s-57.54-.5-86.34-.53l-31.82.13a9.31,9.31,0,0,1-9.37-9.34v-13.3A12.45,12.45,0,0,0,674.88,974H638.3a12.45,12.45,0,0,0-12.46,12.45v14.2a9.34,9.34,0,0,1-9.15,9.34c-20.27.44-40.54,1.22-60.84,2.74a9.39,9.39,0,0,0-8.66,9.68A9.69,9.69,0,0,0,556.28,1031.42Z" transform="translate(-125.53 -208.68)"/><path d="M878.89,528.57a55.13,55.13,0,0,0-9.06.56,32.79,32.79,0,0,0-9.06,2.55,10.27,10.27,0,0,0,0,18.68,35.43,35.43,0,0,0,9.06,2.56,53,53,0,0,0,9.06.53,71,71,0,0,0,9.06-.75,43.58,43.58,0,0,0,9.09-2.34,10.07,10.07,0,0,0,0-18.68,44.31,44.31,0,0,0-9.09-2.37A69.16,69.16,0,0,0,878.89,528.57Z" transform="translate(-125.53 -208.68)"/><path d="M838.23,302.86a51.63,51.63,0,0,0,11.52,2.55,89.34,89.34,0,0,0,11.55.56,109.18,109.18,0,0,0,11.52-.75,69.94,69.94,0,0,0,11.52-2.36,9.8,9.8,0,0,0,0-18.68,68.84,68.84,0,0,0-11.52-2.34,109.18,109.18,0,0,0-11.52-.75,84.27,84.27,0,0,0-11.55.53,55.23,55.23,0,0,0-11.52,2.56,10.14,10.14,0,0,0-6,6A9.94,9.94,0,0,0,838.23,302.86Z" transform="translate(-125.53 -208.68)"/><path d="M822.57,606.16a10.13,10.13,0,0,0,5,5,10.3,10.3,0,0,0,13.67-5,35.4,35.4,0,0,0,2.55-9.06,55.65,55.65,0,0,0,.53-9.09,67.5,67.5,0,0,0-.75-9.06,44.41,44.41,0,0,0-2.33-9.06,10.17,10.17,0,0,0-5.61-5.58,10,10,0,0,0-13.07,5.58A43.91,43.91,0,0,0,820.2,579a67.5,67.5,0,0,0-.75,9.06,52.54,52.54,0,0,0,.56,9.09A32.82,32.82,0,0,0,822.57,606.16Z" transform="translate(-125.53 -208.68)"/><path d="M822.57,512.13a10.07,10.07,0,0,0,5,5,10.31,10.31,0,0,0,13.67-5,35.4,35.4,0,0,0,2.55-9.06,55.1,55.1,0,0,0,.53-9.06,67.51,67.51,0,0,0-.75-9.07,44.41,44.41,0,0,0-2.33-9.06,10.06,10.06,0,0,0-18.68,0,43.91,43.91,0,0,0-2.37,9.06,67.51,67.51,0,0,0-.75,9.07,52,52,0,0,0,.56,9.06A32.82,32.82,0,0,0,822.57,512.13Z" transform="translate(-125.53 -208.68)"/><path d="M766.77,550.36a35.43,35.43,0,0,0,9.06,2.56,53,53,0,0,0,9.06.53,71,71,0,0,0,9.06-.75,43.8,43.8,0,0,0,9.06-2.34,10.08,10.08,0,0,0,0-18.68,44.55,44.55,0,0,0-9.06-2.37,69.16,69.16,0,0,0-9.06-.74,55.13,55.13,0,0,0-9.06.56,32.79,32.79,0,0,0-9.06,2.55,10.17,10.17,0,0,0-5,5A10.3,10.3,0,0,0,766.77,550.36Z" transform="translate(-125.53 -208.68)"/><path d="M797.69,1288.4a10.29,10.29,0,0,0-14.48,1.08,35.28,35.28,0,0,0-4.64,7.32,55.18,55.18,0,0,0-3,7.79,44.36,44.36,0,0,0-1.71,8.15,31.06,31.06,0,0,0,.06,8.66,10.37,10.37,0,0,0,18,5.2,30.5,30.5,0,0,0,4.67-7.29,46.79,46.79,0,0,0,2.92-7.81,55,55,0,0,0,1.62-8.16,34.84,34.84,0,0,0,0-8.66A10.26,10.26,0,0,0,797.69,1288.4Z" transform="translate(-125.53 -208.68)"/><path d="M740.86,1336.81a9.75,9.75,0,0,0,8.47-10.93,63.47,63.47,0,0,0-3.05-12.54,103.7,103.7,0,0,0-4.7-11.81,124.58,124.58,0,0,0-6-11.24,70.72,70.72,0,0,0-7.44-10.52,9.75,9.75,0,0,0-17,7.78,72.82,72.82,0,0,0,3.14,12.52c1.34,4,2.9,8,4.61,11.83a115,115,0,0,0,5.89,11.27,63.42,63.42,0,0,0,7.53,10.5A9.8,9.8,0,0,0,740.86,1336.81Z" transform="translate(-125.53 -208.68)"/><path d="M715.61,1351.23a35.57,35.57,0,0,0-8.13-5,60.42,60.42,0,0,0-8.65-3.15,66.2,66.2,0,0,0-9-1.86,41.06,41.06,0,0,0-9.5-.25,10.39,10.39,0,0,0-6.79,3.73,10.14,10.14,0,0,0,1.59,14.23,42.43,42.43,0,0,0,8.16,4.86,69,69,0,0,0,8.63,3.21,58.45,58.45,0,0,0,9,2,35.84,35.84,0,0,0,9.5.15,10.17,10.17,0,0,0,5.2-17.93Z" transform="translate(-125.53 -208.68)"/><circle cx="565.7" cy="586.17" r="20.24"/><path d="M632.54,2242.14l-2.28-5.35c-.84-1.87-1.55-3.83-2.3-5.73-1.49-3.86-2.83-7.76-4.05-11.65a134.86,134.86,0,0,1-5.2-23.72c-.71-4-.62-8-1-12,.15-4-.07-8,.43-12,.38-8.06,2.34-15.94,4.08-24.19l.19-.87a9.37,9.37,0,0,0-17.47-6.26c-4.55,8.75-8.31,18.18-9.9,28.18-1.15,4.92-1.31,10-1.71,15a112.21,112.21,0,0,0,.74,15.11,103.64,103.64,0,0,0,7.51,29l3.14,6.76c1.19,2.21,2.34,4.39,3.65,6.51s2.64,4.2,4.14,6.22a65.47,65.47,0,0,0,5,6.11,9.34,9.34,0,0,0,15.54-9.9Z" transform="translate(-125.53 -208.68)"/><circle cx="484.49" cy="586.17" r="20.24"/><circle cx="403.26" cy="586.17" r="20.24"/><path d="M272.16,2281.72c-7.88-11.8-15.82-23.29-21.48-36.09l-2.31-4.67c-.77-1.56-1.3-3.24-2-4.86l-3.86-9.68c-2.12-6.63-4.42-13.2-6-20.05a236.89,236.89,0,0,1-6.72-41.54l-.56-10.62c0-3.52-.16-7.07-.13-10.61s.13-7.07.28-10.59.41-7.19.69-10.25l.06-.71a9.34,9.34,0,0,0-18.34-3.21c-1.12,4.24-1.93,7.91-2.59,11.83s-1.18,7.76-1.65,11.65-.59,7.78-.9,11.71c-.15,3.89-.19,7.81-.25,11.7a202.67,202.67,0,0,0,6,46.68c1.65,7.72,4.52,15.13,7,22.63,1.49,3.68,3.2,7.29,4.79,10.9.84,1.81,1.56,3.64,2.49,5.39l2.93,5.2c7.32,14.07,17.59,26.4,28.55,37.58a9.34,9.34,0,0,0,14.42-11.74Z" transform="translate(-125.53 -208.68)"/></g></svg>